<?xml version="1.0" standalone="no"?>
<!DOCTYPE svg PUBLIC "-//W3C//DTD SVG 1.1//EN" "http://www.w3.org/Graphics/SVG/1.1/DTD/svg11.dtd" >
<svg>
<metadata>
Created by FontForge 20090914 at Fri Aug  7 11:17:53 2020
 By www-data
Copyright &#194;&#169; 2016 by FontfabricLLC. All rights reserved.
</metadata>
<defs>
<font id="UniNeueBook-Italic" horiz-adv-x="513" >
  <font-face 
    font-family="Uni Neue Book"
    font-weight="400"
    font-style="italic"
    font-stretch="normal"
    units-per-em="1000"
    panose-1="0 0 0 0 0 0 0 0 0 0"
    ascent="750"
    descent="-250"
    x-height="514.001"
    cap-height="715"
    bbox="-215.999 -235 1054.97 952"
    underline-thickness="50"
    underline-position="-175"
    slope="-10"
    unicode-range="U+0020-U+25CA"
  />
<missing-glyph horiz-adv-x="226" 
 />
    <glyph glyph-name=".notdef" horiz-adv-x="226" 
 />
    <glyph glyph-name="space" unicode=" " horiz-adv-x="226" 
 />
    <glyph glyph-name="exclam" unicode="!" horiz-adv-x="221" 
d="M110 161h-33c-6 0 -8.33301 2.66699 -7 8l60 353l33 185c0.666992 5.33301 3.66699 8 9 8h39c5.33301 0 7.66602 -3 6.99902 -9l-33 -185l-65 -353c-1.33301 -4.66699 -4.66602 -7 -9.99902 -7zM110 31c-2 -11.333 -6.83301 -20.333 -14.5 -27s-17.167 -10 -28.5 -10
c-12 0 -21.167 4.16699 -27.5 12.5s-8.5 18.5 -6.5 30.5c4 24.667 18 37 42 37c12 0 21.333 -4.16699 28 -12.5s9 -18.5 7 -30.5z" />
    <glyph glyph-name="quotedbl" unicode="&#x22;" horiz-adv-x="281" 
d="M199 705l-51 -187c-0.666992 -4.66699 -3.66699 -7 -9 -7h-26c-6 0 -8.66699 3 -8 9l39 188c2 4.66699 5 7 9 7h39c6 0 8.33301 -3.33301 7 -10zM307 705l-51 -187c-0.666992 -4.66699 -3.33398 -7 -8.00098 -7h-27c-6 0 -8.66699 3 -8 9l40 188
c0.666992 4.66699 3.33398 7 8.00098 7h39c6 0 8.33301 -3.33301 7 -10z" />
    <glyph glyph-name="numbersign" unicode="#" horiz-adv-x="678" 
d="M107 0h-31.002c-6 -0 -8 3.33301 -6 10l93 207h-131c-7.33301 0 -9.66602 3 -6.99902 9l14 29c1.33301 4 4.33301 6 9 6h135l84 194h-131c-7.33301 0 -9.33301 3.33301 -6 10l13 28c2 4.66699 5 7 9 7h136l93 209c2.66699 4 6 6 10 6h31c6 0 8 -3.33301 6 -10l-92 -205
h168l94 209c1.33301 4 4.33301 6 9 6h32c6.66699 0 8.33398 -3.33301 5.00098 -10l-91 -205h128c3.33301 0 5.5 -1 6.5 -3s0.833008 -4.33301 -0.5 -7l-12 -29c-2.66699 -4 -6 -6 -10 -6h-132l-85 -194h129c6.66699 0 8.66699 -3 6 -9l-13 -29c-2 -4 -5.33301 -6 -10 -6
h-132l-94 -211c-2.66699 -4 -6 -6 -10 -6h-31c-6 -0 -8 3.33301 -6 10l93 207h-169l-94 -211c-2.66699 -4 -6 -6 -10 -6zM316.998 455l-86 -194h168l85 194h-167z" />
    <glyph glyph-name="dollar" unicode="$" horiz-adv-x="561" 
d="M559 644c4 -2.66699 4.33398 -6.33105 1.00098 -10.998l-25 -27c-2.66699 -4 -6.33398 -4.33301 -11.001 -1c-53.333 46.667 -114 70 -182 70c-48.667 0 -89.834 -10 -123.501 -30s-54.167 -51.333 -61.5 -94c-4 -23.333 -3 -44 3 -62s16.833 -33 32.5 -45
s32 -21.833 49 -29.5s38.167 -15.167 63.5 -22.5c31.333 -8.66699 58.666 -18.5 81.999 -29.5s45.5 -24.833 66.5 -41.5s35.833 -37.334 44.5 -62.001s10.334 -52.667 5.00098 -84c-10.667 -59.333 -38.5 -104.666 -83.5 -135.999s-100.833 -48 -167.5 -50l-14 -79
c0 -5.33301 -3 -8 -9 -8h-30c-6 0 -8.66699 3 -8 9l15 81c-64.667 5.33301 -126.334 36.333 -185.001 93c-4 4 -4.33301 8.33301 -1 13l23 25c3.33301 4 7.33301 4 12 0c57.333 -55.333 121 -83 191 -83c52.667 0 97.834 12.833 135.501 38.5s60.167 60.834 67.5 105.501
c7.33301 42.667 -3.66699 75.167 -33 97.5s-74 42.5 -134 60.5c-136.667 40.667 -196 113.667 -178 219c10 53.333 35.833 93.666 77.5 120.999s92.834 41.666 153.501 42.999l13 74c0 5.33301 3 8 9 8h30c6.66699 0 9 -3 7 -9l-13 -74
c62.667 -4.66699 122 -31.334 178 -80.001z" />
    <glyph glyph-name="percent" unicode="%" horiz-adv-x="745" 
d="M325 469c-6 -35.333 -22.1689 -63.834 -48.502 -85.501s-56.166 -32.5 -89.499 -32.5c-34 0 -60.5 11.667 -79.5 35s-25.5 52.333 -19.5 87l22 126c6 36.667 22.333 65.834 49 87.501s56.667 32.5 90 32.5c34.667 0 61.334 -11.667 80.001 -35s24.667 -53.333 18 -90z
M91.998 -0.000976562h-29.002c-8 0 -9.66699 3.33301 -5 10l608 698c2 2.66699 5.33301 4 10 4h28c8.66699 0 10.334 -3.33301 5.00098 -10l-607 -697c-1.33301 -3.33301 -4.66602 -5 -9.99902 -5zM126.996 467.999c-4.66699 -24 -0.833008 -43.166 11.5 -57.499
s29.5 -21.5 51.5 -21.5c24 0 44.833 7.66699 62.5 23s28.834 35.666 33.501 60.999l23 126c4.66699 25.333 1 45.5 -11 60.5s-29.667 22.5 -53 22.5c-24 0 -44.833 -8 -62.5 -24s-28.834 -37 -33.501 -63zM671.997 110c-6 -36 -22.168 -64.832 -48.501 -86.499
s-55.833 -32.5 -88.5 -32.5c-34.667 0 -61.5 11.667 -80.5 35s-25.5 52.666 -19.5 87.999l23 125c6 37.333 22.333 66.833 49 88.5s56.334 32.5 89.001 32.5c34 0 60.5 -11.833 79.5 -35.5s25.167 -53.5 18.5 -89.5zM473.996 109.001
c-4.66699 -24.667 -0.833008 -44.167 11.5 -58.5s30.166 -21.5 53.499 -21.5c22.667 0 42.834 7.83301 60.501 23.5s28.834 35.834 33.501 60.501l23 126c4.66699 25.333 1 45.666 -11 60.999s-29.667 23 -53 23c-24 0 -44.833 -8 -62.5 -24s-28.834 -37.333 -33.501 -64z
" />
    <glyph glyph-name="ampersand" unicode="&#x26;" horiz-adv-x="559" 
d="M385 86c-56 -64 -121.002 -96 -195.002 -96c-54.667 0 -97.334 19.167 -128.001 57.5s-41.334 83.833 -32.001 136.5c8 42.667 26.5 79.667 55.5 111s67.167 62.333 114.5 93c-39.333 76.667 -54.666 138.334 -45.999 185.001c8 43.333 28.5 79.666 61.5 108.999
s72.5 44 118.5 44c48 0 82.667 -17.167 104 -51.5s28.333 -71.5 21 -111.5c-3.33301 -20 -10.5 -39 -21.5 -57s-26.833 -35.5 -47.5 -52.5s-38.834 -30.667 -54.501 -41l-66.5 -42.5c30.667 -54.667 72.334 -121 125.001 -199c24.667 36.667 46.334 72.667 65.001 108
c2 4 5.66699 5 11 3l28 -15c5.33301 -3.33301 6.33301 -7 3 -11c-27.333 -50.667 -54 -93 -80 -127c22.667 -37.333 48.334 -77 77.001 -119c3.33301 -6.66699 1.33301 -10 -6 -10h-43c-4 0 -7 1.66699 -9 5c-15.333 24.667 -33.666 51.667 -54.999 81zM80.998 179
c-6 -38.667 1.49902 -71.333 22.499 -98s52.5 -40 94.5 -40c58.667 0 112.334 29.667 161.001 89c-56 85.333 -100.333 157 -133 215c-41.333 -26.667 -74.333 -53 -99 -79s-40 -55 -46 -87zM203.997 566.001c-6 -39.333 7.66699 -90 41 -152c27.333 16 47 28 59 36
s27.333 19.167 46 33.5s32.5 28 41.5 41s14.833 26.833 17.5 41.5c4.66699 27.333 0.666992 52.833 -12 76.5s-35.667 35.5 -69 35.5c-32 0 -59.333 -10.833 -82 -32.5s-36.667 -48.167 -42 -79.5z" />
    <glyph glyph-name="quotesingle" unicode="'" horiz-adv-x="172" 
d="M198 705l-49.999 -187c-0.666992 -4.66699 -3.33398 -7 -8.00098 -7h-27c-6 0 -8.66699 3 -8 9l39 188c0.666992 4.66699 3.66699 7 9 7h39c6 0 8 -3.33301 6 -10z" />
    <glyph glyph-name="parenleft" unicode="(" horiz-adv-x="256" 
d="M164 -117l-37 0.000976562c-4 0 -7.33301 2.33301 -10 7c-59.333 157.333 -75.333 313.666 -48 468.999c28 158 98.667 312.667 212 464c2.66699 3.33301 6 5 10 5h39c3.33301 0 5.5 -1 6.5 -3s0.5 -4.33301 -1.5 -7c-115.333 -154 -187 -309 -215 -465
c-13.333 -78 -15.5 -156.833 -6.5 -236.5s27.833 -154.167 56.5 -223.5c2 -6.66699 0 -10 -6 -10z" />
    <glyph glyph-name="parenright" unicode=")" horiz-adv-x="256" 
d="M127 829l37 -0.000976562c4 0 7.33301 -2.33301 10 -7c59.333 -157.333 75.333 -313.666 48 -468.999c-28 -158 -98.667 -312.667 -212 -464c-2.66699 -3.33301 -6 -5 -10 -5h-39c-3.33301 0 -5.5 1 -6.5 3s-0.5 4.33301 1.5 7c115.333 154 187 309 215 465
c13.333 78 15.5 156.833 6.5 236.5s-27.833 154.167 -56.5 223.5c-2 6.66699 0 10 6 10z" />
    <glyph glyph-name="asterisk" unicode="*" horiz-adv-x="434" 
d="M147 374l-24 19c-4 2.66699 -4.33301 6.33398 -1 11.001l98 117l-115 43c-4.66699 2 -6 5.66699 -4 11l13 29c2 5.33301 5.33301 6.66602 10 3.99902l121 -43l27 142c1.33301 5.33301 4.33301 8 9 8h31c6.66699 0 9.33398 -3 8.00098 -9l-26 -140l136 42
c6 2.66699 9 0.666992 9 -6l5 -29c0 -5.33301 -2 -8.66602 -6 -9.99902l-140 -45l61 -113c2 -4.66699 1 -8.33398 -3 -11.001l-27 -20c-4.66699 -3.33301 -8.33398 -2.33301 -11.001 3l-60 115l-99 -117c-4 -4.66699 -8 -5 -12 -1z" />
    <glyph glyph-name="plus" unicode="+" horiz-adv-x="562" 
d="M324 358h173.001c6 0 8.33301 -3 7 -9l-5 -33c-1.33301 -4.66699 -4.33301 -7 -9 -7h-174l-33 -186c0 -5.33301 -3 -8 -9 -8h-35c-6 0 -8.33301 3 -7 9l33 185h-173c-6 0 -8.33301 2.66699 -7 8l6 33c0 5.33301 3 8 9 8h173l33 185c1.33301 5.33301 4.33301 8 9 8h35
c5.33301 0 7.66602 -3 6.99902 -9z" />
    <glyph glyph-name="comma" unicode="," horiz-adv-x="184" 
d="M97 77l-88 -183c-2.66699 -4 -6 -6 -10 -6h-30c-6 0 -8 3.33301 -6 10l78 182c2 4 5.33301 6 10 6h40c6.66699 0 8.66699 -3 6 -9z" />
    <glyph glyph-name="hyphen" unicode="-" horiz-adv-x="392" 
d="M320 279h-239c-6 0 -8.33301 2.66699 -7 8l6 35c0 5.33301 3 8 9 8h239c4.66699 0 7 -3 7 -9l-6 -35c-1.33301 -4.66699 -4.33301 -7 -9 -7z" />
    <glyph glyph-name="period" unicode="." horiz-adv-x="183" 
d="M95 34c-4 -24.667 -18.334 -37.001 -43.001 -37.001c-12 0 -21.333 4.16699 -28 12.5s-8.66699 18.833 -6 31.5c1.33301 10.667 5.83301 19.334 13.5 26.001s17.167 10 28.5 10c12.667 0 22.334 -4 29.001 -12s8.66699 -18.333 6 -31z" />
    <glyph glyph-name="slash" unicode="/" horiz-adv-x="402" 
d="M449 705l-407 -700c-2 -3.33301 -5 -5 -9 -5h-38c-7.33301 -0 -9.33301 3.33301 -6 10l408 700c2 3.33301 5 5 9 5h37c7.33301 0 9.33301 -3.33301 6 -10z" />
    <glyph glyph-name="zero" unicode="0" horiz-adv-x="583" 
d="M508 218c-13.333 -73.333 -43.8291 -129.833 -91.4961 -169.5s-103.834 -59.5 -168.501 -59.5c-65.333 0 -115.833 20.667 -151.5 62s-46.834 99 -33.501 173l48 273c13.333 74 44 130.667 92 170s104.333 59 169 59c65.333 0 115.666 -20.5 150.999 -61.5
s46.666 -98.833 33.999 -173.5zM115.004 218c-10 -57.333 -2.33203 -100.834 23.001 -130.501s63 -44.5 113 -44.5c51.333 0 95.666 15.333 132.999 46s61 74.334 71 131.001l49 274c10 58.667 2.5 103 -22.5 133s-62.833 45 -113.5 45c-52 0 -96.5 -15.333 -133.5 -46
s-60.833 -75.667 -71.5 -135z" />
    <glyph glyph-name="one" unicode="1" horiz-adv-x="322" 
d="M179 0h-36c-6.66699 0 -9 3 -7 9l113 638l-146 -89c-5.33301 -3.33301 -9.33301 -2 -12 4l-13 29c-0.666992 4 0.666016 7.33301 3.99902 10l181 111c4 2 7.33301 3 10 3h31c6.66699 0 9.33398 -3 8.00098 -9l-124 -698c0 -5.33301 -3 -8 -9 -8z" />
    <glyph glyph-name="two" unicode="2" horiz-adv-x="521" 
d="M426 0l-422.001 0.000976562c-4.66699 0 -7 3 -7 9l4 25c0.666992 3.33301 2.66699 6.66602 6 9.99902l201 188l97.5 93c21.667 21.333 45.334 46.333 71.001 75s44.667 54.167 57 76.5s20.5 44.833 24.5 67.5c6 35.333 -0.333008 65.833 -19 91.5s-52 38.5 -100 38.5
c-65.333 0 -129.666 -32.333 -192.999 -97c-4.66699 -4.66699 -8.33398 -4 -11.001 2l-18 30c-2.66699 4 -2.33398 7.66699 0.999023 11c69.333 70.667 144 106 224 106c62 0 108 -17.667 138 -53s40 -80.333 30 -135c-8 -48 -31.167 -95.667 -69.5 -143
s-101.166 -112.333 -188.499 -195l-164 -149h346c6 0 8.33301 -3 7 -9l-6 -34c0 -5.33301 -3 -8 -9 -8z" />
    <glyph glyph-name="three" unicode="3" horiz-adv-x="528" 
d="M468 211c-11.333 -67.333 -40.332 -121.003 -86.999 -161.003s-103 -60 -169 -60c-48 0 -87.167 9.33301 -117.5 28s-57.833 46.667 -82.5 84c-2.66699 4.66699 -2 8.33398 2 11.001l24 24c4 2.66699 8 2 12 -2c21.333 -31.333 44.166 -54.666 68.499 -69.999
s56.833 -23 97.5 -23c52 0 96 15.833 132 47.5s58.667 74.5 68 128.5c9.33301 51.333 0.833008 91.5 -25.5 120.5s-66.833 43.5 -121.5 43.5c-23.333 0 -42 -1.66699 -56 -5c-6 0 -9.33301 2 -10 6l-7 21c-1.33301 4 -0.333008 7.66699 3 11l174 169
c28.667 28.667 57.667 55.334 87 80.001h-321c-4.66699 0 -7 3 -7 9l6 34c0 5.33301 3 8 9 8h389c5.33301 0 8 -3 8 -9l-5 -24c-0.666992 -3.33301 -2 -6.66602 -4 -9.99902l-260 -249l10 1c66.667 0 116.667 -19.333 150 -58s44.333 -90.334 33 -155.001z" />
    <glyph glyph-name="four" unicode="4" horiz-adv-x="522" 
d="M362 0h-36.001c-6.66699 0 -9 3 -7 9l30 174h-325c-4.66699 0 -7 2.66699 -7 8l5 28l3 9l351 482c2 3.33301 5.33301 5 10 5h43c3.33301 0 5.5 -1 6.5 -3s0.5 -4.33301 -1.5 -7l-342 -471h266l30 165c0 5.33301 3 8 9 8h35c6.66699 0 9.33398 -3 8.00098 -9l-29 -164h70
c6.66699 0 9 -3 7 -9l-6 -35c-1.33301 -4.66699 -4.33301 -7 -9 -7h-71l-31 -175c0 -5.33301 -3 -8 -9 -8z" />
    <glyph glyph-name="five" unicode="5" horiz-adv-x="542" 
d="M488 231c-12.667 -73.333 -42.5 -131.664 -89.5 -174.997s-104.167 -65 -171.5 -65c-83.333 0 -147 36.333 -191 109c-4 4.66699 -3.66699 8.66699 1 12l25 24c4.66699 3.33301 8.33398 2.66602 11.001 -2.00098c37.333 -60 90 -90 158 -90c53.333 0 98 17.333 134 52
s59.333 82 70 142c10.667 59.333 4.66699 103.166 -18 131.499s-59 42.5 -109 42.5c-60.667 0 -118.334 -22.667 -173.001 -68c-3.33301 -3.33301 -7 -4 -11 -2l-31 12c-6 1.33301 -7.66699 4.66602 -5 9.99902l73 344c2 4.66699 5 7 9 7h361c6 0 8.66699 -3 8 -9l-7 -36
c-0.666992 -4.66699 -3.66699 -7 -9 -7h-318l-56 -257c51.333 38.667 107 58 167 58c63.333 0 111 -20 143 -60s41.667 -97.667 29 -173z" />
    <glyph glyph-name="six" unicode="6" horiz-adv-x="557" 
d="M501 220c-12.667 -70.667 -42.3301 -126.832 -88.9971 -168.499s-103 -62.5 -169 -62.5c-64.667 0 -113.834 21.667 -147.501 65s-44.834 99 -33.501 167l50 281c12 70 42.167 124.833 90.5 164.5s102.833 59.5 163.5 59.5c72.667 0 133 -25 181 -75
c2.66699 -4.66699 2.66699 -8.66699 0 -12l-24 -27c-3.33301 -3.33301 -7.33301 -3.33301 -12 0c-36.667 41.333 -86 62 -148 62c-48 0 -90.833 -15.833 -128.5 -47.5s-60.834 -73.834 -69.501 -126.501l-25 -140c42.667 60 103.667 90 183 90c67.333 0 117 -20.333 149 -61
s41.667 -97 29 -169zM115.004 216.002c-8.66699 -54.667 -1.16699 -97.333 22.5 -128s60.5 -46 110.5 -46c52 0 96 16.5 132 49.5s59 77.833 69 134.5c20 114.667 -24.333 172 -133 172c-46 0 -88.5 -14.167 -127.5 -42.5s-62.833 -69.833 -71.5 -124.5z" />
    <glyph glyph-name="seven" unicode="7" horiz-adv-x="486" 
d="M101 0h-44c-7.33301 -0 -9.33301 3.33301 -6 10l415 654h-365c-4.66699 0 -7 2.66699 -7 8l6 35c0 5.33301 3 8 9 8h426c6 0 8.33301 -3 7 -9l-4 -23c-0.666992 -3.33301 -2 -6.33301 -4 -9l-423 -669c-2 -3.33301 -5.33301 -5 -10 -5z" />
    <glyph glyph-name="eight" unicode="8" horiz-adv-x="575" 
d="M509 198c-11.333 -63.333 -40.9961 -114.001 -88.9961 -152.001s-106.667 -57 -176 -57c-70.667 0 -123.834 20.167 -159.501 60.5s-47.834 92.833 -36.501 157.5c6.66699 39.333 24.167 74.5 52.5 105.5s64.166 52.5 107.499 64.5c-34 14 -58 35.833 -72 65.5
s-17.667 63.834 -11 102.501c9.33301 52 36.166 95.167 80.499 129.5s98.5 51.5 162.5 51.5c63.333 0 112 -18.5 146 -55.5s46 -82.167 36 -135.5c-6 -37.333 -21 -70 -45 -98s-56 -49 -96 -63c37.333 -12 65 -34.333 83 -67s23.667 -69 17 -109zM100.004 198.999
c-8 -46.667 0.666016 -84.668 25.999 -114.001s65.333 -44 120 -44c56.667 0 103.834 15.5 141.501 46.5s60.5 70.167 68.5 117.5c7.33301 42.667 -2.5 77.334 -29.5 104.001s-67.5 40 -121.5 40s-99.833 -14 -137.5 -42s-60.167 -64 -67.5 -108zM177.003 535.998
c-6.66699 -41.333 1.16504 -74.5 23.498 -99.5s58.833 -37.5 109.5 -37.5c52.667 0 95.334 13.167 128.001 39.5s52.334 59.833 59.001 100.5c6.66699 42.667 -1.83301 75.834 -25.5 99.501s-60.167 35.5 -109.5 35.5c-48 0 -88.833 -12.333 -122.5 -37
s-54.5 -58.334 -62.5 -101.001z" />
    <glyph glyph-name="nine" unicode="9" horiz-adv-x="559" 
d="M483 213c-12 -70.667 -41.667 -125.667 -89 -165s-102.666 -59 -165.999 -59c-74 0 -134.667 35.667 -182 107c-2.66699 4.66699 -2.66699 8.66699 0 12l25 25c4.66699 3.33301 8.66699 3 12 -1c39.333 -60 89.333 -90 150 -90c47.333 0 89.666 15.833 126.999 47.5
s60.666 73.5 69.999 125.5l25 140c-43.333 -60 -104.666 -90 -183.999 -90c-66.667 0 -116 20.833 -148 62.5s-41.667 98.167 -29 169.5c12.667 69.333 42.5 124.833 89.5 166.5s102.833 62.5 167.5 62.5c66.667 0 116.5 -21.667 149.5 -65s43.5 -100 31.5 -170zM147 492
c-10 -57.333 -3.83105 -100.834 18.502 -130.501s59.5 -44.5 111.5 -44.5c46 0 88.667 14.333 128 43s63.333 69.667 72 123l2 14c9.33301 56.667 2.16602 100.334 -21.501 131.001s-60.834 46 -111.501 46c-51.333 0 -94.833 -16.167 -130.5 -48.5
s-58.5 -76.833 -68.5 -133.5z" />
    <glyph glyph-name="colon" unicode=":" horiz-adv-x="212" 
d="M106 34c-2 -11.333 -6.83398 -20.334 -14.501 -27.001s-17.167 -10 -28.5 -10c-12 0 -21 4.16699 -27 12.5s-8 18.833 -6 31.5c1.33301 10.667 5.83301 19.334 13.5 26.001s16.834 10 27.501 10c12.667 0 22.167 -4 28.5 -12s8.5 -18.333 6.5 -31zM182.999 468.999
c-4 -24.667 -18 -37 -42 -37c-12 0 -21.333 4.16699 -28 12.5s-8.66699 18.5 -6 30.5c4 24.667 18 37 42 37c12 0 21.167 -4.16699 27.5 -12.5s8.5 -18.5 6.5 -30.5z" />
    <glyph glyph-name="semicolon" unicode=";" horiz-adv-x="233" 
d="M21 -112h-30c-7.33301 0 -9.33301 3.33301 -6 10l78 186c2 4 5.33301 6 10 6h42c6.66699 0 8.66699 -3 6 -9l-90 -186c-2 -4.66699 -5.33301 -7 -10 -7zM198 470c-2 -11.333 -6.83301 -20.333 -14.5 -27s-17.167 -10 -28.5 -10c-12 0 -21.167 4.16699 -27.5 12.5
s-8.5 18.833 -6.5 31.5c4.66699 24 18.667 36 42 36c12.667 0 22.167 -4 28.5 -12s8.5 -18.333 6.5 -31z" />
    <glyph glyph-name="less" unicode="&#x3c;" horiz-adv-x="562" 
d="M456 154l-7 -42.999c-2 -6.66699 -5.66699 -8.33398 -11 -5.00098l-362 201c-3.33301 2 -5 5.33301 -5 10l5 31c0 3.33301 2.33301 6.66602 7 9.99902l435 201c2.66699 1.33301 5 1.33301 7 0s2.66699 -3.66602 2 -6.99902l-7 -43c-0.666992 -3.33301 -3 -6.33301 -7 -9
l-375 -168l313 -168c3.33301 -2 5 -5.33301 5 -10z" />
    <glyph glyph-name="equal" unicode="=" horiz-adv-x="562" 
d="M504 398h-397c-6.66699 0 -9 3 -7 9l6 33c0.666992 4.66699 3.66699 7 9 7h397c6.66699 0 9 -3 7 -9l-6 -33c-1.33301 -4.66699 -4.33301 -7 -9 -7zM472 220h-396.999c-6.66699 0 -9.33398 2.66699 -8.00098 8l7 34c0.666992 4.66699 3.66699 7 9 7h397
c6.66699 0 9 -3 7 -9l-6 -33c-0.666992 -4.66699 -3.66699 -7 -9 -7z" />
    <glyph glyph-name="greater" unicode="&#x3e;" horiz-adv-x="562" 
d="M506 307l-434.001 -201.001c-2.66699 -1.33301 -5.16699 -1.33301 -7.5 0s-3.16602 3.66602 -2.49902 6.99902l8 43c0 3.33301 2 6.33301 6 9l375 168l-313 168c-3.33301 2.66699 -5 6 -5 10l7 43c2 6.66699 5.66699 8.33398 11 5.00098l362 -201
c3.33301 -1.33301 5 -4.66602 5 -9.99902l-5 -31c0 -4.66699 -2.33301 -8 -7 -10z" />
    <glyph glyph-name="question" unicode="?" horiz-adv-x="455" 
d="M209 161l-35.001 -0.000976562c-6.66699 0 -9.33398 2.66699 -8.00098 8l12 66c5.33301 28 16.333 52.667 33 74s35 39 55 53l60.5 42.5c20.333 14.333 38.5 32.5 54.5 54.5s26.667 47.333 32 76c6.66699 39.333 0.5 73 -18.5 101s-53.167 42 -102.5 42
c-59.333 0 -116.666 -23.667 -171.999 -71c-4 -4 -7.66699 -3.33301 -11 2l-14 26c-2 4.66699 -1.33301 8.66699 2 12c61.333 52.667 128.333 79 201 79c58.667 0 103.334 -18.667 134.001 -56s40.667 -84.666 30 -141.999c-6 -33.333 -17.333 -62.5 -34 -87.5
s-35.167 -45 -55.5 -60l-60 -43c-19.667 -13.667 -37.5 -30 -53.5 -49s-26.333 -41.167 -31 -66.5l-10 -54c0 -4.66699 -3 -7 -9 -7zM209.999 33.999c-2 -11.333 -6.83301 -20.333 -14.5 -27s-17.167 -10 -28.5 -10c-12 0 -21.167 4.16699 -27.5 12.5s-8.5 18.833 -6.5 31.5
c4.66699 24 18.667 36 42 36c12 0 21.333 -4 28 -12s9 -18.333 7 -31z" />
    <glyph glyph-name="at" unicode="@" horiz-adv-x="890" 
d="M587 -50c-31.333 -16.667 -69.501 -30.502 -114.501 -41.502s-87.167 -16.5 -126.5 -16.5c-110 0 -189.667 34.333 -239 103s-64.333 158 -45 268l19 109c20.667 114 66.834 201.5 138.501 262.5s168.834 91.5 291.501 91.5c162 0 281.333 -58 358 -174
c2 -4 2.66699 -7.66699 2 -11l-50 -295c-9.33301 -54.667 -27.333 -96 -54 -124s-59.667 -42 -99 -42c-26 0 -48 6.66699 -66 20s-29.667 32 -35 56c-16.667 -24.667 -38.334 -43.667 -65.001 -57s-55 -20 -85 -20c-50 0 -89 18.333 -117 55s-37.333 80.334 -28 131.001
l15 81c9.33301 54 31.833 96.667 67.5 128s81.167 47 136.5 47c58.667 0 109.334 -10.667 152.001 -32c2.66699 -1.33301 4 -4.66602 4 -9.99902l-43 -253c-5.33301 -31.333 -1.66602 -56.5 11.001 -75.5s32.667 -28.167 60 -27.5c53.333 0.666992 86.666 41 99.999 121
l53 294c-66 98 -172.667 147 -320 147c-112.667 0 -199.834 -26.833 -261.501 -80.5s-101.834 -132.167 -120.501 -235.5l-20 -110c-17.333 -100 -4.66602 -179.167 38.001 -237.5s111.667 -87.5 207 -87.5c36 0 74.833 5.16699 116.5 15.5s77.5 23.5 107.5 39.5
c4 2.66699 7.33301 1 10 -5l6 -25c1.33301 -5.33301 0 -8.33301 -4 -9zM317.999 260.998c-7.33301 -42.667 -1.00293 -76.333 18.9971 -101s48 -37 84 -37c30 0 57.833 8.66699 83.5 26s42.834 39.333 51.501 66l41 243c-8 4.66699 -23.167 9 -45.5 13s-43.166 6 -62.499 6
c-42.667 0 -77.667 -12 -105 -36s-44.666 -57 -51.999 -99z" />
    <glyph glyph-name="A" unicode="A" horiz-adv-x="570" 
d="M510 0h-39.001c-5.33301 0 -8.66602 2.66699 -9.99902 8l-32 201h-298l-105 -203c-1.33301 -4 -4.66602 -6 -9.99902 -6h-43c-7.33301 -0 -9.33301 3.33301 -6 10l363 699c2 4 5.33301 6 10 6h49c6 0 9 -2.66699 9 -8l120 -698c1.33301 -6 -1.33398 -9 -8.00098 -9z
M356.999 652h-2l-200 -393h266z" />
    <glyph glyph-name="B" unicode="B" horiz-adv-x="602" 
d="M265 0l-210.001 0.000976562c-6 0 -8.33301 3 -7 9l124 698c0 5.33301 3 8 9 8h218c69.333 0 117.833 -17.667 145.5 -53s36.834 -80 27.501 -134c-14 -76 -57 -125.333 -129 -148c40 -11.333 68.333 -32.333 85 -63s21 -69.334 13 -116.001
c-22 -134 -114 -201 -276 -201zM163.999 353.001l-52.999 -303h162c60.667 0 109.167 13.5 145.5 40.5s59.166 65.833 68.499 116.5c8 46.667 0.5 82.667 -22.5 108s-61.833 38 -116.5 38h-184zM219 665.001l-46.001 -262.001h180c43.333 0 79.833 11.833 109.5 35.5
s47.834 55.834 54.501 96.501c15.333 86.667 -27.667 130 -129 130h-169z" />
    <glyph glyph-name="C" unicode="C" horiz-adv-x="553" 
d="M493 70c-71.333 -54 -150 -80.998 -236 -80.998c-70.667 0 -123.834 23 -159.501 69s-46.834 106 -33.501 180l45 254c12.667 73.333 43.667 130.666 93 171.999s109.333 62 180 62c76.667 0 141.334 -24.333 194.001 -73c4 -2.66699 4.33301 -6.33398 1 -11.001l-25 -29
c-4 -4 -8 -4.33301 -12 -1c-45.333 42 -100 63 -164 63c-57.333 0 -104.666 -17.167 -141.999 -51.5s-61 -80.5 -71 -138.5l-44 -251c-10 -58 -2.16699 -104.667 23.5 -140s67.834 -53 126.501 -53c71.333 0 137.333 24.333 198 73c4.66699 4.66699 8.66699 4 12 -2l16 -31
c3.33301 -5.33301 2.66602 -9 -2.00098 -11z" />
    <glyph glyph-name="D" unicode="D" horiz-adv-x="636" 
d="M285 0l-230.001 -0.000976562c-6 0 -8.33301 3 -7 9l123 698c0 5.33301 3 8 9 8h227c73.333 0 128 -23.167 164 -69.5s47.333 -108.166 34 -185.499l-38 -217c-13.333 -78 -44.166 -138 -92.499 -180s-111.5 -63 -189.5 -63zM217.999 664.999l-106.999 -615h178
c59.333 0 108.5 17.167 147.5 51.5s64.167 83.5 75.5 147.5l37 216c11.333 65.333 4.16602 115 -21.501 149s-68.167 51 -127.5 51h-182z" />
    <glyph glyph-name="E" unicode="E" horiz-adv-x="543" 
d="M563 706l-6.00098 -33c0 -5.33301 -3 -8 -9 -8h-330l-48 -275h311c6 0 8.33301 -2.66699 7 -8l-6 -34c0 -5.33301 -3 -8 -9 -8h-311l-51 -289h339c4.66699 0 7 -3 7 -9l-5 -34c-1.33301 -5.33301 -4.66602 -8 -9.99902 -8h-387c-6 0 -8.33301 3 -7 9l123 698
c0 5.33301 3 8 9 8h376c4.66699 0 7 -3 7 -9z" />
    <glyph glyph-name="F" unicode="F" horiz-adv-x="524" 
d="M570 707l-7.00098 -34c-1.33301 -5.33301 -4.33301 -8 -9 -8h-334l-51 -290h300c6 0 8.66699 -3 8 -9l-6 -34c-1.33301 -5.33301 -4.33301 -8 -9 -8h-302l-56 -316c-1.33301 -5.33301 -4.66602 -8 -9.99902 -8h-39c-6 0 -8.33301 3 -7 9l123 699
c1.33301 5.33301 4.33301 8 9 8h383c4.66699 0 7 -3 7 -9z" />
    <glyph glyph-name="G" unicode="G" horiz-adv-x="612" 
d="M518 85c-76 -62.667 -161.334 -94 -256.001 -94c-72 0 -126.167 23.167 -162.5 69.5s-48.5 104.833 -36.5 175.5l45 250c12.667 74 44 132.5 94 175.5s110.667 64.5 182 64.5c86.667 0 157.667 -25.667 213 -77c3.33301 -4 3.33301 -8 0 -12l-25 -27
c-2.66699 -4 -6.66699 -4.33301 -12 -1c-49.333 44 -110.333 66 -183 66c-56.667 0 -104 -17.5 -142 -52.5s-62.333 -82.167 -73 -141.5l-44 -250c-9.33301 -56 -1.16602 -101.5 24.501 -136.5s67.5 -52.5 125.5 -52.5c74 1.33301 141.333 24 202 68l39 218h-186
c-6 0 -8 3 -6 9l6 34c1.33301 4.66699 4.33301 7 9 7h232c6.66699 0 9.33398 -2.66699 8.00098 -8l-49 -276c-0.666992 -1.33301 -2.33398 -4.33301 -5.00098 -9z" />
    <glyph glyph-name="H" unicode="H" horiz-adv-x="649" 
d="M527 389l56 318c0 5.33301 3 8 9 8h39c6 0 8.33301 -3 7 -9l-123 -698c-1.33301 -5.33301 -4.66602 -8 -9.99902 -8h-38c-6 0 -8.33301 3 -7 9l59 330h-357l-59 -331c0 -5.33301 -3 -8 -9 -8h-39c-6 0 -8.33301 3 -7 9l123 698c1.33301 5.33301 4.66602 8 9.99902 8h38
c6 0 8.33301 -3 7 -9l-56 -317h357z" />
    <glyph glyph-name="I" unicode="I" horiz-adv-x="237" 
d="M226 706l-122.999 -698c0 -5.33301 -3 -8 -9 -8h-39c-6 0 -8.33301 3 -7 9l123 698c1.33301 5.33301 4.66602 8 9.99902 8h38c6 0 8.33301 -3 7 -9z" />
    <glyph glyph-name="J" unicode="J" horiz-adv-x="477" 
d="M381 197c-12 -68 -37 -119.667 -75 -155s-87 -53 -147 -53c-69.333 0 -127 27 -173 81c-4 4 -4 8 0 12l21 26c4 4 8 4 12 0c42 -46 90.667 -69 146 -69c88 0 141.333 54 160 162l91 506c0 5.33301 3 8 9 8h38c6 0 8.33301 -3 7 -9z" />
    <glyph glyph-name="K" unicode="K" horiz-adv-x="579" 
d="M575 715h53.001c3.33301 0 5.5 -1 6.5 -3s0.166992 -4.33301 -2.5 -7l-344 -314l239 -381c4 -6.66699 2.33301 -10 -5 -10h-46c-4 0 -7 1.66699 -9 5l-220 350l-98 -86l-46 -261c-1.33301 -5.33301 -4.33301 -8 -9 -8h-39c-6 0 -8.33301 3 -7 9l122 698
c1.33301 5.33301 4.33301 8 9 8h39c5.33301 0 7.66602 -3 6.99902 -9l-63 -361l402 366c4 2.66699 7.66699 4 11 4z" />
    <glyph glyph-name="L" unicode="L" horiz-adv-x="477" 
d="M227 706l-115.999 -656h313c4.66699 0 7 -2.66699 7 -8l-6 -34c0 -5.33301 -3 -8 -9 -8h-361c-6 0 -8.33301 3 -7 9l123 698c1.33301 5.33301 4.66602 8 9.99902 8h38c6 0 8.66699 -3 8 -9z" />
    <glyph glyph-name="M" unicode="M" horiz-adv-x="793" 
d="M94 0l-39 0.000976562c-6 0 -8.33301 3 -7 9l123 698c0 5.33301 3 8 9 8h47c4 0 7 -2.33301 9 -7l114 -336l41 -135h1c10 14 26.167 38.167 48.5 72.5s36.833 56.166 43.5 65.499l232 335c2.66699 3.33301 6 5 10 5h48c6.66699 0 9.33398 -3 8.00098 -9l-123 -698
c-1.33301 -5.33301 -4.33301 -8 -9 -8h-39c-6 0 -8.33301 3 -7 9l60 345c20.667 118.667 37 208 49 268h-2c-34.667 -55.333 -68.334 -106.333 -101.001 -153l-202 -294c-2.66699 -4 -6 -6 -10 -6h-31c-4 0 -6.66699 2.33301 -8 7l-102 303l-24.5 76l-21.5 67h-1
c-12.667 -77.333 -29 -171 -49 -281l-58 -333c0 -5.33301 -3 -8 -9 -8z" />
    <glyph glyph-name="N" unicode="N" horiz-adv-x="674" 
d="M94 0h-39c-6 0 -8.33301 3 -7 9l123 698c0 5.33301 3 8 9 8h45c4.66699 0 8 -2 10 -6l264 -626h2c24 152 39 244 45 276l61 348c1.33301 5.33301 4.66602 8 9.99902 8h38c6 0 8.33301 -3 7 -9l-122 -698c-1.33301 -5.33301 -4.66602 -8 -9.99902 -8h-45c-4 0 -7 2 -9 6
l-193 442c-22 50.667 -46 110 -72 178h-2c-10.667 -73.333 -25 -159 -43 -257l-63 -361c0 -5.33301 -3 -8 -9 -8z" />
    <glyph glyph-name="O" unicode="O" horiz-adv-x="645" 
d="M575 231c-12 -72 -44.998 -130.333 -98.998 -175s-120.333 -67 -199 -67c-78 0 -136 24 -174 72s-50.667 109.333 -38 184l40 236c13.333 74 46.666 133.333 99.999 178s119.333 67 198 67s137.167 -24.167 175.5 -72.5s51.166 -109.5 38.499 -183.5zM119.002 239
c-10 -57.333 0.00195312 -104.832 30.002 -142.499s74.667 -56.5 134 -56.5c61.333 0 113.666 18.167 156.999 54.5s70 83.166 80 140.499l42 240c10 58.667 0.166992 106.667 -29.5 144s-74.834 56 -135.501 56c-62.667 0 -115.167 -18.167 -157.5 -54.5
s-68.5 -84.5 -78.5 -144.5z" />
    <glyph glyph-name="P" unicode="P" horiz-adv-x="591" 
d="M181 715h208c74.667 0 130.5 -21.5 167.5 -64.5s49.167 -99.833 36.5 -170.5c-25.333 -141.333 -120.333 -212 -285 -212h-158l-46 -260c-1.33301 -5.33301 -4.33301 -8 -9 -8h-40c-6 0 -8.33301 3 -7 9l124 698c0 5.33301 3 8 9 8zM313 317
c130 0 205 55.999 225 167.999c10 58.667 1.5 103.334 -25.5 134.001s-70.833 46 -131.5 46h-161l-62 -348h155z" />
    <glyph glyph-name="Q" unicode="Q" horiz-adv-x="649" 
d="M533 -11l-25 -22c-4 -4 -8 -3.66699 -12 1l-50 68c-52.667 -31.333 -108.667 -47 -168 -47c-77.333 0 -135.333 24.5 -174 73.5s-52 109.833 -40 182.5l41 236c13.333 74 46.833 133.333 100.5 178s119.834 67 198.501 67c78 0 136.5 -24.5 175.5 -73.5
s52.167 -109.833 39.5 -182.5l-41 -239c-12 -68 -42.667 -123.333 -92 -166l49 -65c3.33301 -3.33301 2.66602 -7 -2.00098 -11zM120 239c-10 -56.667 0 -104 30 -142s74.333 -57 133 -57c48.667 0 92.334 13 131.001 39l-83 111c-4 4 -3.66699 7.66699 1 11l26 22
c4 4 7.66699 4 11 0l84 -113c36 34 58.667 75.667 68 125l42 240c10 58.667 0.333008 106.667 -29 144s-74.333 56 -135 56c-62.667 0 -115.334 -18.167 -158.001 -54.5s-69 -84.5 -79 -144.5z" />
    <glyph glyph-name="R" unicode="R" horiz-adv-x="592" 
d="M94 0l-39 -0.000976562c-6 0 -8.33301 3 -7 9l123 698c0 5.33301 3 8 9 8h206c73.333 0 127.666 -20.667 162.999 -62s47.333 -95.666 36 -162.999c-10 -56.667 -35.167 -102.167 -75.5 -136.5s-92.166 -53.833 -155.499 -58.5l160 -285
c3.33301 -6.66699 1.33301 -10 -6 -10h-44c-4.66699 0 -8 1.66699 -10 5l-157 288h-144l-50 -285c0 -5.33301 -3 -8 -9 -8zM218 664.999l-55.998 -321.999h159c58.667 0 106 13.167 142 39.5s58.333 64.166 67 113.499c9.33301 55.333 1.16602 97.333 -24.501 126
s-67.834 43 -126.501 43h-161z" />
    <glyph glyph-name="S" unicode="S" horiz-adv-x="563" 
d="M508 175c-11.333 -62 -40.8271 -108.499 -88.4941 -139.499s-105.834 -46.5 -174.501 -46.5c-46.667 0 -86.834 7.5 -120.501 22.5s-67.834 39.167 -102.501 72.5c-4 4 -4 8 0 12l22 26c4.66699 3.33301 8.66699 3.33301 12 0c58 -54 122.667 -81 194 -81
c53.333 0 98.666 12.667 135.999 38s60 60.333 68 105c4 22.667 2.5 42.5 -4.5 59.5s-19.833 31.667 -38.5 44s-36.834 22.166 -54.501 29.499s-40.834 15.333 -69.501 24c-28 8.66699 -52.667 18.5 -74 29.5s-41.833 25 -61.5 42s-33.5 38.333 -41.5 64s-9 54.5 -3 86.5
c10 54.667 37.333 95.5 82 122.5s99.334 40.5 164.001 40.5c42.667 0 80.167 -6.5 112.5 -19.5s65.166 -33.5 98.499 -61.5c5.33301 -3.33301 6 -7 2 -11l-24 -27c-3.33301 -4 -7.33301 -4.33301 -12 -1c-54.667 45.333 -116 68 -184 68c-48 0 -89 -10 -123 -30
s-54.667 -50.333 -62 -91c-4 -24 -3 -45 3 -63s17 -33.167 33 -45.5s32.333 -22.333 49 -30s37.667 -15.5 63 -23.5c31.333 -9.33301 58.5 -19.333 81.5 -30s45.333 -24.334 67 -41.001s37 -37.167 46 -61.5s10.5 -52.166 4.5 -83.499z" />
    <glyph glyph-name="T" unicode="T" horiz-adv-x="517" 
d="M98 715h481c4.66699 0 7 -3 7 -9l-6 -33c0 -5.33301 -3 -8 -9 -8h-215l-116 -657c0 -5.33301 -3 -8 -9 -8h-39c-6 0 -8 3 -6 9l115 656h-211c-4.66699 0 -7 2.66699 -7 8l6 34c0 5.33301 3 8 9 8z" />
    <glyph glyph-name="U" unicode="U" horiz-adv-x="652" 
d="M561 224c-12 -69.333 -43.501 -125.833 -94.501 -169.5s-112.833 -65.5 -185.5 -65.5c-70 0 -123.667 23.833 -161 71.5s-49.666 107.5 -36.999 179.5l82 467c1.33301 5.33301 4.33301 8 9 8h40c5.33301 0 7.66602 -3 6.99902 -9l-84 -472c-10 -57.333 -1 -104 27 -140
s69.333 -54 124 -54c56 0 104 17.5 144 52.5s65 80.833 75 137.5l83 477c1.33301 5.33301 4.33301 8 9 8h39c6.66699 0 9.33398 -3 8.00098 -9z" />
    <glyph glyph-name="V" unicode="V" horiz-adv-x="570" 
d="M267 0h-51.999c-6 0 -9 2.66699 -9 8l-118 698c-1.33301 6 1 9 7 9h39c5.33301 0 8.66602 -2.66699 9.99902 -8l67 -417l37 -225h4l115 223l214 421c2 4 5.33301 6 10 6h43c7.33301 0 9.33301 -3.33301 6 -10l-363 -699c-2 -4 -5.33301 -6 -10 -6z" />
    <glyph glyph-name="W" unicode="W" horiz-adv-x="890" 
d="M214 0l-46.999 -0.000976562c-5.33301 0 -8.33301 2.66699 -9 8l-66 698c-1.33301 6 1 9 7 9h41c5.33301 0 8 -2.66699 8 -8l38 -431c2 -26.667 4.66699 -64.667 8 -114s5.66602 -81 6.99902 -95h2c3.33301 7.33301 16.333 37.833 39 91.5s40.667 94.834 54 123.501
l193 417c2.66699 4 6 6 10 6h47c6 0 9 -2.66699 9 -8l48 -419c2.66699 -23.333 6.16699 -59.333 10.5 -108s7.5 -83 9.5 -103h2c37.333 97.333 67 171 89 221l183 421c2 4 5 6 9 6h43c6 0 8 -3.33301 6 -10l-310 -699c-2.66699 -4 -6 -6 -10 -6h-47
c-5.33301 0 -8.33301 2.66699 -9 8l-46 397c-14 132 -21.667 204.667 -23 218h-2c-28.667 -68.667 -60.667 -141 -96 -217l-188 -400c-2.66699 -4 -6 -6 -10 -6z" />
    <glyph glyph-name="X" unicode="X" horiz-adv-x="559" 
d="M557 715h47c8 0 9.66699 -3.33301 5 -10l-278 -346l163 -349c2 -6.66699 -0.333008 -10 -7 -10h-43c-4 0 -7 2 -9 6l-142 310l-249 -311c-2 -3.33301 -5.33301 -5 -10 -5h-49c-8 -0 -9.66699 3.33301 -5 10l285 351l-158 344c-2 6.66699 0.333008 10 7 10h42
c4.66699 0 8 -2 10 -6l136 -305l245 306c2 3.33301 5.33301 5 10 5z" />
    <glyph glyph-name="Y" unicode="Y" horiz-adv-x="520" 
d="M235 0h-39.001c-6.66699 0 -9 3 -7 9l47 268l-152 428c-2 6.66699 0 10 6 10h42c4.66699 0 7.33398 -2.33301 8.00098 -7l131 -380h1l259 382c2 3.33301 5 5 9 5h46c8 0 10 -3.33301 6 -10l-299 -428l-49 -269c0 -5.33301 -3 -8 -9 -8z" />
    <glyph glyph-name="Z" unicode="Z" horiz-adv-x="541" 
d="M455 0l-458 -0.000976562c-6 0 -8.66699 3 -8 9l5 25c0 2.66699 1.33301 6 4 10l501 621h-372c-6 0 -8.33301 2.66699 -7 8l6 35c1.33301 4.66699 4.66602 7 9.99902 7h436c6.66699 0 9.33398 -3 8.00098 -9l-4 -24c0 -1.33301 -1.33301 -4.66602 -4 -9.99902l-500 -621
h391c6 0 8.66699 -3 8 -9l-7 -35c-1.33301 -4.66699 -4.33301 -7 -9 -7z" />
    <glyph glyph-name="bracketleft" unicode="[" horiz-adv-x="254" 
d="M228 777l-148.001 -843h79c6 0 8.33301 -3 7 -9l-5 -34c-1.33301 -5.33301 -4.66602 -8 -9.99902 -8h-124c-6 0 -8.33301 3 -7 9l164 928c0 5.33301 3 8 9 8h124c6 0 8.33301 -3 7 -9l-6 -34c-1.33301 -5.33301 -4.33301 -8 -9 -8h-81z" />
    <glyph glyph-name="backslash" unicode="\" horiz-adv-x="389" 
d="M314 0h-30c-4 -0 -7 2.33301 -9 7l-173 699c-2 6 0.666992 9 8 9h30c4 0 7 -2.33301 9 -7l173 -698c2 -6.66699 -0.666992 -10 -8 -10z" />
    <glyph glyph-name="bracketright" unicode="]" horiz-adv-x="255" 
d="M62 -65l148.001 843h-79c-6 0 -8.33301 3 -7 9l5 34c1.33301 5.33301 4.66602 8 9.99902 8h124c6 0 8.33301 -3 7 -9l-164 -928c0 -5.33301 -3 -8 -9 -8h-124c-6 0 -8.33301 3 -7 9l6 34c1.33301 5.33301 4.33301 8 9 8h81z" />
    <glyph glyph-name="asciicircum" unicode="^" horiz-adv-x="562" 
d="M174 573h-49.999c-3.33301 0 -5.66602 1 -6.99902 3s-0.666016 4.33301 2.00098 7l234 234c2 3.33301 5.33301 5 10 5h37c5.33301 0 8.66602 -1.66699 9.99902 -5l152 -234c3.33301 -6.66699 1.66602 -10 -5.00098 -10h-46c-4.66699 0 -8 1.66699 -10 5l-125 195
l-191 -195c-2.66699 -3.33301 -6.33398 -5 -11.001 -5z" />
    <glyph glyph-name="underscore" unicode="_" horiz-adv-x="575" 
d="M482 -19l-6 -35c-1.33301 -5.33301 -4.33301 -8 -9 -8h-465c-6 0 -8.33301 2.66699 -7 8l6 35c0 5.33301 3 8 9 8h464c5.33301 0 8 -2.66699 8 -8z" />
    <glyph glyph-name="grave" unicode="`" horiz-adv-x="161" 
d="M151 741l52 -133c2.66699 -6.66699 0.666992 -10 -6 -10h-27c-4 0 -7.33301 2 -10 6l-62 133c-3.33301 6.66699 -1.33301 10 6 10h37c4.66699 0 8 -2 10 -6z" />
    <glyph glyph-name="a" unicode="a" horiz-adv-x="493" 
d="M383 26c-64.667 -24.667 -128.331 -36.9971 -190.998 -36.9971c-58 0 -104 16.167 -138 48.5s-46 75.166 -36 128.499c9.33301 47.333 33.833 83.166 73.5 107.499s90.167 36.5 151.5 36.5c47.333 0 93.666 -5.66699 138.999 -17l9 54c16.667 88 -22.333 132 -117 132
c-54.667 0 -106.334 -14.333 -155.001 -43c-5.33301 -4 -8.66602 -3 -9.99902 3l-12 27c-2 4 -1.33301 7.66699 2 11c53.333 32.667 114.666 49 183.999 49c61.333 0 106 -16.833 134 -50.5s37 -77.834 27 -132.501l-54 -308c-0.666992 -3.33301 -3 -6.33301 -7 -9z
M71.0029 160.003c-7.33301 -38 0.5 -68 23.5 -90s56.833 -33 101.5 -33c52 0 100.333 8.33301 145 25l33 184c-48 11.333 -92.333 17 -133 17c-48.667 0 -87.667 -8.83301 -117 -26.5s-47 -43.167 -53 -76.5z" />
    <glyph glyph-name="b" unicode="b" horiz-adv-x="524" 
d="M164 484c45.333 28 94.667 42 148 42c62 0 108.833 -19.333 140.5 -58s41.5 -91 29.5 -157l-21 -114c-13.333 -70 -41.666 -122.167 -84.999 -156.5s-98.333 -51.166 -165 -50.499c-66 1.33301 -124 14.666 -174 39.999c-3.33301 0.666992 -5 4 -5 10l119 667
c1.33301 5.33301 4.33301 8 9 8h36c5.33301 0 7.66602 -3 6.99902 -9zM408.001 200l21 117.001c10 53.333 3.66699 93.666 -19 120.999s-59 41 -109 41c-50.667 0 -99.667 -15.667 -147 -47l-65 -369c41.333 -16.667 84.333 -25 129 -25
c106 -1.33301 169.333 52.667 190 162z" />
    <glyph glyph-name="c" unicode="c" horiz-adv-x="448" 
d="M385 48c-52.667 -39.333 -111.334 -58.998 -176.001 -58.998c-61.333 0 -107.166 18.333 -137.499 55s-40.5 84 -30.5 142l30 164c9.33301 52.667 33.833 95.167 73.5 127.5s88.5 48.5 146.5 48.5c56 0 107 -17.667 153 -53c4 -2.66699 4.33301 -6.33398 1 -11.001
l-19 -25c-3.33301 -4 -7.33301 -4.66699 -12 -2c-36.667 29.333 -78.667 44 -126 44c-44 0 -80.667 -12.167 -110 -36.5s-47.666 -56.166 -54.999 -95.499l-29 -165c-8 -44 -1.33301 -79.333 20 -106s54.666 -40 99.999 -40c50.667 0 100 17.667 148 53
c4 3.33301 7.66699 2.66602 11 -2.00098l15 -28c2 -4.66699 1 -8.33398 -3 -11.001z" />
    <glyph glyph-name="d" unicode="d" horiz-adv-x="524" 
d="M408 26c-53.333 -24.667 -115.331 -37 -185.998 -37c-70 0 -120 19 -150 57s-39.667 89.667 -29 155l21 122c11.333 64.667 37.833 114.667 79.5 150s93.5 53 155.5 53c49.333 0 96.666 -13.667 141.999 -41l39 222c1.33301 5.33301 4.33301 8 9 8h37
c5.33301 0 7.66602 -3 6.99902 -9l-118 -671c-0.666992 -3.33301 -3 -6.33301 -7 -9zM96.002 196c-19.333 -106.667 24 -160 130 -160c54.667 0 101.667 9.33301 141 28l66 373c-39.333 27.333 -84.333 41 -135 41c-102 0 -162.333 -53 -181 -159z" />
    <glyph glyph-name="e" unicode="e" horiz-adv-x="502" 
d="M70 342c10.667 58 37.1689 103.166 79.502 135.499s91.833 48.5 148.5 48.5c60.667 0 107.167 -17 139.5 -51s42.833 -80.667 31.5 -140l-18 -96c-1.33301 -5.33301 -4.33301 -8 -9 -8h-339l-11 -58c-8.66699 -42.667 -0.833984 -76.167 23.499 -100.5
s58.166 -36.5 101.499 -36.5c58.667 0 115.334 22.333 170.001 67c4.66699 2.66699 8.66699 2 12 -2l16 -25c3.33301 -5.33301 3 -9 -1 -11c-60 -50.667 -127.667 -76 -203 -76c-56 0 -101.333 16.833 -136 50.5s-46.334 78.834 -35.001 135.501zM406.002 276.999l12 62
c8.66699 44.667 1.5 79.167 -21.5 103.5s-57.167 36.5 -102.5 36.5c-44 0 -81.5 -12.5 -112.5 -37.5s-50.5 -59.5 -58.5 -103.5l-12 -61h295z" />
    <glyph glyph-name="f" unicode="f" horiz-adv-x="290" 
d="M349 676c-20 1.33301 -34.3311 2 -42.998 2c-34.667 0 -62.834 -10.5 -84.501 -31.5s-36.167 -51.167 -43.5 -90.5l-7 -44h140c6 0 8.66699 -2.66699 8 -8l-5 -31c-1.33301 -5.33301 -4.66602 -8 -9.99902 -8h-142l-81 -457c-1.33301 -5.33301 -4.33301 -8 -9 -8h-37
c-6 0 -8.33301 3 -7 9l98 551c9.33301 52.667 30.166 93.5 62.499 122.5s72.166 43.5 119.499 43.5c12.667 0 29.667 -1.33301 51 -4c6 -0.666992 8.33301 -3.66699 7 -9l-6 -31c-1.33301 -5.33301 -5 -7.33301 -11 -6z" />
    <glyph glyph-name="g" unicode="g" horiz-adv-x="514" 
d="M399 -4c-10.667 -61.333 -34.6699 -109.169 -72.0029 -143.502s-88.333 -51.5 -153 -51.5c-67.333 0 -123.666 23.667 -168.999 71c-3.33301 4 -3.33301 7.66699 0 11l19 25c3.33301 4.66699 7.33301 4.66699 12 0c40.667 -39.333 87.667 -59 141 -59
c48.667 0 87.334 13.333 116.001 40s47 64.334 55 113.001l9 49c-44.667 -21.333 -91 -32 -139 -32c-65.333 0 -113.166 18 -143.499 54s-39.5 87.667 -27.5 155l18 103c12 66.667 39 115.834 81 147.501s95 47.5 159 47.5c64.667 0 122 -16.667 172 -50
c2.66699 -2 4 -5.66699 4 -11zM98.9971 223.997c-18.667 -104 22.667 -156 124 -156c51.333 0 98.666 12 141.999 36l59 341c-33.333 22 -74.666 33 -123.999 33c-104 0 -164.667 -50.333 -182 -151z" />
    <glyph glyph-name="h" unicode="h" horiz-adv-x="536" 
d="M165 485c47.333 27.333 96.668 41 148.001 41c62.667 0 109.167 -18.5 139.5 -55.5s38.833 -92.167 25.5 -165.5l-53 -297c0 -5.33301 -3 -8 -9 -8h-36c-6.66699 0 -9.33398 3 -8.00098 9l54 304c11.333 56.667 6 98.5 -16 125.5s-57.667 40.5 -107 40.5
s-98.333 -15 -147 -45l-75 -426c0 -5.33301 -3 -8 -9 -8h-36c-5.33301 0 -7.66602 3 -6.99902 9l122 698c1.33301 5.33301 4.66602 8 9.99902 8h36c6 0 8.33301 -3 7 -9z" />
    <glyph glyph-name="i" unicode="i" horiz-adv-x="196" 
d="M71 0h-36c-6.66699 0 -9 3 -7 9l89 498c0 5.33301 3 8 9 8h36c6.66699 0 9 -3 7 -9l-89 -498c0 -5.33301 -3 -8 -9 -8zM202 653c-1.33301 -9.33301 -5.5 -17 -12.5 -23s-15.5 -9 -25.5 -9c-10.667 0 -19.167 3.83301 -25.5 11.5s-8.5 16.834 -6.5 27.501
c4 21.333 16.667 32 38 32c11.333 0 20 -3.83301 26 -11.5s8 -16.834 6 -27.501z" />
    <glyph glyph-name="j" unicode="j" horiz-adv-x="203" 
d="M82 -25c-21.333 -116 -74.667 -173.999 -160 -173.999c-15.333 0 -28.666 1.33301 -39.999 4c-4.66699 0.666992 -7 3.66699 -7 9l6 32c1.33301 5.33301 4.33301 7.66602 9 6.99902c12.667 -2 24.667 -3 36 -3c54 0 88.667 43 104 129l93 528
c1.33301 5.33301 4.66602 8 9.99902 8h36c6 0 8.33301 -3 7 -9zM210.999 653.001c-4.66699 -21.333 -17.333 -32 -38 -32c-10.667 0 -19.167 3.83301 -25.5 11.5s-8.5 16.834 -6.5 27.501c3.33301 21.333 16 32 38 32c11.333 0 20 -3.83301 26 -11.5s8 -16.834 6 -27.501z
" />
    <glyph glyph-name="k" unicode="k" horiz-adv-x="463" 
d="M434 515h49.002c2 0 3.66699 -0.5 5 -1.5s1.83301 -2.33301 1.5 -4s-1.5 -3.16699 -3.5 -4.5l-254 -212l178 -283c3.33301 -6.66699 1.66602 -10 -5.00098 -10h-44c-4.66699 0 -7.66699 1.66699 -9 5l-159 253l-78 -64l-33 -186c-1.33301 -5.33301 -4.33301 -8 -9 -8h-37
c-5.33301 0 -7.66602 3 -6.99902 9l123 698c1.33301 5.33301 4.66602 8 9.99902 8h36c5.33301 0 7.66602 -3 6.99902 -9l-77 -439l296 244c2.66699 2.66699 6 4 10 4z" />
    <glyph glyph-name="l" unicode="l" horiz-adv-x="255" 
d="M194 -8c-3.33301 0 -7.83301 -0.334961 -13.5 -1.00195s-10.834 -1.16699 -15.501 -1.5s-9 -0.5 -13 -0.5c-41.333 0 -71 15 -89 45s-21.667 74.667 -11 134l94 539c0 5.33301 3 8 9 8h36c6 0 8.33301 -3 7 -9l-94 -541c-14.667 -84.667 4.33301 -127 57 -127
c18 0 31 0.666992 39 2c2.66699 0.666992 4.83398 0.333984 6.50098 -0.999023s2.16699 -3.66602 1.5 -6.99902l-5 -32c0 -4 -3 -6.66699 -9 -8z" />
    <glyph glyph-name="m" unicode="m" horiz-adv-x="796" 
d="M410 482c50.667 28 103.666 42.666 158.999 43.999c65.333 0 113.166 -18.167 143.499 -54.5s39.833 -86.5 28.5 -150.5l-56 -313c-1.33301 -5.33301 -4.66602 -8 -9.99902 -8h-35c-6.66699 0 -9.33398 3 -8.00098 9l56 316c10 52 4.33301 90.833 -17 116.5
s-56.666 38.167 -105.999 37.5c-46.667 -1.33301 -90.334 -13.666 -131.001 -36.999c12.667 -29.333 15 -66.333 7 -111l-58 -323c0 -5.33301 -3 -8 -9 -8h-36c-5.33301 0 -7.66602 3 -6.99902 9l58 326c16.667 96 -18.333 144 -105 144c-39.333 0 -81 -8.66699 -125 -26
l-80 -445c-1.33301 -5.33301 -4.66602 -8 -9.99902 -8h-35c-6.66699 0 -9 3 -7 9l84 471c0.666992 4 3.33398 7.33301 8.00098 10c55.333 24 111.666 36 168.999 36c54 0 94.667 -14.667 122 -44z" />
    <glyph glyph-name="n" unicode="n" horiz-adv-x="534" 
d="M69 0h-36c-6 0 -8.33301 3 -7 9l85 471c0 4 2.33301 7 7 9c62 24.667 124 37 186 37c66.667 0 115.5 -18.5 146.5 -55.5s40.167 -89.5 27.5 -157.5l-55 -305c0 -5.33301 -3 -8 -9 -8h-35c-6 0 -8.66699 3 -8 9l55 308c20 108 -22.333 162 -127 162
c-46 0 -92.667 -8.66699 -140 -26l-81 -445c0 -5.33301 -3 -8 -9 -8z" />
    <glyph glyph-name="o" unicode="o" 
d="M446 179c-10.667 -56.667 -36.8311 -102.503 -78.498 -137.503s-93.834 -52.5 -156.501 -52.5c-62 0 -108.333 19.333 -139 58s-41 86.334 -31 143.001l27 150c10 54.667 36 99.334 78 134.001s94 52 156 52c63.333 0 110.166 -19.167 140.499 -57.5
s40.5 -85.166 30.5 -140.499zM94.0029 185.997c-8 -44.667 -1.66699 -80.667 19 -108s54.667 -41 102 -41c48.667 0 88.5 13.5 119.5 40.5s50.5 62.167 58.5 105.5l27 150c7.33301 42 0.666016 76.833 -20.001 104.5s-55 41.5 -103 41.5
c-47.333 0 -86.666 -13.5 -117.999 -40.5s-51 -61.5 -59 -103.5z" />
    <glyph glyph-name="p" unicode="p" horiz-adv-x="514" 
d="M117 485c53.333 27.333 113.664 41 180.997 41c68 0 116.833 -19 146.5 -57s38.834 -89.667 27.501 -155l-21 -122c-11.333 -64.667 -37.333 -114.667 -78 -150s-91.667 -53 -153 -53c-52.667 0 -98 13.667 -136 41l-38 -212c-1.33301 -5.33301 -4.66602 -8 -9.99902 -8
h-36c-5.33301 0 -7.66602 3 -6.99902 9l117 658c0.666992 3.33301 3 6 7 8zM398.998 196l20.999 122c9.33301 56 3.5 96.833 -17.5 122.5s-57.167 38.5 -108.5 38.5c-47.333 0 -92.666 -9.66699 -135.999 -29l-66 -372c38 -28 81 -42 129 -42s87.333 13.5 118 40.5
s50.667 66.833 60 119.5z" />
    <glyph glyph-name="q" unicode="q" horiz-adv-x="522" 
d="M365 -190l-37.001 0.000976562c-5.33301 0 -7.66602 3 -6.99902 9l37 212c-46 -28 -94.333 -42 -145 -42c-62 0 -109 19.833 -141 59.5s-41.667 93.5 -29 161.5l22 115c12.667 66 40.667 116.167 84 150.5s97 51.166 161 50.499c66 -1.33301 124.667 -13.333 176 -36
c3.33301 -0.666992 5 -4 5 -10l-117 -662c-1.33301 -5.33301 -4.33301 -8 -9 -8zM95.999 205.001c-10.667 -56 -4.50195 -98.167 18.498 -126.5s59.5 -42.5 109.5 -42.5c49.333 0 97.333 15.667 144 47l66 374c-39.333 14.667 -82.666 22 -129.999 22
c-49.333 0 -90.166 -13.167 -122.499 -39.5s-53.5 -65.5 -63.5 -117.5z" />
    <glyph glyph-name="r" unicode="r" horiz-adv-x="353" 
d="M71 0h-36.0029c-6 0 -8.33301 3 -7 9l81 472c0.666992 3.33301 3.33398 6.66602 8.00098 9.99902c54 23.333 109 35 165 35c27.333 0 58.333 -3 93 -9c5.33301 -1.33301 7.66602 -4.33301 6.99902 -9l-5 -31c-1.33301 -5.33301 -4.66602 -7.66602 -9.99902 -6.99902
c-28 5.33301 -57.667 8 -89 8c-43.333 0 -83.666 -8 -120.999 -24l-76 -446c-1.33301 -5.33301 -4.66602 -8 -9.99902 -8z" />
    <glyph glyph-name="s" unicode="s" horiz-adv-x="460" 
d="M402 125c-8 -43.333 -31.3301 -76.835 -69.9971 -100.502s-86.334 -35.5 -143.001 -35.5c-72 0 -133 22 -183 66c-4 4 -4.33301 8 -1 12l17 24c4 4.66699 8 5.33398 12 2.00098c44 -38 97 -57 159 -57c42.667 0 78 8.33301 106 25s44.667 40 50 70
c6 31.333 -1.16699 54.166 -21.5 68.499s-53.833 27.166 -100.5 38.499c-118.667 32 -171.334 86 -158.001 162c7.33301 40.667 30.166 71.834 68.499 93.501s84.166 32.5 137.499 32.5c60 0 115.333 -16.333 166 -49c4.66699 -3.33301 5 -7 1 -11l-19 -27
c-4 -2.66699 -8 -3.33398 -12 -2.00098c-38.667 28 -86 42 -142 42c-39.333 0 -72.666 -7.66699 -99.999 -23s-43.333 -36.666 -48 -63.999c-2.66699 -16 -1 -30.167 5 -42.5s16.167 -22.666 30.5 -30.999s28.333 -15 42 -20s30.167 -9.83301 49.5 -14.5
c54 -14 95.167 -33.167 123.5 -57.5s38.5 -58.166 30.5 -101.499z" />
    <glyph glyph-name="t" unicode="t" horiz-adv-x="283" 
d="M288 465l-130.001 -0.000976562l-55 -310c-13.333 -79.333 13.667 -119 81 -119c8 0 21.333 0.666992 40 2c6.66699 0 9.33398 -2.66699 8.00098 -8l-5 -30c-1.33301 -5.33301 -4 -8 -8 -8c-12.667 -2 -26 -3 -40 -3c-47.333 0 -83 14.833 -107 44.5
s-31 71.834 -21 126.501l84 476c1.33301 4.66699 4.33301 7 9 7h30c5.33301 0 7.66602 -2.66699 6.99902 -8l-16 -123h131c6 0 8.33301 -2.66699 7 -8l-5 -31c-1.33301 -5.33301 -4.66602 -8 -9.99902 -8z" />
    <glyph glyph-name="u" unicode="u" horiz-adv-x="529" 
d="M460 515l37.002 -0.000976562c6 0 8.33301 -3 7 -9l-85 -471c-0.666992 -4 -3 -7 -7 -9c-61.333 -24.667 -123 -37 -185 -37c-64.667 0 -112.334 18.833 -143.001 56.5s-39.667 89.834 -27 156.501l55 305c0 5.33301 3 8 9 8h36c6.66699 0 9 -3 7 -9l-55 -308
c-19.333 -108 21.667 -162 123 -162c43.333 0 89.666 8.66699 138.999 26l80 445c1.33301 5.33301 4.33301 8 9 8z" />
    <glyph glyph-name="v" unicode="v" horiz-adv-x="471" 
d="M213 0h-43.999c-4.66699 -0 -7.66699 2.33301 -9 7l-99 499c-0.666992 6 2 9 8 9h37c5.33301 0 8.33301 -2.33301 9 -7l61 -327c5.33301 -27.333 12.666 -68.333 21.999 -123h2l63 123l178 328c2 4 5.33301 6 10 6h41c7.33301 0 9.33301 -3.33301 6 -10l-275 -500
c-2 -3.33301 -5.33301 -5 -10 -5z" />
    <glyph glyph-name="w" unicode="w" horiz-adv-x="714" 
d="M134 -1c-6 0 -9 2.66797 -9 8.00098l-62 499c0 5.33301 2.66699 8 8 8h36c6 0 9 -2.66699 9 -8l35 -292c7.33301 -74.667 12 -125.334 14 -152.001h1l19.5 47l24.5 57l18 40l142 292c2 4 5 6 9 6h41c6 0 9 -2.33301 9 -7l37 -296c6.66699 -53.333 11 -99.666 13 -138.999
h1c30 71.333 52.667 123.666 68 156.999l137 289c2 4 5.33301 6 10 6h38c7.33301 0 9.33301 -3 6 -9l-238 -499c-2 -4.66699 -5.33301 -7 -10 -7h-43c-5.33301 0 -8.33301 3 -9 9l-37 307c-4 36.667 -7.66699 78.667 -11 126h-1c-20.667 -50.667 -38.667 -92.667 -54 -126
l-149 -309c-2 -4.66699 -5.33301 -7 -10 -7h-43z" />
    <glyph glyph-name="x" unicode="x" horiz-adv-x="459" 
d="M424 515h44.001c8 0 9.66699 -3.33301 5 -10l-210 -243l133 -252c3.33301 -6.66699 1.33301 -10 -6 -10h-41c-4.66699 0 -7.66699 2 -9 6l-114 219l-191 -220c-2.66699 -3.33301 -6 -5 -10 -5h-46c-8 -0 -9.33301 3.33301 -4 10l223 254l-125 241
c-3.33301 6.66699 -1 10 7 10h39c4.66699 0 8 -2 10 -6l106 -208l179 209c3.33301 3.33301 6.66602 5 9.99902 5z" />
    <glyph glyph-name="y" unicode="y" horiz-adv-x="531" 
d="M378 103l72.002 403.998c1.33301 5.33301 4.66602 8 9.99902 8h36c6.66699 0 9.33398 -3 8.00098 -9l-91 -510c-11.333 -61.333 -36 -109.166 -74 -143.499s-89 -51.5 -153 -51.5c-72.667 0 -131 23.667 -175 71c-3.33301 4.66699 -3.33301 8.66699 0 12l21 25
c4 4 8 4 12 0c39.333 -40.667 87.333 -61 144 -61c49.333 0 88.5 13.833 117.5 41.5s47.5 64.834 55.5 111.501l9 49c-48.667 -20 -96 -30 -142 -30c-61.333 0 -107.5 17.667 -138.5 53s-40.5 85.333 -28.5 150l51 284c1.33301 5.33301 4.66602 8 9.99902 8h35
c6 0 8.66699 -3 8 -9l-52 -288c-18.667 -100.667 22.333 -151 123 -151c51.333 0 98.666 12 141.999 36z" />
    <glyph glyph-name="z" unicode="z" horiz-adv-x="436" 
d="M353 0h-358.001c-6 0 -8.66699 3 -8 9l3 20c0.666992 2.66699 2.33398 6 5.00098 10l370 429h-273c-6 0 -8.33301 3 -7 9l5 30c1.33301 5.33301 4.33301 8 9 8h337c5.33301 0 8 -3 8 -9l-3 -17c-0.666992 -2.66699 -2.33398 -6 -5.00098 -10l-370 -432h294
c6.66699 0 9.33398 -2.66699 8.00098 -8l-6 -32c-1.33301 -4.66699 -4.33301 -7 -9 -7z" />
    <glyph glyph-name="braceleft" unicode="{" horiz-adv-x="259" 
d="M154 -117l-14.999 0.000976562c-35.333 0 -59.5 9.83301 -72.5 29.5s-16.167 50.167 -9.5 91.5l39 221c6 32.667 6.5 57.167 1.5 73.5s-17.5 26.5 -37.5 30.5c-5.33301 1.33301 -7.66602 4.33301 -6.99902 9l5 37c0 4 2.66699 6.66699 8 8
c21.333 4 38.166 14.667 50.499 32s21.5 42.666 27.5 75.999l38 221c7.33301 41.333 20.333 71.166 39 89.499s45.667 27.5 81 27.5h17c4.66699 0 7 -3 7 -9l-6 -34c0 -5.33301 -2.66699 -8 -8 -8h-13c-36.667 0 -59.334 -24.333 -68.001 -73l-40 -226
c-12 -69.333 -41.667 -110.666 -89 -123.999c19.333 -6 33.166 -20.167 41.499 -42.5s9.5 -50.5 3.5 -84.5l-40 -226c-4.66699 -25.333 -3.66699 -43 3 -53s19.334 -15 38.001 -15h14c5.33301 0 7.33301 -3 6 -9l-6 -35c0 -4.66699 -2.66699 -7 -8 -7z" />
    <glyph glyph-name="bar" unicode="|" horiz-adv-x="219" 
d="M57 -139h-34c-6 0 -8.33301 3 -7 9l174 983c0 5.33301 3 8 9 8h34c6 0 8.33301 -3 7 -9l-174 -983c0 -5.33301 -3 -8 -9 -8z" />
    <glyph glyph-name="braceright" unicode="}" horiz-adv-x="258" 
d="M140 830l14.999 -0.000976562c35.333 0 59.5 -9.83301 72.5 -29.5s16.167 -50.167 9.5 -91.5l-39 -221c-6 -32.667 -6.5 -57.167 -1.5 -73.5s17.5 -26.5 37.5 -30.5c5.33301 -1.33301 7.66602 -4.33301 6.99902 -9l-5 -37c0 -4 -2.66699 -6.66699 -8 -8
c-21.333 -4 -38.166 -14.667 -50.499 -32s-21.5 -42.666 -27.5 -75.999l-38 -221c-7.33301 -41.333 -20.333 -71.166 -39 -89.499s-45.667 -27.5 -81 -27.5h-17c-4.66699 0 -7 3 -7 9l6 34c0 5.33301 2.66699 8 8 8h13c36.667 0 59.334 24.333 68.001 73l40 226
c12 69.333 41.667 110.666 89 123.999c-19.333 6 -33.166 20.167 -41.499 42.5s-9.5 50.5 -3.5 84.5l40 226c4.66699 25.333 3.66699 43 -3 53s-19.334 15 -38.001 15h-14c-5.33301 0 -7.33301 3 -6 9l6 35c0 4.66699 2.66699 7 8 7z" />
    <glyph glyph-name="asciitilde" unicode="~" horiz-adv-x="562" 
d="M492 340c-32.667 -28 -68.332 -41.999 -106.999 -41.999c-22.667 0 -54.167 7 -94.5 21s-69.5 21 -87.5 21c-28 0 -53.667 -10 -77 -30c-4.66699 -2.66699 -8.66699 -2.33398 -12 0.999023l-15 22c-2.66699 4 -2.33398 7.66699 0.999023 11c31.333 28 66 42 104 42
c25.333 0 57.5 -7 96.5 -21s66.833 -21 83.5 -21c30.667 0 57.667 9.66699 81 29c4 3.33301 7.66699 3 11 -1l16 -21c2.66699 -3.33301 2.66699 -7 0 -11z" />
    <glyph glyph-name="exclamdown" unicode="&#xa1;" horiz-adv-x="211" 
d="M46 -193h-39.001c-6 0 -8.33301 3 -7 9l33 185l65 353c1.33301 5.33301 4.33301 8 9 8h33c6.66699 0 9.33398 -3 8.00098 -9l-60 -353l-33 -185c-1.33301 -5.33301 -4.33301 -8 -9 -8zM183.999 485c-1.33301 -11.333 -5.83203 -20.333 -13.499 -27
s-16.834 -10 -27.501 -10c-12.667 0 -22.167 4.16699 -28.5 12.5s-8.5 18.833 -6.5 31.5c4.66699 24 19 36 43 36c12 0 21 -4 27 -12s8 -18.333 6 -31z" />
    <glyph glyph-name="cent" unicode="&#xa2;" horiz-adv-x="477" 
d="M204 -88l-21.998 -0.000976562c-5.33301 0 -7.66602 3 -6.99902 9l12 72c-51.333 5.33301 -89.5 25.833 -114.5 61.5s-32.833 79.834 -23.5 132.501l29 163c9.33301 49.333 32.166 90.166 68.499 122.499s81.166 49.833 134.499 52.5l13 76
c1.33301 4.66699 4.33301 7 9 7h22c5.33301 0 7.66602 -2.66699 6.99902 -8l-13 -75c48.667 -4 93 -21.333 133 -52c4 -2.66699 4.33301 -6.33398 1 -11.001l-19 -25c-3.33301 -3.33301 -7 -3.66602 -11 -0.999023c-37.333 28.667 -80 43 -128 43
c-44 0 -80.5 -12.167 -109.5 -36.5s-47.167 -56.166 -54.5 -95.499l-30 -164c-7.33301 -44 -0.5 -79.167 20.5 -105.5s54.167 -39.5 99.5 -39.5c54 0 103.333 17.333 148 52c4 4 8 3.33301 12 -2l15 -28c2 -4.66699 1 -8.33398 -3 -11.001
c-51.333 -37.333 -107.333 -56.666 -168 -57.999l-12 -71c0 -5.33301 -3 -8 -9 -8z" />
    <glyph glyph-name="sterling" unicode="&#xa3;" horiz-adv-x="505" 
d="M410 0l-397 -0.000976562c-6 0 -8.33301 3 -7 9l4 27c0 4 3 6.66699 9 8c45.333 8 73.666 45.667 84.999 113l34 194h-63c-6 0 -8.33301 2.66699 -7 8l6 32c0.666992 4.66699 3.66699 7 9 7h63l26 149c8.66699 51.333 31.834 94 69.501 128s83.167 51 136.5 51
c60 0 107.333 -20.667 142 -62c2.66699 -3.33301 2.66699 -7.33301 0 -12l-20 -21c-3.33301 -4 -7 -4 -11 0c-28.667 32.667 -67.334 49 -116.001 49c-39.333 0 -72.5 -13.333 -99.5 -40s-43.833 -59 -50.5 -97l-25 -145h191c6.66699 0 9 -2.66699 7 -8l-5 -32
c-0.666992 -4.66699 -3.66699 -7 -9 -7h-192l-35 -198c-9.33301 -53.333 -29.666 -88.666 -60.999 -105.999h323c6 0 8.33301 -3 7 -9l-5 -30c-1.33301 -5.33301 -4.33301 -8 -9 -8z" />
    <glyph glyph-name="currency" unicode="&#xa4;" horiz-adv-x="611" 
d="M438 156c-47.333 -34.667 -99 -52.002 -155 -52.002c-58.667 0 -106 17.333 -142 52l-58 -51c-4 -4 -7.66699 -3.66699 -11 1l-19 21c-2.66699 4 -2 8 2 12l59 52c-26 42 -33.667 94.667 -23 158c11.333 61.333 36.666 112 75.999 152l-39 48
c-4 3.33301 -3.66699 7.33301 1 12l25 22c4 4.66699 7.66699 4.66699 11 0l40 -49c46.667 34 98.667 51 156 51c60 0 106.667 -17.667 140 -53l59 52c3.33301 4.66699 7 4.33398 11 -0.999023l19 -21c2.66699 -4 2 -8 -2 -12l-59 -53c26 -43.333 33.667 -95 23 -155
c-11.333 -61.333 -37 -112.666 -77 -153.999l40 -48c2.66699 -3.33301 2.33398 -7.33301 -0.999023 -12l-25 -23c-4.66699 -4 -8.66699 -3.66699 -12 1zM137 343.998c-10.667 -58.667 -2.00098 -105.834 25.999 -141.501s69 -53.5 123 -53.5s101.833 18.5 143.5 55.5
s67.167 84.167 76.5 141.5s0 104.333 -28 141s-68.667 55 -122 55c-54 0 -101.667 -18.667 -143 -56s-66.666 -84.666 -75.999 -141.999z" />
    <glyph glyph-name="yen" unicode="&#xa5;" horiz-adv-x="561" 
d="M253 0h-38c-6 0 -8 3 -6 9l24 139h-122c-6.66699 0 -9.33398 2.66699 -8.00098 8l5 28c0.666992 4.66699 3.66699 7 9 7h124l14 77h-123c-6.66699 0 -9.33398 3 -8.00098 9l5 28c1.33301 4.66699 4.33301 7 9 7h105l-140 393c-2 6.66699 0 10 6 10h41
c4.66699 0 7.33398 -2.33301 8.00098 -7l131 -384h1l262 386c2 3.33301 5 5 9 5h44c3.33301 0 5.5 -1 6.5 -3s0.5 -4.33301 -1.5 -7l-274 -393h103c6 0 8.33301 -3 7 -9l-5 -27c-1.33301 -5.33301 -4.33301 -8 -9 -8h-122l-14 -77h122c6 0 8.33301 -2.66699 7 -8l-5 -28
c-0.666992 -4.66699 -3.66699 -7 -9 -7h-123l-25 -140c-1.33301 -5.33301 -4.66602 -8 -9.99902 -8z" />
    <glyph glyph-name="brokenbar" unicode="&#xa6;" horiz-adv-x="222" 
d="M160 434h-34c-6.66699 0 -9 3 -7 9l72 410c1.33301 5.33301 4.33301 8 9 8h34c6.66699 0 9 -3 7 -9l-72 -410c-1.33301 -5.33301 -4.33301 -8 -9 -8zM59 -139h-34c-6 0 -8.33301 3 -7 9l72 410c1.33301 5.33301 4.33301 8 9 8h34c6 0 8.33301 -3 7 -9l-72 -410
c0 -5.33301 -3 -8 -9 -8z" />
    <glyph glyph-name="section" unicode="&#xa7;" horiz-adv-x="474" 
d="M361 -26c-7.33301 -47.333 -28.6729 -85.5039 -64.0059 -114.504s-79 -43.5 -131 -43.5c-68 0 -121.667 29.667 -161 89c-2 4.66699 -1.33301 8.66699 2 12l23 24c4 4 8 3.66699 12 -1c32.667 -48.667 75.334 -73 128.001 -73c36 0 67.167 10.5 93.5 31.5
s42.5 49.5 48.5 85.5c3.33301 22.667 0.833008 42.334 -7.5 59.001s-20.666 30.167 -36.999 40.5s-34.666 19.833 -54.999 28.5s-40.5 17.834 -60.5 27.501s-38 20.834 -54 33.501s-27.833 29.834 -35.5 51.501s-9.16699 46.834 -4.5 75.501c6 34.667 21.833 64 47.5 88
s57.5 39.667 95.5 47c-56.667 38 -79.667 89 -69 153c6.66699 41.333 27.667 74.666 63 99.999s74.333 38 117 38c50.667 0 97.334 -15.667 140.001 -47c4.66699 -3.33301 5 -7 1 -11l-21 -25c-2.66699 -3.33301 -6.33398 -4 -11.001 -2c-31.333 24 -68.666 36 -111.999 36
c-31.333 0 -59.166 -9.33301 -83.499 -28s-38.5 -41.334 -42.5 -68.001c-3.33301 -22.667 -0.833008 -42.667 7.5 -60s20.333 -31.666 36 -42.999s33.334 -22.166 53.001 -32.499s39.167 -21.333 58.5 -33s36.5 -24.5 51.5 -38.5s26.167 -32 33.5 -54s8.33301 -47 3 -75
c-5.33301 -30 -18.333 -56.167 -39 -78.5s-46.667 -38.833 -78 -49.5c44.667 -32.667 62 -80.334 52 -143.001zM107.993 294.996c-5.33301 -38.667 2.99805 -67.166 24.998 -85.499s66 -39.5 132 -63.5c26.667 2.66699 50.834 14.167 72.501 34.5s34.834 43.5 39.501 69.5
c3.33301 20 3 37.167 -1 51.5s-13 27.666 -27 39.999s-27.833 22.333 -41.5 30s-34.5 18.5 -62.5 32.5c-34.667 -2.66699 -65 -14 -91 -34s-41.333 -45 -46 -75z" />
    <glyph glyph-name="dieresis" unicode="&#xa8;" horiz-adv-x="246" 
d="M138 654c-1.33301 -9.33301 -5.49902 -16.833 -12.499 -22.5s-15.167 -8.5 -24.5 -8.5c-11.333 0 -19.666 3.33301 -24.999 10s-7 15.667 -5 27c2 10 6.5 17.833 13.5 23.5s15.167 8.5 24.5 8.5c11.333 0 19.666 -3.5 24.999 -10.5s6.66602 -16.167 3.99902 -27.5z
M316.001 654c-4.66699 -20.667 -17.332 -31 -37.999 -31c-23.333 0 -33 12.333 -29 37c1.33301 10 5.5 17.833 12.5 23.5s15.167 8.5 24.5 8.5c11.333 0 19.666 -3.5 24.999 -10.5s7 -16.167 5 -27.5z" />
    <glyph glyph-name="copyright" unicode="&#xa9;" horiz-adv-x="801" 
d="M762 348c-18.667 -111.333 -66.1699 -199.001 -142.503 -263.001s-163.166 -96 -260.499 -96c-99.333 0 -176.833 33 -232.5 99s-73.5 155 -53.5 267c18.667 114 66.334 204.333 143.001 271s164 100 262 100c99.333 0 176.333 -34.167 231 -102.5
s72.334 -160.166 53.001 -275.499zM103.997 350.999c-18 -104.667 -2.16699 -186 47.5 -244s120.167 -87 211.5 -87c88 0 166.833 29.5 236.5 88.5s113.5 139.833 131.5 242.5c18 110 2.66699 194.833 -46 254.5s-118.667 89.5 -210 89.5
c-88.667 0 -168.167 -30.5 -238.5 -91.5s-114.5 -145.167 -132.5 -252.5zM518.997 200.999c-36.667 -33.333 -81 -49.998 -133 -49.998c-39.333 0.666992 -70 13.5 -92 38.5s-29.667 56.833 -23 95.5l24 137c6.66699 38 24.834 68.833 54.501 92.5s63.5 35.5 101.5 35.5
c46.667 0.666992 83.667 -16.333 111 -51c2.66699 -4 2.33398 -8 -0.999023 -12l-16 -17c-4.66699 -4.66699 -8.66699 -4.33398 -12 0.999023c-20.667 27.333 -49 40.666 -85 39.999c-29.333 -0.666992 -54 -9.66699 -74 -27s-32.667 -39.333 -38 -66l-24 -136
c-4.66699 -26 0.166016 -47.667 14.499 -65s35.833 -26 64.5 -26c30 0 66.667 14.333 110 43c4 3.33301 7.66699 2.33301 11 -3l9 -19c1.33301 -5.33301 0.666016 -9 -2.00098 -11z" />
    <glyph glyph-name="guillemotleft" unicode="&#xab;" horiz-adv-x="485" 
d="M196 71h-39.999c-4 0 -7.33301 2 -10 6l-98 209c-2.66699 4 -2.33398 7.66699 0.999023 11l172 209c2 3.33301 5.33301 5 10 5h41c3.33301 0 5.5 -1 6.5 -3s0.5 -4.33301 -1.5 -7l-175 -211l100 -209c2 -6.66699 0 -10 -6 -10zM402.001 71h-39.999c-4 0 -7.33301 2 -10 6
l-98 209c-2.66699 4 -2.33398 7.66699 0.999023 11l172 209c2 3.33301 5.33301 5 10 5h41c3.33301 0 5.5 -1 6.5 -3s0.5 -4.33301 -1.5 -7l-175 -211l100 -209c2 -6.66699 0 -10 -6 -10z" />
    <glyph glyph-name="logicalnot" unicode="&#xac;" horiz-adv-x="562" 
d="M467 201h-34c-6 0 -8.33301 3 -7 9l26 148h-355c-6 0 -8.33301 2.66699 -7 8l6 33c0 5.33301 3 8 9 8h397c6.66699 0 9 -3 7 -9l-33 -189c0 -5.33301 -3 -8 -9 -8z" />
    <glyph glyph-name="registered" unicode="&#xae;" horiz-adv-x="503" 
d="M496 514c-11.333 -63.333 -38.832 -113.167 -82.499 -149.5s-94.834 -54.5 -153.501 -54.5c-55.333 0 -99 19.5 -131 58.5s-42.333 90.5 -31 154.5c10.667 61.333 38.167 110.5 82.5 147.5s94.833 55.5 151.5 55.5c56 0 100.167 -19.333 132.5 -58s42.833 -90 31.5 -154z
M123.001 518.999c-10 -58 -1.33301 -103.333 26 -136s66 -49 116 -49c50.667 0 95.334 16.5 134.001 49.5s63 78.167 73 135.5c10 58 1.5 102.833 -25.5 134.5s-65.833 47.5 -116.5 47.5s-95.334 -16.167 -134.001 -48.5s-63 -76.833 -73 -133.5zM234.001 421.999
l-11.001 0.00195312c-4.66699 0 -6.66699 2.33301 -6 7l33 188c1.33301 4.66699 3.66602 7 6.99902 7h67c20.667 0 36.334 -5.83301 47.001 -17.5s14.334 -27.834 11.001 -48.501c-2.66699 -16.667 -10 -29.834 -22 -39.501s-26.667 -15.167 -44 -16.5l42 -74
c2 -4 0.666992 -6 -4 -6h-16c-2.66699 0 -5 1.33301 -7 4l-42 75h-36l-12 -73c0 -4 -2.33301 -6 -7 -6zM271 600.001l-12.999 -76h48c31.333 0 48.666 12.667 51.999 38c4 25.333 -8 38 -36 38h-51z" />
    <glyph glyph-name="macron" unicode="&#xaf;" horiz-adv-x="257" 
d="M70 629l5 28c1.33301 5.33301 4.33301 8 9 8h234c6.66699 0 9 -3 7 -9l-5 -28c-0.666992 -4.66699 -3.66699 -7 -9 -7h-234c-6 0 -8.33301 2.66699 -7 8z" />
    <glyph glyph-name="degree" unicode="&#xb0;" horiz-adv-x="327" 
d="M341 599c-6.66699 -36.667 -22.667 -65.667 -48 -87s-56 -32 -92 -32c-34 0 -60.167 11.833 -78.5 35.5s-24.166 54.167 -17.499 91.5s22.667 66.5 48 87.5s55.666 31.5 90.999 31.5c34 0 60.167 -11.833 78.5 -35.5s24.5 -54.167 18.5 -91.5zM143 603
c-5.33301 -28 -1.83301 -49.333 10.5 -64s30.5 -22 54.5 -22c23.333 0 43.833 7.5 61.5 22.5s28.5 36.5 32.5 64.5c4.66699 27.333 1.16699 48.333 -10.5 63s-29.167 22 -52.5 22s-44 -7.5 -62 -22.5s-29.333 -36.167 -34 -63.5z" />
    <glyph glyph-name="plusminus" unicode="&#xb1;" horiz-adv-x="562" 
d="M284 180h-33.998c-6.66699 0 -9.33398 2.66699 -8.00098 8l31 177h-171c-6.66699 0 -9 2.66699 -7 8l6 34c0.666992 4.66699 3.66699 7 9 7h172l31 177c1.33301 5.33301 4.66602 8 9.99902 8h34c6 0 8.33301 -2.66699 7 -8l-31 -177h172c6 0 8.66699 -3 8 -9l-6 -33
c-0.666992 -4.66699 -3.66699 -7 -9 -7h-173l-32 -178c-1.33301 -4.66699 -4.33301 -7 -9 -7zM448.002 63h-398c-4.66699 0 -7 2.66699 -7 8l6 33c1.33301 5.33301 4.33301 8 9 8h398c4.66699 0 7 -3 7 -9l-6 -33c0 -4.66699 -3 -7 -9 -7z" />
    <glyph glyph-name="two.sups" unicode="&#xb2;" horiz-adv-x="303" 
d="M293 409h-228c-6 0 -8.66699 3 -8 9l3 19c0.666992 2.66699 2.66699 5.66699 6 9l106 96c47.333 42.667 80.833 75.167 100.5 97.5s30.834 43.833 33.501 64.5c3.33301 20 -0.5 35.5 -11.5 46.5s-28.5 16.5 -52.5 16.5c-30.667 0 -63.334 -15.333 -98.001 -46
c-4.66699 -4 -8.66699 -3.33301 -12 2l-9 17c-2 4 -1.33301 7.66699 2 11c40 34.667 80.667 52 122 52c36 0 62.167 -10.333 78.5 -31s22.166 -45 17.499 -73c-4 -25.333 -17.167 -51.5 -39.5 -78.5s-57.833 -62.5 -106.5 -106.5l-77 -69h179c6 0 8.66699 -3 8 -9l-4 -19
c-1.33301 -5.33301 -4.66602 -8 -9.99902 -8z" />
    <glyph glyph-name="three.sups" unicode="&#xb3;" horiz-adv-x="308" 
d="M324 529c-6.66699 -36.667 -23.167 -66.501 -49.5 -89.501s-57.833 -34.5 -94.5 -34.5c-53.333 0 -92 18.667 -116 56c-1.33301 4 -0.666016 8 2.00098 12l13 13c4 3.33301 8 3 12 -1c20.667 -29.333 51.667 -44 93 -44c25.333 0 47.666 9 66.999 27s31.333 40 36 66
c4 23.333 -0.166992 42.5 -12.5 57.5s-31.5 22.5 -57.5 22.5c-11.333 0 -23.666 -0.666992 -36.999 -2c-6.66699 -1.33301 -10 0.666992 -10 6l-2 12c0 3.33301 1.33301 6.33301 4 9l89 85c12.667 12 27.667 24.667 45 38h-169c-6 0 -8.33301 3 -7 9l4 19
c1.33301 5.33301 4.66602 8 9.99902 8h213c6 0 8.33301 -2.66699 7 -8l-2 -12c-0.666992 -1.33301 -2.66699 -4.66602 -6 -9.99902l-140 -127c10 0 18 -0.333008 24 -1c28.667 -1.33301 51.167 -12.5 67.5 -33.5s21.833 -46.833 16.5 -77.5z" />
    <glyph glyph-name="acute" unicode="&#xb4;" horiz-adv-x="183" 
d="M105 598h-27.999c-3.33301 0 -5.5 1 -6.5 3s-0.5 4.33301 1.5 7l104 134c1.33301 3.33301 4.66602 5 9.99902 5h40c8 0 9.33301 -3.33301 4 -10l-115 -134c-2 -3.33301 -5.33301 -5 -10 -5z" />
    <glyph glyph-name="paragraph" unicode="&#xb6;" horiz-adv-x="595" 
d="M192 -139h-34.001c-5.33301 0 -7.66602 3 -6.99902 9l79 446c-58.667 0 -102 19.667 -130 59s-36.667 87 -26 143c9.33301 56 35 102.833 77 140.5s94 56.5 156 56.5h269c5.33301 0 7.66602 -3 6.99902 -9l-146 -837c-1.33301 -5.33301 -4.33301 -8 -9 -8h-34
c-5.33301 0 -7.66602 3 -6.99902 9l138 793h-185l-139 -794c0 -5.33301 -3 -8 -9 -8z" />
    <glyph glyph-name="periodcentered" unicode="&#xb7;" horiz-adv-x="208" 
d="M151 302c-4 -24.667 -18.334 -37.001 -43.001 -37.001c-12 0 -21.333 4.16699 -28 12.5s-8.66699 18.833 -6 31.5c1.33301 10.667 5.83301 19.334 13.5 26.001s17.167 10 28.5 10c12.667 0 22.334 -4 29.001 -12s8.66699 -18.333 6 -31z" />
    <glyph glyph-name="cedilla" unicode="&#xb8;" horiz-adv-x="166" 
d="M101 -128c-9.33301 -50.667 -46.999 -76 -112.999 -76c-20 0 -39.333 3.33301 -58 10c-4 1.33301 -6 4.33301 -6 9l2 18c0 5.33301 3 7.33301 9 6c15.333 -5.33301 31.333 -8 48 -8c20 0 37 4.33301 51 13s22.333 21 25 37c2 14 -1.83301 24.167 -11.5 30.5
s-26.834 9.83301 -51.501 10.5c-5.33301 0 -8.66602 1.66699 -9.99902 5c-2 2 -1.66699 5 1 9l33 61c1.33301 4 4.66602 6 9.99902 6h19c7.33301 0 9.33301 -3.33301 6 -10l-29 -48c26 -0.666992 46 -7.5 60 -20.5s19 -30.5 15 -52.5z" />
    <glyph glyph-name="one.sups" unicode="&#xb9;" horiz-adv-x="192" 
d="M156 410l-20.002 -0.000976562c-5.33301 0 -7.66602 3 -6.99902 9l59 333l-67 -42c-4 -3.33301 -7.66699 -2.66602 -11 2.00098l-8 16c-3.33301 5.33301 -2.33301 9.33301 3 12l88 55c4 2 7.33301 3 10 3h22c6 0 8.33301 -3 7 -9l-66 -371
c-1.33301 -5.33301 -4.66602 -8 -9.99902 -8z" />
    <glyph glyph-name="guillemotright" unicode="&#xbb;" horiz-adv-x="480" 
d="M94 511h39.999c4 0 7.33301 -2 10 -6l98 -209c2.66699 -4 2.33398 -7.66699 -0.999023 -11l-172 -209c-2 -3.33301 -5.33301 -5 -10 -5h-41c-3.33301 0 -5.5 1 -6.5 3s-0.5 4.33301 1.5 7l175 211l-100 209c-2 6.66699 0 10 6 10zM299.999 511h39.999
c4 0 7.33301 -2 10 -6l98 -209c2.66699 -4 2.33398 -7.66699 -0.999023 -11l-172 -209c-2 -3.33301 -5.33301 -5 -10 -5h-41c-3.33301 0 -5.5 1 -6.5 3s-0.5 4.33301 1.5 7l175 211l-100 209c-2 6.66699 0 10 6 10z" />
    <glyph glyph-name="onequarter" unicode="&#xbc;" horiz-adv-x="801" 
d="M154 327l-20.001 -0.000976562c-5.33301 0 -7.66602 3 -6.99902 9l58 333l-66 -42c-4 -3.33301 -7.66699 -2.66602 -11 2.00098l-8 16c-3.33301 5.33301 -2.33301 9.33301 3 12l88 55c3.33301 2 6.66602 3 9.99902 3h22c6 0 8.33301 -3 7 -9l-66 -371
c-1.33301 -5.33301 -4.66602 -8 -9.99902 -8zM682.999 704.999l-601 -700c-2.66699 -3.33301 -6 -5 -10 -5h-24c-3.33301 0 -5.5 1 -6.5 3s-0.5 4.33301 1.5 7l602 700c2 3.33301 5.33301 5 10 5h23c3.33301 0 5.5 -1 6.5 -3s0.5 -4.33301 -1.5 -7zM714.999 127.999h28.001
c6 0 8.33301 -3 7 -9l-4 -19c-0.666992 -5.33301 -4 -8 -10 -8h-28l-16 -84c0 -5.33301 -3 -8 -9 -8h-21c-5.33301 0 -7.66602 3 -6.99902 9l15 83h-171c-5.33301 0 -8 3 -8 9l2 15l5 10l180 257c1.33301 3.33301 4.66602 5 9.99902 5h25c3.33301 0 5.5 -1 6.5 -3
s0.5 -4.33301 -1.5 -7l-175 -250h134l15 87c0 5.33301 3 8 9 8h21c5.33301 0 7.66602 -3 6.99902 -9z" />
    <glyph glyph-name="onehalf" unicode="&#xbd;" horiz-adv-x="805" 
d="M153 327l-20 -0.000976562c-6 0 -8.33301 3 -7 9l58 333l-66 -42c-4 -3.33301 -7.66699 -2.66602 -11 2.00098l-8 16c-3.33301 5.33301 -2.33301 9.33301 3 12l88 55c2.66699 2 6 3 10 3h22c5.33301 0 7.66602 -3 6.99902 -9l-66 -371
c-1.33301 -5.33301 -4.66602 -8 -9.99902 -8zM684 704.999l-600.999 -700c-2.66699 -3.33301 -6 -5 -10 -5h-24c-3.33301 0 -5.5 1 -6.5 3s-0.5 4.33301 1.5 7l602 700c1.33301 3.33301 4.66602 5 9.99902 5h23c3.33301 0 5.5 -1 6.5 -3s0.5 -4.33301 -1.5 -7z
M715.001 -1.00098l-229.002 -0.000976562c-5.33301 0 -7.66602 3 -6.99902 9l3 19c0.666992 4 2.66699 7 6 9l106 96c46.667 42 79.834 74.333 99.501 97s31.167 44.334 34.5 65.001c3.33301 20 -0.5 35.5 -11.5 46.5s-28.5 16.5 -52.5 16.5c-32 0 -64.667 -15.333 -98 -46
c-4.66699 -4 -8.66699 -3.33301 -12 2l-9 17c-2 4.66699 -1.33301 8.33398 2 11.001c40 34.667 80.667 52 122 52c36 0 62.167 -10.333 78.5 -31s22.166 -45 17.499 -73c-4 -25.333 -17.167 -51.333 -39.5 -78s-58.166 -62.334 -107.499 -107.001l-76 -69h178
c7.33301 0 10 -3 8 -9l-4 -19c-1.33301 -5.33301 -4.33301 -8 -9 -8z" />
    <glyph glyph-name="threequarters" unicode="&#xbe;" horiz-adv-x="884" 
d="M319 446c-6.66699 -36 -22.999 -65.666 -48.999 -88.999s-57.333 -35 -94 -35c-52.667 0 -91.667 19 -117 57c-2 4 -1.33301 7.66699 2 11l13 13c4 4 8 3.66699 12 -1c21.333 -28.667 52.333 -43 93 -43c26 0 48.5 8.83301 67.5 26.5s30.833 39.5 35.5 65.5
c4 23.333 0 42.666 -12 57.999s-31.333 23 -58 23c-14.667 0 -27 -1 -37 -3c-6 -1.33301 -9.33301 0.666992 -10 6l-1 12c-1.33301 4 -0.333008 7 3 9l90 85c12 11.333 26.667 24.333 44 39h-168c-6.66699 0 -9 2.66699 -7 8l4 20c0.666992 4.66699 3.66699 7 9 7h213
c6.66699 0 9 -2.66699 7 -8l-2 -12c-0.666992 -4 -2.66699 -7 -6 -9l-139 -128c7.33301 1.33301 15 1.33301 23 0c29.333 -2 52.166 -13.5 68.499 -34.5s21.5 -46.833 15.5 -77.5zM781.001 705.001l-601 -700c-2.66699 -3.33301 -6 -5 -10 -5h-24c-3.33301 0 -5.5 1 -6.5 3
s-0.5 4.33301 1.5 7l602 700c2 3.33301 5.33301 5 10 5h23c3.33301 0 5.5 -1 6.5 -3s0.5 -4.33301 -1.5 -7zM798.001 128.001h28c6 0 8.33301 -3 7 -9l-4 -19c-0.666992 -5.33301 -4 -8 -10 -8h-28l-16 -84c0 -5.33301 -3 -8 -9 -8h-21c-6 0 -8.33301 3 -7 9l15 83h-171
c-5.33301 0 -8 3 -8 9l2 15l5 10l180 257c2 3.33301 5.33301 5 10 5h25c3.33301 0 5.5 -1 6.5 -3s0.5 -4.33301 -1.5 -7l-175 -250h134l15 87c0 5.33301 3 8 9 8h21c6 0 8.33301 -3 7 -9z" />
    <glyph glyph-name="questiondown" unicode="&#xbf;" horiz-adv-x="450" 
d="M244 361l35.001 0.000976562c6.66699 0 9.33398 -2.66699 8.00098 -8l-12 -66c-5.33301 -28 -16.333 -52.667 -33 -74s-35 -39 -55 -53l-60.5 -42.5c-20.333 -14.333 -38.5 -32.5 -54.5 -54.5s-26.667 -47.333 -32 -76c-6.66699 -39.333 -0.5 -73 18.5 -101
s53.167 -42 102.5 -42c59.333 0 116.666 23.667 171.999 71c4 4 7.66699 3.33301 11 -2l14 -26c2 -4.66699 1.33301 -8.66699 -2 -12c-61.333 -52.667 -128.333 -79 -201 -79c-58.667 0 -103.334 18.667 -134.001 56s-40.667 84.666 -30 141.999
c6 33.333 17.333 62.5 34 87.5s35.167 45 55.5 60l60 43c19.667 13.667 37.5 30 53.5 49s26.333 41.167 31 66.5l10 54c0 4.66699 3 7 9 7zM243.001 488.001c2 11.333 6.83301 20.333 14.5 27s17.167 10 28.5 10c12 0 21.167 -4.16699 27.5 -12.5s8.5 -18.833 6.5 -31.5
c-4.66699 -24 -18.667 -36 -42 -36c-12 0 -21.333 4 -28 12s-9 18.333 -7 31z" />
    <glyph glyph-name="Agrave" unicode="&#xc0;" horiz-adv-x="570" 
d="M510 0h-39.001c-5.33301 0 -8.66602 2.66699 -9.99902 8l-32 201h-298l-105 -203c-1.33301 -4 -4.66602 -6 -9.99902 -6h-43c-7.33301 -0 -9.33301 3.33301 -6 10l363 699c2 4 5.33301 6 10 6h49c6 0 9 -2.66699 9 -8l120 -698c1.33301 -6 -1.33398 -9 -8.00098 -9z
M356.999 652h-2l-200 -393h266zM408.999 787h-29.001c-4.66699 0 -8 1.66699 -10 5l-83 134c-3.33301 6.66699 -1.66602 10 5.00098 10h41c4.66699 0 8 -2 10 -6l72 -133c3.33301 -6.66699 1.33301 -10 -6 -10z" />
    <glyph glyph-name="Aacute" unicode="&#xc1;" horiz-adv-x="570" 
d="M510 0h-39.001c-5.33301 0 -8.66602 2.66699 -9.99902 8l-32 201h-298l-105 -203c-1.33301 -4 -4.66602 -6 -9.99902 -6h-43c-7.33301 -0 -9.33301 3.33301 -6 10l363 699c2 4 5.33301 6 10 6h49c6 0 9 -2.66699 9 -8l120 -698c1.33301 -6 -1.33398 -9 -8.00098 -9z
M356.999 652h-2l-200 -393h266zM377.999 787h-31.998c-3.33301 0 -5.5 1 -6.5 3s-0.166992 4.33301 2.5 7l128 135c2.66699 2.66699 6.33398 4 11.001 4h45c3.33301 0 5.66602 -1 6.99902 -3s0.666016 -4.33301 -2.00098 -7l-142 -135
c-2.66699 -2.66699 -6.33398 -4 -11.001 -4z" />
    <glyph glyph-name="Acircumflex" unicode="&#xc2;" horiz-adv-x="570" 
d="M510 0h-39.001c-5.33301 0 -8.66602 2.66699 -9.99902 8l-32 201h-298l-105 -203c-1.33301 -4 -4.66602 -6 -9.99902 -6h-43c-7.33301 -0 -9.33301 3.33301 -6 10l363 699c2 4 5.33301 6 10 6h49c6 0 9 -2.66699 9 -8l120 -698c1.33301 -6 -1.33398 -9 -8.00098 -9z
M356.999 652h-2l-200 -393h266zM271.999 787h-38.999c-3.33301 0 -5.5 1 -6.5 3s-0.166992 4.33301 2.5 7l142 135c2 2.66699 5.33301 4 10 4h34c4.66699 0 8 -1.66699 10 -5l97 -134c4 -6.66699 2.33301 -10 -5 -10h-37c-4.66699 0 -8 1.66699 -10 5l-76 106l-111 -107
c-2.66699 -2.66699 -6.33398 -4 -11.001 -4z" />
    <glyph glyph-name="Atilde" unicode="&#xc3;" horiz-adv-x="570" 
d="M510 0h-39.001c-5.33301 0 -8.66602 2.66699 -9.99902 8l-32 201h-298l-105 -203c-1.33301 -4 -4.66602 -6 -9.99902 -6h-43c-7.33301 -0 -9.33301 3.33301 -6 10l363 699c2 4 5.33301 6 10 6h49c6 0 9 -2.66699 9 -8l120 -698c1.33301 -6 -1.33398 -9 -8.00098 -9z
M356.999 652h-2l-200 -393h266zM532.999 866c-8 -15.333 -19.165 -28.5 -33.498 -39.5s-30.166 -16.5 -47.499 -16.5c-16.667 0 -38.334 7 -65.001 21c-28 14 -47.667 21 -59 21c-19.333 0 -35 -10.667 -47 -32c-3.33301 -5.33301 -7 -6.33301 -11 -3l-19 12
c-4.66699 3.33301 -5.33398 7 -2.00098 11c8 16 19.167 29.333 33.5 40s30.166 16 47.499 16c18 0 40.667 -7.33301 68 -22c25.333 -13.333 44 -20 56 -20c18.667 0 34 10.667 46 32c2.66699 4 6.66699 4.66699 12 2l18 -12c5.33301 -2.66699 6.33301 -6 3 -10z" />
    <glyph glyph-name="Adieresis" unicode="&#xc4;" horiz-adv-x="570" 
d="M510 0h-39.001c-5.33301 0 -8.66602 2.66699 -9.99902 8l-32 201h-298l-105 -203c-1.33301 -4 -4.66602 -6 -9.99902 -6h-43c-7.33301 -0 -9.33301 3.33301 -6 10l363 699c2 4 5.33301 6 10 6h49c6 0 9 -2.66699 9 -8l120 -698c1.33301 -6 -1.33398 -9 -8.00098 -9z
M356.999 652h-2l-200 -393h266zM331.999 842c-3.33301 -22.667 -16.001 -34 -38.001 -34c-11.333 0 -19.666 3.66699 -24.999 11s-7.33301 16 -6 26c4.66699 22.667 17.667 34 39 34c11.333 0 19.5 -3.5 24.5 -10.5s6.83301 -15.833 5.5 -26.5zM519.998 842
c-3.33301 -22.667 -15.999 -34 -37.999 -34c-11.333 0 -19.5 3.66699 -24.5 11s-6.83301 16 -5.5 26s5.5 18.167 12.5 24.5s15.5 9.5 25.5 9.5c11.333 0 19.666 -3.66699 24.999 -11s7 -16 5 -26z" />
    <glyph glyph-name="Aring" unicode="&#xc5;" horiz-adv-x="570" 
d="M510 0h-39.001c-5.33301 0 -8.66602 2.66699 -9.99902 8l-32 201h-298l-105 -203c-1.33301 -4 -4.66602 -6 -9.99902 -6h-43c-7.33301 -0 -9.33301 3.33301 -6 10l363 699c2 4 5.33301 6 10 6h49c6 0 9 -2.66699 9 -8l120 -698c1.33301 -6 -1.33398 -9 -8.00098 -9z
M356.999 652h-2l-200 -393h266zM487.999 853c-5.33301 -30 -18.333 -53.333 -39 -70s-46.334 -25 -77.001 -25c-27.333 0 -49.166 9.33301 -65.499 28s-22.166 41.667 -17.499 69c4.66699 30 17.667 53.667 39 71s47.666 26 78.999 26c27.333 0 49 -9.5 65 -28.5
s21.333 -42.5 16 -70.5zM323.999 853c-3.33301 -18.667 -0.00292969 -33.501 9.99707 -44.501s24.667 -16.5 44 -16.5c18.667 0 34.834 5.83301 48.501 17.5s22.167 26.834 25.5 45.501s0.5 33.667 -8.5 45s-23.167 17 -42.5 17s-36.166 -5.83301 -50.499 -17.5
s-23.166 -27.167 -26.499 -46.5z" />
    <glyph glyph-name="AE" unicode="&#xc6;" horiz-adv-x="833" 
d="M854 706l-5.99902 -33c0 -4.66699 -3 -7 -9 -7h-307l-48 -277h289c4.66699 0 7 -3 7 -9l-6 -33c0 -5.33301 -3 -8 -9 -8h-290l-50 -289h313c5.33301 0 8 -3 8 -9l-6 -33c-1.33301 -5.33301 -4.33301 -8 -9 -8h-362c-6.66699 0 -9 3 -7 9l35 199h-232l-140 -203
c-2 -3.33301 -5 -5 -9 -5h-47c-8 -0 -10 3.33301 -6 10l487 700c1.33301 3.33301 4.66602 5 9.99902 5h387c4.66699 0 7 -3 7 -9zM198.001 258h208l72 406h-2z" />
    <glyph glyph-name="Ccedilla" unicode="&#xc7;" horiz-adv-x="553" 
d="M493 70c-63.333 -48.667 -133.334 -75.333 -210.001 -80l-26 -46c26 -0.666992 46 -7.5 60 -20.5s19 -30.833 15 -53.5c-8 -50 -46.333 -75 -115 -75c-22 0 -41 3.33301 -57 10c-5.33301 1.33301 -7.33301 4.33301 -6 9l2 18c0 6 3 8.33301 9 7
c15.333 -5.33301 31 -8 47 -8c45.333 0 70.666 15.667 75.999 47c3.33301 14.667 0.166016 25.334 -9.50098 32.001s-27.5 10.334 -53.5 11.001c-4.66699 0 -8 1.66699 -10 5c-1.33301 2.66699 -1 5.66699 1 9l29 54c-66.667 2.66699 -116.667 27.167 -150 73.5
s-43.666 104.833 -30.999 175.5l45 254c12.667 73.333 43.667 130.666 93 171.999s109.333 62 180 62c76.667 0 141.334 -24.333 194.001 -73c4 -2.66699 4.33301 -6.33398 1 -11.001l-25 -29c-4 -4 -8 -4.33301 -12 -1c-45.333 42 -100 63 -164 63
c-57.333 0 -104.666 -17.167 -141.999 -51.5s-61 -80.5 -71 -138.5l-44 -251c-10 -58 -2.16699 -104.667 23.5 -140s67.834 -53 126.501 -53c71.333 0 137.333 24.333 198 73c4.66699 4.66699 8.66699 4 12 -2l16 -31c3.33301 -5.33301 2.66602 -9 -2.00098 -11z" />
    <glyph glyph-name="Egrave" unicode="&#xc8;" horiz-adv-x="543" 
d="M563 706l-6.00098 -33c0 -5.33301 -3 -8 -9 -8h-330l-48 -275h311c6 0 8.33301 -2.66699 7 -8l-6 -34c0 -5.33301 -3 -8 -9 -8h-311l-51 -289h339c4.66699 0 7 -3 7 -9l-5 -34c-1.33301 -5.33301 -4.66602 -8 -9.99902 -8h-387c-6 0 -8.33301 3 -7 9l123 698
c0 5.33301 3 8 9 8h376c4.66699 0 7 -3 7 -9zM402.999 787h-29.001c-4.66699 0 -8 1.66699 -10 5l-83 134c-3.33301 6.66699 -1.66602 10 5.00098 10h41c4.66699 0 8 -2 10 -6l72 -133c3.33301 -6.66699 1.33301 -10 -6 -10z" />
    <glyph glyph-name="Eacute" unicode="&#xc9;" horiz-adv-x="543" 
d="M563 706l-6.00098 -33c0 -5.33301 -3 -8 -9 -8h-330l-48 -275h311c6 0 8.33301 -2.66699 7 -8l-6 -34c0 -5.33301 -3 -8 -9 -8h-311l-51 -289h339c4.66699 0 7 -3 7 -9l-5 -34c-1.33301 -5.33301 -4.66602 -8 -9.99902 -8h-387c-6 0 -8.33301 3 -7 9l123 698
c0 5.33301 3 8 9 8h376c4.66699 0 7 -3 7 -9zM361.999 787h-31.998c-3.33301 0 -5.5 1 -6.5 3s-0.166992 4.33301 2.5 7l128 135c2.66699 2.66699 6.33398 4 11.001 4h45c3.33301 0 5.66602 -1 6.99902 -3s0.666016 -4.33301 -2.00098 -7l-142 -135
c-2.66699 -2.66699 -6.33398 -4 -11.001 -4z" />
    <glyph glyph-name="Ecircumflex" unicode="&#xca;" horiz-adv-x="543" 
d="M563 706l-6.00098 -33c0 -5.33301 -3 -8 -9 -8h-330l-48 -275h311c6 0 8.33301 -2.66699 7 -8l-6 -34c0 -5.33301 -3 -8 -9 -8h-311l-51 -289h339c4.66699 0 7 -3 7 -9l-5 -34c-1.33301 -5.33301 -4.66602 -8 -9.99902 -8h-387c-6 0 -8.33301 3 -7 9l123 698
c0 5.33301 3 8 9 8h376c4.66699 0 7 -3 7 -9zM274.999 787h-38.999c-3.33301 0 -5.5 1 -6.5 3s-0.166992 4.33301 2.5 7l142 135c2 2.66699 5.33301 4 10 4h34c4.66699 0 8 -1.66699 10 -5l97 -134c4 -6.66699 2.33301 -10 -5 -10h-37c-4.66699 0 -8 1.66699 -10 5l-76 106
l-111 -107c-2.66699 -2.66699 -6.33398 -4 -11.001 -4z" />
    <glyph glyph-name="Edieresis" unicode="&#xcb;" horiz-adv-x="543" 
d="M563 706l-6.00098 -33c0 -5.33301 -3 -8 -9 -8h-330l-48 -275h311c6 0 8.33301 -2.66699 7 -8l-6 -34c0 -5.33301 -3 -8 -9 -8h-311l-51 -289h339c4.66699 0 7 -3 7 -9l-5 -34c-1.33301 -5.33301 -4.66602 -8 -9.99902 -8h-387c-6 0 -8.33301 3 -7 9l123 698
c0 5.33301 3 8 9 8h376c4.66699 0 7 -3 7 -9zM331.999 842c-3.33301 -22.667 -16.001 -34 -38.001 -34c-11.333 0 -19.666 3.66699 -24.999 11s-7.33301 16 -6 26c4.66699 22.667 17.667 34 39 34c11.333 0 19.5 -3.5 24.5 -10.5s6.83301 -15.833 5.5 -26.5zM519.998 842
c-3.33301 -22.667 -15.999 -34 -37.999 -34c-11.333 0 -19.5 3.66699 -24.5 11s-6.83301 16 -5.5 26s5.5 18.167 12.5 24.5s15.5 9.5 25.5 9.5c11.333 0 19.666 -3.66699 24.999 -11s7 -16 5 -26z" />
    <glyph glyph-name="Igrave" unicode="&#xcc;" horiz-adv-x="237" 
d="M226 706l-122.999 -698c0 -5.33301 -3 -8 -9 -8h-39c-6 0 -8.33301 3 -7 9l123 698c1.33301 5.33301 4.66602 8 9.99902 8h38c6 0 8.33301 -3 7 -9zM243.001 787h-29.001c-4.66699 0 -8 1.66699 -10 5l-83 134c-3.33301 6.66699 -1.66602 10 5.00098 10h41
c4.66699 0 8 -2 10 -6l72 -133c3.33301 -6.66699 1.33301 -10 -6 -10z" />
    <glyph glyph-name="Iacute" unicode="&#xcd;" horiz-adv-x="237" 
d="M226 706l-122.999 -698c0 -5.33301 -3 -8 -9 -8h-39c-6 0 -8.33301 3 -7 9l123 698c1.33301 5.33301 4.66602 8 9.99902 8h38c6 0 8.33301 -3 7 -9zM212.001 787h-31.998c-3.33301 0 -5.5 1 -6.5 3s-0.166992 4.33301 2.5 7l128 135c2.66699 2.66699 6.33398 4 11.001 4
h45c3.33301 0 5.66602 -1 6.99902 -3s0.666016 -4.33301 -2.00098 -7l-142 -135c-2.66699 -2.66699 -6.33398 -4 -11.001 -4z" />
    <glyph glyph-name="Icircumflex" unicode="&#xce;" horiz-adv-x="237" 
d="M110 787h-37c-3.33301 0 -5.5 1 -6.5 3s-0.5 4.33301 1.5 7l143 143c2.66699 2.66699 6.33398 4 11.001 4h33c4.66699 0 8 -1.66699 10 -5l92 -142c4 -6.66699 2 -10 -6 -10h-37c-4.66699 0 -8 2 -10 6l-71 111l-112 -113c-2.66699 -2.66699 -6.33398 -4 -11.001 -4z
M226 706l-122.999 -698c0 -5.33301 -3 -8 -9 -8h-39c-6 0 -8.33301 3 -7 9l123 698c1.33301 5.33301 4.66602 8 9.99902 8h38c6 0 8.33301 -3 7 -9z" />
    <glyph glyph-name="Idieresis" unicode="&#xcf;" horiz-adv-x="236" 
d="M226 706l-124.001 -698c0 -5.33301 -3 -8 -9 -8h-38c-6 0 -8.33301 3 -7 9l123 698c0 5.33301 3 8 9 8h38c6.66699 0 9.33398 -3 8.00098 -9zM177.999 852c-3.33301 -22.667 -16.001 -34 -38.001 -34c-11.333 0 -19.666 3.66699 -24.999 11s-7.33301 16 -6 26
s5.5 18.167 12.5 24.5s15.833 9.5 26.5 9.5c11.333 0 19.5 -3.5 24.5 -10.5s6.83301 -15.833 5.5 -26.5zM339.998 852c-3.33301 -22.667 -16.001 -34 -38.001 -34c-11.333 0 -19.666 3.66699 -24.999 11s-7 16 -5 26c1.33301 10 5.5 18.167 12.5 24.5s15.5 9.5 25.5 9.5
c10.667 0 18.667 -3.5 24 -10.5s7.33301 -15.833 6 -26.5z" />
    <glyph glyph-name="Eth" unicode="&#xd0;" horiz-adv-x="640" 
d="M184 715h226.999c74 0 129 -23 165 -69s47 -108 33 -186l-38 -217c-13.333 -78 -44.166 -138 -92.499 -180s-111.5 -63 -189.5 -63h-229c-6.66699 0 -9 3 -7 9l60 344h-75c-6 0 -8.33301 3 -7 9l4 24c1.33301 5.33301 4.33301 8 9 8h76l55 313c0 5.33301 3 8 9 8z
M515.999 249l38.001 216c10.667 65.333 3.16699 115 -22.5 149s-67.834 51 -126.501 51h-182l-48 -271h178c5.33301 0 7.33301 -3 6 -9l-4 -24c0 -5.33301 -3 -8 -9 -8h-178l-53 -303h179c59.333 0 108.5 17.333 147.5 52s63.833 83.667 74.5 147z" />
    <glyph glyph-name="Ntilde" unicode="&#xd1;" horiz-adv-x="674" 
d="M94 0h-39c-6 0 -8.33301 3 -7 9l123 698c0 5.33301 3 8 9 8h45c4.66699 0 8 -2 10 -6l264 -626h2c24 152 39 244 45 276l61 348c1.33301 5.33301 4.66602 8 9.99902 8h38c6 0 8.33301 -3 7 -9l-122 -698c-1.33301 -5.33301 -4.66602 -8 -9.99902 -8h-45c-4 0 -7 2 -9 6
l-193 442c-22 50.667 -46 110 -72 178h-2c-10.667 -73.333 -25 -159 -43 -257l-63 -361c0 -5.33301 -3 -8 -9 -8zM579 866c-8 -15.333 -19.166 -28.5 -33.499 -39.5s-30.166 -16.5 -47.499 -16.5c-16.667 0 -38.334 7 -65.001 21c-28 14 -47.667 21 -59 21
c-19.333 0 -35 -10.667 -47 -32c-3.33301 -5.33301 -7 -6.33301 -11 -3l-19 12c-4.66699 3.33301 -5.33398 7 -2.00098 11c8 16 19.167 29.333 33.5 40s30.166 16 47.499 16c18 0 40.667 -7.33301 68 -22c24.667 -13.333 43.334 -20 56.001 -20c18.667 0 34 10.667 46 32
c2.66699 4 6.66699 4.66699 12 2l18 -12c5.33301 -2.66699 6.33301 -6 3 -10z" />
    <glyph glyph-name="Ograve" unicode="&#xd2;" horiz-adv-x="645" 
d="M575 231c-12 -72 -44.998 -130.333 -98.998 -175s-120.333 -67 -199 -67c-78 0 -136 24 -174 72s-50.667 109.333 -38 184l40 236c13.333 74 46.666 133.333 99.999 178s119.333 67 198 67s137.167 -24.167 175.5 -72.5s51.166 -109.5 38.499 -183.5zM119.002 239
c-10 -57.333 0.00195312 -104.832 30.002 -142.499s74.667 -56.5 134 -56.5c61.333 0 113.666 18.167 156.999 54.5s70 83.166 80 140.499l42 240c10 58.667 0.166992 106.667 -29.5 144s-74.834 56 -135.501 56c-62.667 0 -115.167 -18.167 -157.5 -54.5
s-68.5 -84.5 -78.5 -144.5zM450.004 787.001h-29.001c-4.66699 0 -8 1.66699 -10 5l-83 134c-3.33301 6.66699 -1.66602 10 5.00098 10h41c4.66699 0 8 -2 10 -6l72 -133c3.33301 -6.66699 1.33301 -10 -6 -10z" />
    <glyph glyph-name="Oacute" unicode="&#xd3;" horiz-adv-x="645" 
d="M575 231c-12 -72 -44.998 -130.333 -98.998 -175s-120.333 -67 -199 -67c-78 0 -136 24 -174 72s-50.667 109.333 -38 184l40 236c13.333 74 46.666 133.333 99.999 178s119.333 67 198 67s137.167 -24.167 175.5 -72.5s51.166 -109.5 38.499 -183.5zM119.002 239
c-10 -57.333 0.00195312 -104.832 30.002 -142.499s74.667 -56.5 134 -56.5c61.333 0 113.666 18.167 156.999 54.5s70 83.166 80 140.499l42 240c10 58.667 0.166992 106.667 -29.5 144s-74.834 56 -135.501 56c-62.667 0 -115.167 -18.167 -157.5 -54.5
s-68.5 -84.5 -78.5 -144.5zM403.004 787.001h-31.998c-3.33301 0 -5.5 1 -6.5 3s-0.166992 4.33301 2.5 7l128 135c2.66699 2.66699 6.33398 4 11.001 4h45c3.33301 0 5.66602 -1 6.99902 -3s0.666016 -4.33301 -2.00098 -7l-142 -135
c-2.66699 -2.66699 -6.33398 -4 -11.001 -4z" />
    <glyph glyph-name="Ocircumflex" unicode="&#xd4;" horiz-adv-x="645" 
d="M575 231c-12 -72 -44.998 -130.333 -98.998 -175s-120.333 -67 -199 -67c-78 0 -136 24 -174 72s-50.667 109.333 -38 184l40 236c13.333 74 46.666 133.333 99.999 178s119.333 67 198 67s137.167 -24.167 175.5 -72.5s51.166 -109.5 38.499 -183.5zM119.002 239
c-10 -57.333 0.00195312 -104.832 30.002 -142.499s74.667 -56.5 134 -56.5c61.333 0 113.666 18.167 156.999 54.5s70 83.166 80 140.499l42 240c10 58.667 0.166992 106.667 -29.5 144s-74.834 56 -135.501 56c-62.667 0 -115.167 -18.167 -157.5 -54.5
s-68.5 -84.5 -78.5 -144.5zM310.004 787.001h-38.999c-3.33301 0 -5.5 1 -6.5 3s-0.166992 4.33301 2.5 7l142 135c2 2.66699 5.33301 4 10 4h34c4.66699 0 8 -1.66699 10 -5l97 -134c4 -6.66699 2.33301 -10 -5 -10h-37c-4.66699 0 -8 1.66699 -10 5l-76 106l-111 -107
c-2.66699 -2.66699 -6.33398 -4 -11.001 -4z" />
    <glyph glyph-name="Otilde" unicode="&#xd5;" horiz-adv-x="645" 
d="M575 231c-12 -72 -44.998 -130.333 -98.998 -175s-120.333 -67 -199 -67c-78 0 -136 24 -174 72s-50.667 109.333 -38 184l40 236c13.333 74 46.666 133.333 99.999 178s119.333 67 198 67s137.167 -24.167 175.5 -72.5s51.166 -109.5 38.499 -183.5zM119.002 239
c-10 -57.333 0.00195312 -104.832 30.002 -142.499s74.667 -56.5 134 -56.5c61.333 0 113.666 18.167 156.999 54.5s70 83.166 80 140.499l42 240c10 58.667 0.166992 106.667 -29.5 144s-74.834 56 -135.501 56c-62.667 0 -115.167 -18.167 -157.5 -54.5
s-68.5 -84.5 -78.5 -144.5zM571.004 866.001c-8 -15.333 -19.166 -28.5 -33.499 -39.5s-30.166 -16.5 -47.499 -16.5c-16.667 0 -38.334 7 -65.001 21c-28 14 -47.667 21 -59 21c-19.333 0 -35 -10.667 -47 -32c-3.33301 -5.33301 -7 -6.33301 -11 -3l-19 12
c-4.66699 3.33301 -5.33398 7 -2.00098 11c8 16 19.167 29.333 33.5 40s30.166 16 47.499 16c18 0 40.667 -7.33301 68 -22c24.667 -13.333 43.334 -20 56.001 -20c18.667 0 34 10.667 46 32c2.66699 4 6.66699 4.66699 12 2l18 -12c5.33301 -2.66699 6.33301 -6 3 -10z" />
    <glyph glyph-name="Odieresis" unicode="&#xd6;" horiz-adv-x="645" 
d="M575 231c-12 -72 -44.998 -130.333 -98.998 -175s-120.333 -67 -199 -67c-78 0 -136 24 -174 72s-50.667 109.333 -38 184l40 236c13.333 74 46.666 133.333 99.999 178s119.333 67 198 67s137.167 -24.167 175.5 -72.5s51.166 -109.5 38.499 -183.5zM119.002 239
c-10 -57.333 0.00195312 -104.832 30.002 -142.499s74.667 -56.5 134 -56.5c61.333 0 113.666 18.167 156.999 54.5s70 83.166 80 140.499l42 240c10 58.667 0.166992 106.667 -29.5 144s-74.834 56 -135.501 56c-62.667 0 -115.167 -18.167 -157.5 -54.5
s-68.5 -84.5 -78.5 -144.5zM370.004 842.001c-3.33301 -22.667 -16.001 -34 -38.001 -34c-11.333 0 -19.666 3.66699 -24.999 11s-7.33301 16 -6 26c4.66699 22.667 17.667 34 39 34c11.333 0 19.5 -3.5 24.5 -10.5s6.83301 -15.833 5.5 -26.5zM558.003 842.001
c-3.33301 -22.667 -15.999 -34 -37.999 -34c-11.333 0 -19.5 3.66699 -24.5 11s-6.83301 16 -5.5 26s5.5 18.167 12.5 24.5s15.5 9.5 25.5 9.5c11.333 0 19.666 -3.66699 24.999 -11s7 -16 5 -26z" />
    <glyph glyph-name="multiply" unicode="&#xd7;" horiz-adv-x="562" 
d="M501 539l22 -24c2.66699 -4.66699 2.33398 -8.66699 -0.999023 -12l-194 -173l133 -168c2.66699 -4.66699 2.33398 -8.66699 -0.999023 -12l-26 -22c-4 -4.66699 -7.66699 -4.66699 -11 0l-133 169l-192 -171c-4.66699 -3.33301 -8.66699 -3 -12 1l-22 24
c-2.66699 3.33301 -2.33398 7.33301 0.999023 12l194 172l-133 169c-2.66699 4.66699 -2.33398 8.66699 0.999023 12l26 22c4.66699 4 8.66699 4 12 0l132 -169l192 171c4.66699 3.33301 8.66699 3 12 -1z" />
    <glyph glyph-name="Oslash" unicode="&#xd8;" horiz-adv-x="646" 
d="M576 231c-12 -72 -45.1641 -130.333 -99.4971 -175s-120.833 -67 -199.5 -67c-54.667 0 -100.334 12.667 -137.001 38l-49 -73c-2 -3.33301 -5.33301 -5 -10 -5h-34c-8 0 -9.66699 3.33301 -5 10l66 97c-42 48 -56.333 111 -43 189l41 236
c13.333 74 46.666 133.333 99.999 178s119.333 67 198 67c54 0 98.667 -12 134 -36l48 71c3.33301 3.33301 6.66602 5 9.99902 5h35c3.33301 0 5.5 -1 6.5 -3s0.5 -4.33301 -1.5 -7l-64 -94c44 -48.667 59 -112.667 45 -192zM563.003 475
c9.33301 55.333 1.00098 101.001 -24.999 137.001l-366 -538c30 -22.667 67 -34 111 -34c62 0 114.667 18.167 158 54.5s69.666 83.166 78.999 140.499zM120.004 239.001c-9.33301 -52 -2 -96 22 -132l365 537c-28.667 20.667 -65 31 -109 31
c-62.667 0 -115.167 -18.167 -157.5 -54.5s-68.833 -84.5 -79.5 -144.5z" />
    <glyph glyph-name="Ugrave" unicode="&#xd9;" horiz-adv-x="652" 
d="M561 224c-12 -69.333 -43.501 -125.833 -94.501 -169.5s-112.833 -65.5 -185.5 -65.5c-70 0 -123.667 23.833 -161 71.5s-49.666 107.5 -36.999 179.5l82 467c1.33301 5.33301 4.33301 8 9 8h40c5.33301 0 7.66602 -3 6.99902 -9l-84 -472c-10 -57.333 -1 -104 27 -140
s69.333 -54 124 -54c56 0 104 17.5 144 52.5s65 80.833 75 137.5l83 477c1.33301 5.33301 4.33301 8 9 8h39c6.66699 0 9.33398 -3 8.00098 -9zM449.999 787h-29.001c-4.66699 0 -8 1.66699 -10 5l-83 134c-3.33301 6.66699 -1.66602 10 5.00098 10h41c4.66699 0 8 -2 10 -6
l72 -133c3.33301 -6.66699 1.33301 -10 -6 -10z" />
    <glyph glyph-name="Uacute" unicode="&#xda;" horiz-adv-x="652" 
d="M561 224c-12 -69.333 -43.501 -125.833 -94.501 -169.5s-112.833 -65.5 -185.5 -65.5c-70 0 -123.667 23.833 -161 71.5s-49.666 107.5 -36.999 179.5l82 467c1.33301 5.33301 4.33301 8 9 8h40c5.33301 0 7.66602 -3 6.99902 -9l-84 -472c-10 -57.333 -1 -104 27 -140
s69.333 -54 124 -54c56 0 104 17.5 144 52.5s65 80.833 75 137.5l83 477c1.33301 5.33301 4.33301 8 9 8h39c6.66699 0 9.33398 -3 8.00098 -9zM406.999 787h-31.998c-3.33301 0 -5.5 1 -6.5 3s-0.166992 4.33301 2.5 7l128 135c2.66699 2.66699 6.33398 4 11.001 4h45
c3.33301 0 5.66602 -1 6.99902 -3s0.666016 -4.33301 -2.00098 -7l-142 -135c-2.66699 -2.66699 -6.33398 -4 -11.001 -4z" />
    <glyph glyph-name="Ucircumflex" unicode="&#xdb;" horiz-adv-x="652" 
d="M561 224c-12 -69.333 -43.501 -125.833 -94.501 -169.5s-112.833 -65.5 -185.5 -65.5c-70 0 -123.667 23.833 -161 71.5s-49.666 107.5 -36.999 179.5l82 467c1.33301 5.33301 4.33301 8 9 8h40c5.33301 0 7.66602 -3 6.99902 -9l-84 -472c-10 -57.333 -1 -104 27 -140
s69.333 -54 124 -54c56 0 104 17.5 144 52.5s65 80.833 75 137.5l83 477c1.33301 5.33301 4.33301 8 9 8h39c6.66699 0 9.33398 -3 8.00098 -9zM312.999 787h-38.999c-3.33301 0 -5.5 1 -6.5 3s-0.166992 4.33301 2.5 7l142 135c2 2.66699 5.33301 4 10 4h34
c4.66699 0 8 -1.66699 10 -5l97 -134c4 -6.66699 2.33301 -10 -5 -10h-37c-4.66699 0 -8 1.66699 -10 5l-76 106l-111 -107c-2.66699 -2.66699 -6.33398 -4 -11.001 -4z" />
    <glyph glyph-name="Udieresis" unicode="&#xdc;" horiz-adv-x="652" 
d="M561 224c-12 -69.333 -43.501 -125.833 -94.501 -169.5s-112.833 -65.5 -185.5 -65.5c-70 0 -123.667 23.833 -161 71.5s-49.666 107.5 -36.999 179.5l82 467c1.33301 5.33301 4.33301 8 9 8h40c5.33301 0 7.66602 -3 6.99902 -9l-84 -472c-10 -57.333 -1 -104 27 -140
s69.333 -54 124 -54c56 0 104 17.5 144 52.5s65 80.833 75 137.5l83 477c1.33301 5.33301 4.33301 8 9 8h39c6.66699 0 9.33398 -3 8.00098 -9zM372.999 842c-3.33301 -22.667 -16.001 -34 -38.001 -34c-11.333 0 -19.666 3.66699 -24.999 11s-7.33301 16 -6 26
c4.66699 22.667 17.667 34 39 34c11.333 0 19.5 -3.5 24.5 -10.5s6.83301 -15.833 5.5 -26.5zM560.998 842c-3.33301 -22.667 -15.999 -34 -37.999 -34c-11.333 0 -19.5 3.66699 -24.5 11s-6.83301 16 -5.5 26s5.5 18.167 12.5 24.5s15.5 9.5 25.5 9.5
c11.333 0 19.666 -3.66699 24.999 -11s7 -16 5 -26z" />
    <glyph glyph-name="Yacute" unicode="&#xdd;" horiz-adv-x="520" 
d="M235 0h-39.001c-6.66699 0 -9 3 -7 9l47 268l-152 428c-2 6.66699 0 10 6 10h42c4.66699 0 7.33398 -2.33301 8.00098 -7l131 -380h1l259 382c2 3.33301 5 5 9 5h46c8 0 10 -3.33301 6 -10l-299 -428l-49 -269c0 -5.33301 -3 -8 -9 -8zM340.999 787h-31.998
c-3.33301 0 -5.5 1 -6.5 3s-0.166992 4.33301 2.5 7l128 135c2.66699 2.66699 6.33398 4 11.001 4h45c3.33301 0 5.66602 -1 6.99902 -3s0.666016 -4.33301 -2.00098 -7l-142 -135c-2.66699 -2.66699 -6.33398 -4 -11.001 -4z" />
    <glyph glyph-name="Thorn" unicode="&#xde;" horiz-adv-x="587" 
d="M206 595l148.999 0.000976562c76 0 131.5 -21.333 166.5 -64s46.5 -98.334 34.5 -167.001c-26 -143.333 -121 -215 -285 -215h-143l-25 -141c-1.33301 -5.33301 -4.33301 -8 -9 -8h-39c-6 0 -8.33301 3 -7 9l123 698c0 5.33301 3 8 9 8h38
c6.66699 0 9.33398 -3 8.00098 -9zM276.999 199.001c129.333 0 203.667 56.667 223 170c10 57.333 2.16699 101 -23.5 131s-69.167 45 -130.5 45h-149l-60 -346h140z" />
    <glyph glyph-name="germandbls" unicode="&#xdf;" horiz-adv-x="529" 
d="M343 726c59.333 0 103.502 -18.334 132.502 -55.001s38.167 -86.667 27.5 -150c-12.667 -74 -52.334 -123 -119.001 -147c38 -12 64.333 -34.167 79 -66.5s17.667 -70.5 9 -114.5c-11.333 -63.333 -38.333 -112.166 -81 -146.499s-95 -51.5 -157 -51.5
c-36 0 -69.333 6.66699 -100 20c-3.33301 0.666992 -5 4 -5 10l5 29c1.33301 6 4.66602 8 9.99902 6c30.667 -12 60 -18 88 -18c50.667 0 92.667 13.667 126 41s54.333 66.333 63 117c7.33301 44 1.66602 79.667 -17.001 107s-53.334 41 -104.001 41h-96
c-5.33301 0 -7.66602 3 -6.99902 9l5 30c0 5.33301 3 8 9 8h93c42.667 0 76.5 13 101.5 39s40.5 57.333 46.5 94c8.66699 48 3.16699 85 -16.5 111s-51.5 39 -95.5 39c-94 0 -150.667 -55.333 -170 -166l-89 -504c-1.33301 -5.33301 -4.66602 -8 -9.99902 -8h-36
c-6 0 -8.33301 3 -7 9l90 508c12.667 68 38.5 119.833 77.5 155.5s88.167 53.5 147.5 53.5z" />
    <glyph glyph-name="agrave" unicode="&#xe0;" horiz-adv-x="493" 
d="M383 26c-64.667 -24.667 -128.331 -36.9971 -190.998 -36.9971c-58 0 -104 16.167 -138 48.5s-46 75.166 -36 128.499c9.33301 47.333 33.833 83.166 73.5 107.499s90.167 36.5 151.5 36.5c47.333 0 93.666 -5.66699 138.999 -17l9 54c16.667 88 -22.333 132 -117 132
c-54.667 0 -106.334 -14.333 -155.001 -43c-5.33301 -4 -8.66602 -3 -9.99902 3l-12 27c-2 4 -1.33301 7.66699 2 11c53.333 32.667 114.666 49 183.999 49c61.333 0 106 -16.833 134 -50.5s37 -77.834 27 -132.501l-54 -308c-0.666992 -3.33301 -3 -6.33301 -7 -9z
M71.0029 160.003c-7.33301 -38 0.5 -68 23.5 -90s56.833 -33 101.5 -33c52 0 100.333 8.33301 145 25l33 184c-48 11.333 -92.333 17 -133 17c-48.667 0 -87.667 -8.83301 -117 -26.5s-47 -43.167 -53 -76.5zM276.003 741.003l52 -133c2.66699 -6.66699 0.666992 -10 -6 -10
h-27c-4 0 -7.33301 2 -10 6l-62 133c-3.33301 6.66699 -1.33301 10 6 10h37c4.66699 0 8 -2 10 -6z" />
    <glyph glyph-name="aacute" unicode="&#xe1;" horiz-adv-x="493" 
d="M383 26c-64.667 -24.667 -128.331 -36.9971 -190.998 -36.9971c-58 0 -104 16.167 -138 48.5s-46 75.166 -36 128.499c9.33301 47.333 33.833 83.166 73.5 107.499s90.167 36.5 151.5 36.5c47.333 0 93.666 -5.66699 138.999 -17l9 54c16.667 88 -22.333 132 -117 132
c-54.667 0 -106.334 -14.333 -155.001 -43c-5.33301 -4 -8.66602 -3 -9.99902 3l-12 27c-2 4 -1.33301 7.66699 2 11c53.333 32.667 114.666 49 183.999 49c61.333 0 106 -16.833 134 -50.5s37 -77.834 27 -132.501l-54 -308c-0.666992 -3.33301 -3 -6.33301 -7 -9z
M71.0029 160.003c-7.33301 -38 0.5 -68 23.5 -90s56.833 -33 101.5 -33c52 0 100.333 8.33301 145 25l33 184c-48 11.333 -92.333 17 -133 17c-48.667 0 -87.667 -8.83301 -117 -26.5s-47 -43.167 -53 -76.5zM285.003 598.003h-27.999c-3.33301 0 -5.5 1 -6.5 3
s-0.5 4.33301 1.5 7l104 134c1.33301 3.33301 4.66602 5 9.99902 5h40c8 0 9.33301 -3.33301 4 -10l-115 -134c-2 -3.33301 -5.33301 -5 -10 -5z" />
    <glyph glyph-name="acircumflex" unicode="&#xe2;" horiz-adv-x="493" 
d="M383 26c-64.667 -24.667 -128.331 -36.9971 -190.998 -36.9971c-58 0 -104 16.167 -138 48.5s-46 75.166 -36 128.499c9.33301 47.333 33.833 83.166 73.5 107.499s90.167 36.5 151.5 36.5c47.333 0 93.666 -5.66699 138.999 -17l9 54c16.667 88 -22.333 132 -117 132
c-54.667 0 -106.334 -14.333 -155.001 -43c-5.33301 -4 -8.66602 -3 -9.99902 3l-12 27c-2 4 -1.33301 7.66699 2 11c53.333 32.667 114.666 49 183.999 49c61.333 0 106 -16.833 134 -50.5s37 -77.834 27 -132.501l-54 -308c-0.666992 -3.33301 -3 -6.33301 -7 -9z
M71.0029 160.003c-7.33301 -38 0.5 -68 23.5 -90s56.833 -33 101.5 -33c52 0 100.333 8.33301 145 25l33 184c-48 11.333 -92.333 17 -133 17c-48.667 0 -87.667 -8.83301 -117 -26.5s-47 -43.167 -53 -76.5zM352.003 742.003l86.001 -134
c3.33301 -6.66699 1.66602 -10 -5.00098 -10h-33c-4.66699 0 -8 2 -10 6l-68 108l-109 -109c-3.33301 -3.33301 -7 -5 -11 -5h-36c-3.33301 0 -5.5 1 -6.5 3s-0.166992 4.33301 2.5 7l137 135c2 2.66699 5.33301 4 10 4h33c4 0 7.33301 -1.66699 10 -5z" />
    <glyph glyph-name="atilde" unicode="&#xe3;" horiz-adv-x="493" 
d="M383 26c-64.667 -24.667 -128.331 -36.9971 -190.998 -36.9971c-58 0 -104 16.167 -138 48.5s-46 75.166 -36 128.499c9.33301 47.333 33.833 83.166 73.5 107.499s90.167 36.5 151.5 36.5c47.333 0 93.666 -5.66699 138.999 -17l9 54c16.667 88 -22.333 132 -117 132
c-54.667 0 -106.334 -14.333 -155.001 -43c-5.33301 -4 -8.66602 -3 -9.99902 3l-12 27c-2 4 -1.33301 7.66699 2 11c53.333 32.667 114.666 49 183.999 49c61.333 0 106 -16.833 134 -50.5s37 -77.834 27 -132.501l-54 -308c-0.666992 -3.33301 -3 -6.33301 -7 -9z
M71.0029 160.003c-7.33301 -38 0.5 -68 23.5 -90s56.833 -33 101.5 -33c52 0 100.333 8.33301 145 25l33 184c-48 11.333 -92.333 17 -133 17c-48.667 0 -87.667 -8.83301 -117 -26.5s-47 -43.167 -53 -76.5zM451.003 657.003c-22 -37.333 -49.332 -56 -81.999 -56
c-17.333 0 -39 7 -65 21c-25.333 13.333 -44.333 20 -57 20c-20 0 -36 -10.667 -48 -32c-2.66699 -4.66699 -6.33398 -5.33398 -11.001 -2.00098l-19 12c-5.33301 2 -6.33301 5.66699 -3 11c22 36.667 49.667 55 83 55c18 0 40 -7 66 -21c25.333 -14 44 -21 56 -21
c16.667 0 32 10.667 46 32c3.33301 4.66699 7.33301 5.66699 12 3l18 -12c4.66699 -3.33301 6 -6.66602 4 -9.99902z" />
    <glyph glyph-name="adieresis" unicode="&#xe4;" horiz-adv-x="493" 
d="M383 26c-64.667 -24.667 -128.331 -36.9971 -190.998 -36.9971c-58 0 -104 16.167 -138 48.5s-46 75.166 -36 128.499c9.33301 47.333 33.833 83.166 73.5 107.499s90.167 36.5 151.5 36.5c47.333 0 93.666 -5.66699 138.999 -17l9 54c16.667 88 -22.333 132 -117 132
c-54.667 0 -106.334 -14.333 -155.001 -43c-5.33301 -4 -8.66602 -3 -9.99902 3l-12 27c-2 4 -1.33301 7.66699 2 11c53.333 32.667 114.666 49 183.999 49c61.333 0 106 -16.833 134 -50.5s37 -77.834 27 -132.501l-54 -308c-0.666992 -3.33301 -3 -6.33301 -7 -9z
M71.0029 160.003c-7.33301 -38 0.5 -68 23.5 -90s56.833 -33 101.5 -33c52 0 100.333 8.33301 145 25l33 184c-48 11.333 -92.333 17 -133 17c-48.667 0 -87.667 -8.83301 -117 -26.5s-47 -43.167 -53 -76.5zM255.003 654.003
c-1.33301 -9.33301 -5.49902 -16.833 -12.499 -22.5s-15.167 -8.5 -24.5 -8.5c-11.333 0 -19.666 3.33301 -24.999 10s-7 15.667 -5 27c2 10 6.5 17.833 13.5 23.5s15.167 8.5 24.5 8.5c11.333 0 19.666 -3.5 24.999 -10.5s6.66602 -16.167 3.99902 -27.5zM433.004 654.003
c-4.66699 -20.667 -17.332 -31 -37.999 -31c-23.333 0 -33 12.333 -29 37c1.33301 10 5.5 17.833 12.5 23.5s15.167 8.5 24.5 8.5c11.333 0 19.666 -3.5 24.999 -10.5s7 -16.167 5 -27.5z" />
    <glyph glyph-name="aring" unicode="&#xe5;" horiz-adv-x="493" 
d="M383 26c-64.667 -24.667 -128.331 -36.9971 -190.998 -36.9971c-58 0 -104 16.167 -138 48.5s-46 75.166 -36 128.499c9.33301 47.333 33.833 83.166 73.5 107.499s90.167 36.5 151.5 36.5c47.333 0 93.666 -5.66699 138.999 -17l9 54c16.667 88 -22.333 132 -117 132
c-54.667 0 -106.334 -14.333 -155.001 -43c-5.33301 -4 -8.66602 -3 -9.99902 3l-12 27c-2 4 -1.33301 7.66699 2 11c53.333 32.667 114.666 49 183.999 49c61.333 0 106 -16.833 134 -50.5s37 -77.834 27 -132.501l-54 -308c-0.666992 -3.33301 -3 -6.33301 -7 -9z
M71.0029 160.003c-7.33301 -38 0.5 -68 23.5 -90s56.833 -33 101.5 -33c52 0 100.333 8.33301 145 25l33 184c-48 11.333 -92.333 17 -133 17c-48.667 0 -87.667 -8.83301 -117 -26.5s-47 -43.167 -53 -76.5zM411.003 681.003c-4.66699 -30 -17.667 -53.5 -39 -70.5
s-46.666 -25.5 -75.999 -25.5c-26.667 0 -48.334 9.5 -65.001 28.5s-22.667 41.833 -18 68.5c5.33301 30.667 18.5 54.5 39.5 71.5s47.167 25.5 78.5 25.5c26 0 47 -9.66699 63 -29s21.667 -42.333 17 -69zM249.003 681.003c-3.33301 -18 0.166016 -32.833 10.499 -44.5
s24.833 -17.5 43.5 -17.5c18 0 33.833 5.83301 47.5 17.5s22.167 26.5 25.5 44.5c3.33301 19.333 0.333008 35 -9 47s-23.333 18 -42 18c-19.333 0 -36.166 -6 -50.499 -18s-22.833 -27.667 -25.5 -47z" />
    <glyph glyph-name="ae" unicode="&#xe6;" horiz-adv-x="810" 
d="M384 65c-28 -24 -56.168 -42.666 -84.501 -55.999s-62.166 -20 -101.499 -20c-63.333 0 -111.5 16.5 -144.5 49.5s-44.167 76.5 -33.5 130.5c8.66699 44 33.5 77.5 74.5 100.5s93.167 34.5 156.5 34.5c43.333 0 85 -5 125 -15l10 62c14 84.667 -23.333 127 -112 127
c-59.333 0 -112.333 -14 -159 -42c-5.33301 -4 -9 -3 -11 3l-13 28c-2 4.66699 -0.666992 8.33398 4 11.001c56 32 117 48 183 48c87.333 0 137 -33.667 149 -101c19.333 31.333 45.333 56 78 74s67.334 27 104.001 27c58.667 0 104.5 -18.333 137.5 -55
s43.833 -84.334 32.5 -143.001l-16 -81c-1.33301 -5.33301 -4.33301 -8 -9 -8h-336l-9 -54c-7.33301 -47.333 -0.5 -83.833 20.5 -109.5s53.5 -38.5 97.5 -38.5c60 0 116.667 22 170 66c4.66699 4 8.66699 3.33301 12 -2l14 -24c2 -4.66699 1.33301 -8.33398 -2 -11.001
c-26.667 -23.333 -57.834 -42 -93.501 -56s-70.5 -21 -104.5 -21c-62.667 0 -109 25.333 -139 76zM70.999 162.001c-7.33301 -40 0.666016 -70.833 23.999 -92.5s58 -32.5 104 -32.5c60 0 113.667 23.667 161 71c-6 24.667 -6.66699 50.667 -2 78l10 58
c-40 10 -80 15 -120 15c-49.333 0 -89.666 -8.16699 -120.999 -24.5s-50 -40.5 -56 -72.5zM434.998 333.001l-9.00098 -48h294l8 44c9.33301 46.667 2.5 83.167 -20.5 109.5s-57.5 39.5 -103.5 39.5c-42.667 0 -79.667 -13.5 -111 -40.5s-50.666 -61.833 -57.999 -104.5z
" />
    <glyph glyph-name="ccedilla" unicode="&#xe7;" horiz-adv-x="448" 
d="M385 48c-48 -36 -102.333 -55.665 -163 -58.998l-26 -44c26 -0.666992 46 -7.5 60 -20.5s19 -30.5 15 -52.5c-9.33301 -50.667 -47 -76 -113 -76c-20 0 -39.333 3.33301 -58 10c-4 1.33301 -6 4.33301 -6 9l2 18c0 5.33301 3 7.33301 9 6
c15.333 -5.33301 31.333 -8 48 -8c20 0 37 4.33301 51 13s22.333 21 25 37c2 14 -1.83301 24.167 -11.5 30.5s-26.834 9.83301 -51.501 10.5c-5.33301 0 -8.66602 1.66699 -9.99902 5c-2 2 -1.66699 5 1 9l29 55c-53.333 4.66699 -93.333 25 -120 61s-35 80.667 -25 134
l30 164c9.33301 52.667 33.833 95.167 73.5 127.5s88.5 48.5 146.5 48.5c56 0 107 -17.667 153 -53c4 -2.66699 4.33301 -6.33398 1 -11.001l-19 -25c-3.33301 -4 -7.33301 -4.66699 -12 -2c-36.667 29.333 -78.667 44 -126 44c-44 0 -80.667 -12.167 -110 -36.5
s-47.666 -56.166 -54.999 -95.499l-29 -165c-8 -44 -1.33301 -79.333 20 -106s54.666 -40 99.999 -40c50.667 0 100 17.667 148 53c4 3.33301 7.66699 2.66602 11 -2.00098l15 -28c2 -4.66699 1 -8.33398 -3 -11.001z" />
    <glyph glyph-name="egrave" unicode="&#xe8;" horiz-adv-x="502" 
d="M70 342c10.667 58 37.1689 103.166 79.502 135.499s91.833 48.5 148.5 48.5c60.667 0 107.167 -17 139.5 -51s42.833 -80.667 31.5 -140l-18 -96c-1.33301 -5.33301 -4.33301 -8 -9 -8h-339l-11 -58c-8.66699 -42.667 -0.833984 -76.167 23.499 -100.5
s58.166 -36.5 101.499 -36.5c58.667 0 115.334 22.333 170.001 67c4.66699 2.66699 8.66699 2 12 -2l16 -25c3.33301 -5.33301 3 -9 -1 -11c-60 -50.667 -127.667 -76 -203 -76c-56 0 -101.333 16.833 -136 50.5s-46.334 78.834 -35.001 135.501zM406.002 276.999l12 62
c8.66699 44.667 1.5 79.167 -21.5 103.5s-57.167 36.5 -102.5 36.5c-44 0 -81.5 -12.5 -112.5 -37.5s-50.5 -59.5 -58.5 -103.5l-12 -61h295zM287.002 740.999l52 -133c2.66699 -6.66699 0.666992 -10 -6 -10h-27c-4 0 -7.33301 2 -10 6l-62 133
c-3.33301 6.66699 -1.33301 10 6 10h37c4.66699 0 8 -2 10 -6z" />
    <glyph glyph-name="eacute" unicode="&#xe9;" horiz-adv-x="502" 
d="M70 342c10.667 58 37.1689 103.166 79.502 135.499s91.833 48.5 148.5 48.5c60.667 0 107.167 -17 139.5 -51s42.833 -80.667 31.5 -140l-18 -96c-1.33301 -5.33301 -4.33301 -8 -9 -8h-339l-11 -58c-8.66699 -42.667 -0.833984 -76.167 23.499 -100.5
s58.166 -36.5 101.499 -36.5c58.667 0 115.334 22.333 170.001 67c4.66699 2.66699 8.66699 2 12 -2l16 -25c3.33301 -5.33301 3 -9 -1 -11c-60 -50.667 -127.667 -76 -203 -76c-56 0 -101.333 16.833 -136 50.5s-46.334 78.834 -35.001 135.501zM406.002 276.999l12 62
c8.66699 44.667 1.5 79.167 -21.5 103.5s-57.167 36.5 -102.5 36.5c-44 0 -81.5 -12.5 -112.5 -37.5s-50.5 -59.5 -58.5 -103.5l-12 -61h295zM303.002 597.999h-27.999c-3.33301 0 -5.5 1 -6.5 3s-0.5 4.33301 1.5 7l104 134c1.33301 3.33301 4.66602 5 9.99902 5h40
c8 0 9.33301 -3.33301 4 -10l-115 -134c-2 -3.33301 -5.33301 -5 -10 -5z" />
    <glyph glyph-name="ecircumflex" unicode="&#xea;" horiz-adv-x="502" 
d="M70 342c10.667 58 37.1689 103.166 79.502 135.499s91.833 48.5 148.5 48.5c60.667 0 107.167 -17 139.5 -51s42.833 -80.667 31.5 -140l-18 -96c-1.33301 -5.33301 -4.33301 -8 -9 -8h-339l-11 -58c-8.66699 -42.667 -0.833984 -76.167 23.499 -100.5
s58.166 -36.5 101.499 -36.5c58.667 0 115.334 22.333 170.001 67c4.66699 2.66699 8.66699 2 12 -2l16 -25c3.33301 -5.33301 3 -9 -1 -11c-60 -50.667 -127.667 -76 -203 -76c-56 0 -101.333 16.833 -136 50.5s-46.334 78.834 -35.001 135.501zM406.002 276.999l12 62
c8.66699 44.667 1.5 79.167 -21.5 103.5s-57.167 36.5 -102.5 36.5c-44 0 -81.5 -12.5 -112.5 -37.5s-50.5 -59.5 -58.5 -103.5l-12 -61h295zM370.002 741.999l86.001 -134c3.33301 -6.66699 1.66602 -10 -5.00098 -10h-33c-4.66699 0 -8 2 -10 6l-68 108l-109 -109
c-3.33301 -3.33301 -7 -5 -11 -5h-36c-3.33301 0 -5.5 1 -6.5 3s-0.166992 4.33301 2.5 7l137 135c2 2.66699 5.33301 4 10 4h33c4 0 7.33301 -1.66699 10 -5z" />
    <glyph glyph-name="edieresis" unicode="&#xeb;" horiz-adv-x="502" 
d="M70 342c10.667 58 37.1689 103.166 79.502 135.499s91.833 48.5 148.5 48.5c60.667 0 107.167 -17 139.5 -51s42.833 -80.667 31.5 -140l-18 -96c-1.33301 -5.33301 -4.33301 -8 -9 -8h-339l-11 -58c-8.66699 -42.667 -0.833984 -76.167 23.499 -100.5
s58.166 -36.5 101.499 -36.5c58.667 0 115.334 22.333 170.001 67c4.66699 2.66699 8.66699 2 12 -2l16 -25c3.33301 -5.33301 3 -9 -1 -11c-60 -50.667 -127.667 -76 -203 -76c-56 0 -101.333 16.833 -136 50.5s-46.334 78.834 -35.001 135.501zM406.002 276.999l12 62
c8.66699 44.667 1.5 79.167 -21.5 103.5s-57.167 36.5 -102.5 36.5c-44 0 -81.5 -12.5 -112.5 -37.5s-50.5 -59.5 -58.5 -103.5l-12 -61h295zM273.002 653.999c-1.33301 -9.33301 -5.49902 -16.833 -12.499 -22.5s-15.167 -8.5 -24.5 -8.5
c-11.333 0 -19.666 3.33301 -24.999 10s-7 15.667 -5 27c2 10 6.5 17.833 13.5 23.5s15.167 8.5 24.5 8.5c11.333 0 19.666 -3.5 24.999 -10.5s6.66602 -16.167 3.99902 -27.5zM451.003 653.999c-4.66699 -20.667 -17.332 -31 -37.999 -31c-23.333 0 -33 12.333 -29 37
c1.33301 10 5.5 17.833 12.5 23.5s15.167 8.5 24.5 8.5c11.333 0 19.666 -3.5 24.999 -10.5s7 -16.167 5 -27.5z" />
    <glyph glyph-name="igrave" unicode="&#xec;" horiz-adv-x="196" 
d="M71 0h-35.999c-6 0 -8.33301 3 -7 9l89 498c0 5.33301 3 8 9 8h36c5.33301 0 7.66602 -3 6.99902 -9l-89 -498c0 -5.33301 -3 -8 -9 -8zM129.001 741l52 -133c2.66699 -6.66699 0.666992 -10 -6 -10h-27c-4 0 -7.33301 2 -10 6l-62 133
c-3.33301 6.66699 -1.33301 10 6 10h37c4.66699 0 8 -2 10 -6z" />
    <glyph glyph-name="iacute" unicode="&#xed;" horiz-adv-x="196" 
d="M71 0h-35.999c-6 0 -8.33301 3 -7 9l89 498c0 5.33301 3 8 9 8h36c5.33301 0 7.66602 -3 6.99902 -9l-89 -498c0 -5.33301 -3 -8 -9 -8zM155.001 598h-27.999c-3.33301 0 -5.5 1 -6.5 3s-0.5 4.33301 1.5 7l104 134c1.33301 3.33301 4.66602 5 9.99902 5h40
c8 0 9.33301 -3.33301 4 -10l-115 -134c-2 -3.33301 -5.33301 -5 -10 -5z" />
    <glyph glyph-name="icircumflex" unicode="&#xee;" horiz-adv-x="196" 
d="M71 0h-35.999c-6 0 -8.33301 3 -7 9l89 498c0 5.33301 3 8 9 8h36c5.33301 0 7.66602 -3 6.99902 -9l-89 -498c0 -5.33301 -3 -8 -9 -8zM69.001 598h-34c-3.33301 0 -5.5 1 -6.5 3s-0.166992 4.33301 2.5 7l127 135c2 2.66699 5.33301 4 10 4h32
c5.33301 0 8.33301 -1.66699 9 -5l78 -134c3.33301 -6.66699 1.33301 -10 -6 -10h-34c-4.66699 0 -8 2 -10 6l-59 107l-98 -108c-3.33301 -3.33301 -7 -5 -11 -5z" />
    <glyph glyph-name="idieresis" unicode="&#xef;" horiz-adv-x="196" 
d="M71 0h-35.999c-6 0 -8.33301 3 -7 9l89 498c0 5.33301 3 8 9 8h36c5.33301 0 7.66602 -3 6.99902 -9l-89 -498c0 -5.33301 -3 -8 -9 -8zM128.001 654c-1.33301 -9.33301 -5.50098 -16.833 -12.501 -22.5s-15.167 -8.5 -24.5 -8.5c-11.333 0 -19.666 3.33301 -24.999 10
s-7 15.667 -5 27c2 10 6.5 17.833 13.5 23.5s15.167 8.5 24.5 8.5c10.667 0 18.667 -3.5 24 -10.5s7 -16.167 5 -27.5zM280 654c-4.66699 -20.667 -17.332 -31 -37.999 -31c-23.333 0 -33 12.333 -29 37c1.33301 10 5.5 17.833 12.5 23.5s15.167 8.5 24.5 8.5
c11.333 0 19.666 -3.5 24.999 -10.5s7 -16.167 5 -27.5z" />
    <glyph glyph-name="eth" unicode="&#xf0;" horiz-adv-x="525" 
d="M509 695l-83.999 -55.998c58 -63.333 76 -157.666 54 -282.999l-31 -177c-10 -56.667 -35.833 -102.5 -77.5 -137.5s-94.834 -52.5 -159.501 -52.5c-63.333 0 -110.166 18.167 -140.499 54.5s-40.833 82.833 -31.5 139.5l24 126c10.667 56.667 36.167 102.167 76.5 136.5
s90.166 51.5 149.499 51.5c36 0 66.833 -7.5 92.5 -22.5s44.5 -34.833 56.5 -59.5c8 84 -10.333 149 -55 195l-116 -78c-4 -2.66699 -7.33301 -1.33398 -10 3.99902l-8 15c-4 5.33301 -4 9.33301 0 12l105 71c-30.667 21.333 -71 37.666 -121 48.999
c-8.66699 0 -11.667 3.66699 -9 11l6 30c1.33301 4 4 5.66699 8 5c67.333 -12.667 120.666 -34.334 159.999 -65.001l93 63c3.33301 2 7 0.333008 11 -5l8 -15c2.66699 -6 2.33398 -10 -0.999023 -12zM92.001 177.002c-7.33301 -42.667 -0.667969 -76.833 19.999 -102.5
s54.667 -38.5 102 -38.5c50 0 90.667 13.333 122 40s51 61.667 59 105l21 117c8.66699 44 2.33398 80.5 -18.999 109.5s-56 43.5 -104 43.5c-48.667 0 -88.167 -13.333 -118.5 -40s-49.833 -62 -58.5 -106z" />
    <glyph glyph-name="ntilde" unicode="&#xf1;" horiz-adv-x="534" 
d="M69 0h-36c-6 0 -8.33301 3 -7 9l85 471c0 4 2.33301 7 7 9c62 24.667 124 37 186 37c66.667 0 115.5 -18.5 146.5 -55.5s40.167 -89.5 27.5 -157.5l-55 -305c0 -5.33301 -3 -8 -9 -8h-35c-6 0 -8.66699 3 -8 9l55 308c20 108 -22.333 162 -127 162
c-46 0 -92.667 -8.66699 -140 -26l-81 -445c0 -5.33301 -3 -8 -9 -8zM473 657c-22 -37.333 -49.332 -56 -81.999 -56c-17.333 0 -39 7 -65 21c-25.333 13.333 -44.333 20 -57 20c-20 0 -36 -10.667 -48 -32c-2.66699 -4.66699 -6.33398 -5.33398 -11.001 -2.00098l-19 12
c-5.33301 2 -6.33301 5.66699 -3 11c22 36.667 49.667 55 83 55c18 0 40 -7 66 -21c25.333 -14 44 -21 56 -21c16.667 0 32 10.667 46 32c3.33301 4.66699 7.33301 5.66699 12 3l18 -12c4.66699 -3.33301 6 -6.66602 4 -9.99902z" />
    <glyph glyph-name="ograve" unicode="&#xf2;" 
d="M446 179c-10.667 -56.667 -36.8311 -102.503 -78.498 -137.503s-93.834 -52.5 -156.501 -52.5c-62 0 -108.333 19.333 -139 58s-41 86.334 -31 143.001l27 150c10 54.667 36 99.334 78 134.001s94 52 156 52c63.333 0 110.166 -19.167 140.499 -57.5
s40.5 -85.166 30.5 -140.499zM94.0029 185.997c-8 -44.667 -1.66699 -80.667 19 -108s54.667 -41 102 -41c48.667 0 88.5 13.5 119.5 40.5s50.5 62.167 58.5 105.5l27 150c7.33301 42 0.666016 76.833 -20.001 104.5s-55 41.5 -103 41.5
c-47.333 0 -86.666 -13.5 -117.999 -40.5s-51 -61.5 -59 -103.5zM295.003 740.997l52 -133c2.66699 -6.66699 0.666992 -10 -6 -10h-27c-4 0 -7.33301 2 -10 6l-62 133c-3.33301 6.66699 -1.33301 10 6 10h37c4.66699 0 8 -2 10 -6z" />
    <glyph glyph-name="oacute" unicode="&#xf3;" 
d="M446 179c-10.667 -56.667 -36.8311 -102.503 -78.498 -137.503s-93.834 -52.5 -156.501 -52.5c-62 0 -108.333 19.333 -139 58s-41 86.334 -31 143.001l27 150c10 54.667 36 99.334 78 134.001s94 52 156 52c63.333 0 110.166 -19.167 140.499 -57.5
s40.5 -85.166 30.5 -140.499zM94.0029 185.997c-8 -44.667 -1.66699 -80.667 19 -108s54.667 -41 102 -41c48.667 0 88.5 13.5 119.5 40.5s50.5 62.167 58.5 105.5l27 150c7.33301 42 0.666016 76.833 -20.001 104.5s-55 41.5 -103 41.5
c-47.333 0 -86.666 -13.5 -117.999 -40.5s-51 -61.5 -59 -103.5zM306.003 597.997h-28c-3.33301 0 -5.5 1 -6.5 3s-0.5 4.33301 1.5 7l104 134c2 3.33301 5.33301 5 10 5h40c8 0 9.33301 -3.33301 4 -10l-115 -134c-2 -3.33301 -5.33301 -5 -10 -5z" />
    <glyph glyph-name="ocircumflex" unicode="&#xf4;" 
d="M446 179c-10.667 -56.667 -36.8311 -102.503 -78.498 -137.503s-93.834 -52.5 -156.501 -52.5c-62 0 -108.333 19.333 -139 58s-41 86.334 -31 143.001l27 150c10 54.667 36 99.334 78 134.001s94 52 156 52c63.333 0 110.166 -19.167 140.499 -57.5
s40.5 -85.166 30.5 -140.499zM94.0029 185.997c-8 -44.667 -1.66699 -80.667 19 -108s54.667 -41 102 -41c48.667 0 88.5 13.5 119.5 40.5s50.5 62.167 58.5 105.5l27 150c7.33301 42 0.666016 76.833 -20.001 104.5s-55 41.5 -103 41.5
c-47.333 0 -86.666 -13.5 -117.999 -40.5s-51 -61.5 -59 -103.5zM370.003 741.997l86.001 -134c3.33301 -6.66699 1.66602 -10 -5.00098 -10h-33c-4.66699 0 -8 2 -10 6l-68 108l-109 -109c-3.33301 -3.33301 -7 -5 -11 -5h-36c-3.33301 0 -5.5 1 -6.5 3
s-0.166992 4.33301 2.5 7l137 135c2 2.66699 5.33301 4 10 4h33c4 0 7.33301 -1.66699 10 -5z" />
    <glyph glyph-name="otilde" unicode="&#xf5;" 
d="M446 179c-10.667 -56.667 -36.8311 -102.503 -78.498 -137.503s-93.834 -52.5 -156.501 -52.5c-62 0 -108.333 19.333 -139 58s-41 86.334 -31 143.001l27 150c10 54.667 36 99.334 78 134.001s94 52 156 52c63.333 0 110.166 -19.167 140.499 -57.5
s40.5 -85.166 30.5 -140.499zM94.0029 185.997c-8 -44.667 -1.66699 -80.667 19 -108s54.667 -41 102 -41c48.667 0 88.5 13.5 119.5 40.5s50.5 62.167 58.5 105.5l27 150c7.33301 42 0.666016 76.833 -20.001 104.5s-55 41.5 -103 41.5
c-47.333 0 -86.666 -13.5 -117.999 -40.5s-51 -61.5 -59 -103.5zM469.003 656.997c-22 -37.333 -49.332 -56 -81.999 -56c-17.333 0 -39 7 -65 21c-25.333 13.333 -44.333 20 -57 20c-20 0 -36 -10.667 -48 -32c-2.66699 -4.66699 -6.33398 -5.33398 -11.001 -2.00098
l-19 12c-5.33301 2 -6.33301 5.66699 -3 11c22 36.667 49.667 55 83 55c18 0 40 -7 66 -21c25.333 -14 44 -21 56 -21c16.667 0 32 10.667 46 32c3.33301 4.66699 7.33301 5.66699 12 3l18 -12c4.66699 -3.33301 6 -6.66602 4 -9.99902z" />
    <glyph glyph-name="odieresis" unicode="&#xf6;" 
d="M446 179c-10.667 -56.667 -36.8311 -102.503 -78.498 -137.503s-93.834 -52.5 -156.501 -52.5c-62 0 -108.333 19.333 -139 58s-41 86.334 -31 143.001l27 150c10 54.667 36 99.334 78 134.001s94 52 156 52c63.333 0 110.166 -19.167 140.499 -57.5
s40.5 -85.166 30.5 -140.499zM94.0029 185.997c-8 -44.667 -1.66699 -80.667 19 -108s54.667 -41 102 -41c48.667 0 88.5 13.5 119.5 40.5s50.5 62.167 58.5 105.5l27 150c7.33301 42 0.666016 76.833 -20.001 104.5s-55 41.5 -103 41.5
c-47.333 0 -86.666 -13.5 -117.999 -40.5s-51 -61.5 -59 -103.5zM273.003 653.997c-1.33301 -9.33301 -5.49902 -16.833 -12.499 -22.5s-15.167 -8.5 -24.5 -8.5c-11.333 0 -19.666 3.33301 -24.999 10s-7 15.667 -5 27c2 10 6.5 17.833 13.5 23.5s15.167 8.5 24.5 8.5
c11.333 0 19.666 -3.5 24.999 -10.5s6.66602 -16.167 3.99902 -27.5zM451.004 653.997c-4.66699 -20.667 -17.332 -31 -37.999 -31c-23.333 0 -33 12.333 -29 37c1.33301 10 5.5 17.833 12.5 23.5s15.167 8.5 24.5 8.5c11.333 0 19.666 -3.5 24.999 -10.5s7 -16.167 5 -27.5
z" />
    <glyph glyph-name="divide" unicode="&#xf7;" horiz-adv-x="562" 
d="M489 309h-398c-6 0 -8.33301 2.66699 -7 8l6 33c1.33301 5.33301 4.66602 8 9.99902 8h396c6.66699 0 9.33398 -3 8.00098 -9l-6 -33c-0.666992 -4.66699 -3.66699 -7 -9 -7zM302 156c-4.66699 -24 -18.667 -36 -42 -36c-12 0 -21.333 4 -28 12s-8.66699 18.333 -6 31
c4.66699 23.333 18.667 35 42 35c12 0 21.167 -4 27.5 -12s8.5 -18 6.5 -30zM361 497c-4.66699 -23.333 -18.667 -35 -42 -35c-12 0 -21.167 4 -27.5 12s-8.5 18 -6.5 30c4.66699 24 18.667 36 42 36c12 0 21.333 -4 28 -12s8.66699 -18.333 6 -31z" />
    <glyph glyph-name="oslash" unicode="&#xf8;" 
d="M446 179c-10.667 -56.667 -36.832 -102.501 -78.499 -137.501s-93.834 -52.5 -156.501 -52.5c-42 0 -78 9.66699 -108 29l-50 -68c-2 -3.33301 -5.33301 -5 -10 -5h-31c-7.33301 0 -9 3.33301 -5 10l66 90c-32.667 38 -43.334 86.333 -32.001 145l27 150
c10 54.667 35.833 99.334 77.5 134.001s93.834 52 156.501 52c40.667 0 75.334 -9 104.001 -27l56 76c3.33301 3.33301 6.66602 5 9.99902 5h31c3.33301 0 5.5 -1 6.5 -3s0.5 -4.33301 -1.5 -7l-71 -96c34.667 -38 46.667 -86.667 36 -146zM420.002 332.999
c6.66699 39.333 1.66699 71.667 -15 97l-272 -371c20.667 -14.667 48 -22 82 -22c48.667 0 88.5 13.5 119.5 40.5s50.5 62.167 58.5 105.5zM94.002 186c-7.33301 -40 -3.66797 -72.333 10.999 -97l271 370c-22 13.333 -48.333 20 -79 20
c-47.333 0 -86.666 -13.5 -117.999 -40.5s-51 -61.5 -59 -103.5z" />
    <glyph glyph-name="ugrave" unicode="&#xf9;" horiz-adv-x="529" 
d="M460 515l37.002 -0.000976562c6 0 8.33301 -3 7 -9l-85 -471c-0.666992 -4 -3 -7 -7 -9c-61.333 -24.667 -123 -37 -185 -37c-64.667 0 -112.334 18.833 -143.001 56.5s-39.667 89.834 -27 156.501l55 305c0 5.33301 3 8 9 8h36c6.66699 0 9 -3 7 -9l-55 -308
c-19.333 -108 21.667 -162 123 -162c43.333 0 89.666 8.66699 138.999 26l80 445c1.33301 5.33301 4.33301 8 9 8zM291.002 740.999l52 -133c2.66699 -6.66699 0.666992 -10 -6 -10h-27c-4 0 -7.33301 2 -10 6l-62 133c-3.33301 6.66699 -1.33301 10 6 10h37
c4.66699 0 8 -2 10 -6z" />
    <glyph glyph-name="uacute" unicode="&#xfa;" horiz-adv-x="529" 
d="M460 515l37.002 -0.000976562c6 0 8.33301 -3 7 -9l-85 -471c-0.666992 -4 -3 -7 -7 -9c-61.333 -24.667 -123 -37 -185 -37c-64.667 0 -112.334 18.833 -143.001 56.5s-39.667 89.834 -27 156.501l55 305c0 5.33301 3 8 9 8h36c6.66699 0 9 -3 7 -9l-55 -308
c-19.333 -108 21.667 -162 123 -162c43.333 0 89.666 8.66699 138.999 26l80 445c1.33301 5.33301 4.33301 8 9 8zM305.002 597.999h-27.999c-3.33301 0 -5.5 1 -6.5 3s-0.5 4.33301 1.5 7l104 134c1.33301 3.33301 4.66602 5 9.99902 5h40c8 0 9.33301 -3.33301 4 -10
l-115 -134c-2 -3.33301 -5.33301 -5 -10 -5z" />
    <glyph glyph-name="ucircumflex" unicode="&#xfb;" horiz-adv-x="529" 
d="M460 515l37.002 -0.000976562c6 0 8.33301 -3 7 -9l-85 -471c-0.666992 -4 -3 -7 -7 -9c-61.333 -24.667 -123 -37 -185 -37c-64.667 0 -112.334 18.833 -143.001 56.5s-39.667 89.834 -27 156.501l55 305c0 5.33301 3 8 9 8h36c6.66699 0 9 -3 7 -9l-55 -308
c-19.333 -108 21.667 -162 123 -162c43.333 0 89.666 8.66699 138.999 26l80 445c1.33301 5.33301 4.33301 8 9 8zM374.002 741.999l86.001 -134c3.33301 -6.66699 1.66602 -10 -5.00098 -10h-33c-4.66699 0 -8 2 -10 6l-68 108l-109 -109c-3.33301 -3.33301 -7 -5 -11 -5
h-36c-3.33301 0 -5.5 1 -6.5 3s-0.166992 4.33301 2.5 7l137 135c2 2.66699 5.33301 4 10 4h33c4 0 7.33301 -1.66699 10 -5z" />
    <glyph glyph-name="udieresis" unicode="&#xfc;" horiz-adv-x="529" 
d="M460 515l37.002 -0.000976562c6 0 8.33301 -3 7 -9l-85 -471c-0.666992 -4 -3 -7 -7 -9c-61.333 -24.667 -123 -37 -185 -37c-64.667 0 -112.334 18.833 -143.001 56.5s-39.667 89.834 -27 156.501l55 305c0 5.33301 3 8 9 8h36c6.66699 0 9 -3 7 -9l-55 -308
c-19.333 -108 21.667 -162 123 -162c43.333 0 89.666 8.66699 138.999 26l80 445c1.33301 5.33301 4.33301 8 9 8zM277.002 653.999c-1.33301 -9.33301 -5.49902 -16.833 -12.499 -22.5s-15.167 -8.5 -24.5 -8.5c-11.333 0 -19.666 3.33301 -24.999 10s-7 15.667 -5 27
c2 10 6.5 17.833 13.5 23.5s15.167 8.5 24.5 8.5c11.333 0 19.666 -3.5 24.999 -10.5s6.66602 -16.167 3.99902 -27.5zM455.003 653.999c-4.66699 -20.667 -17.332 -31 -37.999 -31c-23.333 0 -33 12.333 -29 37c1.33301 10 5.5 17.833 12.5 23.5s15.167 8.5 24.5 8.5
c11.333 0 19.666 -3.5 24.999 -10.5s7 -16.167 5 -27.5z" />
    <glyph glyph-name="yacute" unicode="&#xfd;" horiz-adv-x="531" 
d="M378 103l72.002 403.998c1.33301 5.33301 4.66602 8 9.99902 8h36c6.66699 0 9.33398 -3 8.00098 -9l-91 -510c-11.333 -61.333 -36 -109.166 -74 -143.499s-89 -51.5 -153 -51.5c-72.667 0 -131 23.667 -175 71c-3.33301 4.66699 -3.33301 8.66699 0 12l21 25
c4 4 8 4 12 0c39.333 -40.667 87.333 -61 144 -61c49.333 0 88.5 13.833 117.5 41.5s47.5 64.834 55.5 111.501l9 49c-48.667 -20 -96 -30 -142 -30c-61.333 0 -107.5 17.667 -138.5 53s-40.5 85.333 -28.5 150l51 284c1.33301 5.33301 4.66602 8 9.99902 8h35
c6 0 8.66699 -3 8 -9l-52 -288c-18.667 -100.667 22.333 -151 123 -151c51.333 0 98.666 12 141.999 36zM311.002 597.998h-27.999c-3.33301 0 -5.5 1 -6.5 3s-0.5 4.33301 1.5 7l104 134c1.33301 3.33301 4.66602 5 9.99902 5h40c8 0 9.33301 -3.33301 4 -10l-115 -134
c-2 -3.33301 -5.33301 -5 -10 -5z" />
    <glyph glyph-name="thorn" unicode="&#xfe;" horiz-adv-x="525" 
d="M167 487c47.333 26 93.668 39 139.001 39c68.667 0 118.167 -19.167 148.5 -57.5s39.5 -89.833 27.5 -154.5l-21 -123c-10.667 -64.667 -36.667 -114.5 -78 -149.5s-94 -52.5 -158 -52.5c-50.667 0 -97 13.667 -139 41l-38 -212c-1.33301 -5.33301 -4.33301 -8 -9 -8h-37
c-5.33301 0 -7.66602 3 -6.99902 9l157 888c1.33301 5.33301 4.66602 8 9.99902 8h36c5.33301 0 7.66602 -3 6.99902 -9zM409.002 196l21 121.999c19.333 107.333 -25 161 -133 161c-48.667 0 -95.334 -15 -140.001 -45l-63 -355c39.333 -28 83.333 -42 132 -42
c50 0 90.833 13.333 122.5 40s51.834 66.334 60.501 119.001z" />
    <glyph glyph-name="ydieresis" unicode="&#xff;" horiz-adv-x="531" 
d="M378 103l72.002 403.998c1.33301 5.33301 4.66602 8 9.99902 8h36c6.66699 0 9.33398 -3 8.00098 -9l-91 -510c-11.333 -61.333 -36 -109.166 -74 -143.499s-89 -51.5 -153 -51.5c-72.667 0 -131 23.667 -175 71c-3.33301 4.66699 -3.33301 8.66699 0 12l21 25
c4 4 8 4 12 0c39.333 -40.667 87.333 -61 144 -61c49.333 0 88.5 13.833 117.5 41.5s47.5 64.834 55.5 111.501l9 49c-48.667 -20 -96 -30 -142 -30c-61.333 0 -107.5 17.667 -138.5 53s-40.5 85.333 -28.5 150l51 284c1.33301 5.33301 4.66602 8 9.99902 8h35
c6 0 8.66699 -3 8 -9l-52 -288c-18.667 -100.667 22.333 -151 123 -151c51.333 0 98.666 12 141.999 36zM279.002 653.998c-1.33301 -9.33301 -5.49902 -16.833 -12.499 -22.5s-15.167 -8.5 -24.5 -8.5c-11.333 0 -19.666 3.33301 -24.999 10s-7 15.667 -5 27
c2 10 6.5 17.833 13.5 23.5s15.167 8.5 24.5 8.5c11.333 0 19.666 -3.5 24.999 -10.5s6.66602 -16.167 3.99902 -27.5zM457.003 653.998c-4.66699 -20.667 -17.332 -31 -37.999 -31c-23.333 0 -33 12.333 -29 37c1.33301 10 5.5 17.833 12.5 23.5s15.167 8.5 24.5 8.5
c11.333 0 19.666 -3.5 24.999 -10.5s7 -16.167 5 -27.5z" />
    <glyph glyph-name="Amacron" unicode="&#x100;" horiz-adv-x="570" 
d="M510 0h-39.001c-5.33301 0 -8.66602 2.66699 -9.99902 8l-32 201h-298l-105 -203c-1.33301 -4 -4.66602 -6 -9.99902 -6h-43c-7.33301 -0 -9.33301 3.33301 -6 10l363 699c2 4 5.33301 6 10 6h49c6 0 9 -2.66699 9 -8l120 -698c1.33301 -6 -1.33398 -9 -8.00098 -9z
M356.999 652h-2l-200 -393h266zM512.999 830h-251.999c-6.66699 0 -9.33398 2.66699 -8.00098 8l6 31c0.666992 4.66699 3.66699 7 9 7h253c6.66699 0 9 -2.66699 7 -8l-5 -31c-0.666992 -4.66699 -4 -7 -10 -7z" />
    <glyph glyph-name="amacron" unicode="&#x101;" horiz-adv-x="493" 
d="M383 26c-64.667 -24.667 -128.331 -36.9971 -190.998 -36.9971c-58 0 -104 16.167 -138 48.5s-46 75.166 -36 128.499c9.33301 47.333 33.833 83.166 73.5 107.499s90.167 36.5 151.5 36.5c47.333 0 93.666 -5.66699 138.999 -17l9 54c16.667 88 -22.333 132 -117 132
c-54.667 0 -106.334 -14.333 -155.001 -43c-5.33301 -4 -8.66602 -3 -9.99902 3l-12 27c-2 4 -1.33301 7.66699 2 11c53.333 32.667 114.666 49 183.999 49c61.333 0 106 -16.833 134 -50.5s37 -77.834 27 -132.501l-54 -308c-0.666992 -3.33301 -3 -6.33301 -7 -9z
M71.0029 160.003c-7.33301 -38 0.5 -68 23.5 -90s56.833 -33 101.5 -33c52 0 100.333 8.33301 145 25l33 184c-48 11.333 -92.333 17 -133 17c-48.667 0 -87.667 -8.83301 -117 -26.5s-47 -43.167 -53 -76.5zM180.003 629.003l5 28c1.33301 5.33301 4.33301 8 9 8h234
c6.66699 0 9 -3 7 -9l-5 -28c-0.666992 -4.66699 -3.66699 -7 -9 -7h-234c-6 0 -8.33301 2.66699 -7 8z" />
    <glyph glyph-name="Abreve" unicode="&#x102;" horiz-adv-x="570" 
d="M510 0h-39.001c-5.33301 0 -8.66602 2.66699 -9.99902 8l-32 201h-298l-105 -203c-1.33301 -4 -4.66602 -6 -9.99902 -6h-43c-7.33301 -0 -9.33301 3.33301 -6 10l363 699c2 4 5.33301 6 10 6h49c6 0 9 -2.66699 9 -8l120 -698c1.33301 -6 -1.33398 -9 -8.00098 -9z
M356.999 652h-2l-200 -393h266zM550.999 920c-12 -43.333 -33.1689 -77.832 -63.502 -103.499s-68.166 -38.5 -113.499 -38.5c-41.333 0 -73.5 13.5 -96.5 40.5s-33.167 61.167 -30.5 102.5c0 5.33301 2.66699 8 8 8l29 7c3.33301 0.666992 5.83301 0.166992 7.5 -1.5
s2.16699 -3.83398 1.5 -6.50098c-1.33301 -32.667 5.33398 -58.167 20.001 -76.5s37 -27.5 67 -27.5c31.333 0 57.833 9.66699 79.5 29s37.5 45.333 47.5 78c2 4.66699 5.33301 6.66699 10 6l28 -8c6 -2 8 -5 6 -9z" />
    <glyph glyph-name="abreve" unicode="&#x103;" horiz-adv-x="493" 
d="M383 26c-64.667 -24.667 -128.331 -36.9971 -190.998 -36.9971c-58 0 -104 16.167 -138 48.5s-46 75.166 -36 128.499c9.33301 47.333 33.833 83.166 73.5 107.499s90.167 36.5 151.5 36.5c47.333 0 93.666 -5.66699 138.999 -17l9 54c16.667 88 -22.333 132 -117 132
c-54.667 0 -106.334 -14.333 -155.001 -43c-5.33301 -4 -8.66602 -3 -9.99902 3l-12 27c-2 4 -1.33301 7.66699 2 11c53.333 32.667 114.666 49 183.999 49c61.333 0 106 -16.833 134 -50.5s37 -77.834 27 -132.501l-54 -308c-0.666992 -3.33301 -3 -6.33301 -7 -9z
M71.0029 160.003c-7.33301 -38 0.5 -68 23.5 -90s56.833 -33 101.5 -33c52 0 100.333 8.33301 145 25l33 184c-48 11.333 -92.333 17 -133 17c-48.667 0 -87.667 -8.83301 -117 -26.5s-47 -43.167 -53 -76.5zM464.003 724.003
c-28.667 -89.333 -85.334 -134.001 -170.001 -134.001c-39.333 0 -69.5 13.167 -90.5 39.5s-30.5 58.5 -28.5 96.5c0 6 2.66699 9 8 9l26 4c5.33301 0 8 -2.66699 8 -8c-1.33301 -64.667 26.667 -97 84 -97c58.667 0 98.334 33 119.001 99c2.66699 5.33301 6 7.33301 10 6
l27 -5c6 -1.33301 8.33301 -4.66602 7 -9.99902z" />
    <glyph glyph-name="Aogonek" unicode="&#x104;" horiz-adv-x="570" 
d="M505 -181c-23.333 -12 -48.6602 -18 -75.9932 -18c-25.333 0 -44 7.16699 -56 21.5s-15.667 33.833 -11 58.5c3.33301 21.333 14.666 43 33.999 65s43.666 40.667 72.999 56h-1c-4.66699 3.33301 -7.33398 9 -8.00098 17l-31 190h-298l-105 -203
c-1.33301 -4 -4.66602 -6 -9.99902 -6h-43c-6 -0 -8 3.33301 -6 10l364 699c2 4 5.33301 6 10 6h48c5.33301 0 8.66602 -2.66699 9.99902 -8l119 -699c0 -5.33301 -1.66699 -8.33301 -5 -9c-30 -15.333 -54.333 -33 -73 -53s-29.334 -38.333 -32.001 -55
c-2 -15.333 -0.333008 -26.166 5 -32.499s14.666 -9.5 27.999 -9.5c19.333 0 37.666 4 54.999 12c5.33301 3.33301 8.66602 1.66602 9.99902 -5.00098l4 -27c0.666992 -4.66699 -1 -8 -5 -10zM355.006 652l-90 -177.5l-110 -215.5h266l-64 393h-2z" />
    <glyph glyph-name="aogonek" unicode="&#x105;" horiz-adv-x="498" 
d="M355 -181c-25.333 -12 -50.667 -18.0039 -76 -18.0039c-24.667 0 -43 7.5 -55 22.5s-16.333 34.5 -13 58.5c7.33301 45.333 41 86.333 101 123c-41.333 -10.667 -80.666 -16 -117.999 -16c-58 0 -104.333 16 -139 48s-47 74.667 -37 128
c9.33301 46.667 34.166 82.334 74.499 107.001s91.166 37 152.499 37c47.333 0 94.333 -5.66699 141 -17l9 55c15.333 88 -23 132 -115 132c-57.333 0 -111.666 -14.667 -162.999 -44c-5.33301 -4 -8.66602 -2.66699 -9.99902 4l-12 26c-2 4.66699 -1.66699 8 1 10
c57.333 34 121 51 191 51c62 0 106.667 -16.667 134 -50s36 -77.666 26 -132.999l-54 -309c0 -4 -2.33301 -7 -7 -9c-32.667 -17.333 -61.334 -38.166 -86.001 -62.499s-38.667 -48.166 -42 -71.499c-2.66699 -28 8.33301 -42 33 -42c20.667 0 39 4 55 12
c6 2 9.33301 0.333008 10 -5l4 -27c0.666992 -4.66699 -1 -8 -5 -10zM70.999 158.996c-8 -38 0 -68 24 -90s58.667 -33 104 -33c48 0 96.667 8 146 24l32 186c-45.333 10.667 -90 16 -134 16c-49.333 0 -88.833 -8.83301 -118.5 -26.5s-47.5 -43.167 -53.5 -76.5z" />
    <glyph glyph-name="Cacute" unicode="&#x106;" horiz-adv-x="553" 
d="M493 70c-71.333 -54 -150 -80.998 -236 -80.998c-70.667 0 -123.834 23 -159.501 69s-46.834 106 -33.501 180l45 254c12.667 73.333 43.667 130.666 93 171.999s109.333 62 180 62c76.667 0 141.334 -24.333 194.001 -73c4 -2.66699 4.33301 -6.33398 1 -11.001l-25 -29
c-4 -4 -8 -4.33301 -12 -1c-45.333 42 -100 63 -164 63c-57.333 0 -104.666 -17.167 -141.999 -51.5s-61 -80.5 -71 -138.5l-44 -251c-10 -58 -2.16699 -104.667 23.5 -140s67.834 -53 126.501 -53c71.333 0 137.333 24.333 198 73c4.66699 4.66699 8.66699 4 12 -2l16 -31
c3.33301 -5.33301 2.66602 -9 -2.00098 -11zM381 787.002h-31.998c-3.33301 0 -5.5 1 -6.5 3s-0.166992 4.33301 2.5 7l128 135c2.66699 2.66699 6.33398 4 11.001 4h45c3.33301 0 5.66602 -1 6.99902 -3s0.666016 -4.33301 -2.00098 -7l-142 -135
c-2.66699 -2.66699 -6.33398 -4 -11.001 -4z" />
    <glyph glyph-name="cacute" unicode="&#x107;" horiz-adv-x="448" 
d="M385 48c-52.667 -39.333 -111.334 -58.998 -176.001 -58.998c-61.333 0 -107.166 18.333 -137.499 55s-40.5 84 -30.5 142l30 164c9.33301 52.667 33.833 95.167 73.5 127.5s88.5 48.5 146.5 48.5c56 0 107 -17.667 153 -53c4 -2.66699 4.33301 -6.33398 1 -11.001
l-19 -25c-3.33301 -4 -7.33301 -4.66699 -12 -2c-36.667 29.333 -78.667 44 -126 44c-44 0 -80.667 -12.167 -110 -36.5s-47.666 -56.166 -54.999 -95.499l-29 -165c-8 -44 -1.33301 -79.333 20 -106s54.666 -40 99.999 -40c50.667 0 100 17.667 148 53
c4 3.33301 7.66699 2.66602 11 -2.00098l15 -28c2 -4.66699 1 -8.33398 -3 -11.001zM285 598.002h-27.999c-3.33301 0 -5.5 1 -6.5 3s-0.5 4.33301 1.5 7l104 134c1.33301 3.33301 4.66602 5 9.99902 5h40c8 0 9.33301 -3.33301 4 -10l-115 -134
c-2 -3.33301 -5.33301 -5 -10 -5z" />
    <glyph glyph-name="Cdotaccent" unicode="&#x10a;" horiz-adv-x="553" 
d="M493 70c-71.333 -54 -150 -80.998 -236 -80.998c-70.667 0 -123.834 23 -159.501 69s-46.834 106 -33.501 180l45 254c12.667 73.333 43.667 130.666 93 171.999s109.333 62 180 62c76.667 0 141.334 -24.333 194.001 -73c4 -2.66699 4.33301 -6.33398 1 -11.001l-25 -29
c-4 -4 -8 -4.33301 -12 -1c-45.333 42 -100 63 -164 63c-57.333 0 -104.666 -17.167 -141.999 -51.5s-61 -80.5 -71 -138.5l-44 -251c-10 -58 -2.16699 -104.667 23.5 -140s67.834 -53 126.501 -53c71.333 0 137.333 24.333 198 73c4.66699 4.66699 8.66699 4 12 -2l16 -31
c3.33301 -5.33301 2.66602 -9 -2.00098 -11zM439 840.002c-3.33301 -24.667 -17.665 -37 -42.998 -37c-12.667 0 -21.834 4.16699 -27.501 12.5s-7.83398 18.166 -6.50098 29.499c2 10.667 6.83301 19.5 14.5 26.5s17.167 10.5 28.5 10.5c12.667 0 22 -4.16699 28 -12.5
s8 -18.166 6 -29.499z" />
    <glyph glyph-name="cdotaccent" unicode="&#x10b;" horiz-adv-x="448" 
d="M385 48c-52.667 -39.333 -111.334 -58.998 -176.001 -58.998c-61.333 0 -107.166 18.333 -137.499 55s-40.5 84 -30.5 142l30 164c9.33301 52.667 33.833 95.167 73.5 127.5s88.5 48.5 146.5 48.5c56 0 107 -17.667 153 -53c4 -2.66699 4.33301 -6.33398 1 -11.001
l-19 -25c-3.33301 -4 -7.33301 -4.66699 -12 -2c-36.667 29.333 -78.667 44 -126 44c-44 0 -80.667 -12.167 -110 -36.5s-47.666 -56.166 -54.999 -95.499l-29 -165c-8 -44 -1.33301 -79.333 20 -106s54.666 -40 99.999 -40c50.667 0 100 17.667 148 53
c4 3.33301 7.66699 2.66602 11 -2.00098l15 -28c2 -4.66699 1 -8.33398 -3 -11.001zM349 654.002c-1.33301 -10 -5.83105 -18 -13.498 -24s-16.5 -9 -26.5 -9c-10.667 0 -19.167 3.83301 -25.5 11.5s-8.5 17.167 -6.5 28.5c1.33301 10 5.66602 18 12.999 24s16 9 26 9
c11.333 0 20.166 -3.83301 26.499 -11.5s8.5 -17.167 6.5 -28.5z" />
    <glyph glyph-name="Ccaron" unicode="&#x10c;" horiz-adv-x="553" 
d="M493 70c-71.333 -54 -150 -80.998 -236 -80.998c-70.667 0 -123.834 23 -159.501 69s-46.834 106 -33.501 180l45 254c12.667 73.333 43.667 130.666 93 171.999s109.333 62 180 62c76.667 0 141.334 -24.333 194.001 -73c4 -2.66699 4.33301 -6.33398 1 -11.001l-25 -29
c-4 -4 -8 -4.33301 -12 -1c-45.333 42 -100 63 -164 63c-57.333 0 -104.666 -17.167 -141.999 -51.5s-61 -80.5 -71 -138.5l-44 -251c-10 -58 -2.16699 -104.667 23.5 -140s67.834 -53 126.501 -53c71.333 0 137.333 24.333 198 73c4.66699 4.66699 8.66699 4 12 -2l16 -31
c3.33301 -5.33301 2.66602 -9 -2.00098 -11zM519 936.002h38.999c3.33301 0 5.5 -1 6.5 -3s0.166992 -4.33301 -2.5 -7l-142 -135c-2 -2.66699 -5.33301 -4 -10 -4h-34c-4.66699 0 -8 1.66699 -10 5l-97 134c-4 6.66699 -2.33301 10 5 10h37c4.66699 0 8 -1.66699 10 -5
l76 -106l111 107c2.66699 2.66699 6.33398 4 11.001 4z" />
    <glyph glyph-name="ccaron" unicode="&#x10d;" horiz-adv-x="448" 
d="M385 48c-52.667 -39.333 -111.334 -58.998 -176.001 -58.998c-61.333 0 -107.166 18.333 -137.499 55s-40.5 84 -30.5 142l30 164c9.33301 52.667 33.833 95.167 73.5 127.5s88.5 48.5 146.5 48.5c56 0 107 -17.667 153 -53c4 -2.66699 4.33301 -6.33398 1 -11.001
l-19 -25c-3.33301 -4 -7.33301 -4.66699 -12 -2c-36.667 29.333 -78.667 44 -126 44c-44 0 -80.667 -12.167 -110 -36.5s-47.666 -56.166 -54.999 -95.499l-29 -165c-8 -44 -1.33301 -79.333 20 -106s54.666 -40 99.999 -40c50.667 0 100 17.667 148 53
c4 3.33301 7.66699 2.66602 11 -2.00098l15 -28c2 -4.66699 1 -8.33398 -3 -11.001zM275 604.002l-86.001 134c-3.33301 6.66699 -1.66602 10 5.00098 10h33c4.66699 0 8 -2 10 -6l68 -108l109 109c3.33301 3.33301 7 5 11 5h36c3.33301 0 5.5 -1 6.5 -3
s0.166992 -4.33301 -2.5 -7l-137 -135c-2 -2.66699 -5.33301 -4 -10 -4h-33c-4 0 -7.33301 1.66699 -10 5z" />
    <glyph glyph-name="Dcaron" unicode="&#x10e;" horiz-adv-x="636" 
d="M285 0l-230.001 -0.000976562c-6 0 -8.33301 3 -7 9l123 698c0 5.33301 3 8 9 8h227c73.333 0 128 -23.167 164 -69.5s47.333 -108.166 34 -185.499l-38 -217c-13.333 -78 -44.166 -138 -92.499 -180s-111.5 -63 -189.5 -63zM217.999 664.999l-106.999 -615h178
c59.333 0 108.5 17.167 147.5 51.5s64.167 83.5 75.5 147.5l37 216c11.333 65.333 4.16602 115 -21.501 149s-68.167 51 -127.5 51h-182zM516 935.999h38.999c3.33301 0 5.5 -1 6.5 -3s0.166992 -4.33301 -2.5 -7l-142 -135c-2 -2.66699 -5.33301 -4 -10 -4h-34
c-4.66699 0 -8 1.66699 -10 5l-97 134c-4 6.66699 -2.33301 10 5 10h37c4.66699 0 8 -1.66699 10 -5l76 -106l111 107c2.66699 2.66699 6.33398 4 11.001 4z" />
    <glyph glyph-name="dcaron" unicode="&#x10f;" horiz-adv-x="532" 
d="M395 24c-50.667 -23.333 -110.335 -35 -179.002 -35c-68 0 -116.667 19 -146 57s-38.333 89.667 -27 155l21 122c10.667 64.667 36.334 114.667 77.001 150s91.334 53 152.001 53c50 0 95.333 -13.667 136 -41l39 222c0 5.33301 3 8 9 8h36c6 0 8.33301 -3 7 -9
l-117 -673c-1.33301 -4 -4 -7 -8 -9zM94.999 196c-18 -106.667 23.666 -159.999 124.999 -159.999c50 0 95 8.66699 135 26l65 374c-36.667 28 -79.334 42 -128.001 42c-47.333 0 -86.166 -13.333 -116.499 -40s-50.166 -66.334 -59.499 -119.001zM573.998 554.001h-23.001
c-6 0 -8 3.33301 -6 10l62 145c2 4 5 6 9 6h33c6.66699 0 8.33398 -3.33301 5.00098 -10l-70 -145c-2 -4 -5.33301 -6 -10 -6z" />
    <glyph glyph-name="Dcroat" unicode="&#x110;" horiz-adv-x="640" 
d="M184 715h226.999c74 0 129 -23 165 -69s47 -108 33 -186l-38 -217c-13.333 -78 -44.166 -138 -92.499 -180s-111.5 -63 -189.5 -63h-229c-6.66699 0 -9 3 -7 9l60 344h-75c-6 0 -8.33301 3 -7 9l4 24c1.33301 5.33301 4.33301 8 9 8h76l55 313c0 5.33301 3 8 9 8z
M515.999 249l38.001 216c10.667 65.333 3.16699 115 -22.5 149s-67.834 51 -126.501 51h-182l-48 -271h178c5.33301 0 7.33301 -3 6 -9l-4 -24c0 -5.33301 -3 -8 -9 -8h-178l-53 -303h179c59.333 0 108.5 17.333 147.5 52s63.833 83.667 74.5 147z" />
    <glyph glyph-name="dcroat" unicode="&#x111;" horiz-adv-x="514" 
d="M398 24c-52 -23.333 -112.33 -35 -180.997 -35s-117.834 19.167 -147.501 57.5s-38.834 89.833 -27.501 154.5l22 117c11.333 64 37.166 113.5 77.499 148.5s90.833 52.5 151.5 52.5c52 0 97.667 -13.333 137 -40l21 118h-156c-6 0 -8.33301 3 -7 9l4 22
c0.666992 4.66699 3.66699 7 9 7h157l12 72c1.33301 5.33301 4.33301 8 9 8h37c6 0 8 -3 6 -9l-12 -71h76c6 0 8.33301 -2.66699 7 -8l-4 -22c0 -5.33301 -3 -8 -9 -8h-76l-99 -564c0 -3.33301 -2.33301 -6.33301 -7 -9zM95.0029 196
c-19.333 -106.667 22.668 -160 126.001 -160c51.333 0 96.666 8.66699 135.999 26l65 368c-36.667 27.333 -80 41 -130 41c-99.333 0 -158 -52.333 -176 -157z" />
    <glyph glyph-name="Emacron" unicode="&#x112;" horiz-adv-x="543" 
d="M563 706l-6.00098 -33c0 -5.33301 -3 -8 -9 -8h-330l-48 -275h311c6 0 8.33301 -2.66699 7 -8l-6 -34c0 -5.33301 -3 -8 -9 -8h-311l-51 -289h339c4.66699 0 7 -3 7 -9l-5 -34c-1.33301 -5.33301 -4.66602 -8 -9.99902 -8h-387c-6 0 -8.33301 3 -7 9l123 698
c0 5.33301 3 8 9 8h376c4.66699 0 7 -3 7 -9zM515.999 830h-251.999c-6.66699 0 -9.33398 2.66699 -8.00098 8l6 31c0.666992 4.66699 3.66699 7 9 7h253c6.66699 0 9 -2.66699 7 -8l-5 -31c-0.666992 -4.66699 -4 -7 -10 -7z" />
    <glyph glyph-name="emacron" unicode="&#x113;" horiz-adv-x="502" 
d="M70 342c10.667 58 37.1689 103.166 79.502 135.499s91.833 48.5 148.5 48.5c60.667 0 107.167 -17 139.5 -51s42.833 -80.667 31.5 -140l-18 -96c-1.33301 -5.33301 -4.33301 -8 -9 -8h-339l-11 -58c-8.66699 -42.667 -0.833984 -76.167 23.499 -100.5
s58.166 -36.5 101.499 -36.5c58.667 0 115.334 22.333 170.001 67c4.66699 2.66699 8.66699 2 12 -2l16 -25c3.33301 -5.33301 3 -9 -1 -11c-60 -50.667 -127.667 -76 -203 -76c-56 0 -101.333 16.833 -136 50.5s-46.334 78.834 -35.001 135.501zM406.002 276.999l12 62
c8.66699 44.667 1.5 79.167 -21.5 103.5s-57.167 36.5 -102.5 36.5c-44 0 -81.5 -12.5 -112.5 -37.5s-50.5 -59.5 -58.5 -103.5l-12 -61h295zM200.002 628.999l5 28c1.33301 5.33301 4.33301 8 9 8h234c6.66699 0 9 -3 7 -9l-5 -28c-0.666992 -4.66699 -3.66699 -7 -9 -7
h-234c-6 0 -8.33301 2.66699 -7 8z" />
    <glyph glyph-name="Edotaccent" unicode="&#x116;" horiz-adv-x="543" 
d="M563 706l-6.00098 -33c0 -5.33301 -3 -8 -9 -8h-330l-48 -275h311c6 0 8.33301 -2.66699 7 -8l-6 -34c0 -5.33301 -3 -8 -9 -8h-311l-51 -289h339c4.66699 0 7 -3 7 -9l-5 -34c-1.33301 -5.33301 -4.66602 -8 -9.99902 -8h-387c-6 0 -8.33301 3 -7 9l123 698
c0 5.33301 3 8 9 8h376c4.66699 0 7 -3 7 -9zM427.999 840c-3.33301 -24.667 -17.665 -37 -42.998 -37c-12.667 0 -21.834 4.16699 -27.501 12.5s-7.83398 18.166 -6.50098 29.499c2 10.667 6.83301 19.5 14.5 26.5s17.167 10.5 28.5 10.5c12.667 0 22 -4.16699 28 -12.5
s8 -18.166 6 -29.499z" />
    <glyph glyph-name="edotaccent" unicode="&#x117;" horiz-adv-x="502" 
d="M70 342c10.667 58 37.1689 103.166 79.502 135.499s91.833 48.5 148.5 48.5c60.667 0 107.167 -17 139.5 -51s42.833 -80.667 31.5 -140l-18 -96c-1.33301 -5.33301 -4.33301 -8 -9 -8h-339l-11 -58c-8.66699 -42.667 -0.833984 -76.167 23.499 -100.5
s58.166 -36.5 101.499 -36.5c58.667 0 115.334 22.333 170.001 67c4.66699 2.66699 8.66699 2 12 -2l16 -25c3.33301 -5.33301 3 -9 -1 -11c-60 -50.667 -127.667 -76 -203 -76c-56 0 -101.333 16.833 -136 50.5s-46.334 78.834 -35.001 135.501zM406.002 276.999l12 62
c8.66699 44.667 1.5 79.167 -21.5 103.5s-57.167 36.5 -102.5 36.5c-44 0 -81.5 -12.5 -112.5 -37.5s-50.5 -59.5 -58.5 -103.5l-12 -61h295zM361.002 653.999c-1.33301 -10 -5.83105 -18 -13.498 -24s-16.5 -9 -26.5 -9c-10.667 0 -19.167 3.83301 -25.5 11.5
s-8.5 17.167 -6.5 28.5c1.33301 10 5.66602 18 12.999 24s16 9 26 9c11.333 0 20.166 -3.83301 26.499 -11.5s8.5 -17.167 6.5 -28.5z" />
    <glyph glyph-name="Eogonek" unicode="&#x118;" horiz-adv-x="543" 
d="M563 706l-5.99805 -33c0 -5.33301 -3 -8 -9 -8h-330l-48 -275h311c6 0 8.33301 -2.66699 7 -8l-6 -34c0 -5.33301 -3 -8 -9 -8h-311l-51 -289h339c4.66699 0 7 -3 7 -9l-5 -36c-0.666992 -4 -3.33398 -7 -8.00098 -9c-28 -15.333 -51.167 -33 -69.5 -53
s-28.833 -37.667 -31.5 -53c-4.66699 -28 6 -42 32 -42c19.333 0 37.666 4 54.999 12c6 2.66699 9.33301 1 10 -5l4 -27c0.666992 -4.66699 -1 -8 -5 -10c-25.333 -12 -50.666 -18 -75.999 -18c-24.667 0 -43 7.33301 -55 22s-16 34.334 -12 59.001
c3.33301 20.667 14.166 41.667 32.499 63s41.5 39.666 69.5 54.999h-343c-6 0 -8.33301 3 -7 9l123 698c0 5.33301 3 8 9 8h376c4.66699 0 7 -3 7 -9z" />
    <glyph glyph-name="eogonek" unicode="&#x119;" horiz-adv-x="495" 
d="M316 -181c-22 -12 -46.998 -17.999 -74.998 -17.999c-25.333 0 -44 7.66699 -56 23s-16 36 -12 62c7.33301 40.667 33 76.334 77 107.001c-10.667 -2.66699 -23.334 -4 -38.001 -4c-56.667 0 -102.167 16.833 -136.5 50.5s-46.5 78.834 -36.5 135.501l30 168
c10 58 36.333 103 79 135s92.667 48 150 48c58 0 102.5 -16.833 133.5 -50.5s41.167 -79.834 30.5 -138.501l-18 -98c-1.33301 -5.33301 -4.33301 -8 -9 -8h-333l-11 -58c-8 -42.667 0.166992 -76.167 24.5 -100.5s58.5 -36.5 102.5 -36.5c56 0 110.333 22.333 163 67
c4.66699 2.66699 8.66699 2 12 -2l16 -25c3.33301 -5.33301 2.66602 -9.33301 -2.00098 -12c-22 -18 -47.667 -34.667 -77 -50c-32 -16.667 -57.667 -35.834 -77 -57.501s-30.333 -42.167 -33 -61.5c-4.66699 -30.667 6.33301 -46 33 -46c22 0 40 4 54 12
c6 3.33301 9.66699 1.66602 11 -5.00098l4 -27c0.666992 -4 -1.33301 -7.33301 -6 -10zM121.002 339.001l-11 -62h290l11 65c8 43.333 1 77 -21 101s-54.333 36 -97 36c-44 0 -81.667 -12.5 -113 -37.5s-51 -59.167 -59 -102.5z" />
    <glyph glyph-name="Ecaron" unicode="&#x11a;" horiz-adv-x="543" 
d="M563 706l-6.00098 -33c0 -5.33301 -3 -8 -9 -8h-330l-48 -275h311c6 0 8.33301 -2.66699 7 -8l-6 -34c0 -5.33301 -3 -8 -9 -8h-311l-51 -289h339c4.66699 0 7 -3 7 -9l-5 -34c-1.33301 -5.33301 -4.66602 -8 -9.99902 -8h-387c-6 0 -8.33301 3 -7 9l123 698
c0 5.33301 3 8 9 8h376c4.66699 0 7 -3 7 -9zM497.999 936h38.999c3.33301 0 5.5 -1 6.5 -3s0.166992 -4.33301 -2.5 -7l-142 -135c-2 -2.66699 -5.33301 -4 -10 -4h-34c-4.66699 0 -8 1.66699 -10 5l-97 134c-4 6.66699 -2.33301 10 5 10h37c4.66699 0 8 -1.66699 10 -5
l76 -106l111 107c2.66699 2.66699 6.33398 4 11.001 4z" />
    <glyph glyph-name="ecaron" unicode="&#x11b;" horiz-adv-x="502" 
d="M70 342c10.667 58 37.1689 103.166 79.502 135.499s91.833 48.5 148.5 48.5c60.667 0 107.167 -17 139.5 -51s42.833 -80.667 31.5 -140l-18 -96c-1.33301 -5.33301 -4.33301 -8 -9 -8h-339l-11 -58c-8.66699 -42.667 -0.833984 -76.167 23.499 -100.5
s58.166 -36.5 101.499 -36.5c58.667 0 115.334 22.333 170.001 67c4.66699 2.66699 8.66699 2 12 -2l16 -25c3.33301 -5.33301 3 -9 -1 -11c-60 -50.667 -127.667 -76 -203 -76c-56 0 -101.333 16.833 -136 50.5s-46.334 78.834 -35.001 135.501zM406.002 276.999l12 62
c8.66699 44.667 1.5 79.167 -21.5 103.5s-57.167 36.5 -102.5 36.5c-44 0 -81.5 -12.5 -112.5 -37.5s-50.5 -59.5 -58.5 -103.5l-12 -61h295zM291.002 603.999l-86.001 134c-3.33301 6.66699 -1.66602 10 5.00098 10h33c4.66699 0 8 -2 10 -6l68 -108l109 109
c3.33301 3.33301 7 5 11 5h36c3.33301 0 5.5 -1 6.5 -3s0.166992 -4.33301 -2.5 -7l-137 -135c-2 -2.66699 -5.33301 -4 -10 -4h-33c-4 0 -7.33301 1.66699 -10 5z" />
    <glyph glyph-name="Gbreve" unicode="&#x11e;" horiz-adv-x="612" 
d="M518 85c-76 -62.667 -161.334 -94 -256.001 -94c-72 0 -126.167 23.167 -162.5 69.5s-48.5 104.833 -36.5 175.5l45 250c12.667 74 44 132.5 94 175.5s110.667 64.5 182 64.5c86.667 0 157.667 -25.667 213 -77c3.33301 -4 3.33301 -8 0 -12l-25 -27
c-2.66699 -4 -6.66699 -4.33301 -12 -1c-49.333 44 -110.333 66 -183 66c-56.667 0 -104 -17.5 -142 -52.5s-62.333 -82.167 -73 -141.5l-44 -250c-9.33301 -56 -1.16602 -101.5 24.501 -136.5s67.5 -52.5 125.5 -52.5c74 1.33301 141.333 24 202 68l39 218h-186
c-6 0 -8 3 -6 9l6 34c1.33301 4.66699 4.33301 7 9 7h232c6.66699 0 9.33398 -2.66699 8.00098 -8l-49 -276c-0.666992 -1.33301 -2.33398 -4.33301 -5.00098 -9zM566.999 920c-12 -43.333 -33.1689 -77.832 -63.502 -103.499s-68.166 -38.5 -113.499 -38.5
c-41.333 0 -73.5 13.5 -96.5 40.5s-33.167 61.167 -30.5 102.5c0 5.33301 2.66699 8 8 8l29 7c3.33301 0.666992 5.83301 0.166992 7.5 -1.5s2.16699 -3.83398 1.5 -6.50098c-1.33301 -32.667 5.33398 -58.167 20.001 -76.5s37 -27.5 67 -27.5
c31.333 0 57.833 9.66699 79.5 29s37.5 45.333 47.5 78c2 4.66699 5.33301 6.66699 10 6l28 -8c6 -2 8 -5 6 -9z" />
    <glyph glyph-name="gbreve" unicode="&#x11f;" horiz-adv-x="514" 
d="M399 -4c-10.667 -61.333 -34.6699 -109.169 -72.0029 -143.502s-88.333 -51.5 -153 -51.5c-67.333 0 -123.666 23.667 -168.999 71c-3.33301 4 -3.33301 7.66699 0 11l19 25c3.33301 4.66699 7.33301 4.66699 12 0c40.667 -39.333 87.667 -59 141 -59
c48.667 0 87.334 13.333 116.001 40s47 64.334 55 113.001l9 49c-44.667 -21.333 -91 -32 -139 -32c-65.333 0 -113.166 18 -143.499 54s-39.5 87.667 -27.5 155l18 103c12 66.667 39 115.834 81 147.501s95 47.5 159 47.5c64.667 0 122 -16.667 172 -50
c2.66699 -2 4 -5.66699 4 -11zM98.9971 223.997c-18.667 -104 22.667 -156 124 -156c51.333 0 98.666 12 141.999 36l59 341c-33.333 22 -74.666 33 -123.999 33c-104 0 -164.667 -50.333 -182 -151zM485.998 723.997c-28.667 -89.333 -85.334 -134.001 -170.001 -134.001
c-39.333 0 -69.5 13.167 -90.5 39.5s-30.5 58.5 -28.5 96.5c0 6 2.66699 9 8 9l26 4c5.33301 0 8 -2.66699 8 -8c-1.33301 -64.667 26.667 -97 84 -97c58.667 0 98.334 33 119.001 99c2.66699 5.33301 6 7.33301 10 6l27 -5c6 -1.33301 8.33301 -4.66602 7 -9.99902z" />
    <glyph glyph-name="Gdotaccent" unicode="&#x120;" horiz-adv-x="612" 
d="M518 85c-76 -62.667 -161.334 -94 -256.001 -94c-72 0 -126.167 23.167 -162.5 69.5s-48.5 104.833 -36.5 175.5l45 250c12.667 74 44 132.5 94 175.5s110.667 64.5 182 64.5c86.667 0 157.667 -25.667 213 -77c3.33301 -4 3.33301 -8 0 -12l-25 -27
c-2.66699 -4 -6.66699 -4.33301 -12 -1c-49.333 44 -110.333 66 -183 66c-56.667 0 -104 -17.5 -142 -52.5s-62.333 -82.167 -73 -141.5l-44 -250c-9.33301 -56 -1.16602 -101.5 24.501 -136.5s67.5 -52.5 125.5 -52.5c74 1.33301 141.333 24 202 68l39 218h-186
c-6 0 -8 3 -6 9l6 34c1.33301 4.66699 4.33301 7 9 7h232c6.66699 0 9.33398 -2.66699 8.00098 -8l-49 -276c-0.666992 -1.33301 -2.33398 -4.33301 -5.00098 -9zM438.999 840c-3.33301 -24.667 -17.665 -37 -42.998 -37c-12.667 0 -21.834 4.16699 -27.501 12.5
s-7.83398 18.166 -6.50098 29.499c2 10.667 6.83301 19.5 14.5 26.5s17.167 10.5 28.5 10.5c12.667 0 22 -4.16699 28 -12.5s8 -18.166 6 -29.499z" />
    <glyph glyph-name="gdotaccent" unicode="&#x121;" horiz-adv-x="514" 
d="M399 -4c-10.667 -61.333 -34.6699 -109.169 -72.0029 -143.502s-88.333 -51.5 -153 -51.5c-67.333 0 -123.666 23.667 -168.999 71c-3.33301 4 -3.33301 7.66699 0 11l19 25c3.33301 4.66699 7.33301 4.66699 12 0c40.667 -39.333 87.667 -59 141 -59
c48.667 0 87.334 13.333 116.001 40s47 64.334 55 113.001l9 49c-44.667 -21.333 -91 -32 -139 -32c-65.333 0 -113.166 18 -143.499 54s-39.5 87.667 -27.5 155l18 103c12 66.667 39 115.834 81 147.501s95 47.5 159 47.5c64.667 0 122 -16.667 172 -50
c2.66699 -2 4 -5.66699 4 -11zM98.9971 223.997c-18.667 -104 22.667 -156 124 -156c51.333 0 98.666 12 141.999 36l59 341c-33.333 22 -74.666 33 -123.999 33c-104 0 -164.667 -50.333 -182 -151zM361.998 653.997c-1.33301 -10 -5.83105 -18 -13.498 -24
s-16.5 -9 -26.5 -9c-10.667 0 -19.167 3.83301 -25.5 11.5s-8.5 17.167 -6.5 28.5c1.33301 10 5.66602 18 12.999 24s16 9 26 9c11.333 0 20.166 -3.83301 26.499 -11.5s8.5 -17.167 6.5 -28.5z" />
    <glyph glyph-name="uni0122" unicode="&#x122;" horiz-adv-x="612" 
d="M518 85c-76 -62.667 -161.334 -94 -256.001 -94c-72 0 -126.167 23.167 -162.5 69.5s-48.5 104.833 -36.5 175.5l45 250c12.667 74 44 132.5 94 175.5s110.667 64.5 182 64.5c86.667 0 157.667 -25.667 213 -77c3.33301 -4 3.33301 -8 0 -12l-25 -27
c-2.66699 -4 -6.66699 -4.33301 -12 -1c-49.333 44 -110.333 66 -183 66c-56.667 0 -104 -17.5 -142 -52.5s-62.333 -82.167 -73 -141.5l-44 -250c-9.33301 -56 -1.16602 -101.5 24.501 -136.5s67.5 -52.5 125.5 -52.5c74 1.33301 141.333 24 202 68l39 218h-186
c-6 0 -8 3 -6 9l6 34c1.33301 4.66699 4.33301 7 9 7h232c6.66699 0 9.33398 -2.66699 8.00098 -8l-49 -276c-0.666992 -1.33301 -2.33398 -4.33301 -5.00098 -9zM204.999 -235h-27c-6 0 -7.66699 3 -5 9l66 145c2 4 5.33301 6 10 6h37c6.66699 0 8.66699 -3 6 -9l-78 -145
c-2 -4 -5 -6 -9 -6z" />
    <glyph glyph-name="uni0123" unicode="&#x123;" horiz-adv-x="514" 
d="M399 -4c-10.667 -61.333 -34.6699 -109.169 -72.0029 -143.502s-88.333 -51.5 -153 -51.5c-67.333 0 -123.666 23.667 -168.999 71c-3.33301 4 -3.33301 7.66699 0 11l19 25c3.33301 4.66699 7.33301 4.66699 12 0c40.667 -39.333 87.667 -59 141 -59
c48.667 0 87.334 13.333 116.001 40s47 64.334 55 113.001l9 49c-44.667 -21.333 -91 -32 -139 -32c-65.333 0 -113.166 18 -143.499 54s-39.5 87.667 -27.5 155l18 103c12 66.667 39 115.834 81 147.501s95 47.5 159 47.5c64.667 0 122 -16.667 172 -50
c2.66699 -2 4 -5.66699 4 -11zM98.9971 223.997c-18.667 -104 22.667 -156 124 -156c51.333 0 98.666 12 141.999 36l59 341c-33.333 22 -74.666 33 -123.999 33c-104 0 -164.667 -50.333 -182 -151zM321.998 597.997h-33c-7.33301 0 -9 3.33301 -5 10l68 135
c2 4 5.33301 6 10 6h23c6.66699 0 8.66699 -3 6 -9l-60 -135c-2 -4.66699 -5 -7 -9 -7z" />
    <glyph glyph-name="Hbar" unicode="&#x126;" horiz-adv-x="654" 
d="M621 600h56.001c6.66699 0 9 -3 7 -9l-4 -25c-1.33301 -4.66699 -4.33301 -7 -9 -7h-57l-97 -551c0 -5.33301 -3 -8 -9 -8h-39c-6 0 -8 3 -6 9l58 330h-357l-59 -331c0 -5.33301 -3 -8 -9 -8h-38c-5.33301 0 -7.66602 3 -6.99902 9l97 550h-71c-6 0 -8.33301 3 -7 9l4 24
c1.33301 5.33301 4.66602 8 9.99902 8h71l19 107c0 5.33301 3 8 9 8h38c6 0 8.66699 -3 8 -9l-19 -106h357l18 107c1.33301 5.33301 4.66602 8 9.99902 8h38c6 0 8.33301 -3 7 -9zM173.001 389h357l30 170h-357z" />
    <glyph glyph-name="hbar" unicode="&#x127;" horiz-adv-x="532" 
d="M164 479c48 26.667 96.999 40 146.999 40c61.333 0 107 -18.5 137 -55.5s38.333 -91.833 25 -164.5l-52 -291c0 -5.33301 -3 -8 -9 -8h-36c-5.33301 0 -7.66602 3 -6.99902 9l52 297c20 110.667 -20 166 -120 166c-48.667 0 -97.334 -14.667 -146.001 -44l-74 -420
c0 -5.33301 -3 -8 -9 -8h-36c-5.33301 0 -7.66602 3 -6.99902 9l103 588h-75c-6 0 -8.33301 3 -7 9l4 22c0.666992 4.66699 3.66699 7 9 7h76l12 72c1.33301 5.33301 4.33301 8 9 8h37c6 0 8 -3 6 -9l-12 -71h157c6 0 8.33301 -2.66699 7 -8l-4 -22c0 -5.33301 -3 -8 -9 -8
h-158z" />
    <glyph glyph-name="Imacron" unicode="&#x12a;" horiz-adv-x="237" 
d="M329 817h-221.999c-6 0 -8.66699 3 -8 9l6 31c0.666992 4.66699 3.66699 7 9 7h222c5.33301 0 7.66602 -3 6.99902 -9l-5 -30c-1.33301 -5.33301 -4.33301 -8 -9 -8zM94.001 0h-39c-6 0 -8.33301 3 -7 9l123 698c0 5.33301 3 8 9 8h39c6 0 8.66699 -3 8 -9l-124 -698
c0 -5.33301 -3 -8 -9 -8z" />
    <glyph glyph-name="imacron" unicode="&#x12b;" horiz-adv-x="196" 
d="M259 638h-186.999c-6 0 -8.33301 2.66699 -7 8l5 28c1.33301 5.33301 4.33301 8 9 8h186c6 0 8.66699 -3 8 -9l-6 -28c-0.666992 -4.66699 -3.33398 -7 -8.00098 -7zM71.001 0h-35.999c-6 0 -8.33301 3 -7 9l89 498c1.33301 5.33301 4.33301 8 9 8h36
c5.33301 0 7.66602 -3 6.99902 -9l-89 -498c0 -5.33301 -3 -8 -9 -8z" />
    <glyph glyph-name="Iogonek" unicode="&#x12e;" horiz-adv-x="238" 
d="M102 -181c-25.333 -12 -50.665 -17.998 -75.998 -17.998c-24.667 0 -43 7.16699 -55 21.5s-16.333 34.166 -13 59.499c8 46 39.667 85.333 95 118h-1c-4 0 -5.33301 3.33301 -4 10l123 697c1.33301 5.33301 4.33301 8 9 8h39c6 0 8.66699 -3 8 -9l-123 -699
c-0.666992 -3.33301 -3.33398 -6.33301 -8.00098 -9c-25.333 -15.333 -46 -32.833 -62 -52.5s-25.333 -37.5 -28 -53.5c-4.66699 -28.667 6 -43 32 -43c20 0 38.333 4 55 12c5.33301 3.33301 8.66602 1.66602 9.99902 -5.00098l4 -27c0.666992 -4.66699 -1 -8 -5 -10z" />
    <glyph glyph-name="iogonek" unicode="&#x12f;" horiz-adv-x="196" 
d="M80 -180c-23.333 -12.667 -48.6621 -19.001 -75.9951 -19.001c-25.333 0 -44 7.33301 -56 22s-16 34.667 -12 60c2.66699 20.667 13 42.167 31 64.5s39 40.5 63 54.5h-1c-2.66699 0 -2.66699 3.66699 0 11l88 494c0 5.33301 3 8 9 8h36c5.33301 0 7.66602 -3 6.99902 -9
l-89 -498c-0.666992 -5.33301 -2.66699 -8.66602 -6 -9.99902c-24.667 -14.667 -45.334 -32 -62.001 -52s-26.334 -38 -29.001 -54c-4.66699 -28.667 6.66602 -43 33.999 -43c20 0 38 4 54 12c5.33301 2.66699 8.66602 1 9.99902 -5l5 -26
c0.666992 -4.66699 -1.33301 -8 -6 -10zM201.004 652.999c-1.33301 -9.33301 -5.66797 -17 -13.001 -23s-15.666 -9 -24.999 -9c-10.667 0 -19.167 3.83301 -25.5 11.5s-8.5 16.834 -6.5 27.501c4 21.333 17 32 39 32c10.667 0 19 -3.83301 25 -11.5s8 -16.834 6 -27.501z
" />
    <glyph glyph-name="Idotaccent" unicode="&#x130;" horiz-adv-x="237" 
d="M226 706l-122.999 -698c0 -5.33301 -3 -8 -9 -8h-39c-6 0 -8.33301 3 -7 9l123 698c1.33301 5.33301 4.66602 8 9.99902 8h38c6 0 8.33301 -3 7 -9zM258.001 840c-3.33301 -24.667 -17.665 -37 -42.998 -37c-12.667 0 -21.834 4.16699 -27.501 12.5
s-7.83398 18.166 -6.50098 29.499c2 10.667 6.83301 19.5 14.5 26.5s17.167 10.5 28.5 10.5c12.667 0 22 -4.16699 28 -12.5s8 -18.166 6 -29.499z" />
    <glyph glyph-name="dotlessi" unicode="&#x131;" horiz-adv-x="196" 
d="M71 0h-35.999c-6 0 -8.33301 3 -7 9l89 498c0 5.33301 3 8 9 8h36c5.33301 0 7.66602 -3 6.99902 -9l-89 -498c0 -5.33301 -3 -8 -9 -8z" />
    <glyph glyph-name="IJ" unicode="&#x132;" horiz-adv-x="721" 
d="M226 706l-122.999 -698c0 -5.33301 -3 -8 -9 -8h-39c-6 0 -8.33301 3 -7 9l123 698c1.33301 5.33301 4.66602 8 9.99902 8h38c6 0 8.33301 -3 7 -9zM625.001 197c-12 -68 -37 -119.667 -75 -155s-87 -53 -147 -53c-69.333 0 -127 27 -173 81c-4 4 -4 8 0 12l21 26
c4 4 8 4 12 0c42 -46 90.667 -69 146 -69c88 0 141.333 54 160 162l91 506c0 5.33301 3 8 9 8h38c6 0 8.33301 -3 7 -9z" />
    <glyph glyph-name="ij" unicode="&#x133;" horiz-adv-x="463" 
d="M71 0h-36c-6.66699 0 -9 3 -7 9l89 498c0 5.33301 3 8 9 8h36c6.66699 0 9 -3 7 -9l-89 -498c0 -5.33301 -3 -8 -9 -8zM202 653c-1.33301 -9.33301 -5.5 -17 -12.5 -23s-15.5 -9 -25.5 -9c-10.667 0 -19.167 3.83301 -25.5 11.5s-8.5 16.834 -6.5 27.501
c4 21.333 16.667 32 38 32c11.333 0 20 -3.83301 26 -11.5s8 -16.834 6 -27.501zM342 -25c-21.333 -116 -74.667 -173.999 -160 -173.999c-15.333 0 -28.666 1.33301 -39.999 4c-4.66699 0.666992 -7 3.66699 -7 9l6 32c1.33301 5.33301 4.33301 7.66602 9 6.99902
c13.333 -2 25.333 -3 36 -3c54 0 88.667 43 104 129l93 528c1.33301 5.33301 4.66602 8 9.99902 8h36c6 0 8.33301 -3 7 -9zM470.999 653.001c-4.66699 -21.333 -17.333 -32 -38 -32c-10.667 0 -19.167 3.83301 -25.5 11.5s-8.5 16.834 -6.5 27.501
c3.33301 21.333 16 32 38 32c11.333 0 20 -3.83301 26 -11.5s8 -16.834 6 -27.501z" />
    <glyph glyph-name="uni0136" unicode="&#x136;" horiz-adv-x="579" 
d="M575 715h53.001c3.33301 0 5.5 -1 6.5 -3s0.166992 -4.33301 -2.5 -7l-344 -314l239 -381c4 -6.66699 2.33301 -10 -5 -10h-46c-4 0 -7 1.66699 -9 5l-220 350l-98 -86l-46 -261c-1.33301 -5.33301 -4.33301 -8 -9 -8h-39c-6 0 -8.33301 3 -7 9l122 698
c1.33301 5.33301 4.33301 8 9 8h39c5.33301 0 7.66602 -3 6.99902 -9l-63 -361l402 366c4 2.66699 7.66699 4 11 4zM200.001 -235h-27c-6 0 -7.66699 3 -5 9l66 145c2 4 5.33301 6 10 6h37c6.66699 0 8.66699 -3 6 -9l-78 -145c-2 -4 -5 -6 -9 -6z" />
    <glyph glyph-name="uni0137" unicode="&#x137;" horiz-adv-x="463" 
d="M434 515h49.002c2 0 3.66699 -0.5 5 -1.5s1.83301 -2.33301 1.5 -4s-1.5 -3.16699 -3.5 -4.5l-254 -212l178 -283c3.33301 -6.66699 1.66602 -10 -5.00098 -10h-44c-4.66699 0 -7.66699 1.66699 -9 5l-159 253l-78 -64l-33 -186c-1.33301 -5.33301 -4.33301 -8 -9 -8h-37
c-5.33301 0 -7.66602 3 -6.99902 9l123 698c1.33301 5.33301 4.66602 8 9.99902 8h36c5.33301 0 7.66602 -3 6.99902 -9l-77 -439l296 244c2.66699 2.66699 6 4 10 4zM148.002 -225h-23.001c-6.66699 0 -8.66699 3 -6 9l59 135c1.33301 4.66699 4.33301 7 9 7h33
c6 0 8 -3.33301 6 -10l-68 -135c-1.33301 -4 -4.66602 -6 -9.99902 -6z" />
    <glyph glyph-name="Lacute" unicode="&#x139;" horiz-adv-x="477" 
d="M227 706l-115.999 -656h313c4.66699 0 7 -2.66699 7 -8l-6 -34c0 -5.33301 -3 -8 -9 -8h-361c-6 0 -8.33301 3 -7 9l123 698c1.33301 5.33301 4.66602 8 9.99902 8h38c6 0 8.66699 -3 8 -9zM223.001 787h-31.998c-3.33301 0 -5.5 1 -6.5 3s-0.166992 4.33301 2.5 7
l128 135c2.66699 2.66699 6.33398 4 11.001 4h45c3.33301 0 5.66602 -1 6.99902 -3s0.666016 -4.33301 -2.00098 -7l-142 -135c-2.66699 -2.66699 -6.33398 -4 -11.001 -4z" />
    <glyph glyph-name="lacute" unicode="&#x13a;" horiz-adv-x="255" 
d="M194 -8c-3.33301 0 -7.83301 -0.334961 -13.5 -1.00195s-10.834 -1.16699 -15.501 -1.5s-9 -0.5 -13 -0.5c-41.333 0 -71 15 -89 45s-21.667 74.667 -11 134l94 539c0 5.33301 3 8 9 8h36c6 0 8.33301 -3 7 -9l-94 -541c-14.667 -84.667 4.33301 -127 57 -127
c18 0 31 0.666992 39 2c2.66699 0.666992 4.83398 0.333984 6.50098 -0.999023s2.16699 -3.66602 1.5 -6.99902l-5 -32c0 -4 -3 -6.66699 -9 -8zM191 786.998h-31.998c-3.33301 0 -5.5 1 -6.5 3s-0.166992 4.33301 2.5 7l128 135c2.66699 2.66699 6.33398 4 11.001 4h45
c3.33301 0 5.66602 -1 6.99902 -3s0.666016 -4.33301 -2.00098 -7l-142 -135c-2.66699 -2.66699 -6.33398 -4 -11.001 -4z" />
    <glyph glyph-name="uni013B" unicode="&#x13b;" horiz-adv-x="477" 
d="M227 706l-115.999 -656h313c4.66699 0 7 -2.66699 7 -8l-6 -34c0 -5.33301 -3 -8 -9 -8h-361c-6 0 -8.33301 3 -7 9l123 698c1.33301 5.33301 4.66602 8 9.99902 8h38c6 0 8.66699 -3 8 -9zM173.001 -235h-27c-6 0 -7.66699 3 -5 9l66 145c2 4 5.33301 6 10 6h37
c6.66699 0 8.66699 -3 6 -9l-78 -145c-2 -4 -5 -6 -9 -6z" />
    <glyph glyph-name="uni013C" unicode="&#x13c;" horiz-adv-x="255" 
d="M194 -8c-3.33301 0 -7.83301 -0.334961 -13.5 -1.00195s-10.834 -1.16699 -15.501 -1.5s-9 -0.5 -13 -0.5c-41.333 0 -71 15 -89 45s-21.667 74.667 -11 134l94 539c0 5.33301 3 8 9 8h36c6 0 8.33301 -3 7 -9l-94 -541c-14.667 -84.667 4.33301 -127 57 -127
c18 0 31 0.666992 39 2c2.66699 0.666992 4.83398 0.333984 6.50098 -0.999023s2.16699 -3.66602 1.5 -6.99902l-5 -32c0 -4 -3 -6.66699 -9 -8zM62 -225.002h-23.001c-6.66699 0 -8.66699 3 -6 9l59 135c1.33301 4.66699 4.33301 7 9 7h33c6 0 8 -3.33301 6 -10l-68 -135
c-1.33301 -4 -4.66602 -6 -9.99902 -6z" />
    <glyph glyph-name="Lcaron" unicode="&#x13d;" horiz-adv-x="478" 
d="M416 0h-360.999c-6 0 -8.33301 3 -7 9l123 698c1.33301 5.33301 4.66602 8 9.99902 8h38c6 0 8.66699 -3 8 -9l-116 -656h313c4.66699 0 7 -2.66699 7 -8l-6 -34c0 -5.33301 -3 -8 -9 -8zM336.001 551h-26c-2.66699 0 -4.5 1 -5.5 3s-0.833008 4.33301 0.5 7l66 148
c1.33301 4.66699 4.33301 7 9 7h36c6.66699 0 8.66699 -3.33301 6 -10l-77 -149c-2.66699 -4 -5.66699 -6 -9 -6z" />
    <glyph glyph-name="lcaron" unicode="&#x13e;" horiz-adv-x="268" 
d="M194 -8c-13.333 -2 -26.999 -3 -40.999 -3c-42.667 0 -72.834 15 -90.501 45s-21.167 75 -10.5 135l94 538c1.33301 5.33301 4.33301 8 9 8h37c5.33301 0 7.66602 -3 6.99902 -9l-95 -542c-14.667 -83.333 4.33301 -125 57 -125c12 0 25 1 39 3
c6.66699 0 9.33398 -2.66699 8.00098 -8l-5 -33c-0.666992 -4.66699 -3.66699 -7.66699 -9 -9zM260.001 560h-23c-6.66699 0 -9 3.33301 -7 10l64 139c1.33301 4 4.33301 6 9 6h32c7.33301 0 9.33301 -3.33301 6 -10l-71 -139c-2 -4 -5.33301 -6 -10 -6z" />
    <glyph glyph-name="Ldot" unicode="&#x13f;" horiz-adv-x="478" 
d="M227 706l-115.999 -656h313c4.66699 0 7 -2.66699 7 -8l-6 -34c0 -5.33301 -3 -8 -9 -8h-361c-6 0 -8.33301 3 -7 9l123 698c1.33301 5.33301 4.66602 8 9.99902 8h38c6 0 8.66699 -3 8 -9zM376.001 347c-4 -24.667 -18.334 -37.001 -43.001 -37.001
c-12 0 -21.333 4.16699 -28 12.5s-8.66699 18.833 -6 31.5c1.33301 10.667 5.83301 19.334 13.5 26.001s17.167 10 28.5 10c12.667 0 22.334 -4 29.001 -12s8.66699 -18.333 6 -31z" />
    <glyph glyph-name="ldot" unicode="&#x140;" horiz-adv-x="265" 
d="M194 -8c-14 -2 -28.001 -3 -42.001 -3c-42 0 -71.833 15 -89.5 45s-21.167 75 -10.5 135l94 538c0 5.33301 3 8 9 8h36c6 0 8.33301 -3 7 -9l-94 -541c-15.333 -84 3.66699 -126 57 -126c12.667 0 25.667 1 39 3c6.66699 0 9.33398 -2.66699 8.00098 -8l-5 -34
c-0.666992 -4 -3.66699 -6.66699 -9 -8zM277.999 342c-4 -22 -16.667 -33 -38 -33c-12.667 0 -21.667 3.83301 -27 11.5s-7 17.167 -5 28.5c3.33301 22.667 16.333 34 39 34c12 0 20.667 -3.83301 26 -11.5s7 -17.5 5 -29.5z" />
    <glyph glyph-name="Lslash" unicode="&#x141;" horiz-adv-x="493" 
d="M176 331l-48.998 -281.001h313c4.66699 0 7 -2.66699 7 -8l-6 -34c0 -5.33301 -3 -8 -9 -8h-361c-6 0 -8.33301 3 -7 9l51 285l-99 -61c-2.66699 -2 -5 -2.33301 -7 -1s-2.66699 3.66602 -2 6.99902l6 36c1.33301 4.66699 3.66602 7.66699 6.99902 9l105 66l62 357
c1.33301 5.33301 4.66602 8 9.99902 8h38c6 0 8.66699 -3 8 -9l-57 -319l163 102c3.33301 2 5.83301 2.33301 7.5 1s2.16699 -3.66602 1.5 -6.99902l-6 -36c0 -3.33301 -2 -6.66602 -6 -9.99902z" />
    <glyph glyph-name="lslash" unicode="&#x142;" horiz-adv-x="323" 
d="M313 420l-143.999 -94.998l-28 -160c-8 -44.667 -7 -77 3 -97s28.333 -30 55 -30c17.333 0 30 0.666992 38 2c3.33301 0.666992 5.66602 0.166992 6.99902 -1.5s1.66602 -3.83398 0.999023 -6.50098l-5 -32c0 -4 -2.66699 -6.66699 -8 -8c-14 -2 -28 -3 -42 -3
c-42 0 -72 15 -90 45s-21.667 74.667 -11 134l21 118l-78 -51c-3.33301 -2.66699 -6 -3.33398 -8 -2.00098s-2.66699 4 -2 8l7 35c0 3.33301 2 6.33301 6 9l84 55l64 367c0 5.33301 3 8 9 8h36c6.66699 0 9.33398 -3 8.00098 -9l-58 -326l139 91
c3.33301 2 5.83301 2.5 7.5 1.5s2.16699 -3.5 1.5 -7.5l-6 -35c-0.666992 -4 -3 -7.33301 -7 -10z" />
    <glyph glyph-name="Nacute" unicode="&#x143;" horiz-adv-x="674" 
d="M94 0h-39c-6 0 -8.33301 3 -7 9l123 698c0 5.33301 3 8 9 8h45c4.66699 0 8 -2 10 -6l264 -626h2c24 152 39 244 45 276l61 348c1.33301 5.33301 4.66602 8 9.99902 8h38c6 0 8.33301 -3 7 -9l-122 -698c-1.33301 -5.33301 -4.66602 -8 -9.99902 -8h-45c-4 0 -7 2 -9 6
l-193 442c-22 50.667 -46 110 -72 178h-2c-10.667 -73.333 -25 -159 -43 -257l-63 -361c0 -5.33301 -3 -8 -9 -8zM423 787h-31.998c-3.33301 0 -5.5 1 -6.5 3s-0.166992 4.33301 2.5 7l128 135c2.66699 2.66699 6.33398 4 11.001 4h45c3.33301 0 5.66602 -1 6.99902 -3
s0.666016 -4.33301 -2.00098 -7l-142 -135c-2.66699 -2.66699 -6.33398 -4 -11.001 -4z" />
    <glyph glyph-name="nacute" unicode="&#x144;" horiz-adv-x="534" 
d="M69 0h-36c-6 0 -8.33301 3 -7 9l85 471c0 4 2.33301 7 7 9c62 24.667 124 37 186 37c66.667 0 115.5 -18.5 146.5 -55.5s40.167 -89.5 27.5 -157.5l-55 -305c0 -5.33301 -3 -8 -9 -8h-35c-6 0 -8.66699 3 -8 9l55 308c20 108 -22.333 162 -127 162
c-46 0 -92.667 -8.66699 -140 -26l-81 -445c0 -5.33301 -3 -8 -9 -8zM308 598h-28c-3.33301 0 -5.5 1 -6.5 3s-0.5 4.33301 1.5 7l104 134c2 3.33301 5.33301 5 10 5h40c8 0 9.33301 -3.33301 4 -10l-115 -134c-2 -3.33301 -5.33301 -5 -10 -5z" />
    <glyph glyph-name="uni0145" unicode="&#x145;" horiz-adv-x="674" 
d="M94 0h-39c-6 0 -8.33301 3 -7 9l123 698c0 5.33301 3 8 9 8h45c4.66699 0 8 -2 10 -6l264 -626h2c24 152 39 244 45 276l61 348c1.33301 5.33301 4.66602 8 9.99902 8h38c6 0 8.33301 -3 7 -9l-122 -698c-1.33301 -5.33301 -4.66602 -8 -9.99902 -8h-45c-4 0 -7 2 -9 6
l-193 442c-22 50.667 -46 110 -72 178h-2c-10.667 -73.333 -25 -159 -43 -257l-63 -361c0 -5.33301 -3 -8 -9 -8zM232 -235h-27c-6 0 -7.66699 3 -5 9l66 145c2 4 5.33301 6 10 6h37c6.66699 0 8.66699 -3 6 -9l-78 -145c-2 -4 -5 -6 -9 -6z" />
    <glyph glyph-name="uni0146" unicode="&#x146;" horiz-adv-x="534" 
d="M69 0h-36c-6 0 -8.33301 3 -7 9l85 471c0 4 2.33301 7 7 9c62 24.667 124 37 186 37c66.667 0 115.5 -18.5 146.5 -55.5s40.167 -89.5 27.5 -157.5l-55 -305c0 -5.33301 -3 -8 -9 -8h-35c-6 0 -8.66699 3 -8 9l55 308c20 108 -22.333 162 -127 162
c-46 0 -92.667 -8.66699 -140 -26l-81 -445c0 -5.33301 -3 -8 -9 -8zM160 -225h-23.001c-6.66699 0 -8.66699 3 -6 9l59 135c1.33301 4.66699 4.33301 7 9 7h33c6 0 8 -3.33301 6 -10l-68 -135c-1.33301 -4 -4.66602 -6 -9.99902 -6z" />
    <glyph glyph-name="Ncaron" unicode="&#x147;" horiz-adv-x="674" 
d="M94 0h-39c-6 0 -8.33301 3 -7 9l123 698c0 5.33301 3 8 9 8h45c4.66699 0 8 -2 10 -6l264 -626h2c24 152 39 244 45 276l61 348c1.33301 5.33301 4.66602 8 9.99902 8h38c6 0 8.33301 -3 7 -9l-122 -698c-1.33301 -5.33301 -4.66602 -8 -9.99902 -8h-45c-4 0 -7 2 -9 6
l-193 442c-22 50.667 -46 110 -72 178h-2c-10.667 -73.333 -25 -159 -43 -257l-63 -361c0 -5.33301 -3 -8 -9 -8zM556 936h38.999c3.33301 0 5.5 -1 6.5 -3s0.166992 -4.33301 -2.5 -7l-142 -135c-2 -2.66699 -5.33301 -4 -10 -4h-34c-4.66699 0 -8 1.66699 -10 5l-97 134
c-4 6.66699 -2.33301 10 5 10h37c4.66699 0 8 -1.66699 10 -5l76 -106l111 107c2.66699 2.66699 6.33398 4 11.001 4z" />
    <glyph glyph-name="ncaron" unicode="&#x148;" horiz-adv-x="534" 
d="M69 0h-36c-6 0 -8.33301 3 -7 9l85 471c0 4 2.33301 7 7 9c62 24.667 124 37 186 37c66.667 0 115.5 -18.5 146.5 -55.5s40.167 -89.5 27.5 -157.5l-55 -305c0 -5.33301 -3 -8 -9 -8h-35c-6 0 -8.66699 3 -8 9l55 308c20 108 -22.333 162 -127 162
c-46 0 -92.667 -8.66699 -140 -26l-81 -445c0 -5.33301 -3 -8 -9 -8zM290 604l-86.001 134c-3.33301 6.66699 -1.66602 10 5.00098 10h33c4.66699 0 8 -2 10 -6l68 -108l109 109c3.33301 3.33301 7 5 11 5h36c3.33301 0 5.5 -1 6.5 -3s0.166992 -4.33301 -2.5 -7l-137 -135
c-2 -2.66699 -5.33301 -4 -10 -4h-33c-4 0 -7.33301 1.66699 -10 5z" />
    <glyph glyph-name="Eng" unicode="&#x14a;" horiz-adv-x="679" 
d="M544 -3c-12 -70 -30.333 -120.166 -55 -150.499s-60.334 -45.5 -107.001 -45.5c-2.66699 0 -17 1 -43 3c-4.66699 0.666992 -7 4 -7 10l4 33c0 5.33301 3 8 9 8c12.667 -2 24 -3 34 -3c32 0 56.167 11 72.5 33s29.166 58.667 38.499 110l-237 517
c-19.333 46 -33.666 83.667 -42.999 113h-3c-7.33301 -60 -14.333 -107.667 -21 -143l-82 -474c-1.33301 -5.33301 -4.33301 -8 -9 -8h-40c-6 0 -8.33301 3 -7 9l122 698c1.33301 5.33301 4.33301 8 9 8h45c5.33301 0 8.33301 -2 9 -6l225 -506l47 -121h2
c6.66699 47.333 15.334 102.666 26.001 165.999l80 459c0 5.33301 3 8 9 8h39c6 0 8.33301 -3 7 -9z" />
    <glyph glyph-name="eng" unicode="&#x14b;" horiz-adv-x="532" 
d="M418 -13c-21.333 -124 -76.334 -186 -165.001 -186c-1.33301 0 -14 1 -38 3c-4.66699 0.666992 -7 4 -7 10l6 33c0 5.33301 3 7.33301 9 6c8 -1.33301 19.667 -2 35 -2c55.333 0 91.333 46.333 108 139l58 327c20 108 -22 162 -126 162c-46.667 0 -93 -9 -139 -27
l-80 -444c-1.33301 -5.33301 -4.33301 -8 -9 -8h-36c-5.33301 0 -7.66602 3 -6.99902 9l84 471c0.666992 4 3.33398 7 8.00098 9c61.333 24.667 122.333 37 183 37c66 0 114.667 -18.5 146 -55.5s40.666 -89.5 27.999 -157.5z" />
    <glyph glyph-name="Omacron" unicode="&#x14c;" horiz-adv-x="645" 
d="M575 231c-12 -72 -44.998 -130.333 -98.998 -175s-120.333 -67 -199 -67c-78 0 -136 24 -174 72s-50.667 109.333 -38 184l40 236c13.333 74 46.666 133.333 99.999 178s119.333 67 198 67s137.167 -24.167 175.5 -72.5s51.166 -109.5 38.499 -183.5zM119.002 239
c-10 -57.333 0.00195312 -104.832 30.002 -142.499s74.667 -56.5 134 -56.5c61.333 0 113.666 18.167 156.999 54.5s70 83.166 80 140.499l42 240c10 58.667 0.166992 106.667 -29.5 144s-74.834 56 -135.501 56c-62.667 0 -115.167 -18.167 -157.5 -54.5
s-68.5 -84.5 -78.5 -144.5zM551.004 830.001h-251.999c-6.66699 0 -9.33398 2.66699 -8.00098 8l6 31c0.666992 4.66699 3.66699 7 9 7h253c6.66699 0 9 -2.66699 7 -8l-5 -31c-0.666992 -4.66699 -4 -7 -10 -7z" />
    <glyph glyph-name="omacron" unicode="&#x14d;" 
d="M446 179c-10.667 -56.667 -36.8311 -102.503 -78.498 -137.503s-93.834 -52.5 -156.501 -52.5c-62 0 -108.333 19.333 -139 58s-41 86.334 -31 143.001l27 150c10 54.667 36 99.334 78 134.001s94 52 156 52c63.333 0 110.166 -19.167 140.499 -57.5
s40.5 -85.166 30.5 -140.499zM94.0029 185.997c-8 -44.667 -1.66699 -80.667 19 -108s54.667 -41 102 -41c48.667 0 88.5 13.5 119.5 40.5s50.5 62.167 58.5 105.5l27 150c7.33301 42 0.666016 76.833 -20.001 104.5s-55 41.5 -103 41.5
c-47.333 0 -86.666 -13.5 -117.999 -40.5s-51 -61.5 -59 -103.5zM201.003 628.997l5 28c1.33301 5.33301 4.33301 8 9 8h234c6.66699 0 9 -3 7 -9l-5 -28c-0.666992 -4.66699 -3.66699 -7 -9 -7h-234c-6 0 -8.33301 2.66699 -7 8z" />
    <glyph glyph-name="Ohungarumlaut" unicode="&#x150;" horiz-adv-x="645" 
d="M575 231c-12 -72 -44.998 -130.333 -98.998 -175s-120.333 -67 -199 -67c-78 0 -136 24 -174 72s-50.667 109.333 -38 184l40 236c13.333 74 46.666 133.333 99.999 178s119.333 67 198 67s137.167 -24.167 175.5 -72.5s51.166 -109.5 38.499 -183.5zM119.002 239
c-10 -57.333 0.00195312 -104.832 30.002 -142.499s74.667 -56.5 134 -56.5c61.333 0 113.666 18.167 156.999 54.5s70 83.166 80 140.499l42 240c10 58.667 0.166992 106.667 -29.5 144s-74.834 56 -135.501 56c-62.667 0 -115.167 -18.167 -157.5 -54.5
s-68.5 -84.5 -78.5 -144.5zM326.004 787.001h-32.998c-3.33301 0 -5.5 1 -6.5 3s-0.166992 4.33301 2.5 7l126 135c2.66699 2.66699 6 4 10 4h43c3.33301 0 5.66602 -1 6.99902 -3s0.666016 -4.33301 -2.00098 -7l-137 -134c-2 -3.33301 -5.33301 -5 -10 -5z
M481.006 787.001h-31.002c-3.33301 0 -5.66602 1 -6.99902 3s-0.666016 4.33301 2.00098 7l132 135c2.66699 2.66699 6.33398 4 11.001 4h44c3.33301 0 5.5 -1 6.5 -3s0.166992 -4.33301 -2.5 -7l-144 -135c-2.66699 -2.66699 -6.33398 -4 -11.001 -4z" />
    <glyph glyph-name="ohungarumlaut" unicode="&#x151;" 
d="M446 179c-10.667 -56.667 -36.8311 -102.503 -78.498 -137.503s-93.834 -52.5 -156.501 -52.5c-62 0 -108.333 19.333 -139 58s-41 86.334 -31 143.001l27 150c10 54.667 36 99.334 78 134.001s94 52 156 52c63.333 0 110.166 -19.167 140.499 -57.5
s40.5 -85.166 30.5 -140.499zM94.0029 185.997c-8 -44.667 -1.66699 -80.667 19 -108s54.667 -41 102 -41c48.667 0 88.5 13.5 119.5 40.5s50.5 62.167 58.5 105.5l27 150c7.33301 42 0.666016 76.833 -20.001 104.5s-55 41.5 -103 41.5
c-47.333 0 -86.666 -13.5 -117.999 -40.5s-51 -61.5 -59 -103.5zM248.003 597.997h-23c-3.33301 0 -5.5 1 -6.5 3s-0.5 4.33301 1.5 7l97 134c2.66699 3.33301 6 5 10 5h33c3.33301 0 5.5 -1 6.5 -3s0.5 -4.33301 -1.5 -7l-107 -134c-2 -3.33301 -5.33301 -5 -10 -5z
M376.003 597.997h-23c-7.33301 0 -9 3.33301 -5 10l104 134c2.66699 3.33301 6 5 10 5h33c8 0 9.33301 -3.33301 4 -10l-113 -134c-2 -3.33301 -5.33301 -5 -10 -5z" />
    <glyph glyph-name="OE" unicode="&#x152;" horiz-adv-x="938" 
d="M958 706l-5.99902 -34c-1.33301 -5.33301 -4.33301 -8 -9 -8h-319l-48 -274h301c6 0 8.33301 -3 7 -9l-5 -34c-1.33301 -5.33301 -4.33301 -8 -9 -8h-303l-50 -287h327c6.66699 0 9.33398 -2.66699 8.00098 -8l-7 -37c-1.33301 -4.66699 -4.33301 -7 -9 -7h-374
c-6.66699 0 -9.33398 3 -8.00098 9l16 83c-22.667 -31.333 -52.667 -56.333 -90 -75s-78 -28 -122 -28c-68 0 -120.667 24 -158 72s-49.333 107.667 -36 179l45 254c12 70.667 44 127 96 169s112 63 180 63c42.667 0 79.167 -10 109.5 -30s52.166 -47.333 65.499 -82l16 93
c0 5.33301 3 8 9 8h365c5.33301 0 8 -3 8 -9zM491.001 216l46.001 269.001c9.33301 55.333 -0.333984 100.666 -29.001 135.999s-71.334 53 -128.001 53c-53.333 0.666992 -100.166 -16 -140.499 -50s-65.5 -78.667 -75.5 -134l-44 -255
c-10 -56.667 -1.83301 -103.167 24.5 -139.5s66.166 -54.5 119.499 -54.5c55.333 0 104.833 16.333 148.5 49s69.834 74.667 78.501 126z" />
    <glyph glyph-name="oe" unicode="&#x153;" horiz-adv-x="835" 
d="M394 92c-43.333 -68.667 -107.002 -103.001 -191.002 -103.001c-59.333 0 -103.833 19.333 -133.5 58s-39.5 86.334 -29.5 143.001l27 150c10 54 35.333 98.5 76 133.5s90.667 52.5 150 52.5c41.333 0 75.333 -9.16699 102 -27.5s44.667 -43.5 54 -75.5
c20 32.667 46.5 58 79.5 76s68.833 27 107.5 27c58 0 102.5 -17 133.5 -51s41.167 -80.667 30.5 -140l-18 -96c0 -5.33301 -3 -8 -9 -8h-328l-11 -58c-7.33301 -41.333 0.833984 -74.5 24.501 -99.5s55.834 -37.5 96.501 -37.5c54.667 0 109.334 22 164.001 66
c4.66699 4 8.66699 3.66699 12 -1l16 -25c3.33301 -5.33301 3 -9 -1 -11c-58.667 -50.667 -124.334 -76 -197.001 -76c-37.333 0 -70 9 -98 27s-47 43.333 -57 76zM92.998 185.999c-8 -44.667 -2.33008 -80.667 17.0029 -108s51.666 -41 96.999 -41
c48 0 87.333 13.333 118 40s50 61.667 58 105l27 152c7.33301 42 0.666016 76.667 -20.001 104s-54.334 41 -101.001 41c-45.333 0 -83 -13.5 -113 -40.5s-49 -61.5 -57 -103.5zM464.001 337.999l-11 -61h285l11 62c8.66699 44.667 2 79.167 -20 103.5
s-54.333 36.5 -97 36.5s-79.5 -12.5 -110.5 -37.5s-50.167 -59.5 -57.5 -103.5z" />
    <glyph glyph-name="Racute" unicode="&#x154;" horiz-adv-x="592" 
d="M94 0l-39 -0.000976562c-6 0 -8.33301 3 -7 9l123 698c0 5.33301 3 8 9 8h206c73.333 0 127.666 -20.667 162.999 -62s47.333 -95.666 36 -162.999c-10 -56.667 -35.167 -102.167 -75.5 -136.5s-92.166 -53.833 -155.499 -58.5l160 -285
c3.33301 -6.66699 1.33301 -10 -6 -10h-44c-4.66699 0 -8 1.66699 -10 5l-157 288h-144l-50 -285c0 -5.33301 -3 -8 -9 -8zM218 664.999l-55.998 -321.999h159c58.667 0 106 13.167 142 39.5s58.333 64.166 67 113.499c9.33301 55.333 1.16602 97.333 -24.501 126
s-67.834 43 -126.501 43h-161zM372.002 787h-31.998c-3.33301 0 -5.5 1 -6.5 3s-0.166992 4.33301 2.5 7l128 135c2.66699 2.66699 6.33398 4 11.001 4h45c3.33301 0 5.66602 -1 6.99902 -3s0.666016 -4.33301 -2.00098 -7l-142 -135
c-2.66699 -2.66699 -6.33398 -4 -11.001 -4z" />
    <glyph glyph-name="racute" unicode="&#x155;" horiz-adv-x="353" 
d="M71 0h-36.0029c-6 0 -8.33301 3 -7 9l81 472c0.666992 3.33301 3.33398 6.66602 8.00098 9.99902c54 23.333 109 35 165 35c27.333 0 58.333 -3 93 -9c5.33301 -1.33301 7.66602 -4.33301 6.99902 -9l-5 -31c-1.33301 -5.33301 -4.66602 -7.66602 -9.99902 -6.99902
c-28 5.33301 -57.667 8 -89 8c-43.333 0 -83.666 -8 -120.999 -24l-76 -446c-1.33301 -5.33301 -4.66602 -8 -9.99902 -8zM251.997 598h-28c-3.33301 0 -5.5 1 -6.5 3s-0.5 4.33301 1.5 7l104 134c2 3.33301 5.33301 5 10 5h40c8 0 9.33301 -3.33301 4 -10l-115 -134
c-2 -3.33301 -5.33301 -5 -10 -5z" />
    <glyph glyph-name="uni0156" unicode="&#x156;" horiz-adv-x="592" 
d="M94 0l-39 -0.000976562c-6 0 -8.33301 3 -7 9l123 698c0 5.33301 3 8 9 8h206c73.333 0 127.666 -20.667 162.999 -62s47.333 -95.666 36 -162.999c-10 -56.667 -35.167 -102.167 -75.5 -136.5s-92.166 -53.833 -155.499 -58.5l160 -285
c3.33301 -6.66699 1.33301 -10 -6 -10h-44c-4.66699 0 -8 1.66699 -10 5l-157 288h-144l-50 -285c0 -5.33301 -3 -8 -9 -8zM218 664.999l-55.998 -321.999h159c58.667 0 106 13.167 142 39.5s58.333 64.166 67 113.499c9.33301 55.333 1.16602 97.333 -24.501 126
s-67.834 43 -126.501 43h-161zM203.002 -235h-27c-6 0 -7.66699 3 -5 9l66 145c2 4 5.33301 6 10 6h37c6.66699 0 8.66699 -3 6 -9l-78 -145c-2 -4 -5 -6 -9 -6z" />
    <glyph glyph-name="uni0157" unicode="&#x157;" horiz-adv-x="353" 
d="M70 0h-36.0039c-5.33301 0 -7.66602 3 -6.99902 9l81 472c0.666992 3.33301 3.33398 6.66602 8.00098 9.99902c54 23.333 109 35 165 35c27.333 0 58.333 -3 93 -9c5.33301 -1.33301 7.66602 -4.33301 6.99902 -9l-5 -31
c-1.33301 -5.33301 -4.66602 -7.66602 -9.99902 -6.99902c-28 5.33301 -57.667 8 -89 8c-43.333 0 -83.666 -8 -120.999 -24l-76 -446c-1.33301 -5.33301 -4.66602 -8 -9.99902 -8zM-8.00391 -225h-23.001c-6.66699 0 -8.66699 3 -6 9l59 135c1.33301 4.66699 4.33301 7 9 7
h33c6 0 8 -3.33301 6 -10l-68 -135c-1.33301 -4 -4.66602 -6 -9.99902 -6z" />
    <glyph glyph-name="Rcaron" unicode="&#x158;" horiz-adv-x="592" 
d="M94 0l-39 -0.000976562c-6 0 -8.33301 3 -7 9l123 698c0 5.33301 3 8 9 8h206c73.333 0 127.666 -20.667 162.999 -62s47.333 -95.666 36 -162.999c-10 -56.667 -35.167 -102.167 -75.5 -136.5s-92.166 -53.833 -155.499 -58.5l160 -285
c3.33301 -6.66699 1.33301 -10 -6 -10h-44c-4.66699 0 -8 1.66699 -10 5l-157 288h-144l-50 -285c0 -5.33301 -3 -8 -9 -8zM218 664.999l-55.998 -321.999h159c58.667 0 106 13.167 142 39.5s58.333 64.166 67 113.499c9.33301 55.333 1.16602 97.333 -24.501 126
s-67.834 43 -126.501 43h-161zM501.002 936h38.999c3.33301 0 5.5 -1 6.5 -3s0.166992 -4.33301 -2.5 -7l-142 -135c-2 -2.66699 -5.33301 -4 -10 -4h-34c-4.66699 0 -8 1.66699 -10 5l-97 134c-4 6.66699 -2.33301 10 5 10h37c4.66699 0 8 -1.66699 10 -5l76 -106l111 107
c2.66699 2.66699 6.33398 4 11.001 4z" />
    <glyph glyph-name="rcaron" unicode="&#x159;" horiz-adv-x="353" 
d="M71 0h-36.0029c-6 0 -8.33301 3 -7 9l81 472c0.666992 3.33301 3.33398 6.66602 8.00098 9.99902c54 23.333 109 35 165 35c27.333 0 58.333 -3 93 -9c5.33301 -1.33301 7.66602 -4.33301 6.99902 -9l-5 -31c-1.33301 -5.33301 -4.66602 -7.66602 -9.99902 -6.99902
c-28 5.33301 -57.667 8 -89 8c-43.333 0 -83.666 -8 -120.999 -24l-76 -446c-1.33301 -5.33301 -4.66602 -8 -9.99902 -8zM243.997 604l-86.001 134c-3.33301 6.66699 -1.66602 10 5.00098 10h33c4.66699 0 8 -2 10 -6l68 -108l109 109c3.33301 3.33301 7 5 11 5h36
c3.33301 0 5.5 -1 6.5 -3s0.166992 -4.33301 -2.5 -7l-137 -135c-2 -2.66699 -5.33301 -4 -10 -4h-33c-4 0 -7.33301 1.66699 -10 5z" />
    <glyph glyph-name="Sacute" unicode="&#x15a;" horiz-adv-x="563" 
d="M508 175c-11.333 -62 -40.8271 -108.499 -88.4941 -139.499s-105.834 -46.5 -174.501 -46.5c-46.667 0 -86.834 7.5 -120.501 22.5s-67.834 39.167 -102.501 72.5c-4 4 -4 8 0 12l22 26c4.66699 3.33301 8.66699 3.33301 12 0c58 -54 122.667 -81 194 -81
c53.333 0 98.666 12.667 135.999 38s60 60.333 68 105c4 22.667 2.5 42.5 -4.5 59.5s-19.833 31.667 -38.5 44s-36.834 22.166 -54.501 29.499s-40.834 15.333 -69.501 24c-28 8.66699 -52.667 18.5 -74 29.5s-41.833 25 -61.5 42s-33.5 38.333 -41.5 64s-9 54.5 -3 86.5
c10 54.667 37.333 95.5 82 122.5s99.334 40.5 164.001 40.5c42.667 0 80.167 -6.5 112.5 -19.5s65.166 -33.5 98.499 -61.5c5.33301 -3.33301 6 -7 2 -11l-24 -27c-3.33301 -4 -7.33301 -4.33301 -12 -1c-54.667 45.333 -116 68 -184 68c-48 0 -89 -10 -123 -30
s-54.667 -50.333 -62 -91c-4 -24 -3 -45 3 -63s17 -33.167 33 -45.5s32.333 -22.333 49 -30s37.667 -15.5 63 -23.5c31.333 -9.33301 58.5 -19.333 81.5 -30s45.333 -24.334 67 -41.001s37 -37.167 46 -61.5s10.5 -52.166 4.5 -83.499zM361.006 787.001h-31.998
c-3.33301 0 -5.5 1 -6.5 3s-0.166992 4.33301 2.5 7l128 135c2.66699 2.66699 6.33398 4 11.001 4h45c3.33301 0 5.66602 -1 6.99902 -3s0.666016 -4.33301 -2.00098 -7l-142 -135c-2.66699 -2.66699 -6.33398 -4 -11.001 -4z" />
    <glyph glyph-name="sacute" unicode="&#x15b;" horiz-adv-x="460" 
d="M402 125c-8 -43.333 -31.3301 -76.835 -69.9971 -100.502s-86.334 -35.5 -143.001 -35.5c-72 0 -133 22 -183 66c-4 4 -4.33301 8 -1 12l17 24c4 4.66699 8 5.33398 12 2.00098c44 -38 97 -57 159 -57c42.667 0 78 8.33301 106 25s44.667 40 50 70
c6 31.333 -1.16699 54.166 -21.5 68.499s-53.833 27.166 -100.5 38.499c-118.667 32 -171.334 86 -158.001 162c7.33301 40.667 30.166 71.834 68.499 93.501s84.166 32.5 137.499 32.5c60 0 115.333 -16.333 166 -49c4.66699 -3.33301 5 -7 1 -11l-19 -27
c-4 -2.66699 -8 -3.33398 -12 -2.00098c-38.667 28 -86 42 -142 42c-39.333 0 -72.666 -7.66699 -99.999 -23s-43.333 -36.666 -48 -63.999c-2.66699 -16 -1 -30.167 5 -42.5s16.167 -22.666 30.5 -30.999s28.333 -15 42 -20s30.167 -9.83301 49.5 -14.5
c54 -14 95.167 -33.167 123.5 -57.5s38.5 -58.166 30.5 -101.499zM284.003 597.998h-28c-3.33301 0 -5.5 1 -6.5 3s-0.5 4.33301 1.5 7l104 134c2 3.33301 5.33301 5 10 5h40c8 0 9.33301 -3.33301 4 -10l-115 -134c-2 -3.33301 -5.33301 -5 -10 -5z" />
    <glyph glyph-name="Scedilla" unicode="&#x15e;" horiz-adv-x="563" 
d="M508 175c-10.667 -57.333 -37.1621 -101.501 -79.4951 -132.501s-94.5 -48.5 -156.5 -52.5l-26 -46c26 -0.666992 46 -7.5 60 -20.5s19 -30.833 15 -53.5c-8.66699 -50 -47 -75 -115 -75c-22 0 -41 3.33301 -57 10c-5.33301 1.33301 -7.33301 4.33301 -6 9l2 18
c0 6 3 8.33301 9 7c15.333 -5.33301 31 -8 47 -8c45.333 0 70.666 15.667 75.999 47c3.33301 14.667 0.166016 25.334 -9.50098 32.001s-27.5 10.334 -53.5 11.001c-4.66699 0 -8 1.66699 -10 5c-1.33301 2.66699 -1 5.66699 1 9l29 54c-44 1.33301 -82.167 9.5 -114.5 24.5
s-64.833 38.5 -97.5 70.5c-4 4 -4 8 0 12l22 26c4.66699 3.33301 8.66699 3.33301 12 0c58 -54 122.667 -81 194 -81c53.333 0 98.666 12.667 135.999 38s60 60.333 68 105c4 22.667 2.5 42.5 -4.5 59.5s-19.833 31.667 -38.5 44s-36.834 22.166 -54.501 29.499
s-40.834 15.333 -69.501 24c-28 8.66699 -52.667 18.5 -74 29.5s-41.833 25 -61.5 42s-33.5 38.333 -41.5 64s-9 54.5 -3 86.5c10 54.667 37.333 95.5 82 122.5s99.334 40.5 164.001 40.5c42.667 0 80.167 -6.5 112.5 -19.5s65.166 -33.5 98.499 -61.5
c5.33301 -3.33301 6 -7 2 -11l-24 -27c-3.33301 -4 -7.33301 -4.33301 -12 -1c-54.667 45.333 -116 68 -184 68c-48 0 -89 -10 -123 -30s-54.667 -50.333 -62 -91c-4 -24 -3 -45 3 -63s17 -33.167 33 -45.5s32.333 -22.333 49 -30s37.667 -15.5 63 -23.5
c31.333 -9.33301 58.5 -19.333 81.5 -30s45.333 -24.334 67 -41.001s37 -37.167 46 -61.5s10.5 -52.166 4.5 -83.499z" />
    <glyph glyph-name="scedilla" unicode="&#x15f;" horiz-adv-x="460" 
d="M402 125c-7.33301 -40.667 -28.4971 -72.6699 -63.4971 -96.0029s-78.5 -36.333 -130.5 -39l-27 -45c26 -0.666992 46 -7.5 60 -20.5s19 -30.5 15 -52.5c-9.33301 -50.667 -47 -76 -113 -76c-20 0 -39.333 3.33301 -58 10c-4 1.33301 -6 4.33301 -6 9l2 18
c0 5.33301 3 7.33301 9 6c15.333 -5.33301 31.333 -8 48 -8c20 0 37 4.33301 51 13s22.333 21 25 37c2 14 -1.83301 24.167 -11.5 30.5s-26.834 9.83301 -51.501 10.5c-4.66699 0 -8 1.66699 -10 5c-2 2 -1.66699 5 1 9l29 54c-64.667 2.66699 -119.667 24.334 -165 65.001
c-4 4 -4.33301 8 -1 12l17 24c4 4.66699 8 5.33398 12 2.00098c44 -38 97 -57 159 -57c42.667 0 78 8.33301 106 25s44.667 40 50 70c6 31.333 -1.16699 54.166 -21.5 68.499s-53.833 27.166 -100.5 38.499c-118.667 32 -171.334 86 -158.001 162
c7.33301 40.667 30.166 71.834 68.499 93.501s84.166 32.5 137.499 32.5c60 0 115.333 -16.333 166 -49c4.66699 -3.33301 5 -7 1 -11l-19 -27c-4 -2.66699 -8 -3.33398 -12 -2.00098c-38.667 28 -86 42 -142 42c-39.333 0 -72.666 -7.66699 -99.999 -23
s-43.333 -36.666 -48 -63.999c-2.66699 -16 -1 -30.167 5 -42.5s16.167 -22.666 30.5 -30.999s28.333 -15 42 -20s30.167 -9.83301 49.5 -14.5c54 -14 95.167 -33.167 123.5 -57.5s38.5 -58.166 30.5 -101.499z" />
    <glyph glyph-name="Scaron" unicode="&#x160;" horiz-adv-x="563" 
d="M508 175c-11.333 -62 -40.8271 -108.499 -88.4941 -139.499s-105.834 -46.5 -174.501 -46.5c-46.667 0 -86.834 7.5 -120.501 22.5s-67.834 39.167 -102.501 72.5c-4 4 -4 8 0 12l22 26c4.66699 3.33301 8.66699 3.33301 12 0c58 -54 122.667 -81 194 -81
c53.333 0 98.666 12.667 135.999 38s60 60.333 68 105c4 22.667 2.5 42.5 -4.5 59.5s-19.833 31.667 -38.5 44s-36.834 22.166 -54.501 29.499s-40.834 15.333 -69.501 24c-28 8.66699 -52.667 18.5 -74 29.5s-41.833 25 -61.5 42s-33.5 38.333 -41.5 64s-9 54.5 -3 86.5
c10 54.667 37.333 95.5 82 122.5s99.334 40.5 164.001 40.5c42.667 0 80.167 -6.5 112.5 -19.5s65.166 -33.5 98.499 -61.5c5.33301 -3.33301 6 -7 2 -11l-24 -27c-3.33301 -4 -7.33301 -4.33301 -12 -1c-54.667 45.333 -116 68 -184 68c-48 0 -89 -10 -123 -30
s-54.667 -50.333 -62 -91c-4 -24 -3 -45 3 -63s17 -33.167 33 -45.5s32.333 -22.333 49 -30s37.667 -15.5 63 -23.5c31.333 -9.33301 58.5 -19.333 81.5 -30s45.333 -24.334 67 -41.001s37 -37.167 46 -61.5s10.5 -52.166 4.5 -83.499zM493.006 936.001h38.999
c3.33301 0 5.5 -1 6.5 -3s0.166992 -4.33301 -2.5 -7l-142 -135c-2 -2.66699 -5.33301 -4 -10 -4h-34c-4.66699 0 -8 1.66699 -10 5l-97 134c-4 6.66699 -2.33301 10 5 10h37c4.66699 0 8 -1.66699 10 -5l76 -106l111 107c2.66699 2.66699 6.33398 4 11.001 4z" />
    <glyph glyph-name="scaron" unicode="&#x161;" horiz-adv-x="460" 
d="M402 125c-8 -43.333 -31.3301 -76.835 -69.9971 -100.502s-86.334 -35.5 -143.001 -35.5c-72 0 -133 22 -183 66c-4 4 -4.33301 8 -1 12l17 24c4 4.66699 8 5.33398 12 2.00098c44 -38 97 -57 159 -57c42.667 0 78 8.33301 106 25s44.667 40 50 70
c6 31.333 -1.16699 54.166 -21.5 68.499s-53.833 27.166 -100.5 38.499c-118.667 32 -171.334 86 -158.001 162c7.33301 40.667 30.166 71.834 68.499 93.501s84.166 32.5 137.499 32.5c60 0 115.333 -16.333 166 -49c4.66699 -3.33301 5 -7 1 -11l-19 -27
c-4 -2.66699 -8 -3.33398 -12 -2.00098c-38.667 28 -86 42 -142 42c-39.333 0 -72.666 -7.66699 -99.999 -23s-43.333 -36.666 -48 -63.999c-2.66699 -16 -1 -30.167 5 -42.5s16.167 -22.666 30.5 -30.999s28.333 -15 42 -20s30.167 -9.83301 49.5 -14.5
c54 -14 95.167 -33.167 123.5 -57.5s38.5 -58.166 30.5 -101.499zM269.003 603.998l-86.001 134c-3.33301 6.66699 -1.66602 10 5.00098 10h33c4.66699 0 8 -2 10 -6l68 -108l109 109c3.33301 3.33301 7 5 11 5h36c3.33301 0 5.5 -1 6.5 -3s0.166992 -4.33301 -2.5 -7
l-137 -135c-2 -2.66699 -5.33301 -4 -10 -4h-33c-4 0 -7.33301 1.66699 -10 5z" />
    <glyph glyph-name="uni0162" unicode="&#x162;" horiz-adv-x="517" 
d="M144 -235h-27c-6 0 -7.66699 3 -5 9l66 145c2 4 5.33301 6 10 6h37c6.66699 0 8.66699 -3 6 -9l-78 -145c-2 -4 -5 -6 -9 -6zM98 715h481c4.66699 0 7 -3 7 -9l-6 -33c0 -5.33301 -3 -8 -9 -8h-215l-116 -657c0 -5.33301 -3 -8 -9 -8h-39c-6 0 -8 3 -6 9l115 656h-211
c-4.66699 0 -7 2.66699 -7 8l6 34c0 5.33301 3 8 9 8z" />
    <glyph glyph-name="uni0163" unicode="&#x163;" horiz-adv-x="283" 
d="M78 -225h-23.001c-6.66699 0 -8.66699 3 -6 9l59 135c1.33301 4.66699 4.33301 7 9 7h33c6 0 8 -3.33301 6 -10l-68 -135c-1.33301 -4 -4.66602 -6 -9.99902 -6zM287.999 465l-130.001 -0.000976562l-55 -310c-13.333 -79.333 13.667 -119 81 -119
c8 0 21.333 0.666992 40 2c6.66699 0 9.33398 -2.66699 8.00098 -8l-5 -30c-1.33301 -5.33301 -4 -8 -8 -8c-12.667 -2 -26 -3 -40 -3c-47.333 0 -83 14.833 -107 44.5s-31 71.834 -21 126.501l84 476c1.33301 4.66699 4.33301 7 9 7h30
c5.33301 0 7.66602 -2.66699 6.99902 -8l-16 -123h131c6 0 8.33301 -2.66699 7 -8l-5 -31c-1.33301 -5.33301 -4.66602 -8 -9.99902 -8z" />
    <glyph glyph-name="Tcaron" unicode="&#x164;" horiz-adv-x="517" 
d="M98 715h481c4.66699 0 7 -3 7 -9l-6 -33c0 -5.33301 -3 -8 -9 -8h-215l-116 -657c0 -5.33301 -3 -8 -9 -8h-39c-6 0 -8 3 -6 9l115 656h-211c-4.66699 0 -7 2.66699 -7 8l6 34c0 5.33301 3 8 9 8zM475 936h38.999c3.33301 0 5.5 -1 6.5 -3s0.166992 -4.33301 -2.5 -7
l-142 -135c-2 -2.66699 -5.33301 -4 -10 -4h-34c-4.66699 0 -8 1.66699 -10 5l-97 134c-4 6.66699 -2.33301 10 5 10h37c4.66699 0 8 -1.66699 10 -5l76 -106l111 107c2.66699 2.66699 6.33398 4 11.001 4z" />
    <glyph glyph-name="tcaron" unicode="&#x165;" horiz-adv-x="283" 
d="M221 -8c-14 -2 -27.668 -3.00098 -41.001 -3.00098c-46.667 0 -82 14.833 -106 44.5s-31.333 71.834 -22 126.501l84 475c1.33301 5.33301 4.66602 8 9.99902 8h29c6.66699 0 9.33398 -2.66699 8.00098 -8l-17 -122h131c6 0 8.33301 -3 7 -9l-5 -30
c0 -5.33301 -3 -8 -9 -8h-131l-54 -311c-13.333 -79.333 13.334 -119 80.001 -119c13.333 0 27 1 41 3c6 0 8.33301 -2.66699 7 -8l-5 -31c0 -5.33301 -2.33301 -8 -7 -8zM280.999 585.999h-23c-6 0 -7.66699 3 -5 9l54 135c2 4.66699 5.33301 7 10 7h34
c6 0 7.66699 -3.33301 5 -10l-65 -135c-2 -4 -5.33301 -6 -10 -6z" />
    <glyph glyph-name="Tbar" unicode="&#x166;" horiz-adv-x="533" 
d="M593 706l-6.00098 -33c-1.33301 -5.33301 -4.33301 -8 -9 -8h-214l-53 -299h130c6.66699 0 9 -2.66699 7 -8l-4 -25c-0.666992 -4.66699 -3.66699 -7 -9 -7h-131l-56 -318c0 -5.33301 -3 -8 -9 -8h-39c-5.33301 0 -7.66602 3 -6.99902 9l56 317h-128
c-6 0 -8.33301 2.66699 -7 8l4 24c0 5.33301 3 8 9 8h129l53 299h-211c-6 0 -8.33301 2.66699 -7 8l6 34c0 5.33301 3 8 9 8h479c5.33301 0 8 -3 8 -9z" />
    <glyph glyph-name="tbar" unicode="&#x167;" horiz-adv-x="286" 
d="M222 -8c-13.333 -2 -26.666 -3.00098 -39.999 -3.00098c-47.333 0 -83 14.833 -107 44.5s-31 71.834 -21 126.501l18 105h-46c-5.33301 0 -7.66602 3 -6.99902 9l4 24c1.33301 5.33301 4.66602 8 9.99902 8h46l59 329c1.33301 5.33301 4.33301 8 9 8h29
c5.33301 0 8 -3 8 -9l-16 -124h132c5.33301 0 7.66602 -3 6.99902 -9l-5 -30c-1.33301 -5.33301 -4.33301 -8 -9 -8h-133l-27 -157h103c5.33301 0 7.66602 -3 6.99902 -9l-4 -24c-1.33301 -5.33301 -4.33301 -8 -9 -8h-105l-19 -109c-13.333 -80 13.667 -120 81 -120
c8 0 21.333 0.666992 40 2c6.66699 0 9.33398 -2.66699 8.00098 -8l-5 -31c-1.33301 -4.66699 -4 -7 -8 -7z" />
    <glyph glyph-name="Umacron" unicode="&#x16a;" horiz-adv-x="652" 
d="M561 224c-12 -69.333 -43.501 -125.833 -94.501 -169.5s-112.833 -65.5 -185.5 -65.5c-70 0 -123.667 23.833 -161 71.5s-49.666 107.5 -36.999 179.5l82 467c1.33301 5.33301 4.33301 8 9 8h40c5.33301 0 7.66602 -3 6.99902 -9l-84 -472c-10 -57.333 -1 -104 27 -140
s69.333 -54 124 -54c56 0 104 17.5 144 52.5s65 80.833 75 137.5l83 477c1.33301 5.33301 4.33301 8 9 8h39c6.66699 0 9.33398 -3 8.00098 -9zM553.999 830h-251.999c-6.66699 0 -9.33398 2.66699 -8.00098 8l6 31c0.666992 4.66699 3.66699 7 9 7h253
c6.66699 0 9 -2.66699 7 -8l-5 -31c-0.666992 -4.66699 -4 -7 -10 -7z" />
    <glyph glyph-name="umacron" unicode="&#x16b;" horiz-adv-x="529" 
d="M460 515l37.002 -0.000976562c6 0 8.33301 -3 7 -9l-85 -471c-0.666992 -4 -3 -7 -7 -9c-61.333 -24.667 -123 -37 -185 -37c-64.667 0 -112.334 18.833 -143.001 56.5s-39.667 89.834 -27 156.501l55 305c0 5.33301 3 8 9 8h36c6.66699 0 9 -3 7 -9l-55 -308
c-19.333 -108 21.667 -162 123 -162c43.333 0 89.666 8.66699 138.999 26l80 445c1.33301 5.33301 4.33301 8 9 8zM204.002 628.999l5 28c1.33301 5.33301 4.33301 8 9 8h234c6.66699 0 9 -3 7 -9l-5 -28c-0.666992 -4.66699 -3.66699 -7 -9 -7h-234
c-6 0 -8.33301 2.66699 -7 8z" />
    <glyph glyph-name="Uring" unicode="&#x16e;" horiz-adv-x="652" 
d="M561 224c-12 -69.333 -43.501 -125.833 -94.501 -169.5s-112.833 -65.5 -185.5 -65.5c-70 0 -123.667 23.833 -161 71.5s-49.666 107.5 -36.999 179.5l82 467c1.33301 5.33301 4.33301 8 9 8h40c5.33301 0 7.66602 -3 6.99902 -9l-84 -472c-10 -57.333 -1 -104 27 -140
s69.333 -54 124 -54c56 0 104 17.5 144 52.5s65 80.833 75 137.5l83 477c1.33301 5.33301 4.33301 8 9 8h39c6.66699 0 9.33398 -3 8.00098 -9zM528.999 853c-5.33301 -30 -18.333 -53.333 -39 -70s-46.334 -25 -77.001 -25c-27.333 0 -49.166 9.33301 -65.499 28
s-22.166 41.667 -17.499 69c4.66699 30 17.667 53.667 39 71s47.666 26 78.999 26c27.333 0 49 -9.5 65 -28.5s21.333 -42.5 16 -70.5zM364.999 853c-3.33301 -18.667 -0.00292969 -33.501 9.99707 -44.501s24.667 -16.5 44 -16.5c18.667 0 34.834 5.83301 48.501 17.5
s22.167 26.834 25.5 45.501s0.5 33.667 -8.5 45s-23.167 17 -42.5 17s-36.166 -5.83301 -50.499 -17.5s-23.166 -27.167 -26.499 -46.5z" />
    <glyph glyph-name="uring" unicode="&#x16f;" horiz-adv-x="529" 
d="M460 515l37.002 -0.000976562c6 0 8.33301 -3 7 -9l-85 -471c-0.666992 -4 -3 -7 -7 -9c-61.333 -24.667 -123 -37 -185 -37c-64.667 0 -112.334 18.833 -143.001 56.5s-39.667 89.834 -27 156.501l55 305c0 5.33301 3 8 9 8h36c6.66699 0 9 -3 7 -9l-55 -308
c-19.333 -108 21.667 -162 123 -162c43.333 0 89.666 8.66699 138.999 26l80 445c1.33301 5.33301 4.33301 8 9 8zM431.002 680.999c-4.66699 -30 -17.667 -53.5 -39 -70.5s-46.666 -25.5 -75.999 -25.5c-26.667 0 -48.334 9.5 -65.001 28.5s-22.667 41.833 -18 68.5
c5.33301 30.667 18.5 54.5 39.5 71.5s47.167 25.5 78.5 25.5c26 0 47 -9.66699 63 -29s21.667 -42.333 17 -69zM269.002 680.999c-3.33301 -18 0.166016 -32.833 10.499 -44.5s24.833 -17.5 43.5 -17.5c18 0 33.833 5.83301 47.5 17.5s22.167 26.5 25.5 44.5
c3.33301 19.333 0.333008 35 -9 47s-23.333 18 -42 18c-19.333 0 -36.166 -6 -50.499 -18s-22.833 -27.667 -25.5 -47z" />
    <glyph glyph-name="Uhungarumlaut" unicode="&#x170;" horiz-adv-x="652" 
d="M561 224c-12 -69.333 -43.501 -125.833 -94.501 -169.5s-112.833 -65.5 -185.5 -65.5c-70 0 -123.667 23.833 -161 71.5s-49.666 107.5 -36.999 179.5l82 467c1.33301 5.33301 4.33301 8 9 8h40c5.33301 0 7.66602 -3 6.99902 -9l-84 -472c-10 -57.333 -1 -104 27 -140
s69.333 -54 124 -54c56 0 104 17.5 144 52.5s65 80.833 75 137.5l83 477c1.33301 5.33301 4.33301 8 9 8h39c6.66699 0 9.33398 -3 8.00098 -9zM330.999 787h-32.998c-3.33301 0 -5.5 1 -6.5 3s-0.166992 4.33301 2.5 7l126 135c2.66699 2.66699 6 4 10 4h43
c3.33301 0 5.66602 -1 6.99902 -3s0.666016 -4.33301 -2.00098 -7l-137 -134c-2 -3.33301 -5.33301 -5 -10 -5zM486.001 787h-31.002c-3.33301 0 -5.66602 1 -6.99902 3s-0.666016 4.33301 2.00098 7l132 135c2.66699 2.66699 6.33398 4 11.001 4h44
c3.33301 0 5.5 -1 6.5 -3s0.166992 -4.33301 -2.5 -7l-144 -135c-2.66699 -2.66699 -6.33398 -4 -11.001 -4z" />
    <glyph glyph-name="uhungarumlaut" unicode="&#x171;" horiz-adv-x="529" 
d="M460 515l37.002 -0.000976562c6 0 8.33301 -3 7 -9l-85 -471c-0.666992 -4 -3 -7 -7 -9c-61.333 -24.667 -123 -37 -185 -37c-64.667 0 -112.334 18.833 -143.001 56.5s-39.667 89.834 -27 156.501l55 305c0 5.33301 3 8 9 8h36c6.66699 0 9 -3 7 -9l-55 -308
c-19.333 -108 21.667 -162 123 -162c43.333 0 89.666 8.66699 138.999 26l80 445c1.33301 5.33301 4.33301 8 9 8zM250.002 597.999h-23c-3.33301 0 -5.5 1 -6.5 3s-0.5 4.33301 1.5 7l97 134c2.66699 3.33301 6 5 10 5h33c3.33301 0 5.5 -1 6.5 -3s0.5 -4.33301 -1.5 -7
l-107 -134c-2 -3.33301 -5.33301 -5 -10 -5zM378.002 597.999h-23c-7.33301 0 -9 3.33301 -5 10l104 134c2.66699 3.33301 6 5 10 5h33c8 0 9.33301 -3.33301 4 -10l-113 -134c-2 -3.33301 -5.33301 -5 -10 -5z" />
    <glyph glyph-name="Uogonek" unicode="&#x172;" horiz-adv-x="652" 
d="M395 -181c-25.333 -12 -49.6631 -18.001 -72.9961 -18.001c-26 0 -45.333 7.66699 -58 23s-16.667 36 -12 62c8 41.333 35.667 78.666 83 111.999c-20.667 -6 -39.334 -9 -56.001 -9c-71.333 0 -125.333 23.5 -162 70.5s-48.334 106.833 -35.001 179.5l82 468
c0 5.33301 3 8 9 8h40c6 0 8.33301 -3 7 -9l-83 -473c-10 -57.333 -1.16699 -103.666 26.5 -138.999s68.834 -53 123.501 -53c55.333 0 103.166 17.5 143.499 52.5s65.166 80.167 74.499 135.5l84 478c0 5.33301 3 8 9 8h40c5.33301 0 7.66602 -3 6.99902 -9l-85 -483
c-16 -92.667 -65.667 -160.667 -149 -204c-32 -18.667 -57.667 -39.167 -77 -61.5s-30.666 -42.166 -33.999 -59.499c-7.33301 -32.667 4 -49 34 -49c17.333 0 34.666 4 51.999 12c6 3.33301 9.66699 1.66602 11 -5.00098l4 -27
c1.33301 -5.33301 -0.666992 -8.66602 -6 -9.99902z" />
    <glyph glyph-name="uogonek" unicode="&#x173;" horiz-adv-x="523" 
d="M349 -179c-24 -13.333 -49.3311 -19.998 -75.998 -19.998c-25.333 0 -45 8 -59 24s-18.667 36.667 -14 62c7.33301 44 42.666 82 105.999 114l16 8c-36.667 -13.333 -69 -20 -97 -20c-62 0 -108.5 18 -139.5 54s-40.5 87.333 -28.5 154l54 310
c1.33301 5.33301 4.66602 8 9.99902 8h35c6.66699 0 9 -3 7 -9l-55 -313c-19.333 -104 20.667 -156 120 -156c42.667 0 89 9.33301 139 28l79 442c1.33301 5.33301 4.66602 8 9.99902 8h35c6.66699 0 9 -3 7 -9l-84 -470c-1.33301 -5.33301 -3.66602 -8.33301 -6.99902 -9
c-29.333 -12.667 -53.833 -24.334 -73.5 -35.001s-38 -24.334 -55 -41.001s-27.167 -34 -30.5 -52c-6 -33.333 6.33301 -50 37 -50c18 0 37.667 4.66699 59 14c6 3.33301 9 1.33301 9 -6l3 -26c0 -4.66699 -2.33301 -8 -7 -10z" />
    <glyph glyph-name="Wcircumflex" unicode="&#x174;" horiz-adv-x="890" 
d="M214 0l-46.999 -0.000976562c-5.33301 0 -8.33301 2.66699 -9 8l-66 698c-1.33301 6 1 9 7 9h41c5.33301 0 8 -2.66699 8 -8l38 -431c2 -26.667 4.66699 -64.667 8 -114s5.66602 -81 6.99902 -95h2c3.33301 7.33301 16.333 37.833 39 91.5s40.667 94.834 54 123.501
l193 417c2.66699 4 6 6 10 6h47c6 0 9 -2.66699 9 -8l48 -419c2.66699 -23.333 6.16699 -59.333 10.5 -108s7.5 -83 9.5 -103h2c37.333 97.333 67 171 89 221l183 421c2 4 5 6 9 6h43c6 0 8 -3.33301 6 -10l-310 -699c-2.66699 -4 -6 -6 -10 -6h-47
c-5.33301 0 -8.33301 2.66699 -9 8l-46 397c-14 132 -21.667 204.667 -23 218h-2c-28.667 -68.667 -60.667 -141 -96 -217l-188 -400c-2.66699 -4 -6 -6 -10 -6zM431.001 786.999h-38.999c-3.33301 0 -5.5 1 -6.5 3s-0.166992 4.33301 2.5 7l142 135
c2 2.66699 5.33301 4 10 4h34c4.66699 0 8 -1.66699 10 -5l97 -134c4 -6.66699 2.33301 -10 -5 -10h-37c-4.66699 0 -8 1.66699 -10 5l-76 106l-111 -107c-2.66699 -2.66699 -6.33398 -4 -11.001 -4z" />
    <glyph glyph-name="wcircumflex" unicode="&#x175;" horiz-adv-x="714" 
d="M134 -1c-6 0 -9 2.66797 -9 8.00098l-62 499c0 5.33301 2.66699 8 8 8h36c6 0 9 -2.66699 9 -8l35 -292c7.33301 -74.667 12 -125.334 14 -152.001h1l19.5 47l24.5 57l18 40l142 292c2 4 5 6 9 6h41c6 0 9 -2.33301 9 -7l37 -296c6.66699 -53.333 11 -99.666 13 -138.999
h1c30 71.333 52.667 123.666 68 156.999l137 289c2 4 5.33301 6 10 6h38c7.33301 0 9.33301 -3 6 -9l-238 -499c-2 -4.66699 -5.33301 -7 -10 -7h-43c-5.33301 0 -8.33301 3 -9 9l-37 307c-4 36.667 -7.66699 78.667 -11 126h-1c-20.667 -50.667 -38.667 -92.667 -54 -126
l-149 -309c-2 -4.66699 -5.33301 -7 -10 -7h-43zM468 741.001l86.001 -134c3.33301 -6.66699 1.66602 -10 -5.00098 -10h-33c-4.66699 0 -8 2 -10 6l-68 108l-109 -109c-3.33301 -3.33301 -7 -5 -11 -5h-36c-3.33301 0 -5.5 1 -6.5 3s-0.166992 4.33301 2.5 7l137 135
c2 2.66699 5.33301 4 10 4h33c4 0 7.33301 -1.66699 10 -5z" />
    <glyph glyph-name="Ycircumflex" unicode="&#x176;" horiz-adv-x="520" 
d="M235 0h-39.001c-6.66699 0 -9 3 -7 9l47 268l-152 428c-2 6.66699 0 10 6 10h42c4.66699 0 7.33398 -2.33301 8.00098 -7l131 -380h1l259 382c2 3.33301 5 5 9 5h46c8 0 10 -3.33301 6 -10l-299 -428l-49 -269c0 -5.33301 -3 -8 -9 -8zM246.999 787h-38.999
c-3.33301 0 -5.5 1 -6.5 3s-0.166992 4.33301 2.5 7l142 135c2 2.66699 5.33301 4 10 4h34c4.66699 0 8 -1.66699 10 -5l97 -134c4 -6.66699 2.33301 -10 -5 -10h-37c-4.66699 0 -8 1.66699 -10 5l-76 106l-111 -107c-2.66699 -2.66699 -6.33398 -4 -11.001 -4z" />
    <glyph glyph-name="ycircumflex" unicode="&#x177;" horiz-adv-x="531" 
d="M378 103l72.002 403.998c1.33301 5.33301 4.66602 8 9.99902 8h36c6.66699 0 9.33398 -3 8.00098 -9l-91 -510c-11.333 -61.333 -36 -109.166 -74 -143.499s-89 -51.5 -153 -51.5c-72.667 0 -131 23.667 -175 71c-3.33301 4.66699 -3.33301 8.66699 0 12l21 25
c4 4 8 4 12 0c39.333 -40.667 87.333 -61 144 -61c49.333 0 88.5 13.833 117.5 41.5s47.5 64.834 55.5 111.501l9 49c-48.667 -20 -96 -30 -142 -30c-61.333 0 -107.5 17.667 -138.5 53s-40.5 85.333 -28.5 150l51 284c1.33301 5.33301 4.66602 8 9.99902 8h35
c6 0 8.66699 -3 8 -9l-52 -288c-18.667 -100.667 22.333 -151 123 -151c51.333 0 98.666 12 141.999 36zM378.002 741.998l86.001 -134c3.33301 -6.66699 1.66602 -10 -5.00098 -10h-33c-4.66699 0 -8 2 -10 6l-68 108l-109 -109c-3.33301 -3.33301 -7 -5 -11 -5h-36
c-3.33301 0 -5.5 1 -6.5 3s-0.166992 4.33301 2.5 7l137 135c2 2.66699 5.33301 4 10 4h33c4 0 7.33301 -1.66699 10 -5z" />
    <glyph glyph-name="Ydieresis" unicode="&#x178;" horiz-adv-x="520" 
d="M235 0h-39.001c-6.66699 0 -9 3 -7 9l47 268l-152 428c-2 6.66699 0 10 6 10h42c4.66699 0 7.33398 -2.33301 8.00098 -7l131 -380h1l259 382c2 3.33301 5 5 9 5h46c8 0 10 -3.33301 6 -10l-299 -428l-49 -269c0 -5.33301 -3 -8 -9 -8zM306.999 842
c-3.33301 -22.667 -16.001 -34 -38.001 -34c-11.333 0 -19.666 3.66699 -24.999 11s-7.33301 16 -6 26c4.66699 22.667 17.667 34 39 34c11.333 0 19.5 -3.5 24.5 -10.5s6.83301 -15.833 5.5 -26.5zM494.998 842c-3.33301 -22.667 -15.999 -34 -37.999 -34
c-11.333 0 -19.5 3.66699 -24.5 11s-6.83301 16 -5.5 26s5.5 18.167 12.5 24.5s15.5 9.5 25.5 9.5c11.333 0 19.666 -3.66699 24.999 -11s7 -16 5 -26z" />
    <glyph glyph-name="Zacute" unicode="&#x179;" horiz-adv-x="541" 
d="M455 0l-458 -0.000976562c-6 0 -8.66699 3 -8 9l5 25c0 2.66699 1.33301 6 4 10l501 621h-372c-6 0 -8.33301 2.66699 -7 8l6 35c1.33301 4.66699 4.66602 7 9.99902 7h436c6.66699 0 9.33398 -3 8.00098 -9l-4 -24c0 -1.33301 -1.33301 -4.66602 -4 -9.99902l-500 -621
h391c6 0 8.66699 -3 8 -9l-7 -35c-1.33301 -4.66699 -4.33301 -7 -9 -7zM346 786.999h-31.998c-3.33301 0 -5.5 1 -6.5 3s-0.166992 4.33301 2.5 7l128 135c2.66699 2.66699 6.33398 4 11.001 4h45c3.33301 0 5.66602 -1 6.99902 -3s0.666016 -4.33301 -2.00098 -7
l-142 -135c-2.66699 -2.66699 -6.33398 -4 -11.001 -4z" />
    <glyph glyph-name="zacute" unicode="&#x17a;" horiz-adv-x="436" 
d="M353 0h-358.001c-6 0 -8.66699 3 -8 9l3 20c0.666992 2.66699 2.33398 6 5.00098 10l370 429h-273c-6 0 -8.33301 3 -7 9l5 30c1.33301 5.33301 4.33301 8 9 8h337c5.33301 0 8 -3 8 -9l-3 -17c-0.666992 -2.66699 -2.33398 -6 -5.00098 -10l-370 -432h294
c6.66699 0 9.33398 -2.66699 8.00098 -8l-6 -32c-1.33301 -4.66699 -4.33301 -7 -9 -7zM261.999 598h-28c-3.33301 0 -5.5 1 -6.5 3s-0.5 4.33301 1.5 7l104 134c2 3.33301 5.33301 5 10 5h40c8 0 9.33301 -3.33301 4 -10l-115 -134c-2 -3.33301 -5.33301 -5 -10 -5z" />
    <glyph glyph-name="Zdotaccent" unicode="&#x17b;" horiz-adv-x="541" 
d="M455 0l-458 -0.000976562c-6 0 -8.66699 3 -8 9l5 25c0 2.66699 1.33301 6 4 10l501 621h-372c-6 0 -8.33301 2.66699 -7 8l6 35c1.33301 4.66699 4.66602 7 9.99902 7h436c6.66699 0 9.33398 -3 8.00098 -9l-4 -24c0 -1.33301 -1.33301 -4.66602 -4 -9.99902l-500 -621
h391c6 0 8.66699 -3 8 -9l-7 -35c-1.33301 -4.66699 -4.33301 -7 -9 -7zM398 839.999c-3.33301 -24.667 -17.665 -37 -42.998 -37c-12.667 0 -21.834 4.16699 -27.501 12.5s-7.83398 18.166 -6.50098 29.499c2 10.667 6.83301 19.5 14.5 26.5s17.167 10.5 28.5 10.5
c12.667 0 22 -4.16699 28 -12.5s8 -18.166 6 -29.499z" />
    <glyph glyph-name="zdotaccent" unicode="&#x17c;" horiz-adv-x="436" 
d="M353 0h-358.001c-6 0 -8.66699 3 -8 9l3 20c0.666992 2.66699 2.33398 6 5.00098 10l370 429h-273c-6 0 -8.33301 3 -7 9l5 30c1.33301 5.33301 4.33301 8 9 8h337c5.33301 0 8 -3 8 -9l-3 -17c-0.666992 -2.66699 -2.33398 -6 -5.00098 -10l-370 -432h294
c6.66699 0 9.33398 -2.66699 8.00098 -8l-6 -32c-1.33301 -4.66699 -4.33301 -7 -9 -7zM323.999 654c-1.33301 -10 -5.83105 -18 -13.498 -24s-16.5 -9 -26.5 -9c-10.667 0 -19.167 3.83301 -25.5 11.5s-8.5 17.167 -6.5 28.5c1.33301 10 5.66602 18 12.999 24s16 9 26 9
c11.333 0 20.166 -3.83301 26.499 -11.5s8.5 -17.167 6.5 -28.5z" />
    <glyph glyph-name="Zcaron" unicode="&#x17d;" horiz-adv-x="541" 
d="M455 0l-458 -0.000976562c-6 0 -8.66699 3 -8 9l5 25c0 2.66699 1.33301 6 4 10l501 621h-372c-6 0 -8.33301 2.66699 -7 8l6 35c1.33301 4.66699 4.66602 7 9.99902 7h436c6.66699 0 9.33398 -3 8.00098 -9l-4 -24c0 -1.33301 -1.33301 -4.66602 -4 -9.99902l-500 -621
h391c6 0 8.66699 -3 8 -9l-7 -35c-1.33301 -4.66699 -4.33301 -7 -9 -7zM484 935.999h38.999c3.33301 0 5.5 -1 6.5 -3s0.166992 -4.33301 -2.5 -7l-142 -135c-2 -2.66699 -5.33301 -4 -10 -4h-34c-4.66699 0 -8 1.66699 -10 5l-97 134c-4 6.66699 -2.33301 10 5 10h37
c4.66699 0 8 -1.66699 10 -5l76 -106l111 107c2.66699 2.66699 6.33398 4 11.001 4z" />
    <glyph glyph-name="zcaron" unicode="&#x17e;" horiz-adv-x="436" 
d="M353 0h-358.001c-6 0 -8.66699 3 -8 9l3 20c0.666992 2.66699 2.33398 6 5.00098 10l370 429h-273c-6 0 -8.33301 3 -7 9l5 30c1.33301 5.33301 4.33301 8 9 8h337c5.33301 0 8 -3 8 -9l-3 -17c-0.666992 -2.66699 -2.33398 -6 -5.00098 -10l-370 -432h294
c6.66699 0 9.33398 -2.66699 8.00098 -8l-6 -32c-1.33301 -4.66699 -4.33301 -7 -9 -7zM253.999 604l-86.001 134c-3.33301 6.66699 -1.66602 10 5.00098 10h33c4.66699 0 8 -2 10 -6l68 -108l109 109c3.33301 3.33301 7 5 11 5h36c3.33301 0 5.5 -1 6.5 -3
s0.166992 -4.33301 -2.5 -7l-137 -135c-2 -2.66699 -5.33301 -4 -10 -4h-33c-4 0 -7.33301 1.66699 -10 5z" />
    <glyph glyph-name="florin" unicode="&#x192;" horiz-adv-x="408" 
d="M115 5c-28.667 -88.667 -73.665 -133.002 -134.998 -133.002c-20.667 0 -40.334 4 -59.001 12c-4.66699 2.66699 -6 6.33398 -4 11.001l10 27c2 5.33301 5.66699 7 11 5c10.667 -4 24 -6 40 -6c20.667 0 37.5 7.83301 50.5 23.5s25.5 41.5 37.5 77.5l108 313h-89
c-6 0 -8.33301 3 -7 9l9 31c0.666992 4.66699 3.66699 7 9 7h94l68 206c15.333 44.667 33.666 78.834 54.999 102.501s51 35.5 89 35.5c21.333 0 43 -4.33301 65 -13c4.66699 -0.666992 6.33398 -4 5.00098 -10l-9 -27c-0.666992 -6 -4.33398 -7.66699 -11.001 -5
c-14.667 6 -29.667 9 -45 9c-26 0 -46.5 -8.83301 -61.5 -26.5s-28.833 -45.5 -41.5 -83.5l-62 -188h102c6.66699 0 9 -3 7 -9l-9 -31c-2 -4.66699 -5.33301 -7 -10 -7h-105z" />
    <glyph glyph-name="uni0218" unicode="&#x218;" horiz-adv-x="563" 
d="M508 175c-11.333 -62 -40.8271 -108.499 -88.4941 -139.499s-105.834 -46.5 -174.501 -46.5c-46.667 0 -86.834 7.5 -120.501 22.5s-67.834 39.167 -102.501 72.5c-4 4 -4 8 0 12l22 26c4.66699 3.33301 8.66699 3.33301 12 0c58 -54 122.667 -81 194 -81
c53.333 0 98.666 12.667 135.999 38s60 60.333 68 105c4 22.667 2.5 42.5 -4.5 59.5s-19.833 31.667 -38.5 44s-36.834 22.166 -54.501 29.499s-40.834 15.333 -69.501 24c-28 8.66699 -52.667 18.5 -74 29.5s-41.833 25 -61.5 42s-33.5 38.333 -41.5 64s-9 54.5 -3 86.5
c10 54.667 37.333 95.5 82 122.5s99.334 40.5 164.001 40.5c42.667 0 80.167 -6.5 112.5 -19.5s65.166 -33.5 98.499 -61.5c5.33301 -3.33301 6 -7 2 -11l-24 -27c-3.33301 -4 -7.33301 -4.33301 -12 -1c-54.667 45.333 -116 68 -184 68c-48 0 -89 -10 -123 -30
s-54.667 -50.333 -62 -91c-4 -24 -3 -45 3 -63s17 -33.167 33 -45.5s32.333 -22.333 49 -30s37.667 -15.5 63 -23.5c31.333 -9.33301 58.5 -19.333 81.5 -30s45.333 -24.334 67 -41.001s37 -37.167 46 -61.5s10.5 -52.166 4.5 -83.499zM183.006 -234.999h-27
c-6 0 -7.66699 3 -5 9l66 145c2 4 5.33301 6 10 6h37c6.66699 0 8.66699 -3 6 -9l-78 -145c-2 -4 -5 -6 -9 -6z" />
    <glyph glyph-name="uni0219" unicode="&#x219;" horiz-adv-x="460" 
d="M402 125c-8 -43.333 -31.3301 -76.835 -69.9971 -100.502s-86.334 -35.5 -143.001 -35.5c-72 0 -133 22 -183 66c-4 4 -4.33301 8 -1 12l17 24c4 4.66699 8 5.33398 12 2.00098c44 -38 97 -57 159 -57c42.667 0 78 8.33301 106 25s44.667 40 50 70
c6 31.333 -1.16699 54.166 -21.5 68.499s-53.833 27.166 -100.5 38.499c-118.667 32 -171.334 86 -158.001 162c7.33301 40.667 30.166 71.834 68.499 93.501s84.166 32.5 137.499 32.5c60 0 115.333 -16.333 166 -49c4.66699 -3.33301 5 -7 1 -11l-19 -27
c-4 -2.66699 -8 -3.33398 -12 -2.00098c-38.667 28 -86 42 -142 42c-39.333 0 -72.666 -7.66699 -99.999 -23s-43.333 -36.666 -48 -63.999c-2.66699 -16 -1 -30.167 5 -42.5s16.167 -22.666 30.5 -30.999s28.333 -15 42 -20s30.167 -9.83301 49.5 -14.5
c54 -14 95.167 -33.167 123.5 -57.5s38.5 -58.166 30.5 -101.499zM138.003 -225.002h-23.001c-6.66699 0 -8.66699 3 -6 9l59 135c1.33301 4.66699 4.33301 7 9 7h33c6 0 8 -3.33301 6 -10l-68 -135c-1.33301 -4 -4.66602 -6 -9.99902 -6z" />
    <glyph glyph-name="uni021A" unicode="&#x21a;" horiz-adv-x="517" 
d="M98 715h481c4.66699 0 7 -3 7 -9l-6 -33c0 -5.33301 -3 -8 -9 -8h-215l-116 -657c0 -5.33301 -3 -8 -9 -8h-39c-6 0 -8 3 -6 9l115 656h-211c-4.66699 0 -7 2.66699 -7 8l6 34c0 5.33301 3 8 9 8zM144 -235h-27c-6 0 -7.66699 3 -5 9l66 145c2 4 5.33301 6 10 6h37
c6.66699 0 8.66699 -3 6 -9l-78 -145c-2 -4 -5 -6 -9 -6z" />
    <glyph glyph-name="uni021B" unicode="&#x21b;" horiz-adv-x="283" 
d="M288 465l-130.001 -0.000976562l-55 -310c-13.333 -79.333 13.667 -119 81 -119c8 0 21.333 0.666992 40 2c6.66699 0 9.33398 -2.66699 8.00098 -8l-5 -30c-1.33301 -5.33301 -4 -8 -8 -8c-12.667 -2 -26 -3 -40 -3c-47.333 0 -83 14.833 -107 44.5
s-31 71.834 -21 126.501l84 476c1.33301 4.66699 4.33301 7 9 7h30c5.33301 0 7.66602 -2.66699 6.99902 -8l-16 -123h131c6 0 8.33301 -2.66699 7 -8l-5 -31c-1.33301 -5.33301 -4.66602 -8 -9.99902 -8zM77.999 -225.001h-23.001c-6.66699 0 -8.66699 3 -6 9l59 135
c1.33301 4.66699 4.33301 7 9 7h33c6 0 8 -3.33301 6 -10l-68 -135c-1.33301 -4 -4.66602 -6 -9.99902 -6z" />
    <glyph glyph-name="uni0237" unicode="&#x237;" horiz-adv-x="203" 
d="M82 -25c-21.333 -116 -74.667 -173.999 -160 -173.999c-15.333 0 -28.666 1.33301 -39.999 4c-4.66699 0.666992 -7 3.66699 -7 9l6 32c1.33301 5.33301 4.33301 7.66602 9 6.99902c12.667 -2 24.667 -3 36 -3c54 0 88.667 43 104 129l93 528
c1.33301 5.33301 4.66602 8 9.99902 8h36c6 0 8.33301 -3 7 -9z" />
    <glyph glyph-name="circumflex" unicode="&#x2c6;" horiz-adv-x="282" 
d="M255 742l86.001 -134c3.33301 -6.66699 1.66602 -10 -5.00098 -10h-33c-4.66699 0 -8 2 -10 6l-68 108l-109 -109c-3.33301 -3.33301 -7 -5 -11 -5h-36c-3.33301 0 -5.5 1 -6.5 3s-0.166992 4.33301 2.5 7l137 135c2 2.66699 5.33301 4 10 4h33
c4 0 7.33301 -1.66699 10 -5z" />
    <glyph glyph-name="caron" unicode="&#x2c7;" horiz-adv-x="281" 
d="M173 604l-86.001 134c-3.33301 6.66699 -1.66602 10 5.00098 10h33c4.66699 0 8 -2 10 -6l68 -108l109 109c3.33301 3.33301 7 5 11 5h36c3.33301 0 5.5 -1 6.5 -3s0.166992 -4.33301 -2.5 -7l-137 -135c-2 -2.66699 -5.33301 -4 -10 -4h-33c-4 0 -7.33301 1.66699 -10 5
z" />
    <glyph glyph-name="breve" unicode="&#x2d8;" horiz-adv-x="290" 
d="M374 724c-28.667 -89.333 -85.334 -134.001 -170.001 -134.001c-39.333 0 -69.5 13.167 -90.5 39.5s-30.5 58.5 -28.5 96.5c0 6 2.66699 9 8 9l26 4c5.33301 0 8 -2.66699 8 -8c-1.33301 -64.667 26.667 -97 84 -97c58.667 0 98.334 33 119.001 99
c2.66699 5.33301 6 7.33301 10 6l27 -5c6 -1.33301 8.33301 -4.66602 7 -9.99902z" />
    <glyph glyph-name="dotaccent" unicode="&#x2d9;" horiz-adv-x="74" 
d="M144 654c-1.33301 -10 -5.83105 -18 -13.498 -24s-16.5 -9 -26.5 -9c-10.667 0 -19.167 3.83301 -25.5 11.5s-8.5 17.167 -6.5 28.5c1.33301 10 5.66602 18 12.999 24s16 9 26 9c11.333 0 20.166 -3.83301 26.499 -11.5s8.5 -17.167 6.5 -28.5z" />
    <glyph glyph-name="ring" unicode="&#x2da;" horiz-adv-x="204" 
d="M275 681c-4.66699 -30 -17.667 -53.5 -39 -70.5s-46.666 -25.5 -75.999 -25.5c-26.667 0 -48.334 9.5 -65.001 28.5s-22.667 41.833 -18 68.5c5.33301 30.667 18.5 54.5 39.5 71.5s47.167 25.5 78.5 25.5c26 0 47 -9.66699 63 -29s21.667 -42.333 17 -69zM113 681
c-3.33301 -18 0.166016 -32.833 10.499 -44.5s24.833 -17.5 43.5 -17.5c18 0 33.833 5.83301 47.5 17.5s22.167 26.5 25.5 44.5c3.33301 19.333 0.333008 35 -9 47s-23.333 18 -42 18c-19.333 0 -36.166 -6 -50.499 -18s-22.833 -27.667 -25.5 -47z" />
    <glyph glyph-name="ogonek" unicode="&#x2db;" horiz-adv-x="252" 
d="M123 -182c-24.667 -11.333 -50.668 -17 -78.001 -17c-28 0 -47.667 7.83301 -59 23.5s-14.666 35.167 -9.99902 58.5c4.66699 22.667 16.167 44.167 34.5 64.5s41.5 37.166 69.5 50.499c4 1.33301 7.33301 2 10 2h24c4 0 6.16699 -1 6.5 -3s-1.5 -4 -5.5 -6
c-52 -31.333 -82 -64.666 -90 -99.999c-6 -28 6.33301 -42 37 -42c18.667 0 37 4 55 12c6 2.66699 9 0.666992 9 -6l3 -27c0 -4.66699 -2 -8 -6 -10z" />
    <glyph glyph-name="tilde" unicode="&#x2dc;" horiz-adv-x="292" 
d="M359 657c-22 -37.333 -49.332 -56 -81.999 -56c-17.333 0 -39 7 -65 21c-25.333 13.333 -44.333 20 -57 20c-20 0 -36 -10.667 -48 -32c-2.66699 -4.66699 -6.33398 -5.33398 -11.001 -2.00098l-19 12c-5.33301 2 -6.33301 5.66699 -3 11c22 36.667 49.667 55 83 55
c18 0 40 -7 66 -21c25.333 -14 44 -21 56 -21c16.667 0 32 10.667 46 32c3.33301 4.66699 7.33301 5.66699 12 3l18 -12c4.66699 -3.33301 6 -6.66602 4 -9.99902z" />
    <glyph glyph-name="hungarumlaut" unicode="&#x2dd;" horiz-adv-x="260" 
d="M92 598h-23c-3.33301 0 -5.5 1 -6.5 3s-0.5 4.33301 1.5 7l97 134c2.66699 3.33301 6 5 10 5h33c3.33301 0 5.5 -1 6.5 -3s0.5 -4.33301 -1.5 -7l-107 -134c-2 -3.33301 -5.33301 -5 -10 -5zM220 598h-23c-7.33301 0 -9 3.33301 -5 10l104 134c2.66699 3.33301 6 5 10 5
h33c8 0 9.33301 -3.33301 4 -10l-113 -134c-2 -3.33301 -5.33301 -5 -10 -5z" />
    <glyph glyph-name="gravecomb" unicode="&#x300;" horiz-adv-x="145" 
d="M147 741l52 -133c2.66699 -6.66699 0.666992 -10 -6 -10h-27c-4 0 -7.33301 2 -10 6l-62 133c-3.33301 6.66699 -1.33301 10 6 10h37c4.66699 0 8 -2 10 -6z" />
    <glyph glyph-name="acutecomb" unicode="&#x301;" horiz-adv-x="149" 
d="M105 598h-27.999c-3.33301 0 -5.5 1 -6.5 3s-0.5 4.33301 1.5 7l104 134c1.33301 3.33301 4.66602 5 9.99902 5h40c8 0 9.33301 -3.33301 4 -10l-115 -134c-2 -3.33301 -5.33301 -5 -10 -5z" />
    </font>
</defs>
</svg>
