<?xml version="1.0" standalone="no"?>
<!DOCTYPE svg PUBLIC "-//W3C//DTD SVG 1.1//EN" "http://www.w3.org/Graphics/SVG/1.1/DTD/svg11.dtd" >
<svg>
<metadata>
Created by FontForge 20090914 at Fri Aug  7 11:20:23 2020
 By www-data
Copyright &#194;&#169; 2016 by FontfabricLLC. All rights reserved.
</metadata>
<defs>
<font id="UniNeueHeavy-Italic" horiz-adv-x="630" >
  <font-face 
    font-family="Uni Neue Heavy"
    font-weight="800"
    font-style="italic"
    font-stretch="normal"
    units-per-em="1000"
    panose-1="0 0 0 0 0 0 0 0 0 0"
    ascent="750"
    descent="-250"
    x-height="520"
    cap-height="715"
    bbox="-187 -291 1124.35 1037"
    underline-thickness="50"
    underline-position="-175"
    slope="-10"
    unicode-range="U+0020-U+25CA"
  />
<missing-glyph horiz-adv-x="199" 
 />
    <glyph glyph-name=".notdef" horiz-adv-x="199" 
 />
    <glyph glyph-name="space" unicode=" " horiz-adv-x="199" 
 />
    <glyph glyph-name="exclam" unicode="!" horiz-adv-x="268" 
d="M173 220h-93c-12.667 0 -18 6 -16 18l41 291l30 170c2 10.667 8.33301 16 19 16h113c12 0 17 -6.33301 15 -19l-29 -170l-61 -291c-2 -10 -8.33301 -15 -19 -15zM183 65c-4 -22.667 -14.498 -41.3311 -31.498 -55.998s-37.5 -22 -61.5 -22
c-26.667 0 -47.334 9.5 -62.001 28.5s-19.334 42.5 -14.001 70.5c4.66699 23.333 15.334 42.166 32.001 56.499s37 21.5 61 21.5c27.333 0 48.166 -9.33301 62.499 -28s18.833 -42.334 13.5 -71.001z" />
    <glyph glyph-name="quotedbl" unicode="&#x22;" horiz-adv-x="389" 
d="M258 696l-67.999 -250c-2.66699 -9.33301 -9.33398 -14 -20.001 -14h-74c-13.333 0 -18.333 6.33301 -15 19l49 249c2 10 8.33301 15 19 15h95c6 0 10.333 -1.83301 13 -5.5s3 -8.16699 1 -13.5zM426.001 696l-68 -250c-2 -9.33301 -8.33301 -14 -19 -14h-75
c-12 0 -17 6.33301 -15 19l49 249c2 10 8.33301 15 19 15h95c6 0 10.333 -1.83301 13 -5.5s3 -8.16699 1 -13.5z" />
    <glyph glyph-name="numbersign" unicode="#" horiz-adv-x="754" 
d="M195 0h-92c-6 -0 -10.333 1.83301 -13 5.5s-3 8.16699 -1 13.5l58 162h-116c-14 0 -18.667 6.33301 -14 19l26 78c3.33301 10 10 15 20 15h121l44 127h-116c-6 0 -10.333 1.83301 -13 5.5s-3 8.16699 -1 13.5l26 79c3.33301 9.33301 10 14 20 14h121l61 169
c3.33301 9.33301 10 14 20 14h91c14 0 18.667 -6.33301 14 -19l-58 -164h120l60 169c3.33301 9.33301 10 14 20 14h92c6 0 10.333 -1.83301 13 -5.5s3 -8.16699 1 -13.5l-58 -164h115c6.66699 0 11.334 -1.83301 14.001 -5.5s3 -8.16699 1 -13.5l-26 -79
c-3.33301 -9.33301 -10 -14 -20 -14h-121l-45 -127h115c14.667 0 19.667 -6.66699 15 -20l-26 -78c-2.66699 -9.33301 -9.33398 -14 -20.001 -14h-121l-59 -167c-3.33301 -9.33301 -10 -14 -20 -14h-92c-6 -0 -10.333 1.83301 -13 5.5s-3 8.16699 -1 13.5l58 162h-121
l-59 -167c-3.33301 -9.33301 -10 -14 -20 -14zM356 420l-45 -127h121l44 127h-120z" />
    <glyph glyph-name="dollar" unicode="$" horiz-adv-x="587" 
d="M273 -104h-87.001c-12 0 -17.333 6.33301 -16 19l14 79c-63.333 12 -121.666 42 -174.999 90c-8.66699 7.33301 -9 15.666 -1 24.999l72 85c6.66699 8.66699 14.667 9.66699 24 3c54 -44 110 -66 168 -66c31.333 0 58 6.16699 80 18.5s35 30.5 39 54.5
c4 22.667 -3.83301 40.5 -23.5 53.5s-51.5 25.5 -95.5 37.5c-62 18 -111.5 46.833 -148.5 86.5s-50.167 91.834 -39.5 156.501c10 58 35.333 102.333 76 133s91.334 49 152.001 55l13 71c2 10.667 8.33301 16 19 16h87c12 0 17 -6.33301 15 -19l-12 -72
c59.333 -10 112.666 -33.333 159.999 -70c9.33301 -6 10 -14 2 -24l-78 -89c-6 -7.33301 -14 -8 -24 -2c-48.667 32.667 -99.334 49 -152.001 49c-61.333 0 -95.666 -21 -102.999 -63c-3.33301 -22 4 -39 22 -51s46.333 -23.667 85 -35
c29.333 -9.33301 54.5 -18.833 75.5 -28.5s44 -24 69 -43s42.5 -43.667 52.5 -74s11.333 -65.5 4 -105.5c-23.333 -116.667 -104 -182 -242 -196l-13 -78c-2 -10.667 -8.33301 -16 -19 -16z" />
    <glyph glyph-name="percent" unicode="%" horiz-adv-x="812" 
d="M352 477c-8.66699 -48 -27.499 -84.001 -56.499 -108.001s-65.5 -36 -109.5 -36c-40.667 0 -72.667 13.833 -96 41.5s-31 62.834 -23 105.501l18 98c8.66699 46.667 28 82.167 58 106.5s66.667 36.5 110 36.5c39.333 0 70.666 -14.167 93.999 -42.5s31 -62.833 23 -103.5
zM193.001 -0.000976562h-89c-7.33301 0 -12 2 -14 6s-0.666992 9 4 15l535 677c6 6.66699 13 10 21 10h89c7.33301 0 12 -2 14 -6s0.666992 -9 -4 -15l-535 -677c-6 -6.66699 -13 -10 -21 -10zM169.001 473.999c-5.33301 -30 5 -45.002 31 -45.002s42 16 48 48l20 103
c2.66699 14.667 1.16699 25.834 -4.5 33.501s-14.167 11.5 -25.5 11.5c-12 0 -22.667 -4.16699 -32 -12.5s-15.333 -20.166 -18 -35.499zM761.001 136.997c-8.66699 -48 -27.5 -84 -56.5 -108s-65.5 -36 -109.5 -36c-40.667 0 -72.5 14 -95.5 42s-30.833 63 -23.5 105l18 98
c8 46 27 81.167 57 105.5s66.667 36.5 110 36.5c40 0 71.5 -13.833 94.5 -41.5s30.833 -62.167 23.5 -103.5zM578.001 133.997c-2.66699 -14.667 -1 -25.833 5 -33.5s14.667 -11.5 26 -11.5c12 0 22.5 4.16699 31.5 12.5s14.833 20.166 17.5 35.499l19 103
c2.66699 14 1.16699 25 -4.5 33s-14.167 12 -25.5 12c-12 0 -22.667 -4.16699 -32 -12.5s-15.333 -20.166 -18 -35.499z" />
    <glyph glyph-name="ampersand" unicode="&#x26;" horiz-adv-x="598" 
d="M374 53c-54 -42 -112.663 -63 -175.996 -63c-55.333 0 -101.833 19.667 -139.5 59s-51.167 89.333 -40.5 150c14 78.667 68 147 162 205c-30 55.333 -40.667 106.666 -32 153.999c9.33301 50.667 33.166 91.667 71.499 123s84.833 47 139.5 47
c50 0 89.167 -17.833 117.5 -53.5s38.5 -77.834 30.5 -126.501c-12.667 -71.333 -63.334 -134.666 -152.001 -189.999l51 -91l50 71c5.33301 9.33301 13 11.333 23 6l74 -40c9.33301 -5.33301 11.666 -13 6.99902 -23c-28.667 -46.667 -58 -89 -88 -127
c9.33301 -17.333 23.166 -41.666 41.499 -72.999s29.833 -51.333 34.5 -60c4 -6 4.83301 -11 2.5 -15s-6.83301 -6 -13.5 -6h-121c-9.33301 0 -16.333 4 -21 12zM158.004 198c-4 -22 0.166016 -40 12.499 -54s30.5 -21 54.5 -21c30 0 59.667 13 89 39l-71 129
c-51.333 -32 -79.666 -63 -84.999 -93zM277.003 551c-4.66699 -22 1.33496 -49.333 18.002 -82c52 28.667 80 55.667 84 81c2 18 -0.5 32.5 -7.5 43.5s-18.167 16.5 -33.5 16.5c-16.667 0 -30.334 -5.33301 -41.001 -16s-17.334 -25 -20.001 -43z" />
    <glyph glyph-name="quotesingle" unicode="'" horiz-adv-x="221" 
d="M258 696l-68 -250c-2 -9.33301 -8.33301 -14 -19 -14h-75c-13.333 0 -18.333 6.33301 -15 19l49 249c2 10 8.33301 15 19 15h94c13.333 0 18.333 -6.33301 15 -19z" />
    <glyph glyph-name="parenleft" unicode="(" horiz-adv-x="306" 
d="M215 -116l-99 -0.000976562c-10.667 0 -17.334 4.66699 -20.001 14c-55.333 158.667 -69 317 -41 475c26 150 92.667 298.333 200 445c4.66699 6.66699 11.667 10 21 10h103c7.33301 0 12 -2 14 -6s0.666992 -9 -4 -15c-110 -150.667 -178 -300.667 -204 -450
c-13.333 -74 -16.166 -150.667 -8.49902 -230s25.167 -153.666 52.5 -222.999c4.66699 -13.333 0 -20 -14 -20z" />
    <glyph glyph-name="parenright" unicode=")" horiz-adv-x="306" 
d="M124 829l99 0.000976562c10.667 0 17.334 -4.66699 20.001 -14c55.333 -158.667 69 -317 41 -475c-26 -150 -92.667 -298.333 -200 -445c-4.66699 -6.66699 -11.667 -10 -21 -10h-103c-7.33301 0 -12 2 -14 6s-0.666992 9 4 15c110 150.667 178 300.667 204 450
c13.333 74 16.166 150.667 8.49902 230s-25.167 153.666 -52.5 222.999c-4.66699 13.333 0 20 14 20z" />
    <glyph glyph-name="asterisk" unicode="*" horiz-adv-x="450" 
d="M163 339l-65.001 51c-9.33301 7.33301 -10 15.333 -2 24l67 78l-74 27c-11.333 4.66699 -14.666 12.334 -9.99902 23.001l40 82c4.66699 10.667 12 13.667 22 9l82 -28l18 94c2 10.667 8 16 18 16h88c12 0 17 -6.33301 15 -19l-16 -90l89 27
c11.333 4 18.333 -0.333008 21 -13l12 -82c2 -10 -2.33301 -17 -13 -21l-94 -30l41 -72c6 -9.33301 4 -17.333 -6 -24l-76 -53c-10 -6.66699 -17.667 -4.66699 -23 6l-41 85l-69 -88c-7.33301 -8.66699 -15.333 -9.33398 -24 -2.00098z" />
    <glyph glyph-name="plus" unicode="+" 
d="M408 401h145c12.667 0 18 -6.33301 16 -19l-18 -98c-1.33301 -10.667 -7.33301 -16 -18 -16h-148l-29 -164c-2 -10.667 -8 -16 -18 -16h-101c-12.667 0 -18 6.33301 -16 19l29 161h-147c-12.667 0 -18 6.33301 -16 19l18 99c0.666992 10 6.66699 15 18 15h150l29 164
c2 10.667 8 16 18 16h101c12.667 0 18 -6.33301 16 -19z" />
    <glyph glyph-name="comma" unicode="," horiz-adv-x="243" 
d="M180 125l-120.999 -252c-4 -8.66699 -10.667 -13 -20 -13h-85c-14 0 -18.667 6.66699 -14 20l102 252c4 8.66699 10.667 13 20 13h105c6.66699 0 11.167 -1.83301 13.5 -5.5s2.16602 -8.5 -0.500977 -14.5z" />
    <glyph glyph-name="hyphen" unicode="-" horiz-adv-x="386" 
d="M311 231h-244c-12 0 -17 6.33301 -15 19l18 102c2 10.667 8 16 18 16h244c12 0 17 -6.33301 15 -19l-18 -103c-2 -10 -8 -15 -18 -15z" />
    <glyph glyph-name="period" unicode="." horiz-adv-x="245" 
d="M178 68c-4 -23.333 -14.502 -42.166 -31.502 -56.499s-38.167 -21.5 -63.5 -21.5c-26.667 0 -47.5 9.66699 -62.5 29s-19.833 43 -14.5 71c4.66699 23.333 15.334 42.166 32.001 56.499s37.334 21.5 62.001 21.5c27.333 0 48.333 -9.5 63 -28.5s19.667 -42.833 15 -71.5z
" />
    <glyph glyph-name="slash" unicode="/" horiz-adv-x="469" 
d="M517 694l-386 -682c-4 -8 -10.667 -12 -20 -12h-113c-6.66699 0 -11.167 2 -13.5 6s-1.83301 9 1.5 15l388 682c4 8 10.667 12 20 12h111c6.66699 0 11.167 -2 13.5 -6s1.83301 -9 -1.5 -15z" />
    <glyph glyph-name="zero" unicode="0" horiz-adv-x="605" 
d="M553 247c-15.333 -87.333 -48.999 -152.5 -100.999 -195.5s-116.667 -64.5 -194 -64.5c-71.333 0 -127.5 24 -168.5 72s-54.167 112.333 -39.5 193l39 220c14.667 85.333 48.167 149.333 100.5 192s117.166 64 194.499 64c70.667 0 126.5 -23.667 167.5 -71
s54.5 -110.333 40.5 -189zM203.001 241c-12.667 -69.333 12.667 -104 76 -104c30 0 55.833 8.66699 77.5 26s35.5 44 41.5 80l41 232c6 36 1.66699 62.333 -13 79s-36.334 25 -65.001 25c-29.333 0 -54.666 -8.66699 -75.999 -26s-35.333 -44 -42 -80z" />
    <glyph glyph-name="one" unicode="1" horiz-adv-x="393" 
d="M262 1h-118.999c-12 0 -17 6.33301 -15 19l90 508l-96 -63c-10 -8 -17.667 -5.66699 -23 7l-39 87c-4.66699 10 -2.66699 17.667 6 23l193 126c7.33301 4.66699 14.666 7 21.999 7h104c12 0 17.333 -6.33301 16 -19l-120 -680c-2 -10 -8.33301 -15 -19 -15z" />
    <glyph glyph-name="two" unicode="2" horiz-adv-x="555" 
d="M455 0h-449c-12 -0 -17 6.33301 -15 19l15 92c2 8 6 14.667 12 20l193 171c66.667 58 113.167 101.833 139.5 131.5s41.833 57.834 46.5 84.501c3.33301 20 -0.166992 35.833 -10.5 47.5s-28.833 17.5 -55.5 17.5c-46.667 0 -96 -23 -148 -69c-10 -10 -18 -8.66699 -24 4
l-50 88c-5.33301 10 -4.33301 18 3 24c71.333 65.333 150.666 98 237.999 98c70 0 123.5 -19.5 160.5 -58.5s49.5 -90.833 37.5 -155.5c-6 -38.667 -20.667 -75.334 -44 -110.001s-59.666 -77 -108.999 -127c-52.667 -50.667 -105.667 -95.667 -159 -135h241
c12.667 0 18 -6.33301 16 -19l-19 -107c-2 -10.667 -8.33301 -16 -19 -16z" />
    <glyph glyph-name="three" unicode="3" horiz-adv-x="555" 
d="M513 227c-14 -76.667 -46.4971 -135.667 -97.4971 -177s-114.833 -62 -191.5 -62c-96.667 0 -172.334 31.333 -227.001 94c-6.66699 8 -5.66699 16.333 3 25l70 80c8 6.66699 16 6 24 -2c35.333 -34 82.666 -51 141.999 -51c31.333 0 58.333 9.16699 81 27.5
s37 44.5 43 78.5c5.33301 29.333 -0.333984 51.833 -17.001 67.5s-41.334 23.5 -74.001 23.5c-20.667 0 -42.667 -3 -66 -9c-12 -3.33301 -19 0.666992 -21 12l-16 57c-2 8.66699 0.333008 16 7 22l180 159h-224c-12 0 -17.333 6.33301 -16 19l20 108
c1.33301 10.667 7.33301 16 18 16h403c12 0 17.333 -6.33301 16 -19l-16 -85c-0.666992 -8.66699 -4 -15.334 -10 -20.001l-186 -161v-1c51.333 1.33301 92.333 -18.167 123 -58.5s41.334 -88.166 32.001 -143.499z" />
    <glyph glyph-name="four" unicode="4" horiz-adv-x="581" 
d="M426 0h-116.999c-12.667 -0 -18 6.33301 -16 19l19 106h-294c-12 0 -17 6.33301 -15 19l15 88c2 8 4.66699 15 8 21l304 451c5.33301 7.33301 12.666 11 21.999 11h130c6.66699 0 11.167 -2 13.5 -6s1.5 -9 -2.5 -15l-287 -429h130l36 129c3.33301 9.33301 10 14 20 14
h102c12 0 17.333 -6.33301 16 -19l-22 -124h54c12 0 17 -6.33301 15 -19l-18 -105c-2 -10.667 -8.33301 -16 -19 -16h-57l-19 -109c-2 -10.667 -8 -16 -18 -16z" />
    <glyph glyph-name="five" unicode="5" horiz-adv-x="568" 
d="M530 235c-14 -78 -46.332 -138.666 -96.999 -181.999s-117.334 -65 -200.001 -65c-89.333 0 -160 31.667 -212 95c-6.66699 8 -6 16 2 24l66 78c8 8 16.333 8.33301 25 1c37.333 -34.667 84.333 -52 141 -52c34 0 61.833 10 83.5 30s35.5 47 41.5 81
c10 61.333 -18.667 92 -86 92c-46 0 -86.667 -12 -122 -36c-6.66699 -4.66699 -14.667 -5.33398 -24 -2.00098l-69 25c-10 3.33301 -14 10.333 -12 21l75 354c2 10.667 8.33301 16 19 16h390c12.667 0 18 -6.33301 16 -19l-19 -111c-2 -10 -8.33301 -15 -19 -15h-268
l-27 -125c27.333 14.667 64 22 110 22c68 0 119 -21.333 153 -64s45 -98.667 33 -168z" />
    <glyph glyph-name="six" unicode="6" horiz-adv-x="585" 
d="M546 231c-13.333 -73.333 -46.501 -132.332 -99.501 -176.999s-117.167 -67 -192.5 -67c-74 0 -130.333 23 -169 69s-52 104 -40 174l44 244c14 78 48.167 139.833 102.5 185.5s118.166 68.5 191.499 68.5c82 0 150.667 -22.667 206 -68
c8.66699 -6.66699 9.33398 -14.667 2.00098 -24l-72 -91c-7.33301 -9.33301 -15.333 -10 -24 -2c-34 26.667 -76.667 40 -128 40c-33.333 0 -61.166 -9.5 -83.499 -28.5s-36.166 -45.5 -41.499 -79.5l-9 -51c35.333 21.333 75.666 32 120.999 32
c70 0 122.5 -20.333 157.5 -61s46.5 -95.334 34.5 -164.001zM199.999 235.001c-6 -32.667 -2.33301 -57.833 11 -75.5s34.666 -26.5 63.999 -26.5c30.667 0 56.5 9.33301 77.5 28s34.5 44.667 40.5 78c10.667 60 -15.666 90 -78.999 90c-29.333 0 -54.333 -8 -75 -24
s-33.667 -39.333 -39 -70z" />
    <glyph glyph-name="seven" unicode="7" horiz-adv-x="518" 
d="M186 0l-133 0.000976562c-6.66699 0 -11.167 2 -13.5 6s-1.83301 9 1.5 15l329 551h-276c-12.667 0 -18 6.33301 -16 19l19 108c0.666992 10.667 6.66699 16 18 16h443c12 0 17 -6.33301 15 -19l-14 -85c-0.666992 -6.66699 -3 -13.334 -7 -20.001l-345 -579
c-4.66699 -8 -11.667 -12 -21 -12z" />
    <glyph glyph-name="eight" unicode="8" horiz-adv-x="605" 
d="M555 213c-13.333 -74.667 -45.498 -131 -96.498 -169s-118.5 -57 -202.5 -57c-74.667 0 -133.334 21.333 -176.001 64s-58 99 -46 169c6 34.667 19.667 66.5 41 95.5s48 51.167 80 66.5c-42.667 38 -58.334 87.667 -47.001 149c9.33301 57.333 39.333 104.5 90 141.5
s112 55.5 184 55.5c71.333 0 126.5 -19.667 165.5 -59s53.167 -89 42.5 -149c-12 -64 -44 -111.333 -96 -142c25.333 -16.667 43.5 -39.667 54.5 -69s13.167 -61.333 6.5 -96zM188.002 215c-4.66699 -26.667 0.834961 -47.832 16.502 -63.499s39.834 -23.5 72.501 -23.5
c33.333 0 61.166 8.33301 83.499 25s36.166 39 41.499 67c4 25.333 -2.16699 45.333 -18.5 60s-40.833 22 -73.5 22c-33.333 0 -60.833 -7.83301 -82.5 -23.5s-34.834 -36.834 -39.501 -63.501zM251.004 513.002c-4 -25.333 0.832031 -44.833 14.499 -58.5
s35.167 -20.5 64.5 -20.5c31.333 0 56.833 7.33301 76.5 22s31.5 34.334 35.5 59.001c4 24 -1 42.667 -15 56s-36.333 20 -67 20c-29.333 0 -53.666 -6.83301 -72.999 -20.5s-31.333 -32.834 -36 -57.501z" />
    <glyph glyph-name="nine" unicode="9" horiz-adv-x="585" 
d="M527 227c-12.667 -76 -45 -134.999 -97 -176.999s-117.667 -63 -197 -63c-82 0 -150 29.667 -204 89c-7.33301 7.33301 -7.33301 15.333 0 24l69 83c7.33301 8 15.666 8 24.999 0c36.667 -33.333 80 -50 130 -50c32.667 0 59.667 9.33301 81 28s35 44.667 41 78l9 51
c-34.667 -20.667 -74.667 -31 -120 -31c-64 0 -114.5 23 -151.5 69s-49.167 102 -36.5 168c12.667 71.333 44.834 127.833 96.501 169.5s115.167 62.5 190.5 62.5c76.667 0 134 -22.833 172 -68.5s50.333 -104.834 37 -177.501zM227 487.001
c-5.33301 -30 -1.66797 -53.5 10.999 -70.5s34.334 -25.5 65.001 -25.5c30 0 55.5 8 76.5 24s34.167 38.667 39.5 68l1 6c5.33301 31.333 1.16602 55.5 -12.501 72.5s-35.5 25.5 -65.5 25.5c-30.667 0 -56.167 -8.83301 -76.5 -26.5s-33.166 -42.167 -38.499 -73.5z" />
    <glyph glyph-name="colon" unicode=":" horiz-adv-x="276" 
d="M190 68c-4 -22.667 -14.498 -41.332 -31.498 -55.999s-37.167 -22 -60.5 -22c-28.667 0 -50.334 9.33301 -65.001 28s-19.334 42.667 -14.001 72c4 23.333 14.5 42.166 31.5 56.499s36.833 21.5 59.5 21.5c28.667 0 50.5 -9.33301 65.5 -28s19.833 -42.667 14.5 -72z
M256.002 434.002c-4 -23.333 -14.668 -42.333 -32.001 -57s-37.666 -22 -60.999 -22c-28 0 -49.5 9.5 -64.5 28.5s-19.833 42.833 -14.5 71.5c4 23.333 14.5 42.333 31.5 57s37.167 22 60.5 22c28 0 49.667 -9.5 65 -28.5s20.333 -42.833 15 -71.5z" />
    <glyph glyph-name="semicolon" unicode=";" horiz-adv-x="275" 
d="M52 -138h-85c-14 0 -18.333 6.66699 -13 20l103 255c3.33301 9.33301 10 14 20 14h105c14 0 18.333 -7 13 -21l-122 -255c-4.66699 -8.66699 -11.667 -13 -21 -13zM257 434c-4.66699 -22.667 -15.4971 -41.167 -32.4971 -55.5s-37.5 -21.5 -61.5 -21.5
c-26.667 0 -47.334 9.5 -62.001 28.5s-19.334 42.5 -14.001 70.5c4.66699 24 15.334 43 32.001 57s37 21 61 21c27.333 0 48.166 -9.5 62.499 -28.5s19.166 -42.833 14.499 -71.5z" />
    <glyph glyph-name="less" unicode="&#x3c;" 
d="M505 204l-21.001 -118.001c-2 -14 -9.33301 -17.333 -22 -10l-366 206c-8 4.66699 -11 12 -9 22l12 66c2 8.66699 7 15 15 19l442 209c6 3.33301 10.833 3.5 14.5 0.5s4.83398 -7.83301 3.50098 -14.5l-22 -122c-2 -8 -7.33301 -14 -16 -18l-274 -106l232 -112
c9.33301 -5.33301 13 -12.666 11 -21.999z" />
    <glyph glyph-name="equal" unicode="=" 
d="M551 371h-430c-12 0 -17 6.33301 -15 19l18 104c2 10 8.33301 15 19 15h429c12.667 0 18 -6.33301 16 -19l-18 -103c-2 -10.667 -8.33301 -16 -19 -16zM514 161h-431c-12.667 0 -18 6 -16 18l19 104c2 10 8 15 18 15h431c12 0 17 -6.33301 15 -19l-18 -103
c-2 -10 -8 -15 -18 -15z" />
    <glyph glyph-name="greater" unicode="&#x3e;" 
d="M544 288l-441.995 -211c-6.66699 -2.66699 -11.834 -2.66699 -15.501 0s-4.83398 7.66699 -3.50098 15l23 122c0.666992 8 5.66699 14 15 18l274 113l-231 105c-8.66699 4.66699 -12.667 12 -12 22l21 117c3.33301 14 10.666 17.333 21.999 10l366 -206
c7.33301 -4.66699 10.666 -12 9.99902 -22l-13 -64c-0.666992 -8.66699 -5.33398 -15 -14.001 -19z" />
    <glyph glyph-name="question" unicode="?" horiz-adv-x="497" 
d="M277 215l-106.999 -0.00292969c-12 0 -17 6.33301 -15 19l6 38c5.33301 28.667 15.5 53.667 30.5 75s31.5 38 49.5 50s36 23.333 54 34s34 23.334 48 38.001s22.667 32 26 52c4.66699 22.667 1 41.167 -11 55.5s-34 21.5 -66 21.5c-47.333 0 -94.333 -18.333 -141 -55
c-9.33301 -9.33301 -17 -7.66602 -23 5.00098l-37 82c-4 9.33301 -2.33301 17 5 23c62.667 50 134.667 75 216 75c64 0 115.833 -18.5 155.5 -55.5s53.167 -90.5 40.5 -160.5c-5.33301 -31.333 -15.5 -58.166 -30.5 -80.499s-31.5 -39.833 -49.5 -52.5s-36 -24.5 -54 -35.5
s-34.167 -24.5 -48.5 -40.5s-23.833 -35.333 -28.5 -58l-3 -20c-0.666992 -6.66699 -6.33398 -10 -17.001 -10zM286.001 67.9971c-4 -22.667 -14.498 -41.3311 -31.498 -55.998s-37.5 -22 -61.5 -22c-26.667 0 -47.334 9.5 -62.001 28.5s-19.334 42.5 -14.001 70.5
c4 23.333 14.333 42.166 31 56.499s37.334 21.5 62.001 21.5c26.667 0 47.167 -9.33301 61.5 -28s19.166 -42.334 14.499 -71.001z" />
    <glyph glyph-name="at" unicode="@" horiz-adv-x="851" 
d="M560 -69c-66 -34.667 -138.334 -52 -217.001 -52c-108.667 0 -190.834 35.667 -246.501 107s-73.5 159.666 -53.5 264.999l24 135c19.333 106.667 66.5 190.334 141.5 251.001s176.167 91 303.5 91c158.667 0 273.334 -56.667 344.001 -170
c4 -8.66699 5.33301 -16.334 4 -23.001l-44 -257c-11.333 -66.667 -33.166 -116.5 -65.499 -149.5s-73.166 -49.5 -122.499 -49.5c-43.333 0 -74 12.667 -92 38c-36.667 -26.667 -83 -40 -139 -40c-50 0 -88.167 17.667 -114.5 53s-34.833 79 -25.5 131l16 86
c9.33301 52.667 31.5 94.667 66.5 126s80.5 47 136.5 47c61.333 0 114.333 -13.333 159 -40c7.33301 -4.66699 10.333 -12 9 -22l-39 -222c-1.33301 -8.66699 -1.66602 -16.5 -0.999023 -23.5s4 -12.667 10 -17s14.333 -6.5 25 -6.5c32.667 2 52.667 22.667 60 62l48 264
c-17.333 30.667 -48 56.5 -92 77.5s-94.333 31.5 -151 31.5c-93.333 0 -167 -21.833 -221 -65.5s-88 -104.167 -102 -181.5l-23 -129c-14 -75.333 -2.33301 -138.166 35 -188.499s91.333 -75.5 162 -75.5c63.333 0 122.666 12.667 177.999 38
c11.333 6 18.666 2.33301 21.999 -11l13 -60c2 -9.33301 -0.666992 -16 -8 -20zM375.999 265c-8.66699 -50.667 6.66699 -76 46 -76c21.333 0 42 5.66699 62 17l33 192c-10 7.33301 -25.333 11 -46 11c-22 0 -40.167 -6.33301 -54.5 -19s-23.5 -30.667 -27.5 -54z" />
    <glyph glyph-name="A" unicode="A" 
d="M569 0h-124.999c-11.333 -0 -17.333 5.33301 -18 16l-14 117h-225l-54 -120c-2.66699 -8.66699 -9.33398 -13 -20.001 -13h-137c-14.667 0 -18.667 7 -12 21l333 681c4 8.66699 10.667 13 20 13h146c10.667 0 17 -5.33301 19 -16l103 -681c2 -12 -3.33301 -18 -16 -18z
M369.001 541l-4.00098 -0.00195312c-57.333 -135.333 -95.666 -224 -114.999 -266h146l-10 94c-4 38.667 -7.33301 72.334 -10 101.001s-5 52.334 -7 71.001z" />
    <glyph glyph-name="B" unicode="B" horiz-adv-x="623" 
d="M296 0l-252 -0.000976562c-12.667 0 -18 6.33301 -16 19l120 680c2 10.667 8 16 18 16h246c68.667 0 120 -19.5 154 -58.5s46 -88.5 36 -148.5c-10.667 -61.333 -41 -104.666 -91 -129.999c59.333 -30.667 82.333 -85 69 -163c-24 -143.333 -118.667 -215 -284 -215z
M236 306.999l-29 -166h106c28.667 0 52.667 7.5 72 22.5s31.333 37.167 36 66.5c7.33301 51.333 -18 77 -76 77h-109zM285 577.999l-25 -142h92c52 0 82.333 24.667 91 74c8.66699 45.333 -13.333 68 -66 68h-92z" />
    <glyph glyph-name="C" unicode="C" horiz-adv-x="570" 
d="M522 51c-71.333 -42.667 -150.664 -63.999 -237.997 -63.999c-84 0 -147.5 25.5 -190.5 76.5s-56.833 120.833 -41.5 209.5l35 203c14 81.333 49 143.666 105 186.999s125.667 65 209 65c77.333 0 143 -22.667 197 -68c9.33301 -6 10 -14 2 -24l-73 -86
c-6 -8 -14 -9 -24 -3c-34.667 24 -73.334 36 -116.001 36c-39.333 0 -71 -11 -95 -33s-39 -52 -45 -90l-35 -202c-6.66699 -40.667 -1.33398 -71.667 15.999 -93s45.666 -32 84.999 -32c50 0 97 14.667 141 44c10 6 18 3.66699 24 -7l47 -98c4.66699 -10 3.66699 -17 -3 -21
z" />
    <glyph glyph-name="D" unicode="D" horiz-adv-x="647" 
d="M282 0l-239 0.000976562c-12 0 -17 6.33301 -15 19l120 680c1.33301 10.667 7.33301 16 18 16h235c78.667 0 140 -24.167 184 -72.5s58 -119.5 42 -213.5l-29 -165c-16 -94.667 -50.5 -162.334 -103.5 -203.001s-123.833 -61 -212.5 -61zM283 570.001l-74.999 -425h99
c71.333 0 114.666 42 129.999 126l31 178c7.33301 42.667 4 73.5 -10 92.5s-39 28.5 -75 28.5h-100z" />
    <glyph glyph-name="E" unicode="E" horiz-adv-x="572" 
d="M594 696l-19 -108c-2 -10.667 -8 -16 -18 -16h-272l-25 -139h238c12 0 17 -6.33301 15 -19l-19 -105c-2 -10.667 -8 -16 -18 -16h-241l-26 -149h283c12 0 17.333 -6.33301 16 -19l-18 -109c-2 -10.667 -8.33301 -16 -19 -16h-427c-12 -0 -17.333 6.33301 -16 19l121 680
c2 10.667 8 16 18 16h411c12.667 0 18 -6.33301 16 -19z" />
    <glyph glyph-name="F" unicode="F" horiz-adv-x="550" 
d="M597 696l-19 -109c-0.666992 -10.667 -6.66699 -16 -18 -16h-274l-29 -162h233c12 0 17.333 -6.33301 16 -19l-20 -109c-2 -10.667 -8 -16 -18 -16h-237l-45 -249c-1.33301 -10.667 -7.33301 -16 -18 -16h-124c-12.667 -0 -18 6.33301 -16 19l121 680
c1.33301 10.667 7.33301 16 18 16h414c12.667 0 18 -6.33301 16 -19z" />
    <glyph glyph-name="G" unicode="G" horiz-adv-x="629" 
d="M544 83c-33.333 -29.333 -73.833 -52.501 -121.5 -69.501s-96.5 -25.5 -146.5 -25.5c-78.667 0 -139.167 26.167 -181.5 78.5s-56.833 117.833 -43.5 196.5l36 214c14 80 49.167 141.833 105.5 185.5s125.166 65.5 206.499 65.5c88 0 162.667 -24 224 -72
c8 -7.33301 8.66699 -15.666 2 -24.999l-77 -87c-6 -8 -14 -9.33301 -24 -4c-40 28.667 -87 43 -141 43c-36.667 0 -67 -10.667 -91 -32s-39 -51 -45 -89l-36 -210c-5.33301 -34.667 -0.166016 -63 15.501 -85s40.167 -33 73.5 -33c44 1.33301 81.333 10.333 112 27l23 125
h-106c-12 0 -17 6.33301 -15 19l17 95c1.33301 10.667 7.33301 16 18 16h242c12 0 17 -6.33301 15 -19l-52 -295c-2 -8.66699 -5.33301 -15 -10 -19z" />
    <glyph glyph-name="H" unicode="H" horiz-adv-x="665" 
d="M466 434l47 265c1.33301 10.667 7.33301 16 18 16h124c12 0 17.333 -6.33301 16 -19l-121 -680c-1.33301 -10.667 -7.33301 -16 -18 -16h-124c-12 -0 -17 6.33301 -15 19l48 270h-207l-48 -273c-2 -10.667 -8.33301 -16 -19 -16h-123c-12.667 -0 -18 6.33301 -16 19
l120 680c2 10.667 8 16 18 16h124c12 0 17.333 -6.33301 16 -19l-46 -262h206z" />
    <glyph glyph-name="I" unicode="I" horiz-adv-x="300" 
d="M306 696l-120 -680c-2 -10.667 -8 -16 -18 -16h-124c-12 -0 -17.333 6.33301 -16 19l120 680c2 10.667 8.33301 16 19 16h123c12.667 0 18 -6.33301 16 -19z" />
    <glyph glyph-name="J" unicode="J" horiz-adv-x="519" 
d="M447 226c-13.333 -76 -44.5 -134.667 -93.5 -176s-110.833 -62 -185.5 -62c-74 0 -137.667 23 -191 69c-8 8 -8.66699 16.333 -2 25l68 88c6.66699 8 15 9 25 3c32 -26 70 -39 114 -39c58 0 93 32.667 105 98l82 467c2 10.667 8.33301 16 19 16h124
c12 0 17.333 -6.33301 16 -19z" />
    <glyph glyph-name="K" unicode="K" horiz-adv-x="627" 
d="M509 715h161c7.33301 0 12 -2.16699 14 -6.5s0.666992 -9.5 -4 -15.5l-283 -300l191 -372c2.66699 -6 2.83398 -11 0.500977 -15s-6.83301 -6 -13.5 -6h-141c-10.667 -0 -17.334 4.33301 -20.001 13l-131 270l-60 -58l-37 -209c-2 -10.667 -8.33301 -16 -19 -16h-123
c-12.667 -0 -18 6.33301 -16 19l120 680c2 10.667 8.33301 16 19 16h123c12.667 0 18 -6.33301 16 -19l-44 -248l226 257c5.33301 6.66699 12.333 10 21 10z" />
    <glyph glyph-name="L" unicode="L" horiz-adv-x="512" 
d="M306 696l-97 -551h254c12.667 0 18 -6.33301 16 -19l-19 -110c-2 -10.667 -8.33301 -16 -19 -16h-398c-12 -0 -17 6.33301 -15 19l120 680c1.33301 10.667 7.33301 16 18 16h124c12 0 17.333 -6.33301 16 -19z" />
    <glyph glyph-name="M" unicode="M" horiz-adv-x="841" 
d="M166 0l-122 -0.000976562c-12.667 0 -18 6.33301 -16 19l119 680c2 10.667 8 16 18 16h141c10.667 0 17.334 -5 20.001 -15l50 -171c24 -92.667 40.667 -161 50 -205h3c50 88.667 90.667 157.667 122 207l112 173c4.66699 7.33301 11.667 11 21 11h146
c12.667 0 18 -6.33301 16 -19l-119 -680c-2 -10.667 -8.33301 -16 -19 -16h-122c-12 0 -17.333 6.33301 -16 19l22 127c11.333 66.667 32.333 172.334 63 317.001l-5 1c-26 -49.333 -65.333 -117 -118 -203l-64 -100c-4.66699 -8 -11.334 -12 -20.001 -12h-91
c-10 0 -16.667 5 -20 15l-30 102c-28 108 -44 172.333 -48 193h-5c-8.66699 -70 -24 -173.333 -46 -310l-23 -133c-0.666992 -10.667 -7 -16 -19 -16z" />
    <glyph glyph-name="N" unicode="N" horiz-adv-x="685" 
d="M166 0l-123.001 0.000976562c-12 0 -17 6.33301 -15 19l120 680c1.33301 10.667 7.33301 16 18 16h132c11.333 0 18 -4.66699 20 -14l79 -237c22.667 -72.667 43.334 -144.334 62.001 -215.001l5 1c10 86 23.333 178.333 40 277l30 172c2 10.667 8 16 18 16h122
c12.667 0 18 -6.33301 16 -19l-120 -680c-2 -10.667 -8.33301 -16 -19 -16h-131c-9.33301 0 -16 4.66699 -20 14l-79 212c-28.667 74.667 -51.667 154 -69 238l-4 -2c-12 -123.333 -24.667 -222 -38 -296l-26 -150c-2 -10.667 -8 -16 -18 -16z" />
    <glyph glyph-name="O" unicode="O" horiz-adv-x="656" 
d="M607 255c-14.667 -85.333 -50.334 -151.333 -107.001 -198s-130 -70 -220 -70c-84.667 0 -147.5 27.833 -188.5 83.5s-53.833 128.5 -38.5 218.5l31 177c14.667 82 50.334 146.167 107.001 192.5s128.667 69.5 216 69.5c85.333 0 149 -26.833 191 -80.5
s55.333 -125.5 40 -215.5zM212 271c-7.33301 -42 -3 -75.499 13 -100.499s42 -37.5 78 -37.5c38.667 0 70.334 11.5 95.001 34.5s40.667 55.167 48 96.5l32 183c7.33301 41.333 3.16602 74.166 -12.501 98.499s-42.167 36.5 -79.5 36.5c-78 0 -125 -43.333 -141 -130z" />
    <glyph glyph-name="P" unicode="P" horiz-adv-x="612" 
d="M166 715l227.002 0.000976562c83.333 0 145.666 -24.667 186.999 -74s54.666 -114 39.999 -194c-13.333 -72.667 -44.833 -129.834 -94.5 -171.501s-114.167 -62.5 -193.5 -62.5h-111l-35 -197c-2 -10.667 -8.33301 -16 -19 -16h-124c-12 -0 -17 6.33301 -15 19l120 680
c1.33301 10.667 7.33301 16 18 16zM335.002 356.001c72 0 113.667 34.667 125 104c6 36 1.16699 63.5 -14.5 82.5s-40.5 28.5 -74.5 28.5h-87l-38 -215h89z" />
    <glyph glyph-name="Q" unicode="Q" horiz-adv-x="664" 
d="M596 1l-92.999 -73.999c-8.66699 -8 -16.334 -7 -23.001 3l-60 82c-41.333 -15.333 -87.666 -23.333 -138.999 -24c-86 -0.666992 -149.333 26.666 -190 81.999s-53.334 128.333 -38.001 219l31 177c14.667 82 50.334 146.167 107.001 192.5s129 69.5 217 69.5
c86 0 150 -26.833 192 -80.5s55.333 -125.5 40 -215.5l-30 -177c-10.667 -62 -33.334 -114.333 -68.001 -157l57 -72c6.66699 -8.66699 5.66699 -17 -3 -25zM213.001 271.001c-7.33301 -41.333 -3 -74.333 13 -99s42 -37 78 -37c38.667 0 70.334 11.333 95.001 34
s40.667 54.334 48 95.001l32 183c7.33301 41.333 3.16602 74.166 -12.501 98.499s-42.167 36.5 -79.5 36.5c-78 0 -125 -43.333 -141 -130z" />
    <glyph glyph-name="R" unicode="R" horiz-adv-x="618" 
d="M168 0h-123.999c-12.667 -0 -18 6.33301 -16 19l119 680c2 10.667 8.33301 16 19 16h230c79.333 0 138.333 -24.167 177 -72.5s52 -109.833 40 -184.5c-16.667 -104 -74.667 -171 -174 -201l112 -237c6.66699 -13.333 2.66699 -20 -12 -20h-136
c-10.667 -0 -17.334 4.33301 -20.001 13l-92 225h-66l-38 -222c-2 -10.667 -8.33301 -16 -19 -16zM283.001 571l-33 -191h88c66 0 104 30 114 90c10 67.333 -16.667 101 -80 101h-89z" />
    <glyph glyph-name="S" unicode="S" horiz-adv-x="600" 
d="M557 186c-27.333 -132.667 -125.331 -199.002 -293.998 -199.002c-92 0 -174.667 32.333 -248 97c-8.66699 7.33301 -9.33398 15.666 -2.00098 24.999l72 89c6.66699 8.66699 15 9.33398 25 2.00098c56 -44 112.667 -66 170 -66c30.667 0 56.834 6 78.501 18
s34.5 29.333 38.5 52s-3.66699 40.5 -23 53.5s-50.666 25.5 -93.999 37.5c-140 40.667 -200 120.334 -180 239.001c11.333 66.667 41.166 115.667 89.499 147s108.5 47 180.5 47c87.333 0 165.333 -25.333 234 -76c9.33301 -6.66699 10.333 -14.667 3 -24l-70 -90
c-7.33301 -8 -15.333 -9 -24 -3c-50.667 32.667 -104.334 49 -161.001 49c-26.667 0 -48.334 -5.83301 -65.001 -17.5s-27 -27.834 -31 -48.501c-4 -22 2 -38.667 18 -50s42.667 -22.666 80 -33.999c30.667 -9.33301 56.167 -18.666 76.5 -27.999s43.5 -23.333 69.5 -42
s44 -43 54 -73s11 -65 3 -105z" />
    <glyph glyph-name="T" unicode="T" horiz-adv-x="562" 
d="M108 715h502c12.667 0 18 -6.33301 16 -19l-20 -110c-1.33301 -10.667 -7.33301 -16 -18 -16h-173l-98 -554c-2 -10.667 -8 -16 -18 -16h-125c-12 -0 -17 6.33301 -15 19l98 551h-171c-12 0 -17.333 6.33301 -16 19l20 110c2 10.667 8 16 18 16z" />
    <glyph glyph-name="U" unicode="U" horiz-adv-x="665" 
d="M597 247c-14 -82.667 -47.1641 -146.5 -99.4971 -191.5s-122.5 -67.5 -210.5 -67.5c-82 0 -142.833 26.333 -182.5 79s-51.834 125 -36.501 217l74 415c2 10.667 8 16 18 16h126c12.667 0 18 -6.33301 16 -19l-77 -430c-7.33301 -42.667 -3.33301 -75.167 12 -97.5
s39.666 -33.5 72.999 -33.5c34 0 62.167 10.5 84.5 31.5s37.166 51.833 44.499 92.5l76 440c2 10.667 8 16 18 16h126c12 0 17.333 -6.33301 16 -19z" />
    <glyph glyph-name="V" unicode="V" horiz-adv-x="636" 
d="M349 0l-150 0.000976562c-10.667 0 -17 5.33301 -19 16l-100 681c-2 12 3.33301 18 16 18h127c12 0 18.333 -5.33301 19 -16l36 -305c10 -82.667 17 -154 21 -214h6c40.667 101.333 68.667 168.666 84 201.999l148 320c4.66699 8.66699 11.667 13 21 13h138
c14.667 0 18.667 -7 12 -21l-339 -681c-4 -8.66699 -10.667 -13 -20 -13z" />
    <glyph glyph-name="W" unicode="W" horiz-adv-x="948" 
d="M305 0h-145.002c-11.333 -0 -17.333 5.33301 -18 16l-60 681c-1.33301 12 4.33398 18 17.001 18h128c12 0 18 -5.66699 18 -17l10 -226c2.66699 -66 3.33398 -163.667 2.00098 -293h5c30.667 100.667 65.667 200.667 105 300l86 212c4 9.33301 10.667 14 20 14h141
c11.333 0 17.333 -5.33301 18 -16l17 -221c5.33301 -88 8 -184.333 8 -289h6c36 120 70.333 223 103 309l83 213c4 9.33301 10.667 14 20 14h134c14.667 0 19.334 -6.66699 14.001 -20l-298 -682c-4.66699 -8.66699 -11.667 -13 -21 -13h-145
c-10.667 -0 -16.334 5.33301 -17.001 16l-13 197c-2.66699 44 -5 139.667 -7 287h-6c-18 -73.333 -45.333 -154.333 -82 -243l-103 -243c-4 -9.33301 -10.667 -14 -20 -14z" />
    <glyph glyph-name="X" unicode="X" horiz-adv-x="605" 
d="M503 715l143.999 0.000976562c7.33301 0 12 -2 14 -6s1 -9 -3 -15l-242 -338l135 -336c4.66699 -13.333 0 -20 -14 -20h-134c-9.33301 0 -15.666 4.66699 -18.999 14l-81 227l-150 -229c-4.66699 -8 -11.667 -12 -21 -12h-150c-6.66699 0 -11.167 2.16699 -13.5 6.5
s-1.5 9.16602 2.5 14.499l249 338l-119 336c-2 6 -1.66699 10.833 1 14.5s7 5.5 13 5.5h130c10 0 16.667 -4.66699 20 -14l69 -227l148 229c5.33301 8 12.333 12 21 12z" />
    <glyph glyph-name="Y" unicode="Y" horiz-adv-x="582" 
d="M308 0h-125.001c-12.667 -0 -18 6.33301 -16 19l44 238l-133 439c-2 5.33301 -1.66699 9.83301 1 13.5s7 5.5 13 5.5h130c10 0 16 -5 18 -15l73 -295h2l170 298c4.66699 8 11.334 12 20.001 12h138c6.66699 0 11 -2 13 -6s1.33301 -9 -2 -15l-283 -440l-45 -238
c-2 -10.667 -8 -16 -18 -16z" />
    <glyph glyph-name="Z" unicode="Z" horiz-adv-x="593" 
d="M497 0h-490.999c-12.667 -0 -18 6.33301 -16 19l16 85c1.33301 6 4.66602 12.667 9.99902 20l377 448h-268c-12 0 -17 6.33301 -15 19l19 108c2 10.667 8 16 18 16h464c12.667 0 18 -6.33301 16 -19l-16 -82c-2 -8 -5 -15 -9 -21l-371 -450h289c12 0 17 -6.33301 15 -19
l-19 -108c-2 -10.667 -8.33301 -16 -19 -16z" />
    <glyph glyph-name="bracketleft" unicode="[" horiz-adv-x="307" 
d="M275 703l-122 -694h62c12 0 17.333 -6.33301 16 -19l-16 -91c-2 -10 -8.33301 -15 -19 -15h-179c-12.667 0 -18 6.33301 -16 19l160 909c2 10.667 8.33301 16 19 16h179c12 0 17.333 -6.33301 16 -19l-16 -90c-2 -10.667 -8.33301 -16 -19 -16h-65z" />
    <glyph glyph-name="backslash" unicode="\" horiz-adv-x="452" 
d="M372 0h-96.999c-10 0 -16.667 5 -20 15l-157 681c-3.33301 12.667 2 19 16 19h96c9.33301 0 15.666 -5 18.999 -15l159 -681c2 -12.667 -3.33301 -19 -16 -19z" />
    <glyph glyph-name="bracketright" unicode="]" horiz-adv-x="306" 
d="M65 9l122 694h-62c-12 0 -17.333 6.33301 -16 19l16 91c2 10 8.33301 15 19 15h179c12.667 0 18 -6.33301 16 -19l-160 -909c-2 -10.667 -8.33301 -16 -19 -16h-179c-12 0 -17.333 6.33301 -16 19l16 90c2 10.667 8.33301 16 19 16h65z" />
    <glyph glyph-name="asciicircum" unicode="^" 
d="M237 549l-117 0.000976562c-7.33301 0 -12 2.16699 -14 6.5s-0.666992 9.16602 4 14.499l227 243c7.33301 6 14.666 9 21.999 9h108c9.33301 0 16.333 -4 21 -12l142 -240c6.66699 -14 2.66699 -21 -12 -21h-106c-8 0 -14.667 4 -20 12l-91 160l-142 -163
c-5.33301 -6 -12.666 -9 -21.999 -9z" />
    <glyph glyph-name="underscore" unicode="_" horiz-adv-x="555" 
d="M468 -32l-17 -93c-1.33301 -10.667 -7.33301 -16 -18 -16h-446c-12 0 -17 6.33301 -15 19l16 93c0.666992 10.667 6.66699 16 18 16h446c12.667 0 18 -6.33301 16 -19z" />
    <glyph glyph-name="grave" unicode="`" horiz-adv-x="245" 
d="M216 745l62.999 -129.999c2.66699 -6 2.83398 -10.833 0.500977 -14.5s-6.5 -5.5 -12.5 -5.5h-69c-9.33301 0 -16.333 3.66699 -21 11l-85 131c-4 5.33301 -4.83301 10.166 -2.5 14.499s6.83301 6.5 13.5 6.5h93c9.33301 0 16 -4.33301 20 -13z" />
    <glyph glyph-name="a" unicode="a" horiz-adv-x="505" 
d="M406 22c-66.667 -23.333 -136 -34.999 -208 -34.999c-68.667 0 -120.167 17.667 -154.5 53s-46.5 80.666 -36.5 135.999c16.667 93.333 92.334 140 227.001 140c30 0 58.333 -2.66699 85 -8l2 16c4.66699 26 2 45.167 -8 57.5s-30 18.5 -60 18.5
c-46.667 0 -86.334 -7.66699 -119.001 -23c-11.333 -5.33301 -19 -2.66602 -23 8.00098l-31 82c-3.33301 10 -2.33301 16.667 3 20c52 31.333 120 47 204 47c68.667 0 119 -21.333 151 -64s41.333 -101.334 28 -176.001l-45 -253c-2 -10 -7 -16.333 -15 -19zM156 168.001
c-3.33301 -18.667 0.332031 -32.667 10.999 -42s27.334 -14 50.001 -14c22 0 45 2.66699 69 8l14 87c-22 4.66699 -43.333 7 -64 7c-48 0 -74.667 -15.333 -80 -46z" />
    <glyph glyph-name="b" unicode="b" horiz-adv-x="538" 
d="M248 512c28 14.667 60 22 96 22c56.667 0 101 -21.5 133 -64.5s42.333 -97.167 31 -162.5l-18 -104c-12 -70 -41 -123.5 -87 -160.5s-105.667 -55.5 -179 -55.5c-72 0 -138 16.333 -198 49c-8.66699 4.66699 -12 12 -10 22l115 641c1.33301 10.667 7.33301 16 18 16h116
c12 0 17.333 -6.33301 16 -19zM339 214l19 110c5.33301 26.667 2.5 47.167 -8.5 61.5s-28.5 21.5 -52.5 21.5c-26 0 -50 -6.66699 -72 -20l-45 -257c17.333 -8 37.333 -12 60 -12c54.667 0 87.667 32 99 96z" />
    <glyph glyph-name="c" unicode="c" horiz-adv-x="451" 
d="M395 30c-51.333 -28.667 -108.667 -43 -172 -43c-68.667 0 -121 21.167 -157 63.5s-47.667 98.5 -35 168.5l22 124c10.667 61.333 38.5 108.5 83.5 141.5s100.167 49.5 165.5 49.5c57.333 0 108 -16 152 -48c8.66699 -6.66699 9.66699 -14.667 3 -24l-59 -76
c-6.66699 -7.33301 -14.667 -8.33301 -24 -3c-24 14 -49.667 21 -77 21c-53.333 0 -84.666 -25.667 -93.999 -77l-21 -118c-6 -30 -3.16699 -52.833 8.5 -68.5s30.167 -23.5 55.5 -23.5c30 0 61.333 9.66699 94 29c10.667 6.66699 18.667 4.66699 24 -6l39 -86
c5.33301 -10 2.66602 -18 -8.00098 -24z" />
    <glyph glyph-name="d" unicode="d" horiz-adv-x="539" 
d="M431 24c-61.333 -24.667 -128 -37 -200 -37s-126.5 21.833 -163.5 65.5s-49.833 99.167 -38.5 166.5l21 115c10.667 60 37 108.333 79 145s92.667 55 152 55c38 0 70.333 -7 97 -21l33 186c2 10.667 8 16 18 16h116c12.667 0 18 -6.33301 16 -19l-115 -654
c-1.33301 -9.33301 -6.33301 -15.333 -15 -18zM181 208c-6 -30.667 -3.66699 -53 7 -67s29.667 -21 57 -21s49.333 3.66699 66 11l45 258c-16.667 11.333 -38.667 17 -66 17c-49.333 0 -79.333 -30.333 -90 -91z" />
    <glyph glyph-name="e" unicode="e" horiz-adv-x="519" 
d="M54 342c11.333 62.667 39.832 110.335 85.499 143.002s100.167 49 163.5 49c68 0 120.167 -18.333 156.5 -55s48.166 -90 35.499 -160l-17 -97c-2 -10 -8 -15 -18 -15h-278l-3 -14c-10 -52.667 13 -79 69 -79c42 0 85.333 13.333 130 40
c10.667 7.33301 18.334 5.66602 23.001 -5.00098l41 -77c4.66699 -11.333 2.66699 -19.333 -6 -24c-59.333 -40.667 -129 -61 -209 -61c-67.333 0 -120.166 19.167 -158.499 57.5s-51.833 89.166 -40.5 152.499zM345.999 307.001l5 25.001
c4 21.333 0.833008 39.166 -9.5 53.499s-27.5 21.5 -51.5 21.5c-22 0 -40.5 -6.33301 -55.5 -19s-24.833 -30.667 -29.5 -54l-5 -27h146z" />
    <glyph glyph-name="f" unicode="f" horiz-adv-x="328" 
d="M369 593c-12 2 -26 3 -42 3c-41.333 0 -66.333 -23.333 -75 -70l-3 -20h88c12 0 17.333 -6.33301 16 -19l-16 -92c-2 -10.667 -8.33301 -16 -19 -16h-92l-65 -363c-1.33301 -10.667 -7.33301 -16 -18 -16h-116c-12.667 -0 -18 6.33301 -16 19l93 521
c22 125.333 95.667 188 221 188c26.667 0 47.667 -1.33301 63 -4c11.333 -2 16 -9 14 -21l-17 -95c-0.666992 -11.333 -6 -16.333 -16 -15z" />
    <glyph glyph-name="g" unicode="g" horiz-adv-x="539" 
d="M449 49c-16 -90.667 -44.166 -155.168 -84.499 -193.501s-103.5 -57.5 -189.5 -57.5c-74 0 -134.333 20 -181 60c-8.66699 6.66699 -9.33398 14.667 -2.00098 24l61 78c7.33301 9.33301 15.333 10.333 24 3c32 -20.667 69 -31 111 -31c60 0 96.333 32.333 109 97
c-31.333 -10 -61 -15 -89 -15c-64.667 0 -113 20.5 -145 61.5s-42 94.5 -30 160.5l17 95c12 68 41.333 118.833 88 152.5s104 50.5 172 50.5c72 0 139 -14 201 -42c9.33301 -5.33301 13 -12.666 11 -21.999zM184.001 222.999c-9.33301 -53.333 11.002 -80 61.002 -80
c31.333 0 55.666 6.33301 72.999 19l39 228c-12.667 8 -32.667 12 -60 12c-54.667 0 -86.334 -25.333 -95.001 -76z" />
    <glyph glyph-name="h" unicode="h" horiz-adv-x="545" 
d="M248 513c29.333 14 62.001 20.999 98.001 20.999c59.333 0 103.5 -21.167 132.5 -63.5s37.167 -100.166 24.5 -173.499l-50 -281c-1.33301 -10.667 -7.33301 -16 -18 -16h-115c-12.667 -0 -18 6.33301 -16 19l51 296c11.333 58.667 -9.33398 88 -62.001 88
c-22 0 -44.333 -5.66699 -67 -17l-65 -370c-2 -10.667 -8.33301 -16 -19 -16h-115c-12 -0 -17.333 6.33301 -16 19l121 680c1.33301 10.667 7.33301 16 18 16h115c12 0 17 -6.33301 15 -19z" />
    <glyph glyph-name="i" unicode="i" horiz-adv-x="258" 
d="M142 0h-116c-12 -0 -17 6.33301 -15 19l86 486c0.666992 10 6.66699 15 18 15h116c12.667 0 18 -6 16 -18l-86 -486c-2 -10.667 -8.33301 -16 -19 -16zM280 665c-4 -20.667 -14.168 -37.833 -30.501 -51.5s-35.5 -20.5 -57.5 -20.5c-25.333 0 -45.166 9 -59.499 27
s-18.833 40 -13.5 66c4 22 14 39.667 30 53s35.333 20 58 20c25.333 0 45 -9 59 -27s18.667 -40.333 14 -67z" />
    <glyph glyph-name="j" unicode="j" horiz-adv-x="266" 
d="M167 -1c-13.333 -74 -38.333 -126 -75 -156s-82.667 -45 -138 -45c-14 0 -29.667 1.33301 -47 4c-10.667 2 -15 9 -13 21l18 102c2 11.333 7.66699 16.333 17 15c5.33301 -0.666992 13.666 -1 24.999 -1c34.667 0 56.334 26 65.001 78l85 488c2 10 8.33301 15 19 15h116
c12 0 17 -6 15 -18zM287 665c-4 -20.667 -14.1699 -37.833 -30.5029 -51.5s-35.5 -20.5 -57.5 -20.5c-25.333 0 -45.166 9 -59.499 27s-18.833 40 -13.5 66c4.66699 22 14.834 39.667 30.501 53s34.834 20 57.501 20c25.333 0 45 -9 59 -27s18.667 -40.333 14 -67z" />
    <glyph glyph-name="k" unicode="k" horiz-adv-x="506" 
d="M385 520l137.001 -0.000976562c7.33301 0 12 -2.16699 14 -6.5s0.333008 -9.16602 -5 -14.499l-196 -201l129 -278c5.33301 -13.333 1 -20 -13 -20h-127c-10.667 0 -17.334 4.66699 -20.001 14l-75 177l-44 -42l-24 -133c-1.33301 -10.667 -7.33301 -16 -18 -16h-116
c-12 -0 -17.333 6.33301 -16 19l121 680c2 10.667 8 16 18 16h116c12.667 0 18 -6.33301 16 -19l-60 -340l142 155c4 6 11 9 21 9z" />
    <glyph glyph-name="l" unicode="l" horiz-adv-x="298" 
d="M234 -8c-15.333 -3.33301 -33 -5 -53 -5c-54 0 -94 19.5 -120 58.5s-33.333 91.167 -22 156.5l88 497c2 10.667 8 16 18 16h116c12 0 17 -6.33301 15 -19l-88 -502c-9.33301 -50 3.66699 -75 39 -75h20c6 0.666992 10.333 -0.333008 13 -3s3.66699 -7 3 -13l-16 -95
c-2 -10 -6.33301 -15.333 -13 -16z" />
    <glyph glyph-name="m" unicode="m" horiz-adv-x="800" 
d="M426 494c50 26.667 99.3311 40 147.998 40c68 0 118.667 -22.667 152 -68s44 -104 32 -176l-50 -274c-1.33301 -10.667 -7.33301 -16 -18 -16h-113c-12 -0 -17.333 6.33301 -16 19l51 292c10.667 61.333 -9.33301 92 -60 92c-23.333 0 -45.666 -6 -66.999 -18
c5.33301 -29.333 5 -61 -1 -95l-49 -274c-1.33301 -10.667 -7.33301 -16 -18 -16h-113c-12.667 -0 -18 6.33301 -16 19l51 292c10.667 61.333 -7.66602 92 -54.999 92c-22.667 0 -42 -4 -58 -12l-68 -375c-2 -10.667 -8 -16 -18 -16h-115c-12 -0 -17 6.33301 -15 19l83 457
c2 8.66699 7 14.667 15 18c62.667 26.667 127.334 40 194.001 40c49.333 0 90.666 -13.333 123.999 -40z" />
    <glyph glyph-name="n" unicode="n" horiz-adv-x="546" 
d="M142 0h-116.001c-12.667 -0 -18 6.33301 -16 19l82 457c2 8.66699 7 14.667 15 18c70 26.667 137.667 40 203 40c74 0 128 -21.667 162 -65s44.667 -101 32 -173l-50 -280c-2 -10.667 -8.33301 -16 -19 -16h-115c-12 -0 -17.333 6.33301 -16 19l50 292
c12 61.333 -9 92 -63 92c-25.333 0 -46.666 -4 -63.999 -12l-66 -375c-2 -10.667 -8.33301 -16 -19 -16z" />
    <glyph glyph-name="o" unicode="o" horiz-adv-x="535" 
d="M482 185c-11.333 -63.333 -39.333 -112.167 -84 -146.5s-103.667 -51.5 -177 -51.5c-66.667 0 -118.167 21.833 -154.5 65.5s-48.833 97.5 -37.5 161.5l21 124c11.333 60.667 40 108.5 86 143.5s103.667 52.5 173 52.5c67.333 0 119.5 -21.667 156.5 -65
s50.167 -96 39.5 -158zM179 198.999c-4.66699 -24.667 -1.83301 -44.332 8.5 -58.999s27.166 -22 50.499 -22c52.667 0 83.334 25 92.001 75l23 128c4 23.333 0.666992 42.833 -10 58.5s-27.667 23.5 -51 23.5c-24 0 -44 -6.83301 -60 -20.5s-26 -31.834 -30 -54.501z" />
    <glyph glyph-name="p" unicode="p" horiz-adv-x="539" 
d="M105 492c60.667 27.333 127.999 41 201.999 41c71.333 0 125.5 -21.833 162.5 -65.5s49.833 -99.167 38.5 -166.5l-20 -115c-10 -59.333 -36.167 -107.333 -78.5 -144s-93.166 -55 -152.499 -55c-38.667 0 -71 7.33301 -97 22l-33 -183
c-1.33301 -10.667 -7.33301 -16 -18 -16h-116c-12 0 -17 6.33301 -15 19l113 645c2 8.66699 6.66699 14.667 14 18zM338.999 206l18 106c6 32 3.66699 55 -7 69s-29.667 21 -57 21c-25.333 0 -47.333 -5 -66 -15l-45 -254c16.667 -12.667 38 -19 64 -19
c51.333 0 82.333 30.667 93 92z" />
    <glyph glyph-name="q" unicode="q" horiz-adv-x="538" 
d="M388 -190l-116 0.000976562c-12 0 -17.333 6.33301 -16 19l33 179c-28 -14 -60.333 -21 -97 -21c-55.333 0 -99.333 21.667 -132 65s-43 97.333 -31 162l19 105c12.667 68.667 41.667 121.667 87 159s103.333 56 174 56c74 0 141.333 -16 202 -48
c8.66699 -4.66699 12 -12.334 10 -23.001l-114 -637c-2 -10.667 -8.33301 -16 -19 -16zM179 197.001c-4.66699 -26.667 -1.33301 -47.167 10 -61.5s28 -21.5 50 -21.5c26 0 50 6 72 18l47 260c-18 7.33301 -39 11 -63 11c-52 0 -84 -32 -96 -96z" />
    <glyph glyph-name="r" unicode="r" horiz-adv-x="359" 
d="M143 0h-116.001c-12.667 -0 -18 6.33301 -16 19l79 454c2 8.66699 7 15 15 19c60 28 121.667 42 185 42c26.667 0 54.334 -3 83.001 -9c11.333 -2 16 -8.66699 14 -20l-18 -98c-1.33301 -11.333 -8 -16.333 -20 -15c-18.667 3.33301 -38 5 -58 5
c-24 0 -45.667 -4 -65 -12l-65 -369c-2 -10.667 -8 -16 -18 -16z" />
    <glyph glyph-name="s" unicode="s" horiz-adv-x="482" 
d="M437 142c-10 -51.333 -35.334 -90.001 -76.001 -116.001s-93.334 -39 -158.001 -39c-80.667 0 -148.334 22.333 -203.001 67c-8.66699 6.66699 -9.66699 14.667 -3 24l57 78c6.66699 8.66699 14.667 10 24 4c38.667 -28.667 82 -43 130 -43c46 0 71.667 12.667 77 38
c2 10 -0.333008 18.167 -7 24.5s-14.167 10.833 -22.5 13.5s-21.166 6 -38.499 10c-53.333 10.667 -95 31.834 -125 63.501s-39.667 72.834 -29 123.501c20 96 95.333 144 226 144c64 0 122.667 -15.333 176 -46c10 -6 11.333 -14 4 -24l-59 -79
c-5.33301 -8.66699 -13.333 -10.334 -24 -5.00098c-31.333 18 -68.333 27 -111 27c-39.333 0 -60.666 -11 -63.999 -33c-2.66699 -14 1.83301 -24.167 13.5 -30.5s31.834 -12.833 60.501 -19.5c48 -10.667 87.667 -30.5 119 -59.5s42.333 -69.833 33 -122.5z" />
    <glyph glyph-name="t" unicode="t" horiz-adv-x="328" 
d="M303 381l-82.002 0.000976562l-34 -193c-8 -46 8.33301 -69 49 -69h27c6 0.666992 10.5 -0.5 13.5 -3.5s3.83301 -7.5 2.5 -13.5l-16 -93c-2 -10.667 -7.66699 -16.334 -17 -17.001c-16.667 -3.33301 -33.667 -5 -51 -5c-58 0 -101.667 18 -131 54
s-37.666 89 -24.999 159l75 429c2 10.667 8.33301 16 19 16h98c12.667 0 18.334 -6 17.001 -18l-6 -119h80c12.667 0 18 -6.33301 16 -19l-16 -92c-2 -10.667 -8.33301 -16 -19 -16z" />
    <glyph glyph-name="u" unicode="u" horiz-adv-x="541" 
d="M400 520h117.001c12 0 17 -6 15 -18l-81 -457c-2 -8.66699 -7 -14.667 -15 -18c-64.667 -26 -131.667 -39 -201 -39c-73.333 0 -126.833 21.5 -160.5 64.5s-44.167 100.167 -31.5 171.5l50 281c2 10 8 15 18 15h116c12 0 17 -6 15 -18l-50 -293
c-10.667 -60.667 9.66602 -91 60.999 -91c24 0 44.667 3.66699 62 11l67 376c1.33301 10 7.33301 15 18 15z" />
    <glyph glyph-name="v" unicode="v" horiz-adv-x="510" 
d="M277 0h-132.001c-12 -0 -18.333 5.33301 -19 16l-77 486c-1.33301 12 4.33398 18 17.001 18h116c11.333 0 17.333 -5.33301 18 -16l24 -215c4.66699 -42 8.66699 -86 12 -132h2l25 61.5l29 71.5l95 217c4.66699 8.66699 11.667 13 21 13h124
c14.667 0 18.667 -6.66699 12 -20l-247 -487c-4 -8.66699 -10.667 -13 -20 -13z" />
    <glyph glyph-name="w" unicode="w" horiz-adv-x="742" 
d="M241 0l-127 -0.000976562c-11.333 0 -17.333 5.33301 -18 16l-44 486c-1.33301 12 4.33398 18 17.001 18h115c12 0 18 -5.66699 18 -17l4 -164c1.33301 -58.667 2 -114.667 2 -168h4c20 63.333 39.333 119 58 167l64 162c4 8.66699 10.667 13 20 13h119
c11.333 0 17 -5.33301 17 -16l8 -160c2.66699 -71.333 3.66699 -126.666 3 -165.999h4c6 19.333 26 76 60 170l61 166c4 8.66699 10.667 13 20 13h115c15.333 0 19.666 -6.33301 12.999 -19l-214 -488c-4 -8.66699 -11 -13 -21 -13h-125c-10.667 0 -16.667 5.66699 -18 17
l-7 166c0 9.33301 -0.333008 32.833 -1 70.5s-1.33398 63.167 -2.00098 76.5h-3c-14.667 -48 -32 -97 -52 -147l-71 -169c-3.33301 -9.33301 -9.66602 -14 -18.999 -14z" />
    <glyph glyph-name="x" unicode="x" horiz-adv-x="491" 
d="M374 520l126 0.000976562c7.33301 0 12 -2 14 -6s1 -8.66699 -3 -14l-170 -241l93 -239c5.33301 -13.333 0.666016 -20 -14.001 -20h-123c-10 0 -16.333 5 -19 15l-45 145l-100 -148c-4.66699 -8 -11.667 -12 -21 -12h-130c-7.33301 0 -12.166 2.16699 -14.499 6.5
s-1.5 9.16602 2.5 14.499l183 249l-85 231c-4 12.667 0.333008 19 13 19h121c10 0 16.333 -4.66699 19 -14l40 -149l93 152c4 7.33301 10.667 11 20 11z" />
    <glyph glyph-name="y" unicode="y" horiz-adv-x="539" 
d="M316 159l61.002 346c2 10 8.33301 15 19 15h115c12 0 17.333 -6 16 -18l-80 -453c-16 -90 -44.833 -154.333 -86.5 -193s-103.167 -58 -184.5 -58c-75.333 0 -135.333 19.333 -180 58c-8.66699 6.66699 -9.33398 14.667 -2.00098 24l62 79c6 8.66699 14.333 10 25 4
c30 -21.333 65.667 -32 107 -32c32 0 56.5 7.66699 73.5 23s28.167 40.333 33.5 75c-30 -10 -58.333 -15 -85 -15c-61.333 0 -107.333 20.833 -138 62.5s-40.334 96.167 -29.001 163.5l48 265c0.666992 10 6.66699 15 18 15h115c12.667 0 18 -6 16 -18l-50 -276
c-10.667 -56 9 -84 59 -84c26 0 48.333 5.66699 67 17z" />
    <glyph glyph-name="z" unicode="z" horiz-adv-x="480" 
d="M388 0h-385c-12.667 -0 -18 6.33301 -16 19l12 65c2 7.33301 5.33301 14 10 20l253 288h-177c-12 0 -17 6 -15 18l18 95c1.33301 10 7.33301 15 18 15h365c12 0 17 -6 15 -18l-10 -61c-2 -7.33301 -5.33301 -14 -10 -20l-253 -291h196c12 0 17 -6.33301 15 -19l-18 -95
c-1.33301 -10.667 -7.33301 -16 -18 -16z" />
    <glyph glyph-name="braceleft" unicode="{" horiz-adv-x="332" 
d="M221 -116h-48.002c-44 0 -76.167 13.833 -96.5 41.5s-26.166 66.834 -17.499 117.501l28 161c11.333 56 0 87.667 -34 95c-12 2 -17 8.33301 -15 19l12 79c0.666992 8.66699 6.66699 14 18 16c20.667 4.66699 37.334 17 50.001 37s21 43 25 69l28 160
c9.33301 54 26.333 92.333 51 115s61 34 109 34h53c12 0 17.333 -6.33301 16 -19l-16 -93c-2 -10 -8.33301 -15 -19 -15h-17c-12.667 0 -23.667 -4.5 -33 -13.5s-15.333 -21.5 -18 -37.5l-29 -161c-5.33301 -32.667 -17.333 -61.334 -36 -86.001s-40.667 -41.667 -66 -51
c18.667 -7.33301 33.667 -24.5 45 -51.5s14 -56.5 8 -88.5l-28 -161c-2.66699 -14.667 -2 -25 2 -31s12 -9 24 -9h24c12 0 17 -6.33301 15 -19l-17 -93c-0.666992 -10 -6.66699 -15 -18 -15z" />
    <glyph glyph-name="bar" unicode="|" horiz-adv-x="268" 
d="M118 -139h-105c-12.667 0 -18 6.33301 -16 19l170 965c2 10.667 8.33301 16 19 16h105c12 0 17 -6.33301 15 -19l-170 -965c-2 -10.667 -8 -16 -18 -16z" />
    <glyph glyph-name="braceright" unicode="}" horiz-adv-x="331" 
d="M144 829h48.002c44 0 76.167 -13.833 96.5 -41.5s26.166 -66.834 17.499 -117.501l-28 -161c-11.333 -56 0 -87.667 34 -95c12 -2 17 -8.33301 15 -19l-12 -79c-0.666992 -8.66699 -6.66699 -14 -18 -16c-20.667 -4.66699 -37.334 -17 -50.001 -37s-21 -43 -25 -69
l-28 -160c-9.33301 -54 -26.333 -92.333 -51 -115s-61 -34 -109 -34h-53c-12 0 -17.333 6.33301 -16 19l16 93c2 10 8.33301 15 19 15h17c12.667 0 23.667 4.5 33 13.5s15.333 21.5 18 37.5l29 161c5.33301 32.667 17.333 61.334 36 86.001s40.667 41.667 66 51
c-18.667 7.33301 -33.667 24.5 -45 51.5s-14 56.5 -8 88.5l28 161c2.66699 14.667 2 25 -2 31s-12 9 -24 9h-24c-12 0 -17 6.33301 -15 19l17 93c1.33301 10 7.33301 15 18 15z" />
    <glyph glyph-name="asciitilde" unicode="~" 
d="M556 296c-38 -42 -82.667 -63 -134 -63c-29.333 0 -61.5 7.66699 -96.5 23s-61.833 23 -80.5 23c-30 0 -55.333 -9.66699 -76 -29c-9.33301 -8.66699 -17.666 -8.33398 -24.999 0.999023l-56 70c-7.33301 8 -7 16 1 24c36 44.667 82 67 138 67
c28 0 60.333 -7.66699 97 -23s63.667 -23 81 -23c29.333 0 54 9.33301 74 28c9.33301 8.66699 17.666 8.33398 24.999 -0.999023l55 -70c6.66699 -8.66699 5.66699 -17.667 -3 -27z" />
    <glyph glyph-name="exclamdown" unicode="&#xa1;" horiz-adv-x="259" 
d="M109 -193h-111.999c-12 0 -17.333 6.33301 -16 19l30 169l61 288c1.33301 10.667 7.66602 16 18.999 16h91c12.667 0 18 -6 16 -18l-40 -286l-31 -172c-2 -10.667 -8 -16 -18 -16zM248.001 434c-4.66699 -23.333 -15.333 -42.002 -32 -56.002s-37 -21 -61 -21
c-26.667 0 -47.334 9.33301 -62.001 28s-19.334 42.334 -14.001 71.001c4 22.667 14.5 41.334 31.5 56.001s37.5 22 61.5 22c26.667 0 47.334 -9.66699 62.001 -29s19.334 -43 14.001 -71z" />
    <glyph glyph-name="cent" unicode="&#xa2;" horiz-adv-x="478" 
d="M240 -107h-74.0029c-12 0 -17 6.33301 -15 19l14 83c-48 12.667 -83.5 38.834 -106.5 78.501s-29.5 88.167 -19.5 145.5l22 124c9.33301 52 31.5 94.167 66.5 126.5s78.5 52.5 130.5 60.5l14 81c2 10 8 15 18 15h74c12 0 17.333 -6 16 -18l-14 -80
c35.333 -6.66699 67.333 -20.667 96 -42c9.33301 -6.66699 10.333 -14.667 3 -24l-58 -76c-6.66699 -8 -15 -9 -25 -3c-24 14 -49.333 21 -76 21c-54 0 -85.667 -25.667 -95 -77l-21 -118c-5.33301 -30 -2.16602 -52.833 9.50098 -68.5s29.834 -23.5 54.501 -23.5
c30.667 0 62.334 9.66699 95.001 29c11.333 6.66699 19 4.66699 23 -6l40 -86c4 -10.667 1.66699 -18.334 -7 -23.001c-42 -24 -86.333 -38 -133 -42l-14 -80c-1.33301 -10.667 -7.33301 -16 -18 -16z" />
    <glyph glyph-name="sterling" unicode="&#xa3;" horiz-adv-x="538" 
d="M443 0h-428c-12 -0 -17.333 6.33301 -16 19l16 91c1.33301 8 7.33301 13.667 18 17c40.667 9.33301 66 45 76 107l11 64h-52c-12.667 0 -18 6.33301 -16 19l17 93c2 10.667 8 16 18 16h57l18 93c11.333 66 37 117.333 77 154s91.667 55 155 55c70 0 126.333 -20 169 -60
c8 -8 8.33301 -16 1 -24l-64 -73c-7.33301 -7.33301 -15.666 -8 -24.999 -2c-26.667 18.667 -56.667 28 -90 28c-23.333 0 -42.333 -7.83301 -57 -23.5s-24.334 -37.5 -29.001 -65.5l-15 -82h125c12.667 0 18 -6.33301 16 -19l-17 -93c-2 -10.667 -8 -16 -18 -16h-127
l-12 -67c-10 -50 -31.667 -84.333 -65 -103h277c12 0 17 -6.33301 15 -19l-17 -93c-1.33301 -10.667 -7.33301 -16 -18 -16z" />
    <glyph glyph-name="currency" unicode="&#xa4;" horiz-adv-x="614" 
d="M405 136c-40 -20.667 -81.999 -31.001 -125.999 -31.001s-81.667 9.66699 -113 29l-66 -58c-8 -8 -16.333 -7.33301 -25 2l-43 56c-7.33301 9.33301 -6.66602 17.666 2.00098 24.999l64 56c-15.333 38 -18.666 82.667 -9.99902 134c8 46 25.333 87 52 123l-40 51
c-8 8.66699 -7.33301 16.667 2 24l67 59c9.33301 9.33301 17.666 9 24.999 -1l39 -50c39.333 20.667 81.333 31 126 31c48 0 88.333 -11.667 121 -35l64 56c9.33301 8 17.666 7.33301 24.999 -2l44 -55c6 -9.33301 5.33301 -17.666 -2 -24.999l-69 -60
c13.333 -35.333 15.666 -76 6.99902 -122c-8 -48 -25.333 -89.667 -52 -125l47 -59c7.33301 -8.66699 6.33301 -16.667 -3 -24l-66 -59c-10 -7.33301 -18.333 -6.66602 -25 2.00098zM208.001 345.999c-6.66699 -35.333 -1.49805 -63.833 15.502 -85.5
s41.833 -32.5 74.5 -32.5s61.5 11.167 86.5 33.5s40.167 50.5 45.5 84.5c5.33301 35.333 -0.333984 63.833 -17.001 85.5s-41.334 32.5 -74.001 32.5c-32 0 -60.333 -11.167 -85 -33.5s-40 -50.5 -46 -84.5z" />
    <glyph glyph-name="yen" unicode="&#xa5;" horiz-adv-x="622" 
d="M327 0h-122.001c-12 -0 -17 6.33301 -15 19l13 69h-108c-12 0 -17 6.33301 -15 19l12 70c2 10 8 15 18 15h111l10 50h-109c-12 0 -17 6.33301 -15 19l11 70c2 10 8.33301 15 19 15h65l-101 350c-3.33301 12.667 1.33398 19 14.001 19h127c10.667 0 17 -5 19 -15l69 -314
h3l167 316c4 8.66699 10.667 13 20 13h139c6.66699 0 11.167 -2 13.5 -6s1.83301 -9 -1.5 -15l-219 -348h56c12 0 17 -6 15 -18l-12 -70c-2 -10.667 -8 -16 -18 -16h-106l-9 -50h103c12 0 17 -6 15 -18l-12 -70c-1.33301 -10.667 -7.33301 -16 -18 -16h-106l-15 -72
c-0.666992 -10.667 -6.66699 -16 -18 -16z" />
    <glyph glyph-name="brokenbar" unicode="&#xa6;" horiz-adv-x="271" 
d="M217 414h-106c-12 0 -17 6.33301 -15 19l73 412c2 10.667 8 16 18 16h105c12.667 0 18 -6.33301 16 -19l-73 -412c-2 -10.667 -8 -16 -18 -16zM120 -139h-106c-12 0 -17.333 6.33301 -16 19l74 413c1.33301 10.667 7.33301 16 18 16h105c12 0 17.333 -6.33301 16 -19
l-73 -413c-2 -10.667 -8 -16 -18 -16z" />
    <glyph glyph-name="section" unicode="&#xa7;" horiz-adv-x="498" 
d="M412 6c-10.667 -56.667 -36.501 -101.001 -77.501 -133.001s-90.833 -48 -149.5 -48c-44 0 -82.5 9.5 -115.5 28.5s-58.167 43.833 -75.5 74.5c-5.33301 9.33301 -3.66602 17 5.00098 23l78 61c8.66699 6.66699 16.667 5 24 -5c22 -32 52.667 -48 92 -48
c20 0 37.5 5.5 52.5 16.5s24.167 25.833 27.5 44.5c2 13.333 -2.83301 25.5 -14.5 36.5s-27 20.167 -46 27.5s-39.5 16.666 -61.5 27.999s-42.167 23.5 -60.5 36.5s-32.5 31.167 -42.5 54.5s-12.333 50.333 -7 81c10 61.333 43.667 107 101 137
c-30 37.333 -40.667 82.333 -32 135c9.33301 54 35 96.167 77 126.5s90 45.5 144 45.5c58.667 0 108.667 -19.667 150 -59c7.33301 -8.66699 7 -17 -1 -25l-69 -63c-6.66699 -6.66699 -14.667 -6.66699 -24 0c-20.667 13.333 -44.667 20 -72 20c-20 0 -36.5 -5 -49.5 -15
s-20.833 -23.667 -23.5 -41c-2 -16 2.83301 -30.5 14.5 -43.5s26.834 -23.333 45.501 -31s38.667 -17.167 60 -28.5s40.666 -23.166 57.999 -35.499s30.5 -30 39.5 -53s10.5 -49.833 4.5 -80.5c-10 -53.333 -40 -96.666 -90 -129.999c36 -32 48.667 -77.667 38 -137z
M173.999 292.999c-4 -22 2.33105 -39.833 18.998 -53.5s45.334 -25.5 86.001 -35.5c27.333 16 44 38.667 50 68c2.66699 17.333 -3.66602 32 -18.999 44s-42.333 24.333 -81 37c-30.667 -15.333 -49 -35.333 -55 -60z" />
    <glyph glyph-name="dieresis" unicode="&#xa8;" horiz-adv-x="349" 
d="M213 671c-4 -22 -13.167 -39.333 -27.5 -52s-31.833 -19 -52.5 -19s-36.667 7 -48 21s-15 32.333 -11 55c4 22 13.5 39.167 28.5 51.5s32.833 18.5 53.5 18.5s36.5 -7 47.5 -21s14.167 -32 9.5 -54zM421 671c-4 -22 -12.999 -39.333 -26.999 -52s-31.333 -19 -52 -19
s-36.834 6.83301 -48.501 20.5s-15.5 32.167 -11.5 55.5c4 22 13.5 39.167 28.5 51.5s32.833 18.5 53.5 18.5s36.5 -7 47.5 -21s14.167 -32 9.5 -54z" />
    <glyph glyph-name="copyright" unicode="&#xa9;" horiz-adv-x="779" 
d="M754 346c-19.333 -111.333 -67.001 -199 -143.001 -263s-163.667 -96 -263 -96c-98 0 -176.167 33.833 -234.5 101.5s-77.5 156.167 -57.5 265.5c20 116 68.833 207.333 146.5 274s166.834 100 267.501 100c96 0 172.167 -35.167 228.5 -105.5s74.833 -162.5 55.5 -276.5
zM128.999 352c-16.667 -92.667 -2.66699 -164.5 42 -215.5s108 -76.5 190 -76.5c77.333 0 146.333 25.667 207 77s98.667 122.333 114 213c16.667 97.333 3.5 172.333 -39.5 225s-104.5 79 -184.5 79s-151 -26.5 -213 -79.5s-100.667 -127.167 -116 -222.5zM514.999 193
c-38 -30 -84.001 -45 -138.001 -45c-45.333 0 -82 14.167 -110 42.5s-37.333 67.5 -28 117.5l16 87c9.33301 51.333 31.333 90.333 66 117s76 40 124 40c46 0 84.333 -14.333 115 -43c8 -6.66699 8 -14.667 0 -24l-49 -57c-6.66699 -7.33301 -14.667 -8 -24 -2
c-16 14 -35 21 -57 21c-36 0 -57.333 -19 -64 -57l-14 -79c-7.33301 -38 7.66699 -57 45 -57c24.667 0 48.334 7.66699 71.001 23c10 7.33301 17.667 5.33301 23 -6l28 -55c5.33301 -9.33301 4 -17 -4 -23z" />
    <glyph glyph-name="guillemotleft" unicode="&#xab;" horiz-adv-x="558" 
d="M254 71h-106.999c-9.33301 0 -16.333 4.33301 -21 13l-91 194c-4.66699 8.66699 -4 16.667 2 24l162 199c5.33301 6.66699 12.333 10 21 10h110c7.33301 0 12 -2.16699 14 -6.5s0.666992 -9.5 -4 -15.5l-166 -198l94 -199c5.33301 -14 0.666016 -21 -14.001 -21z
M479.001 71h-106.999c-9.33301 0 -16.333 4.33301 -21 13l-91 194c-4.66699 8.66699 -4 16.667 2 24l162 199c5.33301 6.66699 12.333 10 21 10h110c7.33301 0 12 -2.16699 14 -6.5s0.666992 -9.5 -4 -15.5l-166 -198l94 -199c5.33301 -14 0.666016 -21 -14.001 -21z" />
    <glyph glyph-name="logicalnot" unicode="&#xac;" 
d="M499 128h-96c-12 0 -17 6.33301 -15 19l25 138h-316c-12 0 -17 6.33301 -15 19l17 97c0.666992 10 6.66699 15 18 15h430c12 0 17 -6.33301 15 -19l-45 -253c-1.33301 -10.667 -7.33301 -16 -18 -16z" />
    <glyph glyph-name="registered" unicode="&#xae;" horiz-adv-x="475" 
d="M483 515c-11.333 -63.333 -38.8301 -113.002 -82.4971 -149.002s-95.834 -54 -156.501 -54c-52.667 0 -95.834 19.833 -129.501 59.5s-44.834 90.834 -33.501 153.501c12 62.667 40 112.167 84 148.5s95.333 54.5 154 54.5c54 0 97.667 -19.667 131 -59
s44.333 -90.666 33 -153.999zM128.003 521.998c-9.33301 -52 -1.83203 -92.666 22.501 -121.999s58.833 -44 103.5 -44s84 14.667 118 44s55.667 69.666 65 120.999c9.33301 52.667 1.83301 93.167 -22.5 121.5s-58.833 42.5 -103.5 42.5c-44 0 -83.333 -14.5 -118 -43.5
s-56.334 -68.833 -65.001 -119.5zM231.004 421.999h-28.001c-4.66699 0 -6.66699 2 -6 6l33 191c0.666992 4.66699 3.33398 7 8.00098 7h71c22 0 39 -5.83301 51 -17.5s16 -28.5 12 -50.5c-6 -35.333 -25.667 -56 -59 -62l38 -68c2.66699 -4 1.33398 -6 -3.99902 -6h-34
c-4.66699 0 -7.66699 1.66699 -9 5l-33 66h-21l-11 -65c-0.666992 -4 -3.33398 -6 -8.00098 -6zM266.003 585.999l-9 -54h33c23.333 0 36.333 9.33301 39 28c2.66699 17.333 -6.33301 26 -27 26h-36z" />
    <glyph glyph-name="macron" unicode="&#xaf;" horiz-adv-x="303" 
d="M67 631l13 69c1.33301 10.667 7.33301 16 18 16h263c12 0 17 -6.33301 15 -19l-13 -69c-2 -10.667 -8 -16 -18 -16h-262c-12.667 0 -18 6.33301 -16 19z" />
    <glyph glyph-name="degree" unicode="&#xb0;" horiz-adv-x="375" 
d="M397 563c-8.66699 -48.667 -29.8311 -87.167 -63.498 -115.5s-74.167 -42.5 -121.5 -42.5c-45.333 0 -80.333 15 -105 45s-32.667 69.667 -24 119s30 87.333 64 114s74.667 40 122 40c45.333 0 80.166 -14.333 104.499 -43s32.166 -67.667 23.499 -117zM176.003 566
c-4 -22.667 -0.831055 -39.498 9.50195 -50.498s25.166 -16.5 44.499 -16.5c18.667 0 34.834 5.66699 48.501 17s22.5 28 26.5 50c3.33301 21.333 0.166016 37.166 -9.50098 47.499s-23.834 15.5 -42.501 15.5c-19.333 0 -36 -5.33301 -50 -16s-23 -26.334 -27 -47.001z" />
    <glyph glyph-name="plusminus" unicode="&#xb1;" 
d="M355 207h-98c-12.667 0 -18 6.33301 -16 19l24 135h-148c-12 0 -17 6.33301 -15 19l19 102c2 10 8 15 18 15h149l25 140c2 10.667 8.33301 16 19 16h98c12 0 17 -6.33301 15 -19l-24 -137h147c12 0 17 -6.33301 15 -19l-18 -102c-2 -10 -8 -15 -18 -15h-150l-24 -138
c-1.33301 -10.667 -7.33301 -16 -18 -16zM493 30h-431c-12 0 -17 6.33301 -15 19l16 91c2 10.667 8 16 18 16h430c12 0 17.333 -6.33301 16 -19l-16 -91c-2 -10.667 -8 -16 -18 -16z" />
    <glyph glyph-name="two.sups" unicode="&#xb2;" horiz-adv-x="320" 
d="M308 410l-242.999 0.000976562c-12.667 0 -18 6.33301 -16 19l9 54c2 8 6 14.667 12 20l124 98c43.333 34.667 66.666 61.667 69.999 81c4 20 -5.33301 30 -28 30s-47.334 -9 -74.001 -27c-10.667 -8.66699 -19 -7 -25 5l-23 43c-4 10 -2 18 6 24
c42.667 30.667 87.334 46 134.001 46c40 0 70.167 -11.833 90.5 -35.5s27.5 -52.5 21.5 -86.5c-3.33301 -20.667 -12 -40.5 -26 -59.5s-36 -42.167 -66 -69.5c-18.667 -16.667 -40 -32.334 -64 -47.001h112c12 0 17 -6.33301 15 -19l-11 -60
c-1.33301 -10.667 -7.33301 -16 -18 -16z" />
    <glyph glyph-name="three.sups" unicode="&#xb3;" horiz-adv-x="328" 
d="M355 534c-7.33301 -40.667 -26.1699 -72.332 -56.5029 -94.999s-68.5 -34 -114.5 -34c-54.667 0 -97.667 18.333 -129 55c-6.66699 7.33301 -6.33398 15.333 0.999023 24l42 45c8 8 16.333 7.66699 25 -1c19.333 -18 42.333 -27 69 -27c37.333 0 59 16 65 48
c2.66699 13.333 0 23.666 -8 30.999s-20.667 11 -38 11c-5.33301 0 -13.333 -0.666992 -24 -2c-12 -2 -19 2.33301 -21 13l-5 20c-2 8 0.666992 15.333 8 22l24 24c20.667 18.667 38.334 32.667 53.001 42h-117c-12 0 -17 6.33301 -15 19l10 53
c1.33301 10.667 7.33301 16 18 16h226c12.667 0 18 -6.33301 16 -19l-6 -36c-1.33301 -7.33301 -5.66602 -14 -12.999 -20l-92 -76c6.66699 0 13.667 -0.666992 21 -2c22.667 -5.33301 39.834 -17.5 51.501 -36.5s14.834 -43.833 9.50098 -74.5z" />
    <glyph glyph-name="acute" unicode="&#xb4;" horiz-adv-x="272" 
d="M166 595l-78 0.000976562c-7.33301 0 -12 2.16699 -14 6.5s-0.666992 9.16602 4 14.499l107 132c6 6.66699 13.333 10 22 10h104c7.33301 0 12 -2.33301 14 -7s0.333008 -9.66699 -5 -15l-133 -132c-5.33301 -6 -12.333 -9 -21 -9z" />
    <glyph glyph-name="paragraph" unicode="&#xb6;" horiz-adv-x="723" 
d="M321 -139h-105c-12.667 0 -18 6.33301 -16 19l59 330c-72 0 -126.333 24.667 -163 74s-48.334 111.333 -35.001 186c12.667 70.667 46.334 129.167 101.001 175.5s121 69.5 199 69.5h348c12 0 17.333 -6.33301 16 -19l-144 -819c-1.33301 -10.667 -7.33301 -16 -18 -16
h-106c-12 0 -17 6.33301 -15 19l121 692h-102l-122 -695c-2 -10.667 -8 -16 -18 -16z" />
    <glyph glyph-name="periodcentered" unicode="&#xb7;" horiz-adv-x="251" 
d="M218 306c-4 -23.333 -14.502 -42.166 -31.502 -56.499s-38.167 -21.5 -63.5 -21.5c-26.667 0 -47.5 9.66699 -62.5 29s-19.833 43 -14.5 71c4.66699 23.333 15.334 42.166 32.001 56.499s37.334 21.5 62.001 21.5c27.333 0 48.333 -9.5 63 -28.5s19.667 -42.833 15 -71.5
z" />
    <glyph glyph-name="cedilla" unicode="&#xb8;" horiz-adv-x="177" 
d="M133 -131c-9.33301 -52.667 -55 -78.998 -137 -78.998c-23.333 0 -43 2.66699 -59 8c-10 2 -14.333 8.66699 -13 20l4 33c2 10.667 9 14.334 21 11.001c8.66699 -2 18 -3 28 -3c34.667 0 53.334 10 56.001 30c1.33301 7.33301 -0.666992 13.166 -6 17.499
s-14.333 7.16602 -27 8.49902c-10 1.33301 -17 5.66602 -21 12.999c-1.33301 1.33301 0.666992 6 6 14l28 51c4 8 11 12 21 12h35c6.66699 0 11.167 -2.16699 13.5 -6.5s1.83301 -9.16602 -1.5 -14.499l-18 -29c24.667 -2.66699 43.667 -11.834 57 -27.501
s17.666 -35.167 12.999 -58.5z" />
    <glyph glyph-name="one.sups" unicode="&#xb9;" horiz-adv-x="240" 
d="M208 410h-63.998c-12 0 -17.333 6.33301 -16 19l44 249l-37 -23c-10 -6 -17.667 -4 -23 6l-25 50c-4.66699 10 -2.33398 17.667 6.99902 23l95 58c7.33301 4 14.666 6 21.999 6h63c12 0 17.333 -6.33301 16 -19l-63 -353c-2 -10.667 -8.33301 -16 -19 -16z" />
    <glyph glyph-name="guillemotright" unicode="&#xbb;" horiz-adv-x="557" 
d="M89 511h106.999c9.33301 0 16.333 -4.33301 21 -13l91 -194c4.66699 -8.66699 4 -16.667 -2 -24l-162 -199c-5.33301 -6.66699 -12.333 -10 -21 -10h-110c-7.33301 0 -12 2.16699 -14 6.5s-0.666992 9.5 4 15.5l166 198l-94 199c-5.33301 14 -0.666016 21 14.001 21z
M313.999 511h106.999c9.33301 0 16.333 -4.33301 21 -13l91 -194c4.66699 -8.66699 4 -16.667 -2 -24l-162 -199c-5.33301 -6.66699 -12.333 -10 -21 -10h-110c-7.33301 0 -12 2.16699 -14 6.5s-0.666992 9.5 4 15.5l166 198l-94 199c-5.33301 14 -0.666016 21 14.001 21z
" />
    <glyph glyph-name="onequarter" unicode="&#xbc;" horiz-adv-x="866" 
d="M212 327h-64.001c-12 0 -17 6.33301 -15 19l44 249l-38 -23c-10 -6.66699 -17.667 -4.66699 -23 6l-24 50c-5.33301 9.33301 -3.33301 17 6 23l96 58c7.33301 4 14.333 6 21 6h63c12.667 0 18 -6.33301 16 -19l-63 -353c-1.33301 -10.667 -7.66602 -16 -18.999 -16z
M722.999 694l-523 -683c-5.33301 -7.33301 -12.333 -11 -21 -11h-69c-7.33301 0 -12 2 -14 6s-1 9 3 15l524 683c5.33301 7.33301 12.333 11 21 11h68c7.33301 0 12 -2 14 -6s1 -9 -3 -15zM782.999 157h20.999c10.667 0 15 -6.33301 13 -19l-10 -57
c-2 -10.667 -8.33301 -16 -19 -16h-22l-8 -49c-2 -10.667 -8.33301 -16 -19 -16h-66c-12 -0 -17 6.33301 -15 19l8 46h-159c-12.667 0 -18 6.33301 -16 19l9 52c0.666992 6 3.33398 13 8.00098 21l149 220c4.66699 7.33301 12 11 22 11h68c7.33301 0 12 -2 14 -6
s1 -9 -3 -15l-141 -210h67l15 59c2 9.33301 8.33301 14 19 14h59c12 0 17.333 -6.33301 16 -19z" />
    <glyph glyph-name="onehalf" unicode="&#xbd;" horiz-adv-x="823" 
d="M211 327h-64.001c-12 0 -17 6.33301 -15 19l44 249l-38 -23c-10 -6.66699 -17.667 -4.66699 -23 6l-24 50c-5.33301 9.33301 -3.33301 17 6 23l96 58c6.66699 4 13.667 6 21 6h63c12.667 0 18 -6.33301 16 -19l-63 -353c-1.33301 -10.667 -7.66602 -16 -18.999 -16z
M710.999 694l-523 -683c-5.33301 -7.33301 -12.333 -11 -21 -11h-69c-7.33301 0 -12 2 -14 6s-1 9 3 15l524 683c5.33301 7.33301 12.333 11 21 11h68c7.33301 0 12 -2 14 -6s1 -9 -3 -15zM722.999 0h-242c-12.667 -0 -18 6.33301 -16 19l9 54c2 8 6 14.667 12 20l124 98
c43.333 34.667 66.666 61.667 69.999 81c4 20 -5.33301 30 -28 30s-47.334 -9 -74.001 -27c-11.333 -9.33301 -19.666 -7.66602 -24.999 5.00098l-23 43c-4 10.667 -2 18.667 6 24c42.667 30.667 87.334 46 134.001 46c40 0 70.167 -11.833 90.5 -35.5
s27.5 -52.5 21.5 -86.5c-3.33301 -20.667 -12 -40.5 -26 -59.5s-36 -42.167 -66 -69.5c-22 -18.667 -43.333 -34.334 -64 -47.001h111c12.667 0 18 -6.33301 16 -19l-11 -60c-2 -10.667 -8.33301 -16 -19 -16z" />
    <glyph glyph-name="threequarters" unicode="&#xbe;" horiz-adv-x="933" 
d="M355 452c-7.33301 -40.667 -26.167 -72.499 -56.5 -95.499s-68.5 -34.5 -114.5 -34.5c-54 0 -97 18.667 -129 56c-6.66699 7.33301 -6.33398 15.333 0.999023 24l42 44c7.33301 8 15.666 8 24.999 0c18.667 -18.667 41.667 -28 69 -28c37.333 0 59 16 65 48
c2.66699 14 0 24.5 -8 31.5s-20.667 10.5 -38 10.5c-10.667 0 -18.667 -0.666992 -24 -2c-12 -2 -19 2.33301 -21 13l-5 20c-2 8 0.666992 15.667 8 23l72 66h-112c-12 0 -17 6.33301 -15 19l10 53c1.33301 10 7.33301 15 18 15h226c12.667 0 18 -6.33301 16 -19l-6 -35
c-2 -8.66699 -6.33301 -15.334 -13 -20.001l-92 -76c6.66699 0 13.667 -1 21 -3c22.667 -5.33301 39.834 -17.5 51.501 -36.5s14.834 -43.5 9.50098 -73.5zM799.999 694.001l-523 -683c-5.33301 -7.33301 -12.333 -11 -21 -11h-69c-7.33301 0 -12 2 -14 6s-1 9 3 15l524 683
c5.33301 7.33301 12.333 11 21 11h68c7.33301 0 12 -2 14 -6s1 -9 -3 -15zM852.999 157.001h20.999c10.667 0 15 -6.33301 13 -19l-10 -57c-2 -10.667 -8.33301 -16 -19 -16h-22l-8 -49c-2 -10.667 -8.33301 -16 -19 -16h-66c-12 0 -17 6.33301 -15 19l8 46h-159
c-12.667 0 -18 6.33301 -16 19l9 52c0.666992 6 3.33398 13 8.00098 21l149 220c4.66699 7.33301 12 11 22 11h68c7.33301 0 12 -2 14 -6s1 -9 -3 -15l-141 -210h67l15 59c2 9.33301 8.33301 14 19 14h59c12 0 17.333 -6.33301 16 -19z" />
    <glyph glyph-name="questiondown" unicode="&#xbf;" horiz-adv-x="492" 
d="M217 309l106.999 0.00292969c12 0 17 -6.33301 15 -19l-6 -38c-5.33301 -28.667 -15.5 -53.667 -30.5 -75s-31.5 -38 -49.5 -50s-36 -23.333 -54 -34s-34 -23.334 -48 -38.001s-22.667 -32 -26 -52c-4.66699 -22.667 -1 -41.167 11 -55.5s34 -21.5 66 -21.5
c47.333 0 94.333 18.333 141 55c9.33301 9.33301 17 7.66602 23 -5.00098l37 -82c4 -9.33301 2.33301 -17 -5 -23c-62.667 -50 -134.667 -75 -216 -75c-64 0 -115.833 18.5 -155.5 55.5s-53.167 90.5 -40.5 160.5c5.33301 31.333 15.5 58.166 30.5 80.499
s31.5 39.833 49.5 52.5s36 24.5 54 35.5s34.167 24.5 48.5 40.5s23.833 35.333 28.5 58l3 20c0.666992 6.66699 6.33398 10 17.001 10zM207.999 456.003c4 22.667 14.498 41.3311 31.498 55.998s37.5 22 61.5 22c26.667 0 47.334 -9.5 62.001 -28.5
s19.334 -42.5 14.001 -70.5c-4 -23.333 -14.333 -42.166 -31 -56.499s-37.334 -21.5 -62.001 -21.5c-26.667 0 -47.167 9.33301 -61.5 28s-19.166 42.334 -14.499 71.001z" />
    <glyph glyph-name="Agrave" unicode="&#xc0;" 
d="M569 0h-124.999c-11.333 -0 -17.333 5.33301 -18 16l-14 117h-225l-54 -120c-2.66699 -8.66699 -9.33398 -13 -20.001 -13h-137c-14.667 0 -18.667 7 -12 21l333 681c4 8.66699 10.667 13 20 13h146c10.667 0 17 -5.33301 19 -16l103 -681c2 -12 -3.33301 -18 -16 -18z
M369.001 541l-4.00098 -0.00195312c-57.333 -135.333 -95.666 -224 -114.999 -266h146l-10 94c-4 38.667 -7.33301 72.334 -10 101.001s-5 52.334 -7 71.001zM447 772.998h-82c-9.33301 0 -16.333 3.33301 -21 10l-93 132c-4.66699 6 -6 11 -4 15s6.66699 6 14 6h106
c10 0 17 -4 21 -12l71 -130c3.33301 -6 3.83301 -11 1.5 -15s-6.83301 -6 -13.5 -6z" />
    <glyph glyph-name="Aacute" unicode="&#xc1;" 
d="M569 0h-124.999c-11.333 -0 -17.333 5.33301 -18 16l-14 117h-225l-54 -120c-2.66699 -8.66699 -9.33398 -13 -20.001 -13h-137c-14.667 0 -18.667 7 -12 21l333 681c4 8.66699 10.667 13 20 13h146c10.667 0 17 -5.33301 19 -16l103 -681c2 -12 -3.33301 -18 -16 -18z
M369.001 541l-4.00098 -0.00195312c-57.333 -135.333 -95.666 -224 -114.999 -266h146l-10 94c-4 38.667 -7.33301 72.334 -10 101.001s-5 52.334 -7 71.001zM426 772.998h-84.999c-7.33301 0 -12 2.16699 -14 6.5s-0.666992 9.5 4 15.5l115 131c6 6.66699 13 10 21 10h112
c7.33301 0 12 -2.33301 14 -7s0.333008 -9.66699 -5 -15l-142 -133c-6.66699 -5.33301 -13.334 -8 -20.001 -8z" />
    <glyph glyph-name="Acircumflex" unicode="&#xc2;" 
d="M569 0h-124.999c-11.333 -0 -17.333 5.33301 -18 16l-14 117h-225l-54 -120c-2.66699 -8.66699 -9.33398 -13 -20.001 -13h-137c-14.667 0 -18.667 7 -12 21l333 681c4 8.66699 10.667 13 20 13h146c10.667 0 17 -5.33301 19 -16l103 -681c2 -12 -3.33301 -18 -16 -18z
M369.001 541l-4.00098 -0.00195312c-57.333 -135.333 -95.666 -224 -114.999 -266h146l-10 94c-4 38.667 -7.33301 72.334 -10 101.001s-5 52.334 -7 71.001zM333 766.998h-98c-7.33301 0 -12 2.33301 -14 7s-0.333008 9.66699 5 15l134 132c6 6 13 9 21 9h93
c9.33301 0 16.333 -3.66699 21 -11l85 -131c3.33301 -6 4 -11 2 -15s-6.33301 -6 -13 -6h-100c-9.33301 0 -16.333 4 -21 12l-35 64l-59 -66c-6.66699 -6.66699 -13.667 -10 -21 -10z" />
    <glyph glyph-name="Atilde" unicode="&#xc3;" 
d="M569 0h-124.999c-11.333 -0 -17.333 5.33301 -18 16l-14 117h-225l-54 -120c-2.66699 -8.66699 -9.33398 -13 -20.001 -13h-137c-14.667 0 -18.667 7 -12 21l333 681c4 8.66699 10.667 13 20 13h146c10.667 0 17 -5.33301 19 -16l103 -681c2 -12 -3.33301 -18 -16 -18z
M369.001 541l-4.00098 -0.00195312c-57.333 -135.333 -95.666 -224 -114.999 -266h146l-10 94c-4 38.667 -7.33301 72.334 -10 101.001s-5 52.334 -7 71.001zM582 852.998c-12.667 -23.333 -29.5029 -43.999 -50.5029 -61.999s-43.167 -27 -66.5 -27
c-14.667 0 -39.667 7.66699 -75 23c-25.333 10.667 -42.666 16 -51.999 16c-13.333 0 -26 -7.33301 -38 -22c-7.33301 -8 -15.333 -9.66699 -24 -5l-50 32c-10.667 6 -13 13.667 -7 23c12.667 23.333 29.334 43.666 50.001 60.999s43 26 67 26c17.333 0 42 -7.33301 74 -22
c26.667 -11.333 44 -17 52 -17c12.667 0 25.334 7.33301 38.001 22c7.33301 8 15.333 9.66699 24 5l51 -32c10 -5.33301 12.333 -12.333 7 -21z" />
    <glyph glyph-name="Adieresis" unicode="&#xc4;" 
d="M570 0h-124.999c-11.333 -0 -17.333 5.33301 -18 16l-14 117h-225l-54 -120c-2.66699 -8.66699 -9.33398 -13 -20.001 -13h-137c-14.667 0 -18.667 7 -12 21l333 681c4 8.66699 10.667 13 20 13h146c10.667 0 17 -5.33301 19 -16l103 -681c2 -12 -3.33301 -18 -16 -18z
M370.001 541l-4.00098 -0.00195312c-57.333 -135.333 -95.666 -224 -114.999 -266h146l-10 94c-4 38.667 -7.33301 72.334 -10 101.001s-5 52.334 -7 71.001zM377 837.998c-4 -22 -13.668 -39.667 -29.001 -53s-33.666 -20 -54.999 -20c-22 0 -38.5 7.33301 -49.5 22
s-14.833 32.334 -11.5 53.001c3.33301 21.333 12.833 38.833 28.5 52.5s34.167 20.5 55.5 20.5c22 0 38.5 -7.33301 49.5 -22s14.833 -32.334 11.5 -53.001zM588.999 837.998c-3.33301 -22 -12.666 -39.6689 -27.999 -53.002s-34 -20 -56 -20
c-22.667 0 -39.5 7.33301 -50.5 22s-14.5 32.334 -10.5 53.001c3.33301 22 12.666 39.667 27.999 53s34 20 56 20s38.5 -7.16699 49.5 -21.5s14.833 -32.166 11.5 -53.499z" />
    <glyph glyph-name="Aring" unicode="&#xc5;" 
d="M569 0h-124.999c-11.333 -0 -17.333 5.33301 -18 16l-14 117h-225l-54 -120c-2.66699 -8.66699 -9.33398 -13 -20.001 -13h-137c-14.667 0 -18.667 7 -12 21l333 681c4 8.66699 10.667 13 20 13h146c10.667 0 17 -5.33301 19 -16l103 -681c2 -12 -3.33301 -18 -16 -18z
M369.001 541l-4.00098 -0.00195312c-57.333 -135.333 -95.666 -224 -114.999 -266h146l-10 94c-4 38.667 -7.33301 72.334 -10 101.001s-5 52.334 -7 71.001zM553 866.998c-7.33301 -35.333 -24.5 -62.834 -51.5 -82.501s-61.833 -29.5 -104.5 -29.5
c-36.667 0 -66 12 -88 36s-29.667 53 -23 87c7.33301 34.667 24.5 61.834 51.5 81.501s62.167 29.5 105.5 29.5c36 0 65 -12 87 -36s29.667 -52.667 23 -86zM372 871.997c-5.33301 -28 7.99805 -42.001 39.998 -42.001c14 0 25.833 3.83301 35.5 11.5
s15.834 17.834 18.501 30.501s0.5 22.667 -6.5 30s-17.833 11 -32.5 11c-31.333 0 -49.666 -13.667 -54.999 -41z" />
    <glyph glyph-name="AE" unicode="&#xc6;" horiz-adv-x="883" 
d="M904 696l-19 -107c-2 -10.667 -8 -16 -18 -16h-258l-25 -142h225c12 0 17 -6.33301 15 -19l-17 -104c-2 -10.667 -8 -16 -18 -16h-228l-26 -150h269c12.667 0 18 -6.33301 16 -19l-20 -107c-0.666992 -10.667 -6.66699 -16 -18 -16h-412c-12.667 -0 -18 6.33301 -16 19
l22 119h-169l-75 -126c-5.33301 -8 -12.333 -12 -21 -12h-143c-6.66699 0 -11 2 -13 6s-1.33301 9 2 15l428 683c4.66699 7.33301 11.667 11 21 11h482c12.667 0 18 -6.33301 16 -19zM288 280h113l49 273h-4z" />
    <glyph glyph-name="Ccedilla" unicode="&#xc7;" horiz-adv-x="570" 
d="M521 51c-63.333 -38.667 -133.663 -59.667 -210.996 -63l-22 -40c25.333 -2.66699 44.333 -11.167 57 -25.5s17.667 -32.166 15 -53.499c-6.66699 -58.667 -54.334 -88 -143.001 -88c-22.667 0 -41.667 2.66699 -57 8c-9.33301 2 -13.333 8.66699 -12 20l5 35
c2 10.667 9 14.334 21 11.001c8.66699 -2 18 -3 28 -3c31.333 0 49.333 9.66699 54 29c1.33301 7.33301 -0.5 13.333 -5.5 18s-14.5 7.66699 -28.5 9c-10 1.33301 -17 5.66602 -21 12.999c-0.666992 1.33301 1.33301 6 6 14l29 55c-69.333 9.33301 -121 38.833 -155 88.5
s-44 114.5 -30 194.5l35 203c14 81.333 49 143.666 105 186.999s125.667 65 209 65c77.333 0 143 -22.667 197 -68c9.33301 -6 10 -14 2 -24l-73 -86c-6 -8 -14 -9 -24 -3c-34.667 24 -73.334 36 -116.001 36c-39.333 0 -71 -11 -95 -33s-39 -52 -45 -90l-35 -202
c-6.66699 -40.667 -1.33398 -71.667 15.999 -93s45.666 -32 84.999 -32c50 0 97 14.667 141 44c10 6 18 3.66699 24 -7l47 -98c4.66699 -10 3.66699 -17 -3 -21z" />
    <glyph glyph-name="Egrave" unicode="&#xc8;" horiz-adv-x="572" 
d="M594 696l-19 -108c-2 -10.667 -8 -16 -18 -16h-272l-25 -139h238c12 0 17 -6.33301 15 -19l-19 -105c-2 -10.667 -8 -16 -18 -16h-241l-26 -149h283c12 0 17.333 -6.33301 16 -19l-18 -109c-2 -10.667 -8.33301 -16 -19 -16h-427c-12 -0 -17.333 6.33301 -16 19l121 680
c2 10.667 8 16 18 16h411c12.667 0 18 -6.33301 16 -19zM436 773h-82c-9.33301 0 -16.333 3.33301 -21 10l-93 132c-4.66699 6 -6 11 -4 15s6.66699 6 14 6h106c10 0 17 -4 21 -12l71 -130c3.33301 -6 3.83301 -11 1.5 -15s-6.83301 -6 -13.5 -6z" />
    <glyph glyph-name="Eacute" unicode="&#xc9;" horiz-adv-x="572" 
d="M594 696l-19 -108c-2 -10.667 -8 -16 -18 -16h-272l-25 -139h238c12 0 17 -6.33301 15 -19l-19 -105c-2 -10.667 -8 -16 -18 -16h-241l-26 -149h283c12 0 17.333 -6.33301 16 -19l-18 -109c-2 -10.667 -8.33301 -16 -19 -16h-427c-12 -0 -17.333 6.33301 -16 19l121 680
c2 10.667 8 16 18 16h411c12.667 0 18 -6.33301 16 -19zM408 763h-84.999c-7.33301 0 -12 2.16699 -14 6.5s-0.666992 9.5 4 15.5l115 131c6 6.66699 13 10 21 10h112c7.33301 0 12 -2.33301 14 -7s0.333008 -9.66699 -5 -15l-142 -133
c-6.66699 -5.33301 -13.334 -8 -20.001 -8z" />
    <glyph glyph-name="Ecircumflex" unicode="&#xca;" horiz-adv-x="572" 
d="M594 696l-19 -108c-2 -10.667 -8 -16 -18 -16h-272l-25 -139h238c12 0 17 -6.33301 15 -19l-19 -105c-2 -10.667 -8 -16 -18 -16h-241l-26 -149h283c12 0 17.333 -6.33301 16 -19l-18 -109c-2 -10.667 -8.33301 -16 -19 -16h-427c-12 -0 -17.333 6.33301 -16 19l121 680
c2 10.667 8 16 18 16h411c12.667 0 18 -6.33301 16 -19zM313 769h-98c-7.33301 0 -12 2.33301 -14 7s-0.333008 9.66699 5 15l134 132c6 6 13 9 21 9h93c9.33301 0 16.333 -3.66699 21 -11l85 -131c3.33301 -6 4 -11 2 -15s-6.33301 -6 -13 -6h-100
c-9.33301 0 -16.333 4 -21 12l-35 64l-59 -66c-6.66699 -6.66699 -13.667 -10 -21 -10z" />
    <glyph glyph-name="Edieresis" unicode="&#xcb;" horiz-adv-x="572" 
d="M594 696l-19 -108c-2 -10.667 -8 -16 -18 -16h-272l-25 -139h238c12 0 17 -6.33301 15 -19l-19 -105c-2 -10.667 -8 -16 -18 -16h-241l-26 -149h283c12 0 17.333 -6.33301 16 -19l-18 -109c-2 -10.667 -8.33301 -16 -19 -16h-427c-12 -0 -17.333 6.33301 -16 19l121 680
c2 10.667 8 16 18 16h411c12.667 0 18 -6.33301 16 -19zM364 838c-4 -22 -13.668 -39.667 -29.001 -53s-33.666 -20 -54.999 -20c-22 0 -38.5 7.33301 -49.5 22s-14.833 32.334 -11.5 53.001c3.33301 21.333 12.833 38.833 28.5 52.5s34.167 20.5 55.5 20.5
c22 0 38.5 -7.33301 49.5 -22s14.833 -32.334 11.5 -53.001zM575.999 838c-3.33301 -22 -12.666 -39.6689 -27.999 -53.002s-34 -20 -56 -20c-22.667 0 -39.5 7.33301 -50.5 22s-14.5 32.334 -10.5 53.001c3.33301 22 12.666 39.667 27.999 53s34 20 56 20
s38.5 -7.16699 49.5 -21.5s14.833 -32.166 11.5 -53.499z" />
    <glyph glyph-name="Igrave" unicode="&#xcc;" horiz-adv-x="300" 
d="M306 696l-120 -680c-2 -10.667 -8 -16 -18 -16h-124c-12 -0 -17.333 6.33301 -16 19l120 680c2 10.667 8.33301 16 19 16h123c12.667 0 18 -6.33301 16 -19zM298 764h-82c-9.33301 0 -16.333 3.33301 -21 10l-93 132c-4.66699 6 -6 11 -4 15s6.66699 6 14 6h106
c10 0 17 -4 21 -12l71 -130c3.33301 -6 3.83301 -11 1.5 -15s-6.83301 -6 -13.5 -6z" />
    <glyph glyph-name="Iacute" unicode="&#xcd;" horiz-adv-x="300" 
d="M306 696l-120 -680c-2 -10.667 -8 -16 -18 -16h-124c-12 -0 -17.333 6.33301 -16 19l120 680c2 10.667 8.33301 16 19 16h123c12.667 0 18 -6.33301 16 -19zM268 765h-84.999c-7.33301 0 -12 2.16699 -14 6.5s-0.666992 9.5 4 15.5l115 131c6 6.66699 13 10 21 10h112
c7.33301 0 12 -2.33301 14 -7s0.333008 -9.66699 -5 -15l-142 -133c-6.66699 -5.33301 -13.334 -8 -20.001 -8z" />
    <glyph glyph-name="Icircumflex" unicode="&#xce;" horiz-adv-x="300" 
d="M184 759l-96.001 -0.000976562c-7.33301 0 -12 2.33301 -14 7s-0.333008 9.66699 5 15l131 137c6 6 13 9 21 9h70c8.66699 0 15.334 -4 20.001 -12l81 -135c3.33301 -5.33301 4 -10.166 2 -14.499s-6.33301 -6.5 -13 -6.5h-93c-10 0 -17 4.33301 -21 13l-24 50l-48 -53
c-6 -6.66699 -13 -10 -21 -10zM305.999 695.999l-120 -680c-2 -10.667 -8 -16 -18 -16h-124c-12 0 -17.333 6.33301 -16 19l120 680c2 10.667 8.33301 16 19 16h123c12.667 0 18 -6.33301 16 -19z" />
    <glyph glyph-name="Idieresis" unicode="&#xcf;" horiz-adv-x="300" 
d="M306 696l-120 -680c-2 -10.667 -8 -16 -18 -16h-124c-12 -0 -17.333 6.33301 -16 19l120 680c2 10.667 8.33301 16 19 16h123c12.667 0 18 -6.33301 16 -19zM227 838c-4 -22 -13.668 -39.667 -29.001 -53s-33.666 -20 -54.999 -20c-22 0 -38.5 7.33301 -49.5 22
s-14.833 32.334 -11.5 53.001c3.33301 21.333 12.833 38.833 28.5 52.5s34.167 20.5 55.5 20.5c22 0 38.5 -7.33301 49.5 -22s14.833 -32.334 11.5 -53.001zM426.999 838c-2.66699 -22 -11.832 -39.6689 -27.499 -53.002s-34.5 -20 -56.5 -20
c-22.667 0 -39.334 7.33301 -50.001 22s-14.334 32.334 -11.001 53.001c4 22 13.667 39.667 29 53s33.666 20 54.999 20c22.667 0 39.334 -7.16699 50.001 -21.5s14.334 -32.166 11.001 -53.499z" />
    <glyph glyph-name="Eth" unicode="&#xd0;" horiz-adv-x="662" 
d="M180 715l236 0.000976562c78.667 0 140 -24.333 184 -73s57.667 -119.667 41 -213l-28 -165c-16 -94.667 -50.667 -162.334 -104 -203.001s-124.333 -61 -213 -61h-239c-12 -0 -17 6.33301 -15 19l52 298h-60c-12 0 -17 6 -15 18l11 62c2 10 8.33301 15 19 15h61l52 287
c1.33301 10.667 7.33301 16 18 16zM451 271.001l31.001 178c7.33301 42 4 72.667 -10 92s-38.667 29 -74 29h-101l-28 -158h91c12 0 17 -6.33301 15 -19l-11 -61c-0.666992 -10 -6.66699 -15 -18 -15h-93l-31 -172h100c35.333 0 63.666 10 84.999 30s36 52 44 96z" />
    <glyph glyph-name="Ntilde" unicode="&#xd1;" horiz-adv-x="685" 
d="M166 0l-123.001 0.000976562c-12 0 -17 6.33301 -15 19l120 680c1.33301 10.667 7.33301 16 18 16h132c11.333 0 18 -4.66699 20 -14l79 -237c22.667 -72.667 43.334 -144.334 62.001 -215.001l5 1c10 86 23.333 178.333 40 277l30 172c2 10.667 8 16 18 16h122
c12.667 0 18 -6.33301 16 -19l-120 -680c-2 -10.667 -8.33301 -16 -19 -16h-131c-9.33301 0 -16 4.66699 -20 14l-79 212c-28.667 74.667 -51.667 154 -69 238l-4 -2c-12 -123.333 -24.667 -222 -38 -296l-26 -150c-2 -10.667 -8 -16 -18 -16zM621.999 859.001
c-12.667 -23.333 -29.5029 -43.999 -50.5029 -61.999s-43.167 -27 -66.5 -27c-14.667 0 -39.667 7.66699 -75 23c-25.333 10.667 -42.666 16 -51.999 16c-13.333 0 -26 -7.33301 -38 -22c-7.33301 -8 -15.333 -9.66699 -24 -5l-50 32c-10.667 6 -13 13.667 -7 23
c12.667 23.333 29.334 43.666 50.001 60.999s43 26 67 26c17.333 0 42 -7.33301 74 -22c26.667 -11.333 44 -17 52 -17c12.667 0 25.334 7.33301 38.001 22c7.33301 8 15.333 9.66699 24 5l51 -32c10 -5.33301 12.333 -12.333 7 -21z" />
    <glyph glyph-name="Ograve" unicode="&#xd2;" horiz-adv-x="656" 
d="M607 255c-14.667 -85.333 -50.334 -151.333 -107.001 -198s-130 -70 -220 -70c-84.667 0 -147.5 27.833 -188.5 83.5s-53.833 128.5 -38.5 218.5l31 177c14.667 82 50.334 146.167 107.001 192.5s128.667 69.5 216 69.5c85.333 0 149 -26.833 191 -80.5
s55.333 -125.5 40 -215.5zM212 271c-7.33301 -42 -3 -75.499 13 -100.499s42 -37.5 78 -37.5c38.667 0 70.334 11.5 95.001 34.5s40.667 55.167 48 96.5l32 183c7.33301 41.333 3.16602 74.166 -12.501 98.499s-42.167 36.5 -79.5 36.5c-78 0 -125 -43.333 -141 -130z
M476 773.001h-82c-9.33301 0 -16.333 3.33301 -21 10l-93 132c-4.66699 6 -6 11 -4 15s6.66699 6 14 6h106c10 0 17 -4 21 -12l71 -130c3.33301 -6 3.83301 -11 1.5 -15s-6.83301 -6 -13.5 -6z" />
    <glyph glyph-name="Oacute" unicode="&#xd3;" horiz-adv-x="656" 
d="M607 255c-14.667 -85.333 -50.334 -151.333 -107.001 -198s-130 -70 -220 -70c-84.667 0 -147.5 27.833 -188.5 83.5s-53.833 128.5 -38.5 218.5l31 177c14.667 82 50.334 146.167 107.001 192.5s128.667 69.5 216 69.5c85.333 0 149 -26.833 191 -80.5
s55.333 -125.5 40 -215.5zM212 271c-7.33301 -42 -3 -75.499 13 -100.499s42 -37.5 78 -37.5c38.667 0 70.334 11.5 95.001 34.5s40.667 55.167 48 96.5l32 183c7.33301 41.333 3.16602 74.166 -12.501 98.499s-42.167 36.5 -79.5 36.5c-78 0 -125 -43.333 -141 -130z
M443 774.001h-84.999c-7.33301 0 -12 2.16699 -14 6.5s-0.666992 9.5 4 15.5l115 131c6 6.66699 13 10 21 10h112c7.33301 0 12 -2.33301 14 -7s0.333008 -9.66699 -5 -15l-142 -133c-6.66699 -5.33301 -13.334 -8 -20.001 -8z" />
    <glyph glyph-name="Ocircumflex" unicode="&#xd4;" horiz-adv-x="656" 
d="M607 255c-14.667 -85.333 -50.334 -151.333 -107.001 -198s-130 -70 -220 -70c-84.667 0 -147.5 27.833 -188.5 83.5s-53.833 128.5 -38.5 218.5l31 177c14.667 82 50.334 146.167 107.001 192.5s128.667 69.5 216 69.5c85.333 0 149 -26.833 191 -80.5
s55.333 -125.5 40 -215.5zM212 271c-7.33301 -42 -3 -75.499 13 -100.499s42 -37.5 78 -37.5c38.667 0 70.334 11.5 95.001 34.5s40.667 55.167 48 96.5l32 183c7.33301 41.333 3.16602 74.166 -12.501 98.499s-42.167 36.5 -79.5 36.5c-78 0 -125 -43.333 -141 -130z
M350 765.001h-98c-7.33301 0 -12 2.33301 -14 7s-0.333008 9.66699 5 15l134 132c6 6 13 9 21 9h93c9.33301 0 16.333 -3.66699 21 -11l85 -131c3.33301 -6 4 -11 2 -15s-6.33301 -6 -13 -6h-100c-9.33301 0 -16.333 4 -21 12l-35 64l-59 -66
c-6.66699 -6.66699 -13.667 -10 -21 -10z" />
    <glyph glyph-name="Otilde" unicode="&#xd5;" horiz-adv-x="656" 
d="M607 255c-14.667 -85.333 -50.334 -151.333 -107.001 -198s-130 -70 -220 -70c-84.667 0 -147.5 27.833 -188.5 83.5s-53.833 128.5 -38.5 218.5l31 177c14.667 82 50.334 146.167 107.001 192.5s128.667 69.5 216 69.5c85.333 0 149 -26.833 191 -80.5
s55.333 -125.5 40 -215.5zM212 271c-7.33301 -42 -3 -75.499 13 -100.499s42 -37.5 78 -37.5c38.667 0 70.334 11.5 95.001 34.5s40.667 55.167 48 96.5l32 183c7.33301 41.333 3.16602 74.166 -12.501 98.499s-42.167 36.5 -79.5 36.5c-78 0 -125 -43.333 -141 -130z
M604 863.001c-12.667 -23.333 -29.5029 -43.999 -50.5029 -61.999s-43.167 -27 -66.5 -27c-14.667 0 -39.667 7.66699 -75 23c-25.333 10.667 -42.666 16 -51.999 16c-13.333 0 -26 -7.33301 -38 -22c-7.33301 -8 -15.333 -9.66699 -24 -5l-50 32
c-10.667 6 -13 13.667 -7 23c12.667 23.333 29.334 43.666 50.001 60.999s43 26 67 26c17.333 0 42 -7.33301 74 -22c26.667 -11.333 44 -17 52 -17c12.667 0 25.334 7.33301 38.001 22c7.33301 8 15.333 9.66699 24 5l51 -32c10 -5.33301 12.333 -12.333 7 -21z" />
    <glyph glyph-name="Odieresis" unicode="&#xd6;" horiz-adv-x="656" 
d="M607 255c-14.667 -85.333 -50.334 -151.333 -107.001 -198s-130 -70 -220 -70c-84.667 0 -147.5 27.833 -188.5 83.5s-53.833 128.5 -38.5 218.5l31 177c14.667 82 50.334 146.167 107.001 192.5s128.667 69.5 216 69.5c85.333 0 149 -26.833 191 -80.5
s55.333 -125.5 40 -215.5zM212 271c-7.33301 -42 -3 -75.499 13 -100.499s42 -37.5 78 -37.5c38.667 0 70.334 11.5 95.001 34.5s40.667 55.167 48 96.5l32 183c7.33301 41.333 3.16602 74.166 -12.501 98.499s-42.167 36.5 -79.5 36.5c-78 0 -125 -43.333 -141 -130z
M396 847.001c-4 -22 -13.668 -39.667 -29.001 -53s-33.666 -20 -54.999 -20c-22 0 -38.5 7.33301 -49.5 22s-14.833 32.334 -11.5 53.001c3.33301 21.333 12.833 38.833 28.5 52.5s34.167 20.5 55.5 20.5c22 0 38.5 -7.33301 49.5 -22s14.833 -32.334 11.5 -53.001z
M607.999 847.001c-3.33301 -22 -12.666 -39.6689 -27.999 -53.002s-34 -20 -56 -20c-22.667 0 -39.5 7.33301 -50.5 22s-14.5 32.334 -10.5 53.001c3.33301 22 12.666 39.667 27.999 53s34 20 56 20s38.5 -7.16699 49.5 -21.5s14.833 -32.166 11.5 -53.499z" />
    <glyph glyph-name="multiply" unicode="&#xd7;" 
d="M538 580l58 -73c7.33301 -8.66699 6.66602 -16.667 -2.00098 -24l-171 -152l115 -147c6.66699 -10 6 -18 -2 -24l-84 -74c-9.33301 -9.33301 -17.333 -9 -24 1l-115 147l-168 -148c-9.33301 -8 -17.666 -7.33301 -24.999 2l-59 72c-6 8.66699 -5 17 3 25l170 150
l-116 148c-6.66699 10 -6 18.333 2 25l84 74c8.66699 8 16.667 7.33301 24 -2l116 -148l169 150c8.66699 8.66699 17 8 25 -2z" />
    <glyph glyph-name="Oslash" unicode="&#xd8;" horiz-adv-x="656" 
d="M607 255c-14.667 -85.333 -50.333 -151.335 -107 -198.002s-130 -70 -220 -70c-39.333 0 -76.333 7 -111 21l-39 -60c-4 -8 -11 -12 -21 -12h-86c-7.33301 0 -12 2 -14 6s-0.666992 9 4 15l75 117c-38.667 54.667 -50.334 126.334 -35.001 215.001l31 177
c14.667 82 50.334 146.167 107.001 192.5s128.667 69.5 216 69.5c40.667 0 77 -6.66699 109 -20l34 51c4 8 11 12 21 12h86c7.33301 0 12 -2 14 -6s0.666992 -9 -4 -15l-69 -104c42 -53.333 55.333 -124.666 40 -213.999zM212.001 270.998
c-7.33301 -42 -3 -75.499 13 -100.499s42 -37.5 78 -37.5c38.667 0 70.334 11.5 95.001 34.5s40.667 55.167 48 96.5l32 183c7.33301 41.333 3.16602 74.166 -12.501 98.499s-42.167 36.5 -79.5 36.5c-78 0 -125 -43.333 -141 -130z" />
    <glyph glyph-name="Ugrave" unicode="&#xd9;" horiz-adv-x="665" 
d="M597 247c-14 -82.667 -47.1641 -146.5 -99.4971 -191.5s-122.5 -67.5 -210.5 -67.5c-82 0 -142.833 26.333 -182.5 79s-51.834 125 -36.501 217l74 415c2 10.667 8 16 18 16h126c12.667 0 18 -6.33301 16 -19l-77 -430c-7.33301 -42.667 -3.33301 -75.167 12 -97.5
s39.666 -33.5 72.999 -33.5c34 0 62.167 10.5 84.5 31.5s37.166 51.833 44.499 92.5l76 440c2 10.667 8 16 18 16h126c12 0 17.333 -6.33301 16 -19zM474.003 773h-82c-9.33301 0 -16.333 3.33301 -21 10l-93 132c-4.66699 6 -6 11 -4 15s6.66699 6 14 6h106
c10 0 17 -4 21 -12l71 -130c3.33301 -6 3.83301 -11 1.5 -15s-6.83301 -6 -13.5 -6z" />
    <glyph glyph-name="Uacute" unicode="&#xda;" horiz-adv-x="665" 
d="M597 247c-14 -82.667 -47.1641 -146.5 -99.4971 -191.5s-122.5 -67.5 -210.5 -67.5c-82 0 -142.833 26.333 -182.5 79s-51.834 125 -36.501 217l74 415c2 10.667 8 16 18 16h126c12.667 0 18 -6.33301 16 -19l-77 -430c-7.33301 -42.667 -3.33301 -75.167 12 -97.5
s39.666 -33.5 72.999 -33.5c34 0 62.167 10.5 84.5 31.5s37.166 51.833 44.499 92.5l76 440c2 10.667 8 16 18 16h126c12 0 17.333 -6.33301 16 -19zM446.003 769h-84.999c-7.33301 0 -12 2.16699 -14 6.5s-0.666992 9.5 4 15.5l115 131c6 6.66699 13 10 21 10h112
c7.33301 0 12 -2.33301 14 -7s0.333008 -9.66699 -5 -15l-142 -133c-6.66699 -5.33301 -13.334 -8 -20.001 -8z" />
    <glyph glyph-name="Ucircumflex" unicode="&#xdb;" horiz-adv-x="665" 
d="M597 247c-14 -82.667 -47.1641 -146.5 -99.4971 -191.5s-122.5 -67.5 -210.5 -67.5c-82 0 -142.833 26.333 -182.5 79s-51.834 125 -36.501 217l74 415c2 10.667 8 16 18 16h126c12.667 0 18 -6.33301 16 -19l-77 -430c-7.33301 -42.667 -3.33301 -75.167 12 -97.5
s39.666 -33.5 72.999 -33.5c34 0 62.167 10.5 84.5 31.5s37.166 51.833 44.499 92.5l76 440c2 10.667 8 16 18 16h126c12 0 17.333 -6.33301 16 -19zM353.003 773h-98c-7.33301 0 -12 2.33301 -14 7s-0.333008 9.66699 5 15l134 132c6 6 13 9 21 9h93
c9.33301 0 16.333 -3.66699 21 -11l85 -131c3.33301 -6 4 -11 2 -15s-6.33301 -6 -13 -6h-100c-9.33301 0 -16.333 4 -21 12l-35 64l-59 -66c-6.66699 -6.66699 -13.667 -10 -21 -10z" />
    <glyph glyph-name="Udieresis" unicode="&#xdc;" horiz-adv-x="665" 
d="M597 247c-14 -82.667 -47.1641 -146.5 -99.4971 -191.5s-122.5 -67.5 -210.5 -67.5c-82 0 -142.833 26.333 -182.5 79s-51.834 125 -36.501 217l74 415c2 10.667 8 16 18 16h126c12.667 0 18 -6.33301 16 -19l-77 -430c-7.33301 -42.667 -3.33301 -75.167 12 -97.5
s39.666 -33.5 72.999 -33.5c34 0 62.167 10.5 84.5 31.5s37.166 51.833 44.499 92.5l76 440c2 10.667 8 16 18 16h126c12 0 17.333 -6.33301 16 -19zM402.003 857c-4 -22 -13.668 -39.667 -29.001 -53s-33.666 -20 -54.999 -20c-22 0 -38.5 7.33301 -49.5 22
s-14.833 32.334 -11.5 53.001c3.33301 21.333 12.833 38.833 28.5 52.5s34.167 20.5 55.5 20.5c22 0 38.5 -7.33301 49.5 -22s14.833 -32.334 11.5 -53.001zM614.002 857c-3.33301 -22 -12.666 -39.6689 -27.999 -53.002s-34 -20 -56 -20c-22.667 0 -39.5 7.33301 -50.5 22
s-14.5 32.334 -10.5 53.001c3.33301 22 12.666 39.667 27.999 53s34 20 56 20s38.5 -7.16699 49.5 -21.5s14.833 -32.166 11.5 -53.499z" />
    <glyph glyph-name="Yacute" unicode="&#xdd;" horiz-adv-x="582" 
d="M308 0h-125.001c-12.667 -0 -18 6.33301 -16 19l44 238l-133 439c-2 5.33301 -1.66699 9.83301 1 13.5s7 5.5 13 5.5h130c10 0 16 -5 18 -15l73 -295h2l170 298c4.66699 8 11.334 12 20.001 12h138c6.66699 0 11 -2 13 -6s1.33301 -9 -2 -15l-283 -440l-45 -238
c-2 -10.667 -8 -16 -18 -16zM397.999 765h-84.999c-7.33301 0 -12 2.16699 -14 6.5s-0.666992 9.5 4 15.5l115 131c6 6.66699 13 10 21 10h112c7.33301 0 12 -2.33301 14 -7s0.333008 -9.66699 -5 -15l-142 -133c-6.66699 -5.33301 -13.334 -8 -20.001 -8z" />
    <glyph glyph-name="Thorn" unicode="&#xde;" horiz-adv-x="621" 
d="M292 615l86.002 -0.000976562c82.667 0 144 -24.667 184 -74s53 -112.666 39 -189.999c-12.667 -73.333 -43.834 -131 -93.501 -173s-113.834 -63 -192.501 -63h-113l-17 -99c-2 -10.667 -8 -16 -18 -16h-123c-12 -0 -17.333 6.33301 -16 19l120 680
c1.33301 10.667 7.33301 16 18 16h125c12 0 17 -6.33301 15 -19zM318.002 258.999c71.333 0 112.667 35.667 124 107c11.333 70 -18 105 -88 105h-88l-38 -212h90z" />
    <glyph glyph-name="germandbls" unicode="&#xdf;" horiz-adv-x="567" 
d="M358 728c68 0 119.666 -22.165 154.999 -66.498s47.333 -97.5 36 -159.5c-4.66699 -26.667 -15.667 -51.667 -33 -75s-39.333 -40.333 -66 -51c30 -16.667 51.667 -40.167 65 -70.5s16 -66.5 8 -108.5c-11.333 -64.667 -38.5 -115 -81.5 -151s-96.167 -54 -159.5 -54
c-26.667 0 -50 2.66699 -70 8c-10.667 2.66699 -15 9.66699 -13 21l17 94c2 11.333 9 16 21 14c14.667 -3.33301 28 -5 40 -5c24.667 0 46 8 64 24s29 38.333 33 67c4.66699 27.333 0.5 47.666 -12.5 60.999s-32.5 20 -58.5 20h-35c-12.667 0 -18 6.33301 -16 19l17 96
c2 10 8.33301 15 19 15h37c18.667 0 35.167 7.83301 49.5 23.5s23.5 36.167 27.5 61.5c4.66699 26 1.33398 46.667 -9.99902 62s-28 23 -50 23c-52 0 -84 -33.333 -96 -100l-86 -480c-2 -10.667 -8 -16 -18 -16h-116c-12 0 -17 6.33301 -15 19l88 490
c12.667 71.333 42 125.666 88 162.999s103 56 171 56z" />
    <glyph glyph-name="agrave" unicode="&#xe0;" horiz-adv-x="505" 
d="M406 22c-66.667 -23.333 -136 -34.999 -208 -34.999c-68.667 0 -120.167 17.667 -154.5 53s-46.5 80.666 -36.5 135.999c16.667 93.333 92.334 140 227.001 140c30 0 58.333 -2.66699 85 -8l2 16c4.66699 26 2 45.167 -8 57.5s-30 18.5 -60 18.5
c-46.667 0 -86.334 -7.66699 -119.001 -23c-11.333 -5.33301 -19 -2.66602 -23 8.00098l-31 82c-3.33301 10 -2.33301 16.667 3 20c52 31.333 120 47 204 47c68.667 0 119 -21.333 151 -64s41.333 -101.334 28 -176.001l-45 -253c-2 -10 -7 -16.333 -15 -19zM156 168.001
c-3.33301 -18.667 0.332031 -32.667 10.999 -42s27.334 -14 50.001 -14c22 0 45 2.66699 69 8l14 87c-22 4.66699 -43.333 7 -64 7c-48 0 -74.667 -15.333 -80 -46zM292.998 738.001l62.998 -129.999c2.66699 -6 2.83398 -10.833 0.500977 -14.5s-6.5 -5.5 -12.5 -5.5h-69
c-9.33301 0 -16.333 3.66699 -21 11l-85 131c-4 5.33301 -4.83301 10.166 -2.5 14.499s6.83301 6.5 13.5 6.5h93c8.66699 0 15.334 -4.33301 20.001 -13z" />
    <glyph glyph-name="aacute" unicode="&#xe1;" horiz-adv-x="505" 
d="M406 22c-66.667 -23.333 -136 -34.999 -208 -34.999c-68.667 0 -120.167 17.667 -154.5 53s-46.5 80.666 -36.5 135.999c16.667 93.333 92.334 140 227.001 140c30 0 58.333 -2.66699 85 -8l2 16c4.66699 26 2 45.167 -8 57.5s-30 18.5 -60 18.5
c-46.667 0 -86.334 -7.66699 -119.001 -23c-11.333 -5.33301 -19 -2.66602 -23 8.00098l-31 82c-3.33301 10 -2.33301 16.667 3 20c52 31.333 120 47 204 47c68.667 0 119 -21.333 151 -64s41.333 -101.334 28 -176.001l-45 -253c-2 -10 -7 -16.333 -15 -19zM156 168.001
c-3.33301 -18.667 0.332031 -32.667 10.999 -42s27.334 -14 50.001 -14c22 0 45 2.66699 69 8l14 87c-22 4.66699 -43.333 7 -64 7c-48 0 -74.667 -15.333 -80 -46zM311.998 585.001l-78 0.000976562c-7.33301 0 -12 2.16699 -14 6.5s-0.666992 9.16602 4 14.499l107 132
c6 6.66699 13.333 10 22 10h104c7.33301 0 12 -2.33301 14 -7s0.333008 -9.66699 -5 -15l-133 -132c-5.33301 -6 -12.333 -9 -21 -9z" />
    <glyph glyph-name="acircumflex" unicode="&#xe2;" horiz-adv-x="505" 
d="M406 22c-66.667 -23.333 -136 -34.999 -208 -34.999c-68.667 0 -120.167 17.667 -154.5 53s-46.5 80.666 -36.5 135.999c16.667 93.333 92.334 140 227.001 140c30 0 58.333 -2.66699 85 -8l2 16c4.66699 26 2 45.167 -8 57.5s-30 18.5 -60 18.5
c-46.667 0 -86.334 -7.66699 -119.001 -23c-11.333 -5.33301 -19 -2.66602 -23 8.00098l-31 82c-3.33301 10 -2.33301 16.667 3 20c52 31.333 120 47 204 47c68.667 0 119 -21.333 151 -64s41.333 -101.334 28 -176.001l-45 -253c-2 -10 -7 -16.333 -15 -19zM156 168.001
c-3.33301 -18.667 0.332031 -32.667 10.999 -42s27.334 -14 50.001 -14c22 0 45 2.66699 69 8l14 87c-22 4.66699 -43.333 7 -64 7c-48 0 -74.667 -15.333 -80 -46zM384.998 736.001l83.001 -129.999c6.66699 -14 2.66699 -21 -12 -21h-85c-10.667 0 -17.667 4 -21 12
l-37 65l-63 -68c-6 -6 -13.333 -9 -22 -9h-90c-8 0 -12.833 2.16699 -14.5 6.5s0.166016 9.16602 5.49902 14.499l133 133c6 6 13 9 21 9h81c9.33301 0 16.333 -4 21 -12z" />
    <glyph glyph-name="atilde" unicode="&#xe3;" horiz-adv-x="505" 
d="M406 22c-66.667 -23.333 -136 -34.999 -208 -34.999c-68.667 0 -120.167 17.667 -154.5 53s-46.5 80.666 -36.5 135.999c16.667 93.333 92.334 140 227.001 140c30 0 58.333 -2.66699 85 -8l2 16c4.66699 26 2 45.167 -8 57.5s-30 18.5 -60 18.5
c-46.667 0 -86.334 -7.66699 -119.001 -23c-11.333 -5.33301 -19 -2.66602 -23 8.00098l-31 82c-3.33301 10 -2.33301 16.667 3 20c52 31.333 120 47 204 47c68.667 0 119 -21.333 151 -64s41.333 -101.334 28 -176.001l-45 -253c-2 -10 -7 -16.333 -15 -19zM156 168.001
c-3.33301 -18.667 0.332031 -32.667 10.999 -42s27.334 -14 50.001 -14c22 0 45 2.66699 69 8l14 87c-22 4.66699 -43.333 7 -64 7c-48 0 -74.667 -15.333 -80 -46zM489.998 666.001c-32 -56 -69.3311 -83.998 -111.998 -83.998c-20 0 -45.333 7.66699 -76 23
c-25.333 10.667 -43 16 -53 16c-15.333 0 -29.333 -7.33301 -42 -22c-8.66699 -8.66699 -16.667 -10.334 -24 -5.00098l-47 31c-10 6.66699 -12.333 14.667 -7 24c34 55.333 73.333 83 118 83c19.333 0 43.666 -7.33301 72.999 -22c24 -11.333 41.333 -17 52 -17
c12.667 0 25.667 7.33301 39 22c7.33301 9.33301 15.666 10.666 24.999 3.99902l47 -32c10 -5.33301 12.333 -12.333 7 -21z" />
    <glyph glyph-name="adieresis" unicode="&#xe4;" horiz-adv-x="505" 
d="M406 22c-66.667 -23.333 -136 -34.999 -208 -34.999c-68.667 0 -120.167 17.667 -154.5 53s-46.5 80.666 -36.5 135.999c16.667 93.333 92.334 140 227.001 140c30 0 58.333 -2.66699 85 -8l2 16c4.66699 26 2 45.167 -8 57.5s-30 18.5 -60 18.5
c-46.667 0 -86.334 -7.66699 -119.001 -23c-11.333 -5.33301 -19 -2.66602 -23 8.00098l-31 82c-3.33301 10 -2.33301 16.667 3 20c52 31.333 120 47 204 47c68.667 0 119 -21.333 151 -64s41.333 -101.334 28 -176.001l-45 -253c-2 -10 -7 -16.333 -15 -19zM156 168.001
c-3.33301 -18.667 0.332031 -32.667 10.999 -42s27.334 -14 50.001 -14c22 0 45 2.66699 69 8l14 87c-22 4.66699 -43.333 7 -64 7c-48 0 -74.667 -15.333 -80 -46zM270.998 658.001c-4 -22 -13.167 -39.333 -27.5 -52s-31.833 -19 -52.5 -19s-36.667 7 -48 21
s-15 32.333 -11 55c4 22 13.5 39.167 28.5 51.5s32.833 18.5 53.5 18.5s36.5 -7 47.5 -21s14.167 -32 9.5 -54zM478.998 658.001c-4 -22 -12.999 -39.333 -26.999 -52s-31.333 -19 -52 -19s-36.834 6.83301 -48.501 20.5s-15.5 32.167 -11.5 55.5
c4 22 13.5 39.167 28.5 51.5s32.833 18.5 53.5 18.5s36.5 -7 47.5 -21s14.167 -32 9.5 -54z" />
    <glyph glyph-name="aring" unicode="&#xe5;" horiz-adv-x="505" 
d="M406 22c-66.667 -23.333 -136 -34.999 -208 -34.999c-68.667 0 -120.167 17.667 -154.5 53s-46.5 80.666 -36.5 135.999c16.667 93.333 92.334 140 227.001 140c30 0 58.333 -2.66699 85 -8l2 16c4.66699 26 2 45.167 -8 57.5s-30 18.5 -60 18.5
c-46.667 0 -86.334 -7.66699 -119.001 -23c-11.333 -5.33301 -19 -2.66602 -23 8.00098l-31 82c-3.33301 10 -2.33301 16.667 3 20c52 31.333 120 47 204 47c68.667 0 119 -21.333 151 -64s41.333 -101.334 28 -176.001l-45 -253c-2 -10 -7 -16.333 -15 -19zM156 168.001
c-3.33301 -18.667 0.332031 -32.667 10.999 -42s27.334 -14 50.001 -14c22 0 45 2.66699 69 8l14 87c-22 4.66699 -43.333 7 -64 7c-48 0 -74.667 -15.333 -80 -46zM439.998 680.001c-7.33301 -32.667 -24.0029 -58.5 -50.0029 -77.5s-58.333 -28.5 -97 -28.5
c-33.333 0 -60.666 10.667 -81.999 32s-29 46 -23 74c6 33.333 22.167 59.5 48.5 78.5s59.833 28.5 100.5 28.5c32.667 0 59.334 -10.667 80.001 -32s28.334 -46.333 23.001 -75zM267.995 680.001c-2.66699 -12 -0.333008 -21.833 7 -29.5s17.666 -11.5 30.999 -11.5
c28.667 0 46.334 13.667 53.001 41c2.66699 12.667 0.666992 22.667 -6 30s-17 11 -31 11c-13.333 0 -25 -3.66699 -35 -11s-16.333 -17.333 -19 -30z" />
    <glyph glyph-name="ae" unicode="&#xe6;" horiz-adv-x="781" 
d="M364 28c-53.333 -26.667 -105.333 -39.999 -156 -39.999c-70.667 0 -124.5 17 -161.5 51s-50.167 78.333 -39.5 133c18.667 94.667 96.667 142 234 142c28.667 0 55.667 -2.33301 81 -7l3 19c10 52.667 -14 79 -72 79c-42 0 -81.667 -9.66699 -119 -29
c-12 -5.33301 -20 -2.33301 -24 9l-33 81c-4 10 -1.33301 18 8 24c57.333 29.333 121.666 44 192.999 44c59.333 0 106 -20 140 -60c42.667 40 94.667 60 156 60c64.667 0 114.167 -20.333 148.5 -61s45.5 -94.667 33.5 -162l-16 -90c-1.33301 -10.667 -7.33301 -16 -18 -16
h-275l-3 -19c-3.33301 -26 0.333984 -44.833 11.001 -56.5s30 -17.5 58 -17.5c47.333 0 92 13 134 39c10.667 7.33301 18.667 5.66602 24 -5.00098l37 -70c5.33301 -10 3.33301 -18 -6 -24c-62.667 -42.667 -133.667 -64 -213 -64c-50 0 -91.667 13.333 -125 40z
M154 166.001c-3.33301 -17.333 0.833008 -30.999 12.5 -40.999s28.5 -15 50.5 -15c32 0 60.667 6 86 18c-3.33301 17.333 -4 38.666 -2 63.999l3 14c-20 4 -42 6 -66 6c-48 0 -76 -15.333 -84 -46zM466.999 329.002l-5.00195 -24.999h152l4 24
c4.66699 25.333 1.33398 44.833 -9.99902 58.5s-28.666 20.5 -51.999 20.5s-43 -6.83301 -59 -20.5s-26 -32.834 -30 -57.501z" />
    <glyph glyph-name="ccedilla" unicode="&#xe7;" horiz-adv-x="451" 
d="M395 30c-47.333 -26.667 -100.333 -40.9961 -159 -42.9961l-15 -32c24.667 -2.66699 43.667 -11.834 57 -27.501s17.666 -35.167 12.999 -58.5c-9.33301 -52.667 -55 -79 -137 -79c-23.333 0 -43 2.66699 -59 8c-10 2 -14.333 8.66699 -13 20l4 33
c2 10.667 9 14.334 21 11.001c8.66699 -2 18 -3 28 -3c34.667 0 53.334 10 56.001 30c1.33301 7.33301 -0.666992 13.166 -6 17.499s-14.333 7.16602 -27 8.49902c-10 1.33301 -17 5.66602 -21 12.999c-1.33301 1.33301 0.666992 6 6 14l24 51
c-51.333 10.667 -89.5 36.167 -114.5 76.5s-32.167 90.166 -21.5 149.499l22 124c10.667 61.333 38.5 108.5 83.5 141.5s100.167 49.5 165.5 49.5c57.333 0 108 -16 152 -48c8.66699 -6.66699 9.66699 -14.667 3 -24l-59 -76c-6.66699 -7.33301 -14.667 -8.33301 -24 -3
c-24 14 -49.667 21 -77 21c-53.333 0 -84.666 -25.667 -93.999 -77l-21 -118c-6 -30 -3.16699 -52.833 8.5 -68.5s30.167 -23.5 55.5 -23.5c30 0 61.333 9.66699 94 29c10.667 6.66699 18.667 4.66699 24 -6l39 -86c5.33301 -10 2.66602 -18 -8.00098 -24z" />
    <glyph glyph-name="egrave" unicode="&#xe8;" horiz-adv-x="519" 
d="M54 342c11.333 62.667 39.832 110.335 85.499 143.002s100.167 49 163.5 49c68 0 120.167 -18.333 156.5 -55s48.166 -90 35.499 -160l-17 -97c-2 -10 -8 -15 -18 -15h-278l-3 -14c-10 -52.667 13 -79 69 -79c42 0 85.333 13.333 130 40
c10.667 7.33301 18.334 5.66602 23.001 -5.00098l41 -77c4.66699 -11.333 2.66699 -19.333 -6 -24c-59.333 -40.667 -129 -61 -209 -61c-67.333 0 -120.166 19.167 -158.499 57.5s-51.833 89.166 -40.5 152.499zM345.999 307.001l5 25.001
c4 21.333 0.833008 39.166 -9.5 53.499s-27.5 21.5 -51.5 21.5c-22 0 -40.5 -6.33301 -55.5 -19s-24.833 -30.667 -29.5 -54l-5 -27h146zM309.999 735.002l62.999 -129.999c2.66699 -6 2.83398 -10.833 0.500977 -14.5s-6.5 -5.5 -12.5 -5.5h-69
c-9.33301 0 -16.333 3.66699 -21 11l-85 131c-4 5.33301 -4.83301 10.166 -2.5 14.499s6.83301 6.5 13.5 6.5h93c9.33301 0 16 -4.33301 20 -13z" />
    <glyph glyph-name="eacute" unicode="&#xe9;" horiz-adv-x="519" 
d="M54 342c11.333 62.667 39.832 110.335 85.499 143.002s100.167 49 163.5 49c68 0 120.167 -18.333 156.5 -55s48.166 -90 35.499 -160l-17 -97c-2 -10 -8 -15 -18 -15h-278l-3 -14c-10 -52.667 13 -79 69 -79c42 0 85.333 13.333 130 40
c10.667 7.33301 18.334 5.66602 23.001 -5.00098l41 -77c4.66699 -11.333 2.66699 -19.333 -6 -24c-59.333 -40.667 -129 -61 -209 -61c-67.333 0 -120.166 19.167 -158.499 57.5s-51.833 89.166 -40.5 152.499zM345.999 307.001l5 25.001
c4 21.333 0.833008 39.166 -9.5 53.499s-27.5 21.5 -51.5 21.5c-22 0 -40.5 -6.33301 -55.5 -19s-24.833 -30.667 -29.5 -54l-5 -27h146zM331.999 585.002l-78 0.000976562c-7.33301 0 -12 2.16699 -14 6.5s-0.666992 9.16602 4 14.499l107 132c6 6.66699 13.333 10 22 10
h104c7.33301 0 12 -2.33301 14 -7s0.333008 -9.66699 -5 -15l-133 -132c-5.33301 -6 -12.333 -9 -21 -9z" />
    <glyph glyph-name="ecircumflex" unicode="&#xea;" horiz-adv-x="519" 
d="M54 342c11.333 62.667 39.832 110.335 85.499 143.002s100.167 49 163.5 49c68 0 120.167 -18.333 156.5 -55s48.166 -90 35.499 -160l-17 -97c-2 -10 -8 -15 -18 -15h-278l-3 -14c-10 -52.667 13 -79 69 -79c42 0 85.333 13.333 130 40
c10.667 7.33301 18.334 5.66602 23.001 -5.00098l41 -77c4.66699 -11.333 2.66699 -19.333 -6 -24c-59.333 -40.667 -129 -61 -209 -61c-67.333 0 -120.166 19.167 -158.499 57.5s-51.833 89.166 -40.5 152.499zM345.999 307.001l5 25.001
c4 21.333 0.833008 39.166 -9.5 53.499s-27.5 21.5 -51.5 21.5c-22 0 -40.5 -6.33301 -55.5 -19s-24.833 -30.667 -29.5 -54l-5 -27h146zM403.999 726.002l83.001 -129.999c3.33301 -6 3.83301 -11 1.5 -15s-6.83301 -6 -13.5 -6h-85c-10.667 0 -17.667 4 -21 12l-37 65
l-63 -68c-6 -6 -13.333 -9 -22 -9h-90c-8 0 -12.833 2.16699 -14.5 6.5s0.166016 9.16602 5.49902 14.499l133 133c6 6 13 9 21 9h81c9.33301 0 16.333 -4 21 -12z" />
    <glyph glyph-name="edieresis" unicode="&#xeb;" horiz-adv-x="519" 
d="M54 342c11.333 62.667 39.832 110.335 85.499 143.002s100.167 49 163.5 49c68 0 120.167 -18.333 156.5 -55s48.166 -90 35.499 -160l-17 -97c-2 -10 -8 -15 -18 -15h-278l-3 -14c-10 -52.667 13 -79 69 -79c42 0 85.333 13.333 130 40
c10.667 7.33301 18.334 5.66602 23.001 -5.00098l41 -77c4.66699 -11.333 2.66699 -19.333 -6 -24c-59.333 -40.667 -129 -61 -209 -61c-67.333 0 -120.166 19.167 -158.499 57.5s-51.833 89.166 -40.5 152.499zM345.999 307.001l5 25.001
c4 21.333 0.833008 39.166 -9.5 53.499s-27.5 21.5 -51.5 21.5c-22 0 -40.5 -6.33301 -55.5 -19s-24.833 -30.667 -29.5 -54l-5 -27h146zM294.999 651.002c-4 -22 -13.167 -39.333 -27.5 -52s-31.833 -19 -52.5 -19s-36.667 7 -48 21s-15 32.333 -11 55
c4 22 13.5 39.167 28.5 51.5s32.833 18.5 53.5 18.5s36.5 -7 47.5 -21s14.167 -32 9.5 -54zM502.999 651.002c-4 -22 -12.999 -39.333 -26.999 -52s-31.333 -19 -52 -19s-36.834 6.83301 -48.501 20.5s-15.5 32.167 -11.5 55.5c4 22 13.5 39.167 28.5 51.5
s32.833 18.5 53.5 18.5s36.5 -7 47.5 -21s14.167 -32 9.5 -54z" />
    <glyph glyph-name="igrave" unicode="&#xec;" horiz-adv-x="258" 
d="M143 0h-116c-12.667 -0 -18 6.33301 -16 19l86 486c2 10 8.33301 15 19 15h116c12.667 0 18 -6 16 -18l-87 -486c-2 -10.667 -8 -16 -18 -16zM176 731l62.999 -129.999c2.66699 -6 2.83398 -10.833 0.500977 -14.5s-6.5 -5.5 -12.5 -5.5h-69
c-9.33301 0 -16.333 3.66699 -21 11l-85 131c-4 5.33301 -4.83301 10.166 -2.5 14.499s6.83301 6.5 13.5 6.5h93c9.33301 0 16 -4.33301 20 -13z" />
    <glyph glyph-name="iacute" unicode="&#xed;" horiz-adv-x="258" 
d="M143 0h-116c-12.667 -0 -18 6.33301 -16 19l86 486c2 10 8.33301 15 19 15h116c12.667 0 18 -6 16 -18l-87 -486c-2 -10.667 -8 -16 -18 -16zM202 579l-78 0.000976562c-7.33301 0 -12 2.16699 -14 6.5s-0.666992 9.16602 4 14.499l107 132c6 6.66699 13.333 10 22 10
h104c7.33301 0 12 -2.33301 14 -7s0.333008 -9.66699 -5 -15l-133 -132c-5.33301 -6 -12.333 -9 -21 -9z" />
    <glyph glyph-name="icircumflex" unicode="&#xee;" horiz-adv-x="255" 
d="M139 0h-112c-12.667 -0 -18 6.33301 -16 19l86 483c1.33301 10.667 7.33301 16 18 16h113c12.667 0 18 -6.33301 16 -19l-86 -483c-2 -10.667 -8.33301 -16 -19 -16zM121 573l-87.999 -0.000976562c-7.33301 0 -12 2.16699 -14 6.5s-0.333008 9.5 5 15.5l130 136
c5.33301 6 12.666 9 21.999 9h79c8 0 15 -4 21 -12l79 -134c3.33301 -5.33301 3.83301 -10.166 1.5 -14.499s-6.83301 -6.5 -13.5 -6.5h-91c-9.33301 0 -16 4 -20 12l-32 64l-58 -66c-6 -6.66699 -13 -10 -21 -10z" />
    <glyph glyph-name="idieresis" unicode="&#xef;" horiz-adv-x="258" 
d="M143 0h-116c-12.667 -0 -18 6.33301 -16 19l86 486c2 10 8.33301 15 19 15h116c12.667 0 18 -6 16 -18l-87 -486c-2 -10.667 -8 -16 -18 -16zM171 649c-4 -22 -13.167 -39.333 -27.5 -52s-31.833 -19 -52.5 -19s-36.667 7 -48 21s-15 32.333 -11 55
c4 22 13.5 39.167 28.5 51.5s32.833 18.5 53.5 18.5s36.5 -7 47.5 -21s14.167 -32 9.5 -54zM368 649c-4 -22 -12.999 -39.333 -26.999 -52s-31.333 -19 -52 -19s-36.834 6.83301 -48.501 20.5s-15.5 32.167 -11.5 55.5c4 22 13.5 39.167 28.5 51.5s32.833 18.5 53.5 18.5
s36.5 -7 47.5 -21s14.167 -32 9.5 -54z" />
    <glyph glyph-name="eth" unicode="&#xf0;" horiz-adv-x="546" 
d="M506 671l-48.998 -36c60.667 -70.667 80 -168.667 58 -294l-26 -144c-11.333 -66 -40.5 -117.5 -87.5 -154.5s-107.167 -55.5 -180.5 -55.5c-62.667 0 -113.834 20.667 -153.501 62s-53.167 95.666 -40.5 162.999l15 83c9.33301 52 35 95.167 77 129.5
s91.667 51.5 149 51.5c52 0 93 -17.333 123 -52c0.666992 50.667 -15 93.334 -47 128.001l-67 -49c-9.33301 -7.33301 -17.333 -6 -24 4l-18 27c-6.66699 10 -5 18.333 5 25l45 33c-29.333 12 -60.333 18 -93 18c-12.667 0 -18.334 6.33301 -17.001 19l16 89
c2 10.667 8 16 18 16c76.667 0 142 -18 196 -54l65 48c8.66699 7.33301 16.667 5.66602 24 -5.00098l17 -27c6 -9.33301 4.33301 -17.666 -5 -24.999zM177.002 195c-9.33301 -51.333 11.668 -77 63.001 -77c53.333 0 84.666 25.333 93.999 76l12 69
c5.33301 26 2.5 46.333 -8.5 61s-28.833 22 -53.5 22c-26 0 -47.167 -7 -63.5 -21s-26.833 -33 -31.5 -57z" />
    <glyph glyph-name="ntilde" unicode="&#xf1;" horiz-adv-x="546" 
d="M142 0h-116.001c-12.667 -0 -18 6.33301 -16 19l82 457c2 8.66699 7 14.667 15 18c70 26.667 137.667 40 203 40c74 0 128 -21.667 162 -65s44.667 -101 32 -173l-50 -280c-2 -10.667 -8.33301 -16 -19 -16h-115c-12 -0 -17.333 6.33301 -16 19l50 292
c12 61.333 -9 92 -63 92c-25.333 0 -46.666 -4 -63.999 -12l-66 -375c-2 -10.667 -8.33301 -16 -19 -16zM514.999 668c-32 -56 -69.3311 -83.998 -111.998 -83.998c-20 0 -45.333 7.66699 -76 23c-25.333 10.667 -43 16 -53 16c-15.333 0 -29.333 -7.33301 -42 -22
c-8.66699 -8.66699 -16.667 -10.334 -24 -5.00098l-47 31c-10 6.66699 -12.333 14.667 -7 24c34 55.333 73.333 83 118 83c19.333 0 43.666 -7.33301 72.999 -22c24 -11.333 41.333 -17 52 -17c12.667 0 25.667 7.33301 39 22c7.33301 9.33301 15.666 10.666 24.999 3.99902
l47 -32c10 -5.33301 12.333 -12.333 7 -21z" />
    <glyph glyph-name="ograve" unicode="&#xf2;" horiz-adv-x="535" 
d="M482 185c-11.333 -63.333 -39.333 -112.167 -84 -146.5s-103.667 -51.5 -177 -51.5c-66.667 0 -118.167 21.833 -154.5 65.5s-48.833 97.5 -37.5 161.5l21 124c11.333 60.667 40 108.5 86 143.5s103.667 52.5 173 52.5c67.333 0 119.5 -21.667 156.5 -65
s50.167 -96 39.5 -158zM179 198.999c-4.66699 -24.667 -1.83301 -44.332 8.5 -58.999s27.166 -22 50.499 -22c52.667 0 83.334 25 92.001 75l23 128c4 23.333 0.666992 42.833 -10 58.5s-27.667 23.5 -51 23.5c-24 0 -44 -6.83301 -60 -20.5s-26 -31.834 -30 -54.501z
M312.001 735.001l62.999 -129.999c2.66699 -6 2.83398 -10.833 0.500977 -14.5s-6.5 -5.5 -12.5 -5.5h-69c-9.33301 0 -16.333 3.66699 -21 11l-85 131c-4 5.33301 -4.83301 10.166 -2.5 14.499s6.83301 6.5 13.5 6.5h93c9.33301 0 16 -4.33301 20 -13z" />
    <glyph glyph-name="oacute" unicode="&#xf3;" horiz-adv-x="535" 
d="M482 185c-11.333 -63.333 -39.333 -112.167 -84 -146.5s-103.667 -51.5 -177 -51.5c-66.667 0 -118.167 21.833 -154.5 65.5s-48.833 97.5 -37.5 161.5l21 124c11.333 60.667 40 108.5 86 143.5s103.667 52.5 173 52.5c67.333 0 119.5 -21.667 156.5 -65
s50.167 -96 39.5 -158zM179 198.999c-4.66699 -24.667 -1.83301 -44.332 8.5 -58.999s27.166 -22 50.499 -22c52.667 0 83.334 25 92.001 75l23 128c4 23.333 0.666992 42.833 -10 58.5s-27.667 23.5 -51 23.5c-24 0 -44 -6.83301 -60 -20.5s-26 -31.834 -30 -54.501z
M335.001 585.001l-78 0.000976562c-7.33301 0 -12 2.16699 -14 6.5s-0.666992 9.16602 4 14.499l107 132c6 6.66699 13.333 10 22 10h104c7.33301 0 12 -2.33301 14 -7s0.333008 -9.66699 -5 -15l-133 -132c-5.33301 -6 -12.333 -9 -21 -9z" />
    <glyph glyph-name="ocircumflex" unicode="&#xf4;" horiz-adv-x="535" 
d="M482 185c-11.333 -63.333 -39.333 -112.167 -84 -146.5s-103.667 -51.5 -177 -51.5c-66.667 0 -118.167 21.833 -154.5 65.5s-48.833 97.5 -37.5 161.5l21 124c11.333 60.667 40 108.5 86 143.5s103.667 52.5 173 52.5c67.333 0 119.5 -21.667 156.5 -65
s50.167 -96 39.5 -158zM179 198.999c-4.66699 -24.667 -1.83301 -44.332 8.5 -58.999s27.166 -22 50.499 -22c52.667 0 83.334 25 92.001 75l23 128c4 23.333 0.666992 42.833 -10 58.5s-27.667 23.5 -51 23.5c-24 0 -44 -6.83301 -60 -20.5s-26 -31.834 -30 -54.501z
M407.001 726.001l83.001 -129.999c6.66699 -14 2.66699 -21 -12 -21h-85c-10.667 0 -17.667 4 -21 12l-37 65l-63 -68c-6 -6 -13.333 -9 -22 -9h-90c-8 0 -12.833 2.16699 -14.5 6.5s0.166016 9.16602 5.49902 14.499l133 133c6 6 13 9 21 9h81c9.33301 0 16.333 -4 21 -12z
" />
    <glyph glyph-name="otilde" unicode="&#xf5;" horiz-adv-x="535" 
d="M482 185c-11.333 -63.333 -39.333 -112.167 -84 -146.5s-103.667 -51.5 -177 -51.5c-66.667 0 -118.167 21.833 -154.5 65.5s-48.833 97.5 -37.5 161.5l21 124c11.333 60.667 40 108.5 86 143.5s103.667 52.5 173 52.5c67.333 0 119.5 -21.667 156.5 -65
s50.167 -96 39.5 -158zM179 198.999c-4.66699 -24.667 -1.83301 -44.332 8.5 -58.999s27.166 -22 50.499 -22c52.667 0 83.334 25 92.001 75l23 128c4 23.333 0.666992 42.833 -10 58.5s-27.667 23.5 -51 23.5c-24 0 -44 -6.83301 -60 -20.5s-26 -31.834 -30 -54.501z
M507.001 660.001c-32 -56 -69.3311 -83.998 -111.998 -83.998c-20 0 -45.333 7.66699 -76 23c-25.333 10.667 -43 16 -53 16c-15.333 0 -29.333 -7.33301 -42 -22c-8.66699 -8.66699 -16.667 -10.334 -24 -5.00098l-47 31c-10 6.66699 -12.333 14.667 -7 24
c34 55.333 73.333 83 118 83c19.333 0 43.666 -7.33301 72.999 -22c24 -11.333 41.333 -17 52 -17c12.667 0 25.667 7.33301 39 22c7.33301 9.33301 15.666 10.666 24.999 3.99902l47 -32c10 -5.33301 12.333 -12.333 7 -21z" />
    <glyph glyph-name="odieresis" unicode="&#xf6;" horiz-adv-x="535" 
d="M482 185c-11.333 -63.333 -39.333 -112.167 -84 -146.5s-103.667 -51.5 -177 -51.5c-66.667 0 -118.167 21.833 -154.5 65.5s-48.833 97.5 -37.5 161.5l21 124c11.333 60.667 40 108.5 86 143.5s103.667 52.5 173 52.5c67.333 0 119.5 -21.667 156.5 -65
s50.167 -96 39.5 -158zM179 198.999c-4.66699 -24.667 -1.83301 -44.332 8.5 -58.999s27.166 -22 50.499 -22c52.667 0 83.334 25 92.001 75l23 128c4 23.333 0.666992 42.833 -10 58.5s-27.667 23.5 -51 23.5c-24 0 -44 -6.83301 -60 -20.5s-26 -31.834 -30 -54.501z
M300.001 651.001c-4 -22 -13.167 -39.333 -27.5 -52s-31.833 -19 -52.5 -19s-36.667 7 -48 21s-15 32.333 -11 55c4 22 13.5 39.167 28.5 51.5s32.833 18.5 53.5 18.5s36.5 -7 47.5 -21s14.167 -32 9.5 -54zM508.001 651.001c-4 -22 -12.999 -39.333 -26.999 -52
s-31.333 -19 -52 -19s-36.834 6.83301 -48.501 20.5s-15.5 32.167 -11.5 55.5c4 22 13.5 39.167 28.5 51.5s32.833 18.5 53.5 18.5s36.5 -7 47.5 -21s14.167 -32 9.5 -54z" />
    <glyph glyph-name="divide" unicode="&#xf7;" 
d="M532 264h-431c-12 0 -17 6 -15 18l19 107c2 10.667 8 16 18 16h431c12 0 17 -6.33301 15 -19l-19 -107c-1.33301 -10 -7.33301 -15 -18 -15zM381 113c-4.66699 -24 -15.665 -43.333 -32.998 -58s-38.333 -22 -63 -22c-28.667 0 -50.334 9.5 -65.001 28.5
s-19.334 43.167 -14.001 72.5c4.66699 24 15.5 43.167 32.5 57.5s37.833 21.5 62.5 21.5c28.667 0 50.5 -9.33301 65.5 -28s19.833 -42.667 14.5 -72zM453.002 532c-4.66699 -23.333 -15.665 -42.167 -32.998 -56.5s-38.333 -21.5 -63 -21.5
c-28.667 0 -50.334 9.33301 -65.001 28s-19.334 42.667 -14.001 72c4.66699 24 15.5 43.333 32.5 58s37.5 22 61.5 22c29.333 0 51.5 -9.5 66.5 -28.5s19.833 -43.5 14.5 -73.5z" />
    <glyph glyph-name="oslash" unicode="&#xf8;" horiz-adv-x="536" 
d="M484 185c-11.333 -63.333 -39.332 -112.167 -83.999 -146.5s-103.667 -51.5 -177 -51.5c-28 0 -56 5 -84 15l-41 -57c-6 -6.66699 -13.333 -10 -22 -10h-71c-16 0 -19.333 6.66699 -10 20l70 100c-35.333 42.667 -47 95.667 -35 159l22 124
c11.333 60.667 40.166 108.5 86.499 143.5s104.5 52.5 174.5 52.5c30.667 0 58 -5 82 -15l43 59c6 6.66699 13.333 10 22 10h71c16 0 19.333 -6.66699 10 -20l-71 -101c36 -43.333 48.333 -95.333 37 -156zM181.001 198.999
c-4.66699 -24.667 -1.66895 -44.332 8.99805 -58.999s27.334 -22 50.001 -22c52.667 0 83.334 25 92.001 75l23 128c4.66699 23.333 1.5 42.833 -9.5 58.5s-28.167 23.5 -51.5 23.5c-24 0 -44 -6.83301 -60 -20.5s-26 -31.834 -30 -54.501z" />
    <glyph glyph-name="ugrave" unicode="&#xf9;" horiz-adv-x="541" 
d="M400 520h117.001c12 0 17 -6 15 -18l-81 -457c-2 -8.66699 -7 -14.667 -15 -18c-64.667 -26 -131.667 -39 -201 -39c-73.333 0 -126.833 21.5 -160.5 64.5s-44.167 100.167 -31.5 171.5l50 281c2 10 8 15 18 15h116c12 0 17 -6 15 -18l-50 -293
c-10.667 -60.667 9.66602 -91 60.999 -91c24 0 44.667 3.66699 62 11l67 376c1.33301 10 7.33301 15 18 15zM311.001 735l62.998 -129.999c2.66699 -6 2.83398 -10.833 0.500977 -14.5s-6.5 -5.5 -12.5 -5.5h-69c-9.33301 0 -16.333 3.66699 -21 11l-85 131
c-4 5.33301 -4.83301 10.166 -2.5 14.499s6.83301 6.5 13.5 6.5h93c8.66699 0 15.334 -4.33301 20.001 -13z" />
    <glyph glyph-name="uacute" unicode="&#xfa;" horiz-adv-x="541" 
d="M400 520h117.001c12 0 17 -6 15 -18l-81 -457c-2 -8.66699 -7 -14.667 -15 -18c-64.667 -26 -131.667 -39 -201 -39c-73.333 0 -126.833 21.5 -160.5 64.5s-44.167 100.167 -31.5 171.5l50 281c2 10 8 15 18 15h116c12 0 17 -6 15 -18l-50 -293
c-10.667 -60.667 9.66602 -91 60.999 -91c24 0 44.667 3.66699 62 11l67 376c1.33301 10 7.33301 15 18 15zM349.001 583l-78 0.000976562c-7.33301 0 -12 2.16699 -14 6.5s-0.666992 9.16602 4 14.499l107 132c6 6.66699 13.333 10 22 10h104c7.33301 0 12 -2.33301 14 -7
s0.333008 -9.66699 -5 -15l-133 -132c-5.33301 -6 -12.333 -9 -21 -9z" />
    <glyph glyph-name="ucircumflex" unicode="&#xfb;" horiz-adv-x="541" 
d="M400 520h117.001c12 0 17 -6 15 -18l-81 -457c-2 -8.66699 -7 -14.667 -15 -18c-64.667 -26 -131.667 -39 -201 -39c-73.333 0 -126.833 21.5 -160.5 64.5s-44.167 100.167 -31.5 171.5l50 281c2 10 8 15 18 15h116c12 0 17 -6 15 -18l-50 -293
c-10.667 -60.667 9.66602 -91 60.999 -91c24 0 44.667 3.66699 62 11l67 376c1.33301 10 7.33301 15 18 15zM411.001 736l83.001 -129.999c6.66699 -14 2.66699 -21 -12 -21h-85c-10.667 0 -17.667 4 -21 12l-37 65l-63 -68c-6 -6 -13.333 -9 -22 -9h-90
c-8 0 -12.833 2.16699 -14.5 6.5s0.166016 9.16602 5.49902 14.499l133 133c6 6 13 9 21 9h81c9.33301 0 16.333 -4 21 -12z" />
    <glyph glyph-name="udieresis" unicode="&#xfc;" horiz-adv-x="541" 
d="M400 520h117.001c12 0 17 -6 15 -18l-81 -457c-2 -8.66699 -7 -14.667 -15 -18c-64.667 -26 -131.667 -39 -201 -39c-73.333 0 -126.833 21.5 -160.5 64.5s-44.167 100.167 -31.5 171.5l50 281c2 10 8 15 18 15h116c12 0 17 -6 15 -18l-50 -293
c-10.667 -60.667 9.66602 -91 60.999 -91c24 0 44.667 3.66699 62 11l67 376c1.33301 10 7.33301 15 18 15zM303.001 653c-4 -22 -13.167 -39.333 -27.5 -52s-31.833 -19 -52.5 -19s-36.667 7 -48 21s-15 32.333 -11 55c4 22 13.5 39.167 28.5 51.5s32.833 18.5 53.5 18.5
s36.5 -7 47.5 -21s14.167 -32 9.5 -54zM511.001 653c-4 -22 -12.999 -39.333 -26.999 -52s-31.333 -19 -52 -19s-36.834 6.83301 -48.501 20.5s-15.5 32.167 -11.5 55.5c4 22 13.5 39.167 28.5 51.5s32.833 18.5 53.5 18.5s36.5 -7 47.5 -21s14.167 -32 9.5 -54z" />
    <glyph glyph-name="yacute" unicode="&#xfd;" horiz-adv-x="539" 
d="M316 159l61.002 346c2 10 8.33301 15 19 15h115c12 0 17.333 -6 16 -18l-80 -453c-16 -90 -44.833 -154.333 -86.5 -193s-103.167 -58 -184.5 -58c-75.333 0 -135.333 19.333 -180 58c-8.66699 6.66699 -9.33398 14.667 -2.00098 24l62 79c6 8.66699 14.333 10 25 4
c30 -21.333 65.667 -32 107 -32c32 0 56.5 7.66699 73.5 23s28.167 40.333 33.5 75c-30 -10 -58.333 -15 -85 -15c-61.333 0 -107.333 20.833 -138 62.5s-40.334 96.167 -29.001 163.5l48 265c0.666992 10 6.66699 15 18 15h115c12.667 0 18 -6 16 -18l-50 -276
c-10.667 -56 9 -84 59 -84c26 0 48.333 5.66699 67 17zM342.002 576l-78 0.000976562c-7.33301 0 -12 2.16699 -14 6.5s-0.666992 9.16602 4 14.499l107 132c6 6.66699 13.333 10 22 10h104c7.33301 0 12 -2.33301 14 -7s0.333008 -9.66699 -5 -15l-133 -132
c-5.33301 -6 -12.333 -9 -21 -9z" />
    <glyph glyph-name="thorn" unicode="&#xfe;" horiz-adv-x="539" 
d="M250 519c26 9.33301 51.6631 14 76.9961 14c62.667 0 111.334 -22 146.001 -66s46.334 -99.333 35.001 -166l-20 -115c-10 -59.333 -36.167 -107.333 -78.5 -144s-93.166 -55 -152.499 -55c-37.333 0 -69.666 7.33301 -96.999 22l-33 -185
c-1.33301 -10.667 -7.33301 -16 -18 -16h-116c-12 0 -17.333 6.33301 -16 19l154 872c2 10.667 8.33301 16 19 16h116c12 0 17.333 -6.33301 16 -19zM338.996 206l17.999 111c10.667 60 -10.666 90 -63.999 90c-24.667 0 -46.667 -6.33301 -66 -19l-45 -255
c16.667 -12.667 38 -19 64 -19c51.333 0 82.333 30.667 93 92z" />
    <glyph glyph-name="ydieresis" unicode="&#xff;" horiz-adv-x="539" 
d="M316 159l61.002 346c2 10 8.33301 15 19 15h115c12 0 17.333 -6 16 -18l-80 -453c-16 -90 -44.833 -154.333 -86.5 -193s-103.167 -58 -184.5 -58c-75.333 0 -135.333 19.333 -180 58c-8.66699 6.66699 -9.33398 14.667 -2.00098 24l62 79c6 8.66699 14.333 10 25 4
c30 -21.333 65.667 -32 107 -32c32 0 56.5 7.66699 73.5 23s28.167 40.333 33.5 75c-30 -10 -58.333 -15 -85 -15c-61.333 0 -107.333 20.833 -138 62.5s-40.334 96.167 -29.001 163.5l48 265c0.666992 10 6.66699 15 18 15h115c12.667 0 18 -6 16 -18l-50 -276
c-10.667 -56 9 -84 59 -84c26 0 48.333 5.66699 67 17zM301.002 657c-4 -22 -13.167 -39.333 -27.5 -52s-31.833 -19 -52.5 -19s-36.667 7 -48 21s-15 32.333 -11 55c4 22 13.5 39.167 28.5 51.5s32.833 18.5 53.5 18.5s36.5 -7 47.5 -21s14.167 -32 9.5 -54zM509.002 657
c-4 -22 -12.999 -39.333 -26.999 -52s-31.333 -19 -52 -19s-36.834 6.83301 -48.501 20.5s-15.5 32.167 -11.5 55.5c4 22 13.5 39.167 28.5 51.5s32.833 18.5 53.5 18.5s36.5 -7 47.5 -21s14.167 -32 9.5 -54z" />
    <glyph glyph-name="Amacron" unicode="&#x100;" 
d="M569 0h-124.999c-11.333 -0 -17.333 5.33301 -18 16l-14 117h-225l-54 -120c-2.66699 -8.66699 -9.33398 -13 -20.001 -13h-137c-14.667 0 -18.667 7 -12 21l333 681c4 8.66699 10.667 13 20 13h146c10.667 0 17 -5.33301 19 -16l103 -681c2 -12 -3.33301 -18 -16 -18z
M369.001 541l-4.00098 -0.00195312c-57.333 -135.333 -95.666 -224 -114.999 -266h146l-10 94c-4 38.667 -7.33301 72.334 -10 101.001s-5 52.334 -7 71.001zM539 785.998h-284c-5.33301 0 -9.5 1.83301 -12.5 5.5s-3.83301 8.16699 -2.5 13.5l14 74c2 10.667 8 16 18 16
h284c12 0 17 -6.33301 15 -19l-14 -74c-1.33301 -10.667 -7.33301 -16 -18 -16z" />
    <glyph glyph-name="amacron" unicode="&#x101;" horiz-adv-x="505" 
d="M406 22c-66.667 -23.333 -136 -34.999 -208 -34.999c-68.667 0 -120.167 17.667 -154.5 53s-46.5 80.666 -36.5 135.999c16.667 93.333 92.334 140 227.001 140c30 0 58.333 -2.66699 85 -8l2 16c4.66699 26 2 45.167 -8 57.5s-30 18.5 -60 18.5
c-46.667 0 -86.334 -7.66699 -119.001 -23c-11.333 -5.33301 -19 -2.66602 -23 8.00098l-31 82c-3.33301 10 -2.33301 16.667 3 20c52 31.333 120 47 204 47c68.667 0 119 -21.333 151 -64s41.333 -101.334 28 -176.001l-45 -253c-2 -10 -7 -16.333 -15 -19zM156 168.001
c-3.33301 -18.667 0.332031 -32.667 10.999 -42s27.334 -14 50.001 -14c22 0 45 2.66699 69 8l14 87c-22 4.66699 -43.333 7 -64 7c-48 0 -74.667 -15.333 -80 -46zM148.998 613.001l13 69c1.33301 10.667 7.33301 16 18 16h263c12 0 17 -6.33301 15 -19l-13 -69
c-2 -10.667 -8 -16 -18 -16h-262c-12.667 0 -18 6.33301 -16 19z" />
    <glyph glyph-name="Abreve" unicode="&#x102;" 
d="M569 0h-124.999c-11.333 -0 -17.333 5.33301 -18 16l-14 117h-225l-54 -120c-2.66699 -8.66699 -9.33398 -13 -20.001 -13h-137c-14.667 0 -18.667 7 -12 21l333 681c4 8.66699 10.667 13 20 13h146c10.667 0 17 -5.33301 19 -16l103 -681c2 -12 -3.33301 -18 -16 -18z
M369.001 541l-4.00098 -0.00195312c-57.333 -135.333 -95.666 -224 -114.999 -266h146l-10 94c-4 38.667 -7.33301 72.334 -10 101.001s-5 52.334 -7 71.001zM589 897.998c-26 -89.333 -91.666 -133.999 -196.999 -133.999c-43.333 0 -78.833 12.667 -106.5 38
s-42.167 57 -43.5 95c-0.666992 9.33301 4.33301 15.666 15 18.999l84 19c9.33301 2.66699 15.666 -2.33301 18.999 -15c3.33301 -26.667 20.333 -40 51 -40c32.667 0 55.667 14.333 69 43c5.33301 10.667 12.333 14.667 21 12l75 -19c12.667 -2.66699 17 -8.66699 13 -18z
" />
    <glyph glyph-name="abreve" unicode="&#x103;" horiz-adv-x="505" 
d="M406 22c-66.667 -23.333 -136 -34.999 -208 -34.999c-68.667 0 -120.167 17.667 -154.5 53s-46.5 80.666 -36.5 135.999c16.667 93.333 92.334 140 227.001 140c30 0 58.333 -2.66699 85 -8l2 16c4.66699 26 2 45.167 -8 57.5s-30 18.5 -60 18.5
c-46.667 0 -86.334 -7.66699 -119.001 -23c-11.333 -5.33301 -19 -2.66602 -23 8.00098l-31 82c-3.33301 10 -2.33301 16.667 3 20c52 31.333 120 47 204 47c68.667 0 119 -21.333 151 -64s41.333 -101.334 28 -176.001l-45 -253c-2 -10 -7 -16.333 -15 -19zM156 168.001
c-3.33301 -18.667 0.332031 -32.667 10.999 -42s27.334 -14 50.001 -14c22 0 45 2.66699 69 8l14 87c-22 4.66699 -43.333 7 -64 7c-48 0 -74.667 -15.333 -80 -46zM474.998 717.001c-13.333 -46 -34.667 -80.001 -64 -102.001s-70.333 -33 -123 -33
c-41.333 0 -74.833 13.333 -100.5 40s-37.834 58.334 -36.501 95.001c0 10 5.33301 16.333 16 19l72 12c10 2 16 -3.33301 18 -16c2.66699 -30.667 19.334 -46 50.001 -46c32 0 54 16.333 66 49c3.33301 10 10.333 14.333 21 13l68 -12c12 -2 16.333 -8.33301 13 -19z" />
    <glyph glyph-name="Aogonek" unicode="&#x104;" horiz-adv-x="631" 
d="M565 -177c-34 -18 -68.333 -26.999 -103 -26.999s-60.5 8.66699 -77.5 26s-23.167 41.666 -18.5 72.999c3.33301 19.333 13.5 38.666 30.5 57.999s38.833 35 65.5 47h-18c-11.333 0 -17.333 5.33301 -18 16l-14 117h-225l-54 -120
c-2.66699 -8.66699 -9.33398 -13 -20.001 -13h-136c-14 0 -18.333 7 -13 21l334 681c4 8.66699 10.667 13 20 13h145c10.667 0 17 -5.33301 19 -16l104 -681c0.666992 -7.33301 -1.16602 -12.166 -5.49902 -14.499s-12.166 -3.5 -23.499 -3.5
c-20 -8 -37.167 -18.333 -51.5 -31s-22.5 -25 -24.5 -37c-1.33301 -9.33301 0.666992 -16 6 -20s13.666 -6 24.999 -6c9.33301 0 22 2 38 6c12.667 4 19.667 0 21 -12l5 -56c0.666992 -10 -3 -17 -11 -21zM365 541.001c-57.333 -135.333 -95.667 -224.002 -115 -266.002h146
l-10 94c-4 38.667 -7.33301 72.334 -10 101.001s-5 52.334 -7 71.001h-4z" />
    <glyph glyph-name="aogonek" unicode="&#x105;" horiz-adv-x="509" 
d="M390 -176c-33.333 -16.667 -67 -25 -101 -25c-36 0 -62.5 8.83301 -79.5 26.5s-22.833 40.834 -17.5 69.501c6.66699 38.667 33.334 70.667 80.001 96c-30.667 -2.66699 -54 -4 -70 -4c-69.333 0 -122 17.5 -158 52.5s-48.667 80.833 -38 137.5
c18.667 92.667 94 139 226 139c30.667 0 60 -2.66699 88 -8l3 16c5.33301 26 2.83301 45.167 -7.5 57.5s-30.833 18.5 -61.5 18.5c-40.667 0 -79 -8.33301 -115 -25c-11.333 -5.33301 -19 -2.33301 -23 9l-34 81c-3.33301 10 -1.66602 17 5.00098 21
c54 32 119.333 48 196 48c71.333 0 123.166 -20.833 155.499 -62.5s41.833 -99.834 28.5 -174.501l-46 -261c-0.666992 -8 -5.66699 -14.333 -15 -19c-62 -24.667 -95.333 -53 -100 -85c-0.666992 -9.33301 1.66602 -15.833 6.99902 -19.5s13.333 -5.5 24 -5.5
c12.667 0 25.667 2 39 6c12 4 18.667 -0.333008 20 -13l6 -55c0.666992 -10 -3.33301 -17 -12 -21zM154 166c-3.33301 -18 0.831055 -31.5 12.498 -40.5s28.834 -13.5 51.501 -13.5c19.333 0 42.333 2.33301 69 7l15 86c-22 4.66699 -43 7 -63 7
c-51.333 0 -79.666 -15.333 -84.999 -46z" />
    <glyph glyph-name="Cacute" unicode="&#x106;" horiz-adv-x="570" 
d="M522 51c-71.333 -42.667 -150.664 -63.999 -237.997 -63.999c-84 0 -147.5 25.5 -190.5 76.5s-56.833 120.833 -41.5 209.5l35 203c14 81.333 49 143.666 105 186.999s125.667 65 209 65c77.333 0 143 -22.667 197 -68c9.33301 -6 10 -14 2 -24l-73 -86
c-6 -8 -14 -9 -24 -3c-34.667 24 -73.334 36 -116.001 36c-39.333 0 -71 -11 -95 -33s-39 -52 -45 -90l-35 -202c-6.66699 -40.667 -1.33398 -71.667 15.999 -93s45.666 -32 84.999 -32c50 0 97 14.667 141 44c10 6 18 3.66699 24 -7l47 -98c4.66699 -10 3.66699 -17 -3 -21
zM428.002 783.001h-84.999c-7.33301 0 -12 2.16699 -14 6.5s-0.666992 9.5 4 15.5l115 131c6 6.66699 13 10 21 10h112c7.33301 0 12 -2.33301 14 -7s0.333008 -9.66699 -5 -15l-142 -133c-6.66699 -5.33301 -13.334 -8 -20.001 -8z" />
    <glyph glyph-name="cacute" unicode="&#x107;" horiz-adv-x="451" 
d="M395 30c-51.333 -28.667 -108.667 -43 -172 -43c-68.667 0 -121 21.167 -157 63.5s-47.667 98.5 -35 168.5l22 124c10.667 61.333 38.5 108.5 83.5 141.5s100.167 49.5 165.5 49.5c57.333 0 108 -16 152 -48c8.66699 -6.66699 9.66699 -14.667 3 -24l-59 -76
c-6.66699 -7.33301 -14.667 -8.33301 -24 -3c-24 14 -49.667 21 -77 21c-53.333 0 -84.666 -25.667 -93.999 -77l-21 -118c-6 -30 -3.16699 -52.833 8.5 -68.5s30.167 -23.5 55.5 -23.5c30 0 61.333 9.66699 94 29c10.667 6.66699 18.667 4.66699 24 -6l39 -86
c5.33301 -10 2.66602 -18 -8.00098 -24zM312.999 585l-78 0.000976562c-7.33301 0 -12 2.16699 -14 6.5s-0.666992 9.16602 4 14.499l107 132c6 6.66699 13.333 10 22 10h104c7.33301 0 12 -2.33301 14 -7s0.333008 -9.66699 -5 -15l-133 -132
c-5.33301 -6 -12.333 -9 -21 -9z" />
    <glyph glyph-name="Cdotaccent" unicode="&#x10a;" horiz-adv-x="570" 
d="M522 51c-71.333 -42.667 -150.664 -63.999 -237.997 -63.999c-84 0 -147.5 25.5 -190.5 76.5s-56.833 120.833 -41.5 209.5l35 203c14 81.333 49 143.666 105 186.999s125.667 65 209 65c77.333 0 143 -22.667 197 -68c9.33301 -6 10 -14 2 -24l-73 -86
c-6 -8 -14 -9 -24 -3c-34.667 24 -73.334 36 -116.001 36c-39.333 0 -71 -11 -95 -33s-39 -52 -45 -90l-35 -202c-6.66699 -40.667 -1.33398 -71.667 15.999 -93s45.666 -32 84.999 -32c50 0 97 14.667 141 44c10 6 18 3.66699 24 -7l47 -98c4.66699 -10 3.66699 -17 -3 -21
zM501.002 855.001c-4 -22 -14.332 -40.001 -30.999 -54.001s-38.334 -21 -65.001 -21c-25.333 0 -44.666 8.5 -57.999 25.5s-18 37.167 -14 60.5c3.33301 22.667 13.666 41.334 30.999 56.001s38 22 62 22c26.667 0 47 -8.5 61 -25.5s18.667 -38.167 14 -63.5z" />
    <glyph glyph-name="cdotaccent" unicode="&#x10b;" horiz-adv-x="451" 
d="M395 30c-51.333 -28.667 -108.667 -43 -172 -43c-68.667 0 -121 21.167 -157 63.5s-47.667 98.5 -35 168.5l22 124c10.667 61.333 38.5 108.5 83.5 141.5s100.167 49.5 165.5 49.5c57.333 0 108 -16 152 -48c8.66699 -6.66699 9.66699 -14.667 3 -24l-59 -76
c-6.66699 -7.33301 -14.667 -8.33301 -24 -3c-24 14 -49.667 21 -77 21c-53.333 0 -84.666 -25.667 -93.999 -77l-21 -118c-6 -30 -3.16699 -52.833 8.5 -68.5s30.167 -23.5 55.5 -23.5c30 0 61.333 9.66699 94 29c10.667 6.66699 18.667 4.66699 24 -6l39 -86
c5.33301 -10 2.66602 -18 -8.00098 -24zM390.999 661c-4 -22 -13.833 -39.999 -29.5 -53.999s-35.167 -21 -58.5 -21s-41.333 8 -54 24s-16.667 35.667 -12 59c4 21.333 14.167 38.666 30.5 51.999s35.5 20 57.5 20c23.333 0 41.333 -7.5 54 -22.5s16.667 -34.167 12 -57.5z
" />
    <glyph glyph-name="Ccaron" unicode="&#x10c;" horiz-adv-x="570" 
d="M522 51c-71.333 -42.667 -150.664 -63.999 -237.997 -63.999c-84 0 -147.5 25.5 -190.5 76.5s-56.833 120.833 -41.5 209.5l35 203c14 81.333 49 143.666 105 186.999s125.667 65 209 65c77.333 0 143 -22.667 197 -68c9.33301 -6 10 -14 2 -24l-73 -86
c-6 -8 -14 -9 -24 -3c-34.667 24 -73.334 36 -116.001 36c-39.333 0 -71 -11 -95 -33s-39 -52 -45 -90l-35 -202c-6.66699 -40.667 -1.33398 -71.667 15.999 -93s45.666 -32 84.999 -32c50 0 97 14.667 141 44c10 6 18 3.66699 24 -7l47 -98c4.66699 -10 3.66699 -17 -3 -21
zM497.002 944.001h98c7.33301 0 12 -2.33301 14 -7s0.333008 -9.66699 -5 -15l-134 -132c-6 -6 -13 -9 -21 -9h-93c-9.33301 0 -16.333 3.66699 -21 11l-85 131c-3.33301 6 -4 11 -2 15s6.33301 6 13 6h100c9.33301 0 16.333 -4 21 -12l35 -64l59 66
c6.66699 6.66699 13.667 10 21 10z" />
    <glyph glyph-name="ccaron" unicode="&#x10d;" horiz-adv-x="451" 
d="M395 30c-51.333 -28.667 -108.667 -43 -172 -43c-68.667 0 -121 21.167 -157 63.5s-47.667 98.5 -35 168.5l22 124c10.667 61.333 38.5 108.5 83.5 141.5s100.167 49.5 165.5 49.5c57.333 0 108 -16 152 -48c8.66699 -6.66699 9.66699 -14.667 3 -24l-59 -76
c-6.66699 -7.33301 -14.667 -8.33301 -24 -3c-24 14 -49.667 21 -77 21c-53.333 0 -84.666 -25.667 -93.999 -77l-21 -118c-6 -30 -3.16699 -52.833 8.5 -68.5s30.167 -23.5 55.5 -23.5c30 0 61.333 9.66699 94 29c10.667 6.66699 18.667 4.66699 24 -6l39 -86
c5.33301 -10 2.66602 -18 -8.00098 -24zM233.999 590l-83.001 129.999c-3.33301 6 -3.83301 11 -1.5 15s6.83301 6 13.5 6h85c10.667 0 17.667 -4 21 -12l37 -65l63 68c6 6 13.333 9 22 9h90c8 0 12.833 -2.16699 14.5 -6.5s-0.166016 -9.16602 -5.49902 -14.499l-133 -133
c-6 -6 -13 -9 -21 -9h-81c-9.33301 0 -16.333 4 -21 12z" />
    <glyph glyph-name="Dcaron" unicode="&#x10e;" horiz-adv-x="647" 
d="M282 0l-239 0.000976562c-12 0 -17 6.33301 -15 19l120 680c1.33301 10.667 7.33301 16 18 16h235c78.667 0 140 -24.167 184 -72.5s58 -119.5 42 -213.5l-29 -165c-16 -94.667 -50.5 -162.334 -103.5 -203.001s-123.833 -61 -212.5 -61zM283 570.001l-74.999 -425h99
c71.333 0 114.666 42 129.999 126l31 178c7.33301 42.667 4 73.5 -10 92.5s-39 28.5 -75 28.5h-100zM478.001 927.001h98c7.33301 0 12 -2.33301 14 -7s0.333008 -9.66699 -5 -15l-134 -132c-6 -6 -13 -9 -21 -9h-93c-9.33301 0 -16.333 3.66699 -21 11l-85 131
c-3.33301 6 -4 11 -2 15s6.33301 6 13 6h100c9.33301 0 16.333 -4 21 -12l35 -64l59 66c6.66699 6.66699 13.667 10 21 10z" />
    <glyph glyph-name="dcaron" unicode="&#x10f;" horiz-adv-x="622" 
d="M429 24c-61.333 -24.667 -127.334 -37 -198.001 -37c-71.333 0 -125.666 21.833 -162.999 65.5s-50 99.167 -38 166.5l20 115c10.667 60 37 108.333 79 145s92.333 55 151 55c37.333 0 69 -7.33301 95 -22l34 187c1.33301 10.667 7.33301 16 18 16h116
c12 0 17.333 -6.33301 16 -19l-115 -654c-2 -9.33301 -7 -15.333 -15 -18zM180.999 208c-10.667 -58.667 10.333 -88 63 -88c26 0 47.333 3.66699 64 11l46 257c-17.333 12 -39.333 18 -66 18c-48 0 -77.333 -30.333 -88 -91zM641.999 510h-65c-14 0 -18.333 6.66699 -13 20
l63 171c3.33301 9.33301 10 14 20 14h83c15.333 0 19.333 -7 12 -21l-80 -171c-4 -8.66699 -10.667 -13 -20 -13z" />
    <glyph glyph-name="Dcroat" unicode="&#x110;" horiz-adv-x="662" 
d="M180 715l236 0.000976562c78.667 0 140 -24.333 184 -73s57.667 -119.667 41 -213l-28 -165c-16 -94.667 -50.667 -162.334 -104 -203.001s-124.333 -61 -213 -61h-239c-12 -0 -17 6.33301 -15 19l52 298h-60c-12 0 -17 6 -15 18l11 62c2 10 8.33301 15 19 15h61l52 287
c1.33301 10.667 7.33301 16 18 16zM451 271.001l31.001 178c7.33301 42 4 72.667 -10 92s-38.667 29 -74 29h-101l-28 -158h91c12 0 17 -6.33301 15 -19l-11 -61c-0.666992 -10 -6.66699 -15 -18 -15h-93l-31 -172h100c35.333 0 63.666 10 84.999 30s36 52 44 96z" />
    <glyph glyph-name="dcroat" unicode="&#x111;" horiz-adv-x="538" 
d="M430 24c-61.333 -24.667 -128 -37 -200 -37c-71.333 0 -125.833 22.333 -163.5 67s-50.5 99.667 -38.5 165l18 95c11.333 58 37.833 105 79.5 141s91.834 54 150.501 54c37.333 0 69.666 -7.33301 96.999 -22l14 85h-113c-12 0 -17 6.33301 -15 19l8 44c2 10 8 15 18 15
h116l9 49c2 10.667 8 16 18 16h116c12.667 0 18 -6.33301 16 -19l-8 -46h55c12.667 0 18 -6 16 -18l-8 -44c-2 -10.667 -8 -16 -18 -16h-59l-93 -530c-0.666992 -9.33301 -5.66699 -15.333 -15 -18zM180 208c-5.33301 -31.333 -2.83203 -53.833 7.50098 -67.5
s29.166 -20.5 56.499 -20.5s49.333 3.66699 66 11l40 232c-17.333 12 -39.333 18 -66 18c-49.333 0 -79 -28.667 -89 -86z" />
    <glyph glyph-name="Emacron" unicode="&#x112;" horiz-adv-x="572" 
d="M594 696l-19 -108c-2 -10.667 -8 -16 -18 -16h-272l-25 -139h238c12 0 17 -6.33301 15 -19l-19 -105c-2 -10.667 -8 -16 -18 -16h-241l-26 -149h283c12 0 17.333 -6.33301 16 -19l-18 -109c-2 -10.667 -8.33301 -16 -19 -16h-427c-12 -0 -17.333 6.33301 -16 19l121 680
c2 10.667 8 16 18 16h411c12.667 0 18 -6.33301 16 -19zM526 786h-284c-5.33301 0 -9.5 1.83301 -12.5 5.5s-3.83301 8.16699 -2.5 13.5l14 74c2 10.667 8 16 18 16h284c12 0 17 -6.33301 15 -19l-14 -74c-1.33301 -10.667 -7.33301 -16 -18 -16z" />
    <glyph glyph-name="emacron" unicode="&#x113;" horiz-adv-x="519" 
d="M54 342c11.333 62.667 39.832 110.335 85.499 143.002s100.167 49 163.5 49c68 0 120.167 -18.333 156.5 -55s48.166 -90 35.499 -160l-17 -97c-2 -10 -8 -15 -18 -15h-278l-3 -14c-10 -52.667 13 -79 69 -79c42 0 85.333 13.333 130 40
c10.667 7.33301 18.334 5.66602 23.001 -5.00098l41 -77c4.66699 -11.333 2.66699 -19.333 -6 -24c-59.333 -40.667 -129 -61 -209 -61c-67.333 0 -120.166 19.167 -158.499 57.5s-51.833 89.166 -40.5 152.499zM345.999 307.001l5 25.001
c4 21.333 0.833008 39.166 -9.5 53.499s-27.5 21.5 -51.5 21.5c-22 0 -40.5 -6.33301 -55.5 -19s-24.833 -30.667 -29.5 -54l-5 -27h146zM170.999 612.002l13 69c1.33301 10.667 7.33301 16 18 16h263c12 0 17 -6.33301 15 -19l-13 -69c-2 -10.667 -8 -16 -18 -16h-262
c-12.667 0 -18 6.33301 -16 19z" />
    <glyph glyph-name="Edotaccent" unicode="&#x116;" horiz-adv-x="572" 
d="M594 696l-19 -108c-2 -10.667 -8 -16 -18 -16h-272l-25 -139h238c12 0 17 -6.33301 15 -19l-19 -105c-2 -10.667 -8 -16 -18 -16h-241l-26 -149h283c12 0 17.333 -6.33301 16 -19l-18 -109c-2 -10.667 -8.33301 -16 -19 -16h-427c-12 -0 -17.333 6.33301 -16 19l121 680
c2 10.667 8 16 18 16h411c12.667 0 18 -6.33301 16 -19zM476 845c-4 -22 -14.332 -40.001 -30.999 -54.001s-38.334 -21 -65.001 -21c-25.333 0 -44.666 8.5 -57.999 25.5s-18 37.167 -14 60.5c3.33301 22.667 13.666 41.334 30.999 56.001s38 22 62 22
c26.667 0 47 -8.5 61 -25.5s18.667 -38.167 14 -63.5z" />
    <glyph glyph-name="edotaccent" unicode="&#x117;" horiz-adv-x="519" 
d="M54 342c11.333 62.667 39.832 110.335 85.499 143.002s100.167 49 163.5 49c68 0 120.167 -18.333 156.5 -55s48.166 -90 35.499 -160l-17 -97c-2 -10 -8 -15 -18 -15h-278l-3 -14c-10 -52.667 13 -79 69 -79c42 0 85.333 13.333 130 40
c10.667 7.33301 18.334 5.66602 23.001 -5.00098l41 -77c4.66699 -11.333 2.66699 -19.333 -6 -24c-59.333 -40.667 -129 -61 -209 -61c-67.333 0 -120.166 19.167 -158.499 57.5s-51.833 89.166 -40.5 152.499zM345.999 307.001l5 25.001
c4 21.333 0.833008 39.166 -9.5 53.499s-27.5 21.5 -51.5 21.5c-22 0 -40.5 -6.33301 -55.5 -19s-24.833 -30.667 -29.5 -54l-5 -27h146zM403.999 662.002c-4 -22 -13.833 -39.999 -29.5 -53.999s-35.167 -21 -58.5 -21s-41.333 8 -54 24s-16.667 35.667 -12 59
c4 21.333 14.167 38.666 30.5 51.999s35.5 20 57.5 20c23.333 0 41.333 -7.5 54 -22.5s16.667 -34.167 12 -57.5z" />
    <glyph glyph-name="Eogonek" unicode="&#x118;" horiz-adv-x="572" 
d="M594 696l-18.9971 -107.998c-2 -10.667 -8 -16 -18 -16h-272l-25 -139h238c12 0 17 -6.33301 15 -19l-19 -105c-2 -10.667 -8 -16 -18 -16h-241l-26 -149h283c12 0 17.333 -6.33301 16 -19l-18 -111c-2 -8.66699 -7.33301 -15 -16 -19
c-19.333 -8.66699 -35.5 -18.834 -48.5 -30.501s-20.5 -22.834 -22.5 -33.501c-0.666992 -9.33301 1.66602 -16 6.99902 -20s13.333 -6 24 -6c13.333 0 25.333 2 36 6c12 4 18.667 0 20 -12l6 -57c1.33301 -9.33301 -2.33398 -16.333 -11.001 -21
c-28.667 -16 -63.334 -24 -104.001 -24c-34 0 -59.5 8.5 -76.5 25.5s-23.167 40.5 -18.5 70.5c7.33301 46 42.333 81.667 105 107h-347c-12 -0 -17.333 6.33301 -16 19l120 680c2 10.667 8.33301 16 19 16h412c12 0 17 -6.33301 15 -19z" />
    <glyph glyph-name="eogonek" unicode="&#x119;" horiz-adv-x="514" 
d="M351 -176c-33.333 -16.667 -67.3311 -25.001 -101.998 -25.001s-60.667 8.66699 -78 26s-23.333 41 -18 71c6 34.667 28 65 66 91h-7c-62.667 2.66699 -111.667 23 -147 61s-47.666 87.667 -36.999 149l26 146c11.333 62 39.5 109.333 84.5 142s98.5 49 160.5 49
c67.333 0 119.166 -18.167 155.499 -54.5s48.166 -89.166 35.499 -158.499l-17 -99c-2 -10.667 -8.33301 -16 -19 -16h-275l-2 -12c-9.33301 -53.333 13 -80 67 -80c41.333 0 84.333 13.333 129 40c10.667 7.33301 18.667 5.66602 24 -5.00098l39 -73
c5.33301 -10 3.66602 -18.333 -5.00098 -25c-24.667 -16.667 -54.334 -31.667 -89.001 -45c-20.667 -8.66699 -37.834 -19.667 -51.501 -33s-21.5 -26.333 -23.5 -39c-1.33301 -9.33301 0.833984 -16.166 6.50098 -20.499s14.167 -6.5 25.5 -6.5c12.667 0 25.334 2 38.001 6
c12 4 18.667 -0.333008 20 -13l6 -55c0.666992 -10 -3.33301 -17 -12 -21zM202.002 334.999l-5 -29.999h141l5 29c4 21.333 1.33301 39.166 -8 53.499s-25.333 21.5 -48 21.5c-22 0 -40.667 -6.66699 -56 -20s-25 -31.333 -29 -54z" />
    <glyph glyph-name="Ecaron" unicode="&#x11a;" horiz-adv-x="572" 
d="M594 696l-19 -108c-2 -10.667 -8 -16 -18 -16h-272l-25 -139h238c12 0 17 -6.33301 15 -19l-19 -105c-2 -10.667 -8 -16 -18 -16h-241l-26 -149h283c12 0 17.333 -6.33301 16 -19l-18 -109c-2 -10.667 -8.33301 -16 -19 -16h-427c-12 -0 -17.333 6.33301 -16 19l121 680
c2 10.667 8 16 18 16h411c12.667 0 18 -6.33301 16 -19zM479 928h98c7.33301 0 12 -2.33301 14 -7s0.333008 -9.66699 -5 -15l-134 -132c-6 -6 -13 -9 -21 -9h-93c-9.33301 0 -16.333 3.66699 -21 11l-85 131c-3.33301 6 -4 11 -2 15s6.33301 6 13 6h100
c9.33301 0 16.333 -4 21 -12l35 -64l59 66c6.66699 6.66699 13.667 10 21 10z" />
    <glyph glyph-name="ecaron" unicode="&#x11b;" horiz-adv-x="519" 
d="M54 342c11.333 62.667 39.832 110.335 85.499 143.002s100.167 49 163.5 49c68 0 120.167 -18.333 156.5 -55s48.166 -90 35.499 -160l-17 -97c-2 -10 -8 -15 -18 -15h-278l-3 -14c-10 -52.667 13 -79 69 -79c42 0 85.333 13.333 130 40
c10.667 7.33301 18.334 5.66602 23.001 -5.00098l41 -77c4.66699 -11.333 2.66699 -19.333 -6 -24c-59.333 -40.667 -129 -61 -209 -61c-67.333 0 -120.166 19.167 -158.499 57.5s-51.833 89.166 -40.5 152.499zM345.999 307.001l5 25.001
c4 21.333 0.833008 39.166 -9.5 53.499s-27.5 21.5 -51.5 21.5c-22 0 -40.5 -6.33301 -55.5 -19s-24.833 -30.667 -29.5 -54l-5 -27h146zM253.999 596.002l-83.001 129.999c-3.33301 6 -3.83301 11 -1.5 15s6.83301 6 13.5 6h85c10.667 0 17.667 -4 21 -12l37 -65l63 68
c6 6 13.333 9 22 9h90c8 0 12.833 -2.16699 14.5 -6.5s-0.166016 -9.16602 -5.49902 -14.499l-133 -133c-6 -6 -13 -9 -21 -9h-81c-9.33301 0 -16.333 4 -21 12z" />
    <glyph glyph-name="Gbreve" unicode="&#x11e;" horiz-adv-x="629" 
d="M544 83c-33.333 -29.333 -73.833 -52.501 -121.5 -69.501s-96.5 -25.5 -146.5 -25.5c-78.667 0 -139.167 26.167 -181.5 78.5s-56.833 117.833 -43.5 196.5l36 214c14 80 49.167 141.833 105.5 185.5s125.166 65.5 206.499 65.5c88 0 162.667 -24 224 -72
c8 -7.33301 8.66699 -15.666 2 -24.999l-77 -87c-6 -8 -14 -9.33301 -24 -4c-40 28.667 -87 43 -141 43c-36.667 0 -67 -10.667 -91 -32s-39 -51 -45 -89l-36 -210c-5.33301 -34.667 -0.166016 -63 15.501 -85s40.167 -33 73.5 -33c44 1.33301 81.333 10.333 112 27l23 125
h-106c-12 0 -17 6.33301 -15 19l17 95c1.33301 10.667 7.33301 16 18 16h242c12 0 17 -6.33301 15 -19l-52 -295c-2 -8.66699 -5.33301 -15 -10 -19zM592 908.999c-26 -89.333 -91.666 -133.999 -196.999 -133.999c-43.333 0 -78.833 12.667 -106.5 38s-42.167 57 -43.5 95
c-0.666992 9.33301 4.33301 15.666 15 18.999l84 19c9.33301 2.66699 15.666 -2.33301 18.999 -15c3.33301 -26.667 20.333 -40 51 -40c32.667 0 55.667 14.333 69 43c5.33301 10.667 12.333 14.667 21 12l75 -19c12.667 -2.66699 17 -8.66699 13 -18z" />
    <glyph glyph-name="gbreve" unicode="&#x11f;" horiz-adv-x="539" 
d="M449 49c-16 -90.667 -44.166 -155.168 -84.499 -193.501s-103.5 -57.5 -189.5 -57.5c-74 0 -134.333 20 -181 60c-8.66699 6.66699 -9.33398 14.667 -2.00098 24l61 78c7.33301 9.33301 15.333 10.333 24 3c32 -20.667 69 -31 111 -31c60 0 96.333 32.333 109 97
c-31.333 -10 -61 -15 -89 -15c-64.667 0 -113 20.5 -145 61.5s-42 94.5 -30 160.5l17 95c12 68 41.333 118.833 88 152.5s104 50.5 172 50.5c72 0 139 -14 201 -42c9.33301 -5.33301 13 -12.666 11 -21.999zM184.001 222.999c-9.33301 -53.333 11.002 -80 61.002 -80
c31.333 0 55.666 6.33301 72.999 19l39 228c-12.667 8 -32.667 12 -60 12c-54.667 0 -86.334 -25.333 -95.001 -76zM512.003 717.999c-13.333 -46 -34.667 -80.001 -64 -102.001s-70.333 -33 -123 -33c-41.333 0 -74.833 13.333 -100.5 40s-37.834 58.334 -36.501 95.001
c0 10 5.33301 16.333 16 19l72 12c10 2 16 -3.33301 18 -16c2.66699 -30.667 19.334 -46 50.001 -46c32 0 54 16.333 66 49c3.33301 10 10.333 14.333 21 13l68 -12c12 -2 16.333 -8.33301 13 -19z" />
    <glyph glyph-name="Gdotaccent" unicode="&#x120;" horiz-adv-x="629" 
d="M544 83c-33.333 -29.333 -73.833 -52.501 -121.5 -69.501s-96.5 -25.5 -146.5 -25.5c-78.667 0 -139.167 26.167 -181.5 78.5s-56.833 117.833 -43.5 196.5l36 214c14 80 49.167 141.833 105.5 185.5s125.166 65.5 206.499 65.5c88 0 162.667 -24 224 -72
c8 -7.33301 8.66699 -15.666 2 -24.999l-77 -87c-6 -8 -14 -9.33301 -24 -4c-40 28.667 -87 43 -141 43c-36.667 0 -67 -10.667 -91 -32s-39 -51 -45 -89l-36 -210c-5.33301 -34.667 -0.166016 -63 15.501 -85s40.167 -33 73.5 -33c44 1.33301 81.333 10.333 112 27l23 125
h-106c-12 0 -17 6.33301 -15 19l17 95c1.33301 10.667 7.33301 16 18 16h242c12 0 17 -6.33301 15 -19l-52 -295c-2 -8.66699 -5.33301 -15 -10 -19zM497 856.999c-4 -22 -14.332 -40.001 -30.999 -54.001s-38.334 -21 -65.001 -21c-25.333 0 -44.666 8.5 -57.999 25.5
s-18 37.167 -14 60.5c3.33301 22.667 13.666 41.334 30.999 56.001s38 22 62 22c26.667 0 47 -8.5 61 -25.5s18.667 -38.167 14 -63.5z" />
    <glyph glyph-name="gdotaccent" unicode="&#x121;" horiz-adv-x="539" 
d="M449 49c-16 -90.667 -44.166 -155.168 -84.499 -193.501s-103.5 -57.5 -189.5 -57.5c-74 0 -134.333 20 -181 60c-8.66699 6.66699 -9.33398 14.667 -2.00098 24l61 78c7.33301 9.33301 15.333 10.333 24 3c32 -20.667 69 -31 111 -31c60 0 96.333 32.333 109 97
c-31.333 -10 -61 -15 -89 -15c-64.667 0 -113 20.5 -145 61.5s-42 94.5 -30 160.5l17 95c12 68 41.333 118.833 88 152.5s104 50.5 172 50.5c72 0 139 -14 201 -42c9.33301 -5.33301 13 -12.666 11 -21.999zM184.001 222.999c-9.33301 -53.333 11.002 -80 61.002 -80
c31.333 0 55.666 6.33301 72.999 19l39 228c-12.667 8 -32.667 12 -60 12c-54.667 0 -86.334 -25.333 -95.001 -76zM419.003 663.999c-4 -22 -13.833 -39.999 -29.5 -53.999s-35.167 -21 -58.5 -21s-41.333 8 -54 24s-16.667 35.667 -12 59
c4 21.333 14.167 38.666 30.5 51.999s35.5 20 57.5 20c23.333 0 41.333 -7.5 54 -22.5s16.667 -34.167 12 -57.5z" />
    <glyph glyph-name="uni0122" unicode="&#x122;" horiz-adv-x="629" 
d="M544 83c-33.333 -29.333 -73.833 -52.501 -121.5 -69.501s-96.5 -25.5 -146.5 -25.5c-78.667 0 -139.167 26.167 -181.5 78.5s-56.833 117.833 -43.5 196.5l36 214c14 80 49.167 141.833 105.5 185.5s125.166 65.5 206.499 65.5c88 0 162.667 -24 224 -72
c8 -7.33301 8.66699 -15.666 2 -24.999l-77 -87c-6 -8 -14 -9.33301 -24 -4c-40 28.667 -87 43 -141 43c-36.667 0 -67 -10.667 -91 -32s-39 -51 -45 -89l-36 -210c-5.33301 -34.667 -0.166016 -63 15.501 -85s40.167 -33 73.5 -33c44 1.33301 81.333 10.333 112 27l23 125
h-106c-12 0 -17 6.33301 -15 19l17 95c1.33301 10.667 7.33301 16 18 16h242c12 0 17 -6.33301 15 -19l-52 -295c-2 -8.66699 -5.33301 -15 -10 -19zM236 -245.001l-81 -0.000976562c-7.33301 0 -12.5 1.66699 -15.5 5s-3.16699 7.33301 -0.5 12l76 156
c2.66699 8.66699 10 13 22 13h109c7.33301 0 12.333 -1.66699 15 -5s2 -7.66602 -2 -12.999l-99 -157c-5.33301 -7.33301 -13.333 -11 -24 -11z" />
    <glyph glyph-name="uni0123" unicode="&#x123;" horiz-adv-x="539" 
d="M449 49c-16 -90.667 -44.166 -155.168 -84.499 -193.501s-103.5 -57.5 -189.5 -57.5c-74 0 -134.333 20 -181 60c-8.66699 6.66699 -9.33398 14.667 -2.00098 24l61 78c7.33301 9.33301 15.333 10.333 24 3c32 -20.667 69 -31 111 -31c60 0 96.333 32.333 109 97
c-31.333 -10 -61 -15 -89 -15c-64.667 0 -113 20.5 -145 61.5s-42 94.5 -30 160.5l17 95c12 68 41.333 118.833 88 152.5s104 50.5 172 50.5c72 0 139 -14 201 -42c9.33301 -5.33301 13 -12.666 11 -21.999zM184.001 222.999c-9.33301 -53.333 11.002 -80 61.002 -80
c31.333 0 55.666 6.33301 72.999 19l39 228c-12.667 8 -32.667 12 -60 12c-54.667 0 -86.334 -25.333 -95.001 -76zM370.003 584.999h-92.001c-16 0 -20.333 6 -13 18l90 148c6 6.66699 14 10 24 10h70c15.333 0 20.333 -5.66699 15 -17l-72 -147
c-3.33301 -8 -10.666 -12 -21.999 -12z" />
    <glyph glyph-name="Hbar" unicode="&#x126;" horiz-adv-x="692" 
d="M673 630h52c12.667 0 18 -6.33301 16 -19l-12 -61c-1.33301 -10.667 -7.33301 -16 -18 -16h-55l-92 -518c-1.33301 -10.667 -7.33301 -16 -18 -16h-124c-12 -0 -17 6.33301 -15 19l48 270h-207l-48 -273c-2 -10.667 -8.33301 -16 -19 -16h-123
c-12.667 -0 -18 6.33301 -16 19l91 515h-67c-12 0 -17 6.33301 -15 19l11 61c2 10.667 8 16 18 16h70l12 69c2 10.667 8.33301 16 19 16h123c12.667 0 18 -6.33301 16 -19l-12 -66h207l12 69c2 10.667 8 16 18 16h124c12 0 17.333 -6.33301 16 -19zM274 434h206l17 100h-206
z" />
    <glyph glyph-name="hbar" unicode="&#x127;" horiz-adv-x="546" 
d="M243 487c28 14.667 62.001 22 102.001 22c59.333 0 103.5 -21.167 132.5 -63.5s36.833 -99.833 23.5 -172.5l-48 -257c-2 -10.667 -8 -16 -18 -16h-116c-12 -0 -17 6.33301 -15 19l49 271c11.333 58.667 -9 88 -61 88c-26.667 0 -50.334 -6.33301 -71.001 -19l-60 -343
c-2 -10.667 -8.33301 -16 -19 -16h-115c-12 -0 -17.333 6.33301 -16 19l98 553h-54c-12.667 0 -18 6.33301 -16 19l9 44c2 10 8 15 18 15h57l8 49c2 10.667 8.33301 16 19 16h114c12.667 0 18 -6.33301 16 -19l-8 -46h105c12 0 17.333 -6 16 -18l-9 -44
c-0.666992 -10.667 -6.66699 -16 -18 -16h-108z" />
    <glyph glyph-name="Imacron" unicode="&#x12a;" horiz-adv-x="302" 
d="M361 785h-238c-12 0 -17 6.33301 -15 19l13 74c2 10.667 8 16 18 16h238c12 0 17.333 -6.33301 16 -19l-14 -74c-0.666992 -10.667 -6.66699 -16 -18 -16zM169 0h-126c-12 -0 -17 6.33301 -15 19l120 680c2 10.667 8 16 18 16h126c12 0 17.333 -6.33301 16 -19l-121 -680
c-1.33301 -10.667 -7.33301 -16 -18 -16z" />
    <glyph glyph-name="imacron" unicode="&#x12b;" horiz-adv-x="255" 
d="M303 593h-239c-12 0 -17.333 6.33301 -16 19l13 69c2 10.667 8 16 18 16h240c12 0 17 -6.33301 15 -19l-13 -69c-1.33301 -10.667 -7.33301 -16 -18 -16zM139 0h-112c-12.667 -0 -18 6.33301 -16 19l86 483c1.33301 10.667 7.33301 16 18 16h113
c12.667 0 18 -6.33301 16 -19l-86 -483c-2 -10.667 -8.33301 -16 -19 -16z" />
    <glyph glyph-name="Iogonek" unicode="&#x12e;" horiz-adv-x="304" 
d="M166 -177c-34.667 -16.667 -69.002 -25.002 -103.002 -25.002c-34.667 0 -60.667 8.66699 -78 26s-23.666 41 -18.999 71c3.33301 20.667 13.333 40.334 30 59.001s38.334 34 65.001 46h-17c-12.667 0 -18 6.33301 -16 19l120 680c1.33301 10.667 7.33301 16 18 16h128
c12 0 17.333 -6.33301 16 -19l-120 -680c-0.666992 -8 -3.5 -12.833 -8.5 -14.5s-13.5 -2.5 -25.5 -2.5c-19.333 -8.66699 -35.833 -19.167 -49.5 -31.5s-21.5 -24.166 -23.5 -35.499c-1.33301 -9.33301 0.5 -16 5.5 -20s13.167 -6 24.5 -6c9.33301 0 22 2 38 6
c12.667 4 19.667 0 21 -12l5 -56c0.666992 -10 -3 -17 -11 -21z" />
    <glyph glyph-name="iogonek" unicode="&#x12f;" horiz-adv-x="255" 
d="M135 -182c-32 -13.333 -65 -20.001 -99 -20.001c-36.667 0 -63.5 9 -80.5 27s-22.833 43 -17.5 75c7.33301 40 38 73.333 92 100h-10c-8 0 -11 6.33301 -9 19l86 483c1.33301 10.667 7.33301 16 18 16h113c12.667 0 18 -6.33301 16 -19l-86 -483
c-2 -10.667 -10 -16 -24 -16c-23.333 -9.33301 -42.333 -21.166 -57 -35.499s-22.667 -27.833 -24 -40.5c-1.33301 -8 0.666992 -13.667 6 -17s14 -5 26 -5s24 1.66699 36 5c13.333 4 20.333 0 21 -12l5 -56c0.666992 -10 -3.33301 -17 -12 -21zM278 666.999
c-4.66699 -23.333 -15.8311 -42.6689 -33.498 -58.002s-37.834 -23 -60.501 -23c-25.333 0 -44.833 8.33301 -58.5 25s-18.167 37.334 -13.5 62.001c4 24 15 43.5 33 58.5s39.333 22.5 64 22.5c24 0 42.667 -8.16699 56 -24.5s17.666 -37.166 12.999 -62.499z" />
    <glyph glyph-name="Idotaccent" unicode="&#x130;" horiz-adv-x="300" 
d="M306 696l-120 -680c-2 -10.667 -8 -16 -18 -16h-124c-12 -0 -17.333 6.33301 -16 19l120 680c2 10.667 8.33301 16 19 16h123c12.667 0 18 -6.33301 16 -19zM342 865c-4 -22 -14.332 -40.001 -30.999 -54.001s-38.334 -21 -65.001 -21
c-25.333 0 -44.666 8.5 -57.999 25.5s-18 37.167 -14 60.5c3.33301 22.667 13.666 41.334 30.999 56.001s38 22 62 22c26.667 0 47 -8.5 61 -25.5s18.667 -38.167 14 -63.5z" />
    <glyph glyph-name="dotlessi" unicode="&#x131;" horiz-adv-x="258" 
d="M143 0h-116c-12.667 -0 -18 6.33301 -16 19l86 486c2 10 8.33301 15 19 15h116c12.667 0 18 -6 16 -18l-87 -486c-2 -10.667 -8 -16 -18 -16z" />
    <glyph glyph-name="IJ" unicode="&#x132;" horiz-adv-x="823" 
d="M306 696l-120 -680c-2 -10.667 -8 -16 -18 -16h-124c-12 -0 -17.333 6.33301 -16 19l120 680c2 10.667 8.33301 16 19 16h123c12.667 0 18 -6.33301 16 -19zM751 226c-13.333 -76 -44.5 -134.667 -93.5 -176s-110.833 -62 -185.5 -62c-74 0 -137.667 23 -191 69
c-8 8 -8.66699 16.333 -2 25l68 88c6.66699 8 15 9 25 3c32 -26 70 -39 114 -39c58 0 93 32.667 105 98l82 467c2 10.667 8.33301 16 19 16h124c12 0 17.333 -6.33301 16 -19z" />
    <glyph glyph-name="ij" unicode="&#x133;" horiz-adv-x="552" 
d="M142 0h-116c-12 -0 -17 6.33301 -15 19l86 486c0.666992 10 6.66699 15 18 15h116c12.667 0 18 -6 16 -18l-86 -486c-2 -10.667 -8.33301 -16 -19 -16zM280 665c-4 -20.667 -14.168 -37.833 -30.501 -51.5s-35.5 -20.5 -57.5 -20.5c-25.333 0 -45.166 9 -59.499 27
s-18.833 40 -13.5 66c4 22 14 39.667 30 53s35.333 20 58 20c25.333 0 45 -9 59 -27s18.667 -40.333 14 -67zM452.999 -0.999023c-13.333 -74 -38.333 -126 -75 -156s-82.667 -45 -138 -45c-14 0 -29.667 1.33301 -47 4c-10.667 2 -15 9 -13 21l18 102
c2 11.333 7.66699 16.333 17 15c5.33301 -0.666992 13.666 -1 24.999 -1c34.667 0 56.334 26 65.001 78l85 488c2 10 8.33301 15 19 15h116c12 0 17 -6 15 -18zM572.999 665.001c-4 -20.667 -14.1699 -37.833 -30.5029 -51.5s-35.5 -20.5 -57.5 -20.5
c-25.333 0 -45.166 9 -59.499 27s-18.833 40 -13.5 66c4.66699 22 14.834 39.667 30.501 53s34.834 20 57.501 20c25.333 0 45 -9 59 -27s18.667 -40.333 14 -67z" />
    <glyph glyph-name="uni0136" unicode="&#x136;" horiz-adv-x="627" 
d="M509 715h161c7.33301 0 12 -2.16699 14 -6.5s0.666992 -9.5 -4 -15.5l-283 -300l191 -372c2.66699 -6 2.83398 -11 0.500977 -15s-6.83301 -6 -13.5 -6h-141c-10.667 -0 -17.334 4.33301 -20.001 13l-131 270l-60 -58l-37 -209c-2 -10.667 -8.33301 -16 -19 -16h-123
c-12.667 -0 -18 6.33301 -16 19l120 680c2 10.667 8.33301 16 19 16h123c12.667 0 18 -6.33301 16 -19l-44 -248l226 257c5.33301 6.66699 12.333 10 21 10zM247 -240l-82 0.000976562c-7.33301 0 -12.5 1.66699 -15.5 5s-3.16699 7.33301 -0.5 12l76 159
c4 8.66699 11.667 13 23 13h110c7.33301 0 12.333 -1.83301 15 -5.5s2 -7.83398 -2 -12.501l-100 -160c-5.33301 -7.33301 -13.333 -11 -24 -11z" />
    <glyph glyph-name="uni0137" unicode="&#x137;" horiz-adv-x="506" 
d="M385 520l137.001 -0.000976562c7.33301 0 12 -2.16699 14 -6.5s0.333008 -9.16602 -5 -14.499l-196 -201l129 -278c5.33301 -13.333 1 -20 -13 -20h-127c-10.667 0 -17.334 4.66699 -20.001 14l-75 177l-44 -42l-24 -133c-1.33301 -10.667 -7.33301 -16 -18 -16h-116
c-12 -0 -17.333 6.33301 -16 19l121 680c2 10.667 8 16 18 16h116c12.667 0 18 -6.33301 16 -19l-60 -340l142 155c4 6 11 9 21 9zM173.001 -236.001l-71.001 -0.000976562c-14.667 0 -20 5.66699 -16 17l72 149c5.33301 8 12.666 12 21.999 12h93
c7.33301 0 12.333 -1.66699 15 -5s2.33398 -7.66602 -0.999023 -12.999l-92 -149c-5.33301 -7.33301 -12.666 -11 -21.999 -11z" />
    <glyph glyph-name="Lacute" unicode="&#x139;" horiz-adv-x="512" 
d="M306 696l-97 -551h254c12.667 0 18 -6.33301 16 -19l-19 -110c-2 -10.667 -8.33301 -16 -19 -16h-398c-12 -0 -17 6.33301 -15 19l120 680c1.33301 10.667 7.33301 16 18 16h124c12 0 17.333 -6.33301 16 -19zM264 765h-84.999c-7.33301 0 -12 2.16699 -14 6.5
s-0.666992 9.5 4 15.5l115 131c6 6.66699 13 10 21 10h112c7.33301 0 12 -2.33301 14 -7s0.333008 -9.66699 -5 -15l-142 -133c-6.66699 -5.33301 -13.334 -8 -20.001 -8z" />
    <glyph glyph-name="lacute" unicode="&#x13a;" horiz-adv-x="298" 
d="M234 -8c-15.333 -3.33301 -33 -5 -53 -5c-54 0 -94 19.5 -120 58.5s-33.333 91.167 -22 156.5l88 497c2 10.667 8 16 18 16h116c12 0 17 -6.33301 15 -19l-88 -502c-9.33301 -50 3.66699 -75 39 -75h20c6 0.666992 10.333 -0.333008 13 -3s3.66699 -7 3 -13l-16 -95
c-2 -10 -6.33301 -15.333 -13 -16zM246 767h-84.999c-7.33301 0 -12 2.16699 -14 6.5s-0.666992 9.5 4 15.5l115 131c6 6.66699 13 10 21 10h112c7.33301 0 12 -2.33301 14 -7s0.333008 -9.66699 -5 -15l-142 -133c-6.66699 -5.33301 -13.334 -8 -20.001 -8z" />
    <glyph glyph-name="uni013B" unicode="&#x13b;" horiz-adv-x="512" 
d="M306 696l-97 -551h254c12.667 0 18 -6.33301 16 -19l-19 -110c-2 -10.667 -8.33301 -16 -19 -16h-398c-12 -0 -17 6.33301 -15 19l120 680c1.33301 10.667 7.33301 16 18 16h124c12 0 17.333 -6.33301 16 -19zM187 -246l-78.999 0.000976562
c-6.66699 0 -11.5 1.66699 -14.5 5s-3.16699 7.66602 -0.5 12.999l73 157c3.33301 8 10.666 12 21.999 12h106c7.33301 0 12.333 -1.5 15 -4.5s2 -7.16699 -2 -12.5l-97 -158c-5.33301 -8 -13 -12 -23 -12z" />
    <glyph glyph-name="uni013C" unicode="&#x13c;" horiz-adv-x="298" 
d="M234 -8c-15.333 -3.33301 -33 -5 -53 -5c-54 0 -94 19.5 -120 58.5s-33.333 91.167 -22 156.5l88 497c2 10.667 8 16 18 16h116c12 0 17 -6.33301 15 -19l-88 -502c-9.33301 -50 3.66699 -75 39 -75h20c6 0.666992 10.333 -0.333008 13 -3s3.66699 -7 3 -13l-16 -95
c-2 -10 -6.33301 -15.333 -13 -16zM74 -244h-70.001c-15.333 0 -20.333 6 -15 18l71 150c4 8 11 12 21 12h91c16 0 20.667 -6 14 -18l-90 -151c-5.33301 -7.33301 -12.666 -11 -21.999 -11z" />
    <glyph glyph-name="Lcaron" unicode="&#x13d;" horiz-adv-x="514" 
d="M441 0h-398c-12 -0 -17 6.33301 -15 19l120 680c1.33301 10.667 7.33301 16 18 16h124c12 0 17.333 -6.33301 16 -19l-97 -551h254c12.667 0 18 -6.33301 16 -19l-19 -110c-2 -10.667 -8.33301 -16 -19 -16zM436 507h-73.999c-14.667 0 -19.334 6.66699 -14.001 20
l65 174c3.33301 9.33301 10 14 20 14h95c6.66699 0 11.167 -2 13.5 -6s1.83301 -9 -1.5 -15l-84 -175c-4 -8 -10.667 -12 -20 -12z" />
    <glyph glyph-name="lcaron" unicode="&#x13e;" horiz-adv-x="360" 
d="M234 -7c-16.667 -3.33301 -34.3301 -5.00098 -52.9971 -5.00098c-54.667 0 -94.834 19.333 -120.501 58s-32.834 91 -21.501 157l87 496c2 10.667 8.33301 16 19 16h115c12 0 17.333 -6.33301 16 -19l-89 -500c-8.66699 -49.333 4.66602 -74 39.999 -74
c8 0 14.667 0.333008 20 1c12.667 0 18 -5.66699 16 -17l-17 -97c-1.33301 -9.33301 -5.33301 -14.666 -12 -15.999zM378.004 514.999h-65c-14 0 -18.333 6.66699 -13 20l65 166c3.33301 9.33301 10 14 20 14h83c15.333 0 19.333 -7 12 -21l-82 -166
c-4 -8.66699 -10.667 -13 -20 -13z" />
    <glyph glyph-name="Ldot" unicode="&#x13f;" horiz-adv-x="514" 
d="M306 696l-97 -551h254c12.667 0 18 -6.33301 16 -19l-19 -110c-2 -10.667 -8.33301 -16 -19 -16h-398c-12 -0 -17 6.33301 -15 19l120 680c1.33301 10.667 7.33301 16 18 16h124c12 0 17.333 -6.33301 16 -19zM477 349c-4 -23.333 -14.502 -42.166 -31.502 -56.499
s-38.167 -21.5 -63.5 -21.5c-26.667 0 -47.5 9.66699 -62.5 29s-19.833 43 -14.5 71c4.66699 23.333 15.334 42.166 32.001 56.499s37.334 21.5 62.001 21.5c27.333 0 48.333 -9.5 63 -28.5s19.667 -42.833 15 -71.5z" />
    <glyph glyph-name="ldot" unicode="&#x140;" horiz-adv-x="400" 
d="M235 -7c-16.667 -3.33301 -34.3301 -5.00098 -52.9971 -5.00098c-54.667 0 -94.834 19.5 -120.501 58.5s-32.834 91.167 -21.501 156.5l87 496c2 10.667 8.33301 16 19 16h115c12 0 17.333 -6.33301 16 -19l-89 -500c-8.66699 -49.333 4.66602 -74 39.999 -74
c8 0 14.667 0.333008 20 1c12.667 0 18 -5.66699 16 -17l-17 -97c-1.33301 -9.33301 -5.33301 -14.666 -12 -15.999zM423.004 373.999c-3.33301 -21.333 -12.835 -38.5 -28.502 -51.5s-34.5 -19.5 -56.5 -19.5c-25.333 0 -44.166 8.83301 -56.499 26.5
s-16.166 39.5 -11.499 65.5c3.33301 21.333 12.666 38.5 27.999 51.5s34.333 19.5 57 19.5c24.667 0 43.334 -8.66699 56.001 -26s16.667 -39.333 12 -66z" />
    <glyph glyph-name="Lslash" unicode="&#x141;" horiz-adv-x="535" 
d="M267 347l-34.998 -201.999h255c12 0 17 -6.33301 15 -19l-19 -110c-1.33301 -10.667 -7.33301 -16 -18 -16h-398c-12.667 0 -18 6.33301 -16 19l39 224l-70 -42c-6.66699 -4 -11.834 -4.5 -15.501 -1.5s-4.83398 8.16699 -3.50098 15.5l16 96c2 7.33301 6.66699 14 14 20
l84 48l56 320c2 10.667 8.33301 16 19 16h124c12 0 17 -6.33301 15 -19l-37 -212l107 63c6 4 11 4.66699 15 2s5.33301 -7.66699 4 -15l-16 -96c-2 -8.66699 -6.66699 -15.334 -14 -20.001z" />
    <glyph glyph-name="lslash" unicode="&#x142;" horiz-adv-x="375" 
d="M361 417l-100.999 -66.001l-28 -157c-6 -24 -6.33301 -42.5 -1 -55.5s18.666 -19.5 39.999 -19.5h20c6 0.666992 10.333 -0.333008 13 -3s3.66699 -7 3 -13l-16 -95c-2 -9.33301 -7.66699 -15 -17 -17c-12.667 -2.66699 -29 -4 -49 -4c-120 0 -167.667 69.333 -143 208
l8 46l-58 -39c-6.66699 -4.66699 -12 -5.66699 -16 -3s-5.33301 8 -4 16l17 96c2 8 6.33301 14.333 13 19l72 47l57 322c1.33301 10.667 7.33301 16 18 16h116c12 0 17 -6.33301 15 -19l-36 -208l88 57c6 4 10.833 4.83301 14.5 2.5s5.16699 -7.5 4.5 -15.5l-17 -96
c-0.666992 -7.33301 -5 -13.666 -13 -18.999z" />
    <glyph glyph-name="Nacute" unicode="&#x143;" horiz-adv-x="685" 
d="M166 0l-123.001 0.000976562c-12 0 -17 6.33301 -15 19l120 680c1.33301 10.667 7.33301 16 18 16h132c11.333 0 18 -4.66699 20 -14l79 -237c22.667 -72.667 43.334 -144.334 62.001 -215.001l5 1c10 86 23.333 178.333 40 277l30 172c2 10.667 8 16 18 16h122
c12.667 0 18 -6.33301 16 -19l-120 -680c-2 -10.667 -8.33301 -16 -19 -16h-131c-9.33301 0 -16 4.66699 -20 14l-79 212c-28.667 74.667 -51.667 154 -69 238l-4 -2c-12 -123.333 -24.667 -222 -38 -296l-26 -150c-2 -10.667 -8 -16 -18 -16zM447.999 763.001h-84.999
c-7.33301 0 -12 2.16699 -14 6.5s-0.666992 9.5 4 15.5l115 131c6 6.66699 13 10 21 10h112c7.33301 0 12 -2.33301 14 -7s0.333008 -9.66699 -5 -15l-142 -133c-6.66699 -5.33301 -13.334 -8 -20.001 -8z" />
    <glyph glyph-name="nacute" unicode="&#x144;" horiz-adv-x="546" 
d="M142 0h-116.001c-12.667 -0 -18 6.33301 -16 19l82 457c2 8.66699 7 14.667 15 18c70 26.667 137.667 40 203 40c74 0 128 -21.667 162 -65s44.667 -101 32 -173l-50 -280c-2 -10.667 -8.33301 -16 -19 -16h-115c-12 -0 -17.333 6.33301 -16 19l50 292
c12 61.333 -9 92 -63 92c-25.333 0 -46.666 -4 -63.999 -12l-66 -375c-2 -10.667 -8.33301 -16 -19 -16zM338.999 585l-78 0.000976562c-7.33301 0 -12 2.16699 -14 6.5s-0.666992 9.16602 4 14.499l107 132c6 6.66699 13.333 10 22 10h104c7.33301 0 12 -2.33301 14 -7
s0.333008 -9.66699 -5 -15l-133 -132c-5.33301 -6 -12.333 -9 -21 -9z" />
    <glyph glyph-name="uni0145" unicode="&#x145;" horiz-adv-x="685" 
d="M166 0l-123.001 0.000976562c-12 0 -17 6.33301 -15 19l120 680c1.33301 10.667 7.33301 16 18 16h132c11.333 0 18 -4.66699 20 -14l79 -237c22.667 -72.667 43.334 -144.334 62.001 -215.001l5 1c10 86 23.333 178.333 40 277l30 172c2 10.667 8 16 18 16h122
c12.667 0 18 -6.33301 16 -19l-120 -680c-2 -10.667 -8.33301 -16 -19 -16h-131c-9.33301 0 -16 4.66699 -20 14l-79 212c-28.667 74.667 -51.667 154 -69 238l-4 -2c-12 -123.333 -24.667 -222 -38 -296l-26 -150c-2 -10.667 -8 -16 -18 -16zM246.999 -243.999
l-82 0.000976562c-6.66699 0 -11.5 1.66699 -14.5 5s-3.5 7.33301 -1.5 12l76 159c4 8.66699 11.667 13 23 13h109c7.33301 0 12.5 -1.83301 15.5 -5.5s2.5 -7.83398 -1.5 -12.501l-100 -160c-5.33301 -7.33301 -13.333 -11 -24 -11z" />
    <glyph glyph-name="uni0146" unicode="&#x146;" horiz-adv-x="546" 
d="M142 0h-116.001c-12.667 -0 -18 6.33301 -16 19l82 457c2 8.66699 7 14.667 15 18c70 26.667 137.667 40 203 40c74 0 128 -21.667 162 -65s44.667 -101 32 -173l-50 -280c-2 -10.667 -8.33301 -16 -19 -16h-115c-12 -0 -17.333 6.33301 -16 19l50 292
c12 61.333 -9 92 -63 92c-25.333 0 -46.666 -4 -63.999 -12l-66 -375c-2 -10.667 -8.33301 -16 -19 -16zM179.999 -236h-72.001c-15.333 0 -20.333 5.66699 -15 17l72 149c4.66699 8 12 12 22 12h93c16.667 0 21.667 -6 15 -18l-93 -149
c-5.33301 -7.33301 -12.666 -11 -21.999 -11z" />
    <glyph glyph-name="Ncaron" unicode="&#x147;" horiz-adv-x="685" 
d="M166 0l-123.001 0.000976562c-12 0 -17 6.33301 -15 19l120 680c1.33301 10.667 7.33301 16 18 16h132c11.333 0 18 -4.66699 20 -14l79 -237c22.667 -72.667 43.334 -144.334 62.001 -215.001l5 1c10 86 23.333 178.333 40 277l30 172c2 10.667 8 16 18 16h122
c12.667 0 18 -6.33301 16 -19l-120 -680c-2 -10.667 -8.33301 -16 -19 -16h-131c-9.33301 0 -16 4.66699 -20 14l-79 212c-28.667 74.667 -51.667 154 -69 238l-4 -2c-12 -123.333 -24.667 -222 -38 -296l-26 -150c-2 -10.667 -8 -16 -18 -16zM513.999 926.001h98
c7.33301 0 12 -2.33301 14 -7s0.333008 -9.66699 -5 -15l-134 -132c-6 -6 -13 -9 -21 -9h-93c-9.33301 0 -16.333 3.66699 -21 11l-85 131c-3.33301 6 -4 11 -2 15s6.33301 6 13 6h100c9.33301 0 16.333 -4 21 -12l35 -64l59 66c6.66699 6.66699 13.667 10 21 10z" />
    <glyph glyph-name="ncaron" unicode="&#x148;" horiz-adv-x="546" 
d="M142 0h-116.001c-12.667 -0 -18 6.33301 -16 19l82 457c2 8.66699 7 14.667 15 18c70 26.667 137.667 40 203 40c74 0 128 -21.667 162 -65s44.667 -101 32 -173l-50 -280c-2 -10.667 -8.33301 -16 -19 -16h-115c-12 -0 -17.333 6.33301 -16 19l50 292
c12 61.333 -9 92 -63 92c-25.333 0 -46.666 -4 -63.999 -12l-66 -375c-2 -10.667 -8.33301 -16 -19 -16zM260.999 596l-83.001 129.999c-6.66699 14 -2.66699 21 12 21h85c10.667 0 17.667 -4 21 -12l37 -65l63 68c6 6 13.333 9 22 9h90c8 0 12.833 -2.16699 14.5 -6.5
s-0.166016 -9.16602 -5.49902 -14.499l-133 -133c-6 -6 -13 -9 -21 -9h-81c-9.33301 0 -16.333 4 -21 12z" />
    <glyph glyph-name="Eng" unicode="&#x14a;" horiz-adv-x="687" 
d="M568 -11c-12 -68.667 -34.5 -118.333 -67.5 -149s-79.167 -46 -138.5 -46c-21.333 0 -40.333 1.66699 -57 5c-10.667 2 -15.334 9 -14.001 21l16 96c0.666992 5.33301 2.33398 9.33301 5.00098 12s5.66699 3.66699 9 3c2.66699 0 6 -0.166992 10 -0.5
s6.33301 -0.5 7 -0.5c42 0 68 22 78 66l-100 256c-23.333 58 -45 128.333 -65 211h-5c-6.66699 -111.333 -18 -209 -34 -293l-27 -154c-2 -10.667 -8 -16 -18 -16h-123c-12.667 -0 -18 6.33301 -16 19l120 680c1.33301 10.667 7.33301 16 18 16h132
c10.667 0 17 -4.66699 19 -14l92 -274c26 -78 44.333 -140.333 55 -187h5c9.33301 109.333 22 205.333 38 288l30 171c2 10.667 8 16 18 16h122c12.667 0 18 -6.33301 16 -19z" />
    <glyph glyph-name="eng" unicode="&#x14b;" horiz-adv-x="541" 
d="M448 5c-24 -138 -95.665 -207.001 -214.998 -207.001c-13.333 0 -27.333 1.33301 -42 4c-10.667 2 -15.334 9 -14.001 21l18 97c1.33301 10.667 6.66602 15.334 15.999 14.001c4.66699 -0.666992 12.334 -1 23.001 -1c34.667 0 56.667 27.333 66 82l51 296
c10.667 61.333 -10.333 92 -63 92c-24 0 -44.667 -4 -62 -12l-66 -375c-2 -10.667 -8.33301 -16 -19 -16h-115c-12.667 -0 -18 6.33301 -16 19l82 457c2 8 7 14 15 18c68.667 26.667 135 40 199 40c74 0 127.667 -21.667 161 -65s43.666 -101 30.999 -173z" />
    <glyph glyph-name="Omacron" unicode="&#x14c;" horiz-adv-x="656" 
d="M607 255c-14.667 -85.333 -50.334 -151.333 -107.001 -198s-130 -70 -220 -70c-84.667 0 -147.5 27.833 -188.5 83.5s-53.833 128.5 -38.5 218.5l31 177c14.667 82 50.334 146.167 107.001 192.5s128.667 69.5 216 69.5c85.333 0 149 -26.833 191 -80.5
s55.333 -125.5 40 -215.5zM212 271c-7.33301 -42 -3 -75.499 13 -100.499s42 -37.5 78 -37.5c38.667 0 70.334 11.5 95.001 34.5s40.667 55.167 48 96.5l32 183c7.33301 41.333 3.16602 74.166 -12.501 98.499s-42.167 36.5 -79.5 36.5c-78 0 -125 -43.333 -141 -130z
M557 795.001h-284c-5.33301 0 -9.5 1.83301 -12.5 5.5s-3.83301 8.16699 -2.5 13.5l14 74c2 10.667 8 16 18 16h284c12 0 17 -6.33301 15 -19l-14 -74c-1.33301 -10.667 -7.33301 -16 -18 -16z" />
    <glyph glyph-name="omacron" unicode="&#x14d;" horiz-adv-x="535" 
d="M482 185c-11.333 -63.333 -39.333 -112.167 -84 -146.5s-103.667 -51.5 -177 -51.5c-66.667 0 -118.167 21.833 -154.5 65.5s-48.833 97.5 -37.5 161.5l21 124c11.333 60.667 40 108.5 86 143.5s103.667 52.5 173 52.5c67.333 0 119.5 -21.667 156.5 -65
s50.167 -96 39.5 -158zM179 198.999c-4.66699 -24.667 -1.83301 -44.332 8.5 -58.999s27.166 -22 50.499 -22c52.667 0 83.334 25 92.001 75l23 128c4 23.333 0.666992 42.833 -10 58.5s-27.667 23.5 -51 23.5c-24 0 -44 -6.83301 -60 -20.5s-26 -31.834 -30 -54.501z
M179.001 618.001l13 69c1.33301 10.667 7.33301 16 18 16h263c12 0 17 -6.33301 15 -19l-13 -69c-2 -10.667 -8 -16 -18 -16h-262c-12.667 0 -18 6.33301 -16 19z" />
    <glyph glyph-name="Ohungarumlaut" unicode="&#x150;" horiz-adv-x="656" 
d="M607 255c-14.667 -85.333 -50.334 -151.333 -107.001 -198s-130 -70 -220 -70c-84.667 0 -147.5 27.833 -188.5 83.5s-53.833 128.5 -38.5 218.5l31 177c14.667 82 50.334 146.167 107.001 192.5s128.667 69.5 216 69.5c85.333 0 149 -26.833 191 -80.5
s55.333 -125.5 40 -215.5zM212 271c-7.33301 -42 -3 -75.499 13 -100.499s42 -37.5 78 -37.5c38.667 0 70.334 11.5 95.001 34.5s40.667 55.167 48 96.5l32 183c7.33301 41.333 3.16602 74.166 -12.501 98.499s-42.167 36.5 -79.5 36.5c-78 0 -125 -43.333 -141 -130z
M330 773.001h-82c-7.33301 0 -12 2 -14 6s-0.666992 9 4 15l113 132c4.66699 6.66699 11.667 10 21 10h107c7.33301 0 12 -2.33301 14 -7s0.333008 -9.66699 -5 -15l-137 -132c-6 -6 -13 -9 -21 -9zM549 773.001h-85c-7.33301 0 -12 2.16699 -14 6.5s-0.666992 9.5 4 15.5
l123 131c6 6.66699 13.333 10 22 10h110c8 0 12.833 -2.33301 14.5 -7s-0.5 -9.66699 -6.5 -15l-146 -133c-6 -5.33301 -13.333 -8 -22 -8z" />
    <glyph glyph-name="ohungarumlaut" unicode="&#x151;" horiz-adv-x="535" 
d="M482 185c-11.333 -63.333 -39.333 -112.167 -84 -146.5s-103.667 -51.5 -177 -51.5c-66.667 0 -118.167 21.833 -154.5 65.5s-48.833 97.5 -37.5 161.5l21 124c11.333 60.667 40 108.5 86 143.5s103.667 52.5 173 52.5c67.333 0 119.5 -21.667 156.5 -65
s50.167 -96 39.5 -158zM179 198.999c-4.66699 -24.667 -1.83301 -44.332 8.5 -58.999s27.166 -22 50.499 -22c52.667 0 83.334 25 92.001 75l23 128c4 23.333 0.666992 42.833 -10 58.5s-27.667 23.5 -51 23.5c-24 0 -44 -6.83301 -60 -20.5s-26 -31.834 -30 -54.501z
M247.001 583.001h-57c-7.33301 0 -12 1.83301 -14 5.5s-1 8.16699 3 13.5l89 114c5.33301 6 12.333 9 21 9h79c7.33301 0 12 -1.83301 14 -5.5s0.666992 -8.16699 -4 -13.5l-110 -114c-5.33301 -6 -12.333 -9 -21 -9zM424.001 583.001h-55.001
c-6.66699 0 -11.167 1.83301 -13.5 5.5s-1.5 8.16699 2.5 13.5l92 114c6 6 13.333 9 22 9h78c7.33301 0 12 -1.83301 14 -5.5s0.666992 -8.16699 -4 -13.5l-114 -115c-5.33301 -5.33301 -12.666 -8 -21.999 -8z" />
    <glyph glyph-name="OE" unicode="&#x152;" horiz-adv-x="928" 
d="M949 696l-20.001 -108c-2 -10.667 -8.33301 -16 -19 -16h-263l-24 -139h229c12 0 17.333 -6.33301 16 -19l-19 -106c-2 -10 -8 -15 -18 -15h-233l-26 -148h276c12 0 17 -6.33301 15 -19l-20 -110c-1.33301 -10.667 -7.33301 -16 -18 -16h-405
c-12.667 -0 -18 6.33301 -16 19l3 15c-40 -31.333 -89.333 -47 -148 -47c-73.333 0 -130.166 27.833 -170.499 83.5s-52.833 127.5 -37.5 215.5l34 185c14 81.333 48.5 144.5 103.5 189.5s120.167 67.5 195.5 67.5c54 0 98.333 -16.667 133 -50l4 21c2 10.667 8 16 18 16
h394c12 0 17.333 -6.33301 16 -19zM427.999 236l38 223.998c6 35.333 0.833008 64 -15.5 86s-41.5 33 -75.5 33c-32.667 0.666992 -61 -9.66602 -85 -30.999s-39.333 -51.666 -46 -90.999l-33 -185c-6.66699 -41.333 -2.5 -74 12.5 -98s37.833 -36 68.5 -36
c32 0 61.333 8.66699 88 26s42.667 41.333 48 72z" />
    <glyph glyph-name="oe" unicode="&#x153;" horiz-adv-x="820" 
d="M381 42c-42 -36.667 -95.665 -54.999 -160.998 -54.999c-66 0 -117.333 21.833 -154 65.5s-49 97.5 -37 161.5l23 124c11.333 60.667 39.5 108.5 84.5 143.5s100.833 52.5 167.5 52.5c58.667 0 105.334 -19 140.001 -57c44 38 97.333 57 160 57
c68 0 120.167 -18.167 156.5 -54.5s48.166 -89.833 35.499 -160.5l-17 -97c-2 -10.667 -8.33301 -16 -19 -16h-276l-4 -21c-4 -23.333 0 -41 12 -53s30.667 -18 56 -18c43.333 0 86.666 13.333 129.999 40c11.333 7.33301 19.333 5.66602 24 -5.00098l40 -77
c5.33301 -11.333 3.66602 -19.333 -5.00098 -24c-59.333 -40.667 -129.333 -61 -210 -61c-62 0 -110.667 18.333 -146 55zM179.002 199.001c-4.66699 -24.667 -1.83203 -44.3311 8.50098 -58.998s27.166 -22 50.499 -22c52 0 82.667 25 92 75l24 135
c2.66699 21.333 -1.5 39.166 -12.5 53.499s-27.5 21.5 -49.5 21.5c-24 0 -44 -6.83301 -60 -20.5s-26 -31.834 -30 -54.501zM506.004 334.004l-5 -29.001h145l5 27c4 22 1 40.333 -9 55s-27 22 -51 22c-22 0 -40.667 -6.66699 -56 -20s-25 -31.666 -29 -54.999z" />
    <glyph glyph-name="Racute" unicode="&#x154;" horiz-adv-x="618" 
d="M168 0h-123.999c-12.667 -0 -18 6.33301 -16 19l119 680c2 10.667 8.33301 16 19 16h230c79.333 0 138.333 -24.167 177 -72.5s52 -109.833 40 -184.5c-16.667 -104 -74.667 -171 -174 -201l112 -237c6.66699 -13.333 2.66699 -20 -12 -20h-136
c-10.667 -0 -17.334 4.33301 -20.001 13l-92 225h-66l-38 -222c-2 -10.667 -8.33301 -16 -19 -16zM283.001 571l-33 -191h88c66 0 104 30 114 90c10 67.333 -16.667 101 -80 101h-89zM402.001 763h-84.999c-7.33301 0 -12 2.16699 -14 6.5s-0.666992 9.5 4 15.5l115 131
c6 6.66699 13 10 21 10h112c7.33301 0 12 -2.33301 14 -7s0.333008 -9.66699 -5 -15l-142 -133c-6.66699 -5.33301 -13.334 -8 -20.001 -8z" />
    <glyph glyph-name="racute" unicode="&#x155;" horiz-adv-x="359" 
d="M143 0h-116.001c-12.667 -0 -18 6.33301 -16 19l79 454c2 8.66699 7 15 15 19c60 28 121.667 42 185 42c26.667 0 54.334 -3 83.001 -9c11.333 -2 16 -8.66699 14 -20l-18 -98c-1.33301 -11.333 -8 -16.333 -20 -15c-18.667 3.33301 -38 5 -58 5
c-24 0 -45.667 -4 -65 -12l-65 -369c-2 -10.667 -8 -16 -18 -16zM272.999 585l-78 0.000976562c-7.33301 0 -12 2.16699 -14 6.5s-0.666992 9.16602 4 14.499l107 132c6 6.66699 13.333 10 22 10h104c7.33301 0 12 -2.33301 14 -7s0.333008 -9.66699 -5 -15l-133 -132
c-5.33301 -6 -12.333 -9 -21 -9z" />
    <glyph glyph-name="uni0156" unicode="&#x156;" horiz-adv-x="618" 
d="M168 0h-123.999c-12.667 -0 -18 6.33301 -16 19l119 680c2 10.667 8.33301 16 19 16h230c79.333 0 138.333 -24.167 177 -72.5s52 -109.833 40 -184.5c-16.667 -104 -74.667 -171 -174 -201l112 -237c6.66699 -13.333 2.66699 -20 -12 -20h-136
c-10.667 -0 -17.334 4.33301 -20.001 13l-92 225h-66l-38 -222c-2 -10.667 -8.33301 -16 -19 -16zM283.001 571l-33 -191h88c66 0 104 30 114 90c10 67.333 -16.667 101 -80 101h-89zM235.001 -237l-83 0.000976562c-6.66699 0 -11.5 1.66699 -14.5 5
s-3.5 7.66602 -1.5 12.999l77 157c3.33301 8 11 12 23 12h110c7.33301 0 12.5 -1.66699 15.5 -5s2.5 -7.33301 -1.5 -12l-101 -158c-6 -8 -14 -12 -24 -12z" />
    <glyph glyph-name="uni0157" unicode="&#x157;" horiz-adv-x="359" 
d="M143 0h-116.001c-12.667 -0 -18 6.33301 -16 19l79 454c2 8.66699 7 15 15 19c60 28 121.667 42 185 42c26.667 0 54.334 -3 83.001 -9c11.333 -2 16 -8.66699 14 -20l-18 -98c-1.33301 -11.333 -8 -16.333 -20 -15c-18.667 3.33301 -38 5 -58 5
c-24 0 -45.667 -4 -65 -12l-65 -369c-2 -10.667 -8 -16 -18 -16zM37.999 -238l-72 -0.000976562c-15.333 0 -20.666 6 -15.999 18l73 150c5.33301 8 12.666 12 21.999 12h93c7.33301 0 12.5 -1.66699 15.5 -5s2.83301 -7.66602 -0.5 -12.999l-93 -151
c-4 -7.33301 -11.333 -11 -22 -11z" />
    <glyph glyph-name="Rcaron" unicode="&#x158;" horiz-adv-x="618" 
d="M168 0h-123.999c-12.667 -0 -18 6.33301 -16 19l119 680c2 10.667 8.33301 16 19 16h230c79.333 0 138.333 -24.167 177 -72.5s52 -109.833 40 -184.5c-16.667 -104 -74.667 -171 -174 -201l112 -237c6.66699 -13.333 2.66699 -20 -12 -20h-136
c-10.667 -0 -17.334 4.33301 -20.001 13l-92 225h-66l-38 -222c-2 -10.667 -8.33301 -16 -19 -16zM283.001 571l-33 -191h88c66 0 104 30 114 90c10 67.333 -16.667 101 -80 101h-89zM472.001 928h98c7.33301 0 12 -2.33301 14 -7s0.333008 -9.66699 -5 -15l-134 -132
c-6 -6 -13 -9 -21 -9h-93c-9.33301 0 -16.333 3.66699 -21 11l-85 131c-3.33301 6 -4 11 -2 15s6.33301 6 13 6h100c9.33301 0 16.333 -4 21 -12l35 -64l59 66c6.66699 6.66699 13.667 10 21 10z" />
    <glyph glyph-name="rcaron" unicode="&#x159;" horiz-adv-x="359" 
d="M143 0h-116.001c-12.667 -0 -18 6.33301 -16 19l79 454c2 8.66699 7 15 15 19c60 28 121.667 42 185 42c26.667 0 54.334 -3 83.001 -9c11.333 -2 16 -8.66699 14 -20l-18 -98c-1.33301 -11.333 -8 -16.333 -20 -15c-18.667 3.33301 -38 5 -58 5
c-24 0 -45.667 -4 -65 -12l-65 -369c-2 -10.667 -8 -16 -18 -16zM194.999 596l-83.001 129.999c-6.66699 14 -2.66699 21 12 21h85c10.667 0 17.667 -4 21 -12l37 -65l63 68c6 6 13.333 9 22 9h90c8 0 12.833 -2.16699 14.5 -6.5s-0.166016 -9.16602 -5.49902 -14.499
l-133 -133c-6 -6 -13 -9 -21 -9h-81c-9.33301 0 -16.333 4 -21 12z" />
    <glyph glyph-name="Sacute" unicode="&#x15a;" horiz-adv-x="600" 
d="M557 186c-27.333 -132.667 -125.331 -199.002 -293.998 -199.002c-92 0 -174.667 32.333 -248 97c-8.66699 7.33301 -9.33398 15.666 -2.00098 24.999l72 89c6.66699 8.66699 15 9.33398 25 2.00098c56 -44 112.667 -66 170 -66c30.667 0 56.834 6 78.501 18
s34.5 29.333 38.5 52s-3.66699 40.5 -23 53.5s-50.666 25.5 -93.999 37.5c-140 40.667 -200 120.334 -180 239.001c11.333 66.667 41.166 115.667 89.499 147s108.5 47 180.5 47c87.333 0 165.333 -25.333 234 -76c9.33301 -6.66699 10.333 -14.667 3 -24l-70 -90
c-7.33301 -8 -15.333 -9 -24 -3c-50.667 32.667 -104.334 49 -161.001 49c-26.667 0 -48.334 -5.83301 -65.001 -17.5s-27 -27.834 -31 -48.501c-4 -22 2 -38.667 18 -50s42.667 -22.666 80 -33.999c30.667 -9.33301 56.167 -18.666 76.5 -27.999s43.5 -23.333 69.5 -42
s44 -43 54 -73s11 -65 3 -105zM404.002 779.998h-84.999c-7.33301 0 -12 2.16699 -14 6.5s-0.666992 9.5 4 15.5l115 131c6 6.66699 13 10 21 10h112c7.33301 0 12 -2.33301 14 -7s0.333008 -9.66699 -5 -15l-142 -133c-6.66699 -5.33301 -13.334 -8 -20.001 -8z" />
    <glyph glyph-name="sacute" unicode="&#x15b;" horiz-adv-x="482" 
d="M437 142c-10 -51.333 -35.334 -90.001 -76.001 -116.001s-93.334 -39 -158.001 -39c-80.667 0 -148.334 22.333 -203.001 67c-8.66699 6.66699 -9.66699 14.667 -3 24l57 78c6.66699 8.66699 14.667 10 24 4c38.667 -28.667 82 -43 130 -43c46 0 71.667 12.667 77 38
c2 10 -0.333008 18.167 -7 24.5s-14.167 10.833 -22.5 13.5s-21.166 6 -38.499 10c-53.333 10.667 -95 31.834 -125 63.501s-39.667 72.834 -29 123.501c20 96 95.333 144 226 144c64 0 122.667 -15.333 176 -46c10 -6 11.333 -14 4 -24l-59 -79
c-5.33301 -8.66699 -13.333 -10.334 -24 -5.00098c-31.333 18 -68.333 27 -111 27c-39.333 0 -60.666 -11 -63.999 -33c-2.66699 -14 1.83301 -24.167 13.5 -30.5s31.834 -12.833 60.501 -19.5c48 -10.667 87.667 -30.5 119 -59.5s42.333 -69.833 33 -122.5z
M312.999 584.999l-78 0.000976562c-7.33301 0 -12 2.16699 -14 6.5s-0.666992 9.16602 4 14.499l107 132c6 6.66699 13.333 10 22 10h104c7.33301 0 12 -2.33301 14 -7s0.333008 -9.66699 -5 -15l-133 -132c-5.33301 -6 -12.333 -9 -21 -9z" />
    <glyph glyph-name="Scedilla" unicode="&#x15e;" horiz-adv-x="600" 
d="M557 186c-25.333 -119.333 -108.665 -185.003 -249.998 -197.003l-23 -40c25.333 -2.66699 44.333 -11.167 57 -25.5s17.667 -32.166 15 -53.499c-6.66699 -58.667 -54.334 -88 -143.001 -88c-22.667 0 -41.667 2.66699 -57 8c-9.33301 2 -13.333 8.66699 -12 20l5 35
c2 10.667 9 14.334 21 11.001c8.66699 -2 18 -3 28 -3c31.333 0 49.333 9.66699 54 29c1.33301 7.33301 -0.5 13.333 -5.5 18s-14.5 7.66699 -28.5 9c-10 1.33301 -17 5.66602 -21 12.999c-0.666992 1.33301 1.33301 6 6 14l29 52c-79.333 6 -151.666 38 -216.999 96
c-8.66699 7.33301 -9.33398 15.666 -2.00098 24.999l72 89c6.66699 8.66699 15 9.33398 25 2.00098c56 -44 112.667 -66 170 -66c30.667 0 56.834 6 78.501 18s34.5 29.333 38.5 52s-3.66699 40.5 -23 53.5s-50.666 25.5 -93.999 37.5
c-140 40.667 -200 120.334 -180 239.001c11.333 66.667 41.166 115.667 89.499 147s108.5 47 180.5 47c87.333 0 165.333 -25.333 234 -76c9.33301 -6.66699 10.333 -14.667 3 -24l-70 -90c-7.33301 -8 -15.333 -9 -24 -3c-50.667 32.667 -104.334 49 -161.001 49
c-26.667 0 -48.334 -5.83301 -65.001 -17.5s-27 -27.834 -31 -48.501c-4 -22 2 -38.667 18 -50s42.667 -22.666 80 -33.999c30.667 -9.33301 56.167 -18.666 76.5 -27.999s43.5 -23.333 69.5 -42s44 -43 54 -73s11 -65 3 -105z" />
    <glyph glyph-name="scedilla" unicode="&#x15f;" horiz-adv-x="482" 
d="M437 142c-18 -94 -86.335 -145.335 -205.002 -154.002l-22 -39c24.667 -2.66699 43.667 -11.834 57 -27.501s17.666 -35.167 12.999 -58.5c-9.33301 -52.667 -55 -79 -137 -79c-23.333 0 -43 2.66699 -59 8c-10 2 -14.333 8.66699 -13 20l4 33
c2 10.667 9 14.334 21 11.001c8.66699 -2 18 -3 28 -3c34.667 0 53.334 10 56.001 30c1.33301 8 -0.833984 14.333 -6.50098 19s-17.167 8 -34.5 10c-8 0.666992 -12.5 2.5 -13.5 5.5s0.5 8.16699 4.5 15.5l30 56c-62.667 6.66699 -116 28.334 -160 65.001
c-8.66699 6.66699 -9.66699 14.667 -3 24l57 78c6.66699 8.66699 14.667 10 24 4c38.667 -28.667 82 -43 130 -43c46 0 71.667 12.667 77 38c2 10 -0.333008 18.167 -7 24.5s-14.167 10.833 -22.5 13.5s-21.166 6 -38.499 10c-53.333 10.667 -95 31.834 -125 63.501
s-39.667 72.834 -29 123.501c20 96 95.333 144 226 144c64 0 122.667 -15.333 176 -46c10 -6 11.333 -14 4 -24l-59 -79c-5.33301 -8.66699 -13.333 -10.334 -24 -5.00098c-31.333 18 -68.333 27 -111 27c-39.333 0 -60.666 -11 -63.999 -33
c-2.66699 -14 1.83301 -24.167 13.5 -30.5s31.834 -12.833 60.501 -19.5c48 -10.667 87.667 -30.5 119 -59.5s42.333 -69.833 33 -122.5z" />
    <glyph glyph-name="Scaron" unicode="&#x160;" horiz-adv-x="600" 
d="M557 186c-27.333 -132.667 -125.331 -199.002 -293.998 -199.002c-92 0 -174.667 32.333 -248 97c-8.66699 7.33301 -9.33398 15.666 -2.00098 24.999l72 89c6.66699 8.66699 15 9.33398 25 2.00098c56 -44 112.667 -66 170 -66c30.667 0 56.834 6 78.501 18
s34.5 29.333 38.5 52s-3.66699 40.5 -23 53.5s-50.666 25.5 -93.999 37.5c-140 40.667 -200 120.334 -180 239.001c11.333 66.667 41.166 115.667 89.499 147s108.5 47 180.5 47c87.333 0 165.333 -25.333 234 -76c9.33301 -6.66699 10.333 -14.667 3 -24l-70 -90
c-7.33301 -8 -15.333 -9 -24 -3c-50.667 32.667 -104.334 49 -161.001 49c-26.667 0 -48.334 -5.83301 -65.001 -17.5s-27 -27.834 -31 -48.501c-4 -22 2 -38.667 18 -50s42.667 -22.666 80 -33.999c30.667 -9.33301 56.167 -18.666 76.5 -27.999s43.5 -23.333 69.5 -42
s44 -43 54 -73s11 -65 3 -105zM475.002 935.998h98c7.33301 0 12 -2.33301 14 -7s0.333008 -9.66699 -5 -15l-134 -132c-6 -6 -13 -9 -21 -9h-93c-9.33301 0 -16.333 3.66699 -21 11l-85 131c-3.33301 6 -4 11 -2 15s6.33301 6 13 6h100c9.33301 0 16.333 -4 21 -12l35 -64
l59 66c6.66699 6.66699 13.667 10 21 10z" />
    <glyph glyph-name="scaron" unicode="&#x161;" horiz-adv-x="482" 
d="M437 142c-10 -51.333 -35.334 -90.001 -76.001 -116.001s-93.334 -39 -158.001 -39c-80.667 0 -148.334 22.333 -203.001 67c-8.66699 6.66699 -9.66699 14.667 -3 24l57 78c6.66699 8.66699 14.667 10 24 4c38.667 -28.667 82 -43 130 -43c46 0 71.667 12.667 77 38
c2 10 -0.333008 18.167 -7 24.5s-14.167 10.833 -22.5 13.5s-21.166 6 -38.499 10c-53.333 10.667 -95 31.834 -125 63.501s-39.667 72.834 -29 123.501c20 96 95.333 144 226 144c64 0 122.667 -15.333 176 -46c10 -6 11.333 -14 4 -24l-59 -79
c-5.33301 -8.66699 -13.333 -10.334 -24 -5.00098c-31.333 18 -68.333 27 -111 27c-39.333 0 -60.666 -11 -63.999 -33c-2.66699 -14 1.83301 -24.167 13.5 -30.5s31.834 -12.833 60.501 -19.5c48 -10.667 87.667 -30.5 119 -59.5s42.333 -69.833 33 -122.5z
M228.999 587.999l-83.001 129.999c-6.66699 14 -2.66699 21 12 21h85c10.667 0 17.667 -4 21 -12l37 -65l63 68c6 6 13.333 9 22 9h90c8 0 12.833 -2.16699 14.5 -6.5s-0.166016 -9.16602 -5.49902 -14.499l-133 -133c-6 -6 -13 -9 -21 -9h-81c-9.33301 0 -16.333 4 -21 12z
" />
    <glyph glyph-name="uni0162" unicode="&#x162;" horiz-adv-x="562" 
d="M183 -242h-78c-14.667 0 -19.667 6 -15 18l73 155c2.66699 8 9.66699 12 21 12h105c7.33301 0 12.333 -1.5 15 -4.5s2 -7.16699 -2 -12.5l-96 -157c-5.33301 -7.33301 -13 -11 -23 -11zM108 715h502c12.667 0 18 -6.33301 16 -19l-20 -110
c-1.33301 -10.667 -7.33301 -16 -18 -16h-173l-98 -554c-2 -10.667 -8 -16 -18 -16h-125c-12 -0 -17 6.33301 -15 19l98 551h-171c-12 0 -17.333 6.33301 -16 19l20 110c2 10.667 8 16 18 16z" />
    <glyph glyph-name="uni0163" unicode="&#x163;" horiz-adv-x="328" 
d="M85 -243h-70.001c-15.333 0 -20.333 6 -15 18l71 152c4 8.66699 11 13 21 13h91c16 0 20.667 -6 14 -18l-90 -154c-5.33301 -7.33301 -12.666 -11 -21.999 -11zM302.999 381l-82.002 0.000976562l-34 -193c-8 -46 8.33301 -69 49 -69h27c6 0.666992 10.5 -0.5 13.5 -3.5
s3.83301 -7.5 2.5 -13.5l-16 -93c-2 -10.667 -7.66699 -16.334 -17 -17.001c-16.667 -3.33301 -33.667 -5 -51 -5c-58 0 -101.667 18 -131 54s-37.666 89 -24.999 159l75 429c2 10.667 8.33301 16 19 16h98c12.667 0 18.334 -6 17.001 -18l-6 -119h80
c12.667 0 18 -6.33301 16 -19l-16 -92c-2 -10.667 -8.33301 -16 -19 -16z" />
    <glyph glyph-name="Tcaron" unicode="&#x164;" horiz-adv-x="562" 
d="M108 715h502c12.667 0 18 -6.33301 16 -19l-20 -110c-1.33301 -10.667 -7.33301 -16 -18 -16h-173l-98 -554c-2 -10.667 -8 -16 -18 -16h-125c-12 -0 -17 6.33301 -15 19l98 551h-171c-12 0 -17.333 6.33301 -16 19l20 110c2 10.667 8 16 18 16zM455 926h98
c7.33301 0 12 -2.33301 14 -7s0.333008 -9.66699 -5 -15l-134 -132c-6 -6 -13 -9 -21 -9h-93c-9.33301 0 -16.333 3.66699 -21 11l-85 131c-3.33301 6 -4 11 -2 15s6.33301 6 13 6h100c9.33301 0 16.333 -4 21 -12l35 -64l59 66c6.66699 6.66699 13.667 10 21 10z" />
    <glyph glyph-name="tcaron" unicode="&#x165;" horiz-adv-x="329" 
d="M248 -8c-16.667 -3.33301 -33.666 -5.00098 -50.999 -5.00098c-58.667 0 -102.5 17.833 -131.5 53.5s-37.5 88.834 -25.5 159.501l75 429c2 10.667 8.33301 16 19 16h99c11.333 0 16.666 -6 15.999 -18l-6 -119h81c12 0 17 -6.33301 15 -19l-16 -91
c-1.33301 -10.667 -7.33301 -16 -18 -16h-82l-34 -194c-8 -46 8.33301 -69 49 -69h26c6.66699 1.33301 11.5 0.5 14.5 -2.5s3.83301 -7.83301 2.5 -14.5l-16 -93c-2 -10 -7.66699 -15.667 -17 -17zM381.001 577.999h-67c-14 0 -18.333 6.66699 -13 20l60 152
c3.33301 8.66699 10 13 20 13h88c13.333 0 17.333 -6.66699 12 -20l-79 -153c-4 -8 -11 -12 -21 -12z" />
    <glyph glyph-name="Tbar" unicode="&#x166;" horiz-adv-x="570" 
d="M629 696l-20 -111c-0.666992 -10 -6.66699 -15 -18 -15h-172l-35 -196h103c12 0 17 -6.33301 15 -19l-10 -62c-2 -10 -8.33301 -15 -19 -15h-106l-46 -262c-2 -10.667 -8.33301 -16 -19 -16h-124c-12 -0 -17 6.33301 -15 19l46 259h-101c-12 0 -17 6.33301 -15 19l11 61
c2 10.667 8.33301 16 19 16h102l35 196h-170c-12.667 0 -18 6.33301 -16 19l20 110c1.33301 10.667 7.33301 16 18 16h502c12 0 17 -6.33301 15 -19z" />
    <glyph glyph-name="tbar" unicode="&#x167;" horiz-adv-x="342" 
d="M259 -7c-16.667 -3.33301 -33.6699 -5 -51.0029 -5c-58.667 0 -102.667 18 -132 54s-37.666 89 -24.999 159l5 29h-33c-12 0 -17 6.33301 -15 19l9 46c1.33301 10.667 7.33301 16 18 16h35l56 317c2 10.667 8.33301 16 19 16h99c12 0 17.333 -6 16 -18l-6 -120h82
c12 0 17 -6.33301 15 -19l-16 -91c-1.33301 -10.667 -7.33301 -16 -18 -16h-83l-13 -69h60c12.667 0 18 -6.33301 16 -19l-9 -46c-2 -10.667 -8 -16 -18 -16h-63l-8 -41c-7.33301 -46 9.33398 -69 50.001 -69c2 0 6 0.166992 12 0.5s10.667 0.5 14 0.5
c6.66699 0.666992 11.5 -0.5 14.5 -3.5s3.83301 -7.83301 2.5 -14.5l-17 -93c-1.33301 -10 -6.66602 -15.667 -15.999 -17z" />
    <glyph glyph-name="Umacron" unicode="&#x16a;" horiz-adv-x="665" 
d="M597 247c-14 -82.667 -47.1641 -146.5 -99.4971 -191.5s-122.5 -67.5 -210.5 -67.5c-82 0 -142.833 26.333 -182.5 79s-51.834 125 -36.501 217l74 415c2 10.667 8 16 18 16h126c12.667 0 18 -6.33301 16 -19l-77 -430c-7.33301 -42.667 -3.33301 -75.167 12 -97.5
s39.666 -33.5 72.999 -33.5c34 0 62.167 10.5 84.5 31.5s37.166 51.833 44.499 92.5l76 440c2 10.667 8 16 18 16h126c12 0 17.333 -6.33301 16 -19zM563.003 786h-284c-5.33301 0 -9.5 1.83301 -12.5 5.5s-3.83301 8.16699 -2.5 13.5l14 74c2 10.667 8 16 18 16h284
c12 0 17 -6.33301 15 -19l-14 -74c-1.33301 -10.667 -7.33301 -16 -18 -16z" />
    <glyph glyph-name="umacron" unicode="&#x16b;" horiz-adv-x="541" 
d="M400 520h117.001c12 0 17 -6 15 -18l-81 -457c-2 -8.66699 -7 -14.667 -15 -18c-64.667 -26 -131.667 -39 -201 -39c-73.333 0 -126.833 21.5 -160.5 64.5s-44.167 100.167 -31.5 171.5l50 281c2 10 8 15 18 15h116c12 0 17 -6 15 -18l-50 -293
c-10.667 -60.667 9.66602 -91 60.999 -91c24 0 44.667 3.66699 62 11l67 376c1.33301 10 7.33301 15 18 15zM184.001 611l13 69c1.33301 10.667 7.33301 16 18 16h263c12 0 17 -6.33301 15 -19l-13 -69c-2 -10.667 -8 -16 -18 -16h-262c-12.667 0 -18 6.33301 -16 19z" />
    <glyph glyph-name="Uring" unicode="&#x16e;" horiz-adv-x="665" 
d="M597 247c-14 -82.667 -47.1641 -146.5 -99.4971 -191.5s-122.5 -67.5 -210.5 -67.5c-82 0 -142.833 26.333 -182.5 79s-51.834 125 -36.501 217l74 415c2 10.667 8 16 18 16h126c12.667 0 18 -6.33301 16 -19l-77 -430c-7.33301 -42.667 -3.33301 -75.167 12 -97.5
s39.666 -33.5 72.999 -33.5c34 0 62.167 10.5 84.5 31.5s37.166 51.833 44.499 92.5l76 440c2 10.667 8 16 18 16h126c12 0 17.333 -6.33301 16 -19zM572.003 860c-7.33301 -34 -24.666 -60.333 -51.999 -79s-62.666 -28 -105.999 -28c-36.667 0 -66.334 11.5 -89.001 34.5
s-30.667 50.5 -24 82.5c7.33301 34 24.833 60.333 52.5 79s63.5 28 107.5 28c36 0 65.167 -11.5 87.5 -34.5s30.166 -50.5 23.499 -82.5zM389.003 865c-5.33301 -26.667 8.00098 -40.001 40.001 -40.001c31.333 0 49.666 13.333 54.999 40
c2.66699 12.667 0.5 22.334 -6.5 29.001s-17.833 10 -32.5 10c-32 0 -50.667 -13 -56 -39z" />
    <glyph glyph-name="uring" unicode="&#x16f;" horiz-adv-x="541" 
d="M400 520h117.001c12 0 17 -6 15 -18l-81 -457c-2 -8.66699 -7 -14.667 -15 -18c-64.667 -26 -131.667 -39 -201 -39c-73.333 0 -126.833 21.5 -160.5 64.5s-44.167 100.167 -31.5 171.5l50 281c2 10 8 15 18 15h116c12 0 17 -6 15 -18l-50 -293
c-10.667 -60.667 9.66602 -91 60.999 -91c24 0 44.667 3.66699 62 11l67 376c1.33301 10 7.33301 15 18 15zM463.001 670c-7.33301 -32.667 -24.002 -58.5 -50.002 -77.5s-58.333 -28.5 -97 -28.5c-33.333 0 -60.5 10.667 -81.5 32s-28.5 46 -22.5 74
c6 33.333 22.167 59.5 48.5 78.5s59.5 28.5 99.5 28.5c32.667 0 59.334 -10.667 80.001 -32s28.334 -46.333 23.001 -75zM291.999 670c-2.66699 -12 -0.499023 -21.833 6.50098 -29.5s17.167 -11.5 30.5 -11.5c29.333 0 47 13.667 53 41s-6.33301 41 -37 41
c-13.333 0 -24.833 -3.66699 -34.5 -11s-15.834 -17.333 -18.501 -30z" />
    <glyph glyph-name="Uhungarumlaut" unicode="&#x170;" horiz-adv-x="665" 
d="M597 247c-14 -82.667 -47.1641 -146.5 -99.4971 -191.5s-122.5 -67.5 -210.5 -67.5c-82 0 -142.833 26.333 -182.5 79s-51.834 125 -36.501 217l74 415c2 10.667 8 16 18 16h126c12.667 0 18 -6.33301 16 -19l-77 -430c-7.33301 -42.667 -3.33301 -75.167 12 -97.5
s39.666 -33.5 72.999 -33.5c34 0 62.167 10.5 84.5 31.5s37.166 51.833 44.499 92.5l76 440c2 10.667 8 16 18 16h126c12 0 17.333 -6.33301 16 -19zM337.003 773h-82c-7.33301 0 -12 2 -14 6s-0.666992 9 4 15l113 132c4.66699 6.66699 11.667 10 21 10h107
c7.33301 0 12 -2.33301 14 -7s0.333008 -9.66699 -5 -15l-137 -132c-6 -6 -13 -9 -21 -9zM556.003 773h-85c-7.33301 0 -12 2.16699 -14 6.5s-0.666992 9.5 4 15.5l123 131c6 6.66699 13.333 10 22 10h110c8 0 12.833 -2.33301 14.5 -7s-0.5 -9.66699 -6.5 -15l-146 -133
c-6 -5.33301 -13.333 -8 -22 -8z" />
    <glyph glyph-name="uhungarumlaut" unicode="&#x171;" horiz-adv-x="541" 
d="M400 520h117.001c12 0 17 -6 15 -18l-81 -457c-2 -8.66699 -7 -14.667 -15 -18c-64.667 -26 -131.667 -39 -201 -39c-73.333 0 -126.833 21.5 -160.5 64.5s-44.167 100.167 -31.5 171.5l50 281c2 10 8 15 18 15h116c12 0 17 -6 15 -18l-50 -293
c-10.667 -60.667 9.66602 -91 60.999 -91c24 0 44.667 3.66699 62 11l67 376c1.33301 10 7.33301 15 18 15zM250.001 575h-56c-7.33301 0 -12 2 -14 6s-1 9 3 15l88 131c5.33301 7.33301 12.333 11 21 11h78c7.33301 0 12 -2.16699 14 -6.5s0.666992 -9.5 -4 -15.5
l-109 -131c-4.66699 -6.66699 -11.667 -10 -21 -10zM426.001 575l-55.001 0.000976562c-6.66699 0 -11.167 2.16699 -13.5 6.5s-1.5 9.16602 2.5 14.499l92 131c6 7.33301 13 11 21 11h78c7.33301 0 12 -2.16699 14 -6.5s0.666992 -9.5 -4 -15.5l-113 -132
c-5.33301 -6 -12.666 -9 -21.999 -9z" />
    <glyph glyph-name="Uogonek" unicode="&#x172;" horiz-adv-x="663" 
d="M428 -177c-32.667 -18 -66.666 -27.002 -101.999 -27.002c-34.667 0 -60.667 8.83301 -78 26.5s-23.333 41.834 -18 72.501c6 35.333 29.667 66.333 71 93h-16c-82.667 0 -143.5 25.667 -182.5 77s-50.5 123.333 -34.5 216l74 418c1.33301 10.667 7.33301 16 18 16h125
c12.667 0 18 -6.33301 16 -19l-76 -430c-8 -42 -4.33301 -74 11 -96s39.666 -33 72.999 -33c34 0 62.333 10.333 85 31s37.334 51 44.001 91l76 440c2 10.667 8 16 18 16h125c12.667 0 18 -6.33301 16 -19l-78 -451c-19.333 -110 -73 -186.333 -161 -229
c-24 -11.333 -44.333 -24.666 -61 -39.999s-26 -29.333 -28 -42c-1.33301 -10 0.666992 -17.167 6 -21.5s13.666 -6.5 24.999 -6.5c9.33301 0 22 2 38 6c12 4 18.667 0 20 -12l6 -56c0.666992 -10 -3.33301 -17 -12 -21z" />
    <glyph glyph-name="uogonek" unicode="&#x173;" horiz-adv-x="535" 
d="M384 -177c-33.333 -16.667 -67.333 -24.998 -102 -24.998c-34 0 -59.667 8.66699 -77 26s-23.666 41 -18.999 71c6 36.667 34 69 84 97v1c-14.667 -3.33301 -27.334 -5 -38.001 -5c-71.333 0 -124 21.167 -158 63.5s-44.333 100.166 -31 173.499l49 280c2 10 8 15 18 15
h115c12.667 0 18 -6 16 -18l-51 -292c-10.667 -60 9 -90 59 -90c23.333 0 43.666 3.66699 60.999 11l67 374c2 10 8 15 18 15h116c12 0 17 -6 15 -18l-82 -456c-2 -9.33301 -7.33301 -15.333 -16 -18c-32.667 -12 -61.167 -26.333 -85.5 -43
s-38.166 -33.334 -41.499 -50.001c-2 -10 -0.166992 -17.333 5.5 -22s14.167 -7 25.5 -7c9.33301 0 22 2 38 6c12.667 4 19.667 0 21 -12l5 -56c0.666992 -10 -3.33301 -17 -12 -21z" />
    <glyph glyph-name="Wcircumflex" unicode="&#x174;" horiz-adv-x="948" 
d="M305 0h-145.002c-11.333 -0 -17.333 5.33301 -18 16l-60 681c-1.33301 12 4.33398 18 17.001 18h128c12 0 18 -5.66699 18 -17l10 -226c2.66699 -66 3.33398 -163.667 2.00098 -293h5c30.667 100.667 65.667 200.667 105 300l86 212c4 9.33301 10.667 14 20 14h141
c11.333 0 17.333 -5.33301 18 -16l17 -221c5.33301 -88 8 -184.333 8 -289h6c36 120 70.333 223 103 309l83 213c4 9.33301 10.667 14 20 14h134c14.667 0 19.334 -6.66699 14.001 -20l-298 -682c-4.66699 -8.66699 -11.667 -13 -21 -13h-145
c-10.667 -0 -16.334 5.33301 -17.001 16l-13 197c-2.66699 44 -5 139.667 -7 287h-6c-18 -73.333 -45.333 -154.333 -82 -243l-103 -243c-4 -9.33301 -10.667 -14 -20 -14zM490.998 763h-98c-7.33301 0 -12 2.33301 -14 7s-0.333008 9.66699 5 15l134 132c6 6 13 9 21 9h93
c9.33301 0 16.333 -3.66699 21 -11l85 -131c3.33301 -6 4 -11 2 -15s-6.33301 -6 -13 -6h-100c-9.33301 0 -16.333 4 -21 12l-35 64l-59 -66c-6.66699 -6.66699 -13.667 -10 -21 -10z" />
    <glyph glyph-name="wcircumflex" unicode="&#x175;" horiz-adv-x="742" 
d="M241 0l-127 -0.000976562c-11.333 0 -17.333 5.33301 -18 16l-44 486c-1.33301 12 4.33398 18 17.001 18h115c12 0 18 -5.66699 18 -17l4 -164c1.33301 -58.667 2 -114.667 2 -168h4c20 63.333 39.333 119 58 167l64 162c4 8.66699 10.667 13 20 13h119
c11.333 0 17 -5.33301 17 -16l8 -160c2.66699 -71.333 3.66699 -126.666 3 -165.999h4c6 19.333 26 76 60 170l61 166c4 8.66699 10.667 13 20 13h115c15.333 0 19.666 -6.33301 12.999 -19l-214 -488c-4 -8.66699 -11 -13 -21 -13h-125c-10.667 0 -16.667 5.66699 -18 17
l-7 166c0 9.33301 -0.333008 32.833 -1 70.5s-1.33398 63.167 -2.00098 76.5h-3c-14.667 -48 -32 -97 -52 -147l-71 -169c-3.33301 -9.33301 -9.66602 -14 -18.999 -14zM510 725.999l83.001 -129.999c3.33301 -6 3.83301 -11 1.5 -15s-6.83301 -6 -13.5 -6h-85
c-10.667 0 -17.667 4 -21 12l-37 65l-63 -68c-6 -6 -13.333 -9 -22 -9h-90c-8 0 -12.833 2.16699 -14.5 6.5s0.166016 9.16602 5.49902 14.499l133 133c6 6 13 9 21 9h81c9.33301 0 16.333 -4 21 -12z" />
    <glyph glyph-name="Ycircumflex" unicode="&#x176;" horiz-adv-x="582" 
d="M308 0h-125.001c-12.667 -0 -18 6.33301 -16 19l44 238l-133 439c-2 5.33301 -1.66699 9.83301 1 13.5s7 5.5 13 5.5h130c10 0 16 -5 18 -15l73 -295h2l170 298c4.66699 8 11.334 12 20.001 12h138c6.66699 0 11 -2 13 -6s1.33301 -9 -2 -15l-283 -440l-45 -238
c-2 -10.667 -8 -16 -18 -16zM304.999 773h-98c-7.33301 0 -12 2.33301 -14 7s-0.333008 9.66699 5 15l134 132c6 6 13 9 21 9h93c9.33301 0 16.333 -3.66699 21 -11l85 -131c3.33301 -6 4 -11 2 -15s-6.33301 -6 -13 -6h-100c-9.33301 0 -16.333 4 -21 12l-35 64l-59 -66
c-6.66699 -6.66699 -13.667 -10 -21 -10z" />
    <glyph glyph-name="ycircumflex" unicode="&#x177;" horiz-adv-x="539" 
d="M316 159l61.002 346c2 10 8.33301 15 19 15h115c12 0 17.333 -6 16 -18l-80 -453c-16 -90 -44.833 -154.333 -86.5 -193s-103.167 -58 -184.5 -58c-75.333 0 -135.333 19.333 -180 58c-8.66699 6.66699 -9.33398 14.667 -2.00098 24l62 79c6 8.66699 14.333 10 25 4
c30 -21.333 65.667 -32 107 -32c32 0 56.5 7.66699 73.5 23s28.167 40.333 33.5 75c-30 -10 -58.333 -15 -85 -15c-61.333 0 -107.333 20.833 -138 62.5s-40.334 96.167 -29.001 163.5l48 265c0.666992 10 6.66699 15 18 15h115c12.667 0 18 -6 16 -18l-50 -276
c-10.667 -56 9 -84 59 -84c26 0 48.333 5.66699 67 17zM414.002 729l83.001 -130.001c3.33301 -6 3.83301 -11 1.5 -15s-6.83301 -6 -13.5 -6h-85c-10.667 0 -17.667 4 -21 12l-37 65l-63 -68c-6 -6 -13.333 -9 -22 -9h-90c-8 0 -12.833 2.33301 -14.5 7
s0.166016 9.33398 5.49902 14.001l133 133c6 6 13 9 21 9h81c9.33301 0 16.333 -4 21 -12z" />
    <glyph glyph-name="Ydieresis" unicode="&#x178;" horiz-adv-x="582" 
d="M308 0h-125.001c-12.667 -0 -18 6.33301 -16 19l44 238l-133 439c-2 5.33301 -1.66699 9.83301 1 13.5s7 5.5 13 5.5h130c10 0 16 -5 18 -15l73 -295h2l170 298c4.66699 8 11.334 12 20.001 12h138c6.66699 0 11 -2 13 -6s1.33301 -9 -2 -15l-283 -440l-45 -238
c-2 -10.667 -8 -16 -18 -16zM354.999 848c-4 -22 -13.668 -39.667 -29.001 -53s-33.666 -20 -54.999 -20c-22 0 -38.5 7.33301 -49.5 22s-14.833 32.334 -11.5 53.001c3.33301 21.333 12.833 38.833 28.5 52.5s34.167 20.5 55.5 20.5c22 0 38.5 -7.33301 49.5 -22
s14.833 -32.334 11.5 -53.001zM566.998 848c-3.33301 -22 -12.666 -39.6689 -27.999 -53.002s-34 -20 -56 -20c-22.667 0 -39.5 7.33301 -50.5 22s-14.5 32.334 -10.5 53.001c3.33301 22 12.666 39.667 27.999 53s34 20 56 20s38.5 -7.16699 49.5 -21.5
s14.833 -32.166 11.5 -53.499z" />
    <glyph glyph-name="Zacute" unicode="&#x179;" horiz-adv-x="593" 
d="M497 0h-490.999c-12.667 -0 -18 6.33301 -16 19l16 85c1.33301 6 4.66602 12.667 9.99902 20l377 448h-268c-12 0 -17 6.33301 -15 19l19 108c2 10.667 8 16 18 16h464c12.667 0 18 -6.33301 16 -19l-16 -82c-2 -8 -5 -15 -9 -21l-371 -450h289c12 0 17 -6.33301 15 -19
l-19 -108c-2 -10.667 -8.33301 -16 -19 -16zM406.001 773h-84.999c-7.33301 0 -12 2.16699 -14 6.5s-0.666992 9.5 4 15.5l115 131c6 6.66699 13 10 21 10h112c7.33301 0 12 -2.33301 14 -7s0.333008 -9.66699 -5 -15l-142 -133c-6.66699 -5.33301 -13.334 -8 -20.001 -8z
" />
    <glyph glyph-name="zacute" unicode="&#x17a;" horiz-adv-x="480" 
d="M388 0h-385c-12.667 -0 -18 6.33301 -16 19l12 65c2 7.33301 5.33301 14 10 20l253 288h-177c-12 0 -17 6 -15 18l18 95c1.33301 10 7.33301 15 18 15h365c12 0 17 -6 15 -18l-10 -61c-2 -7.33301 -5.33301 -14 -10 -20l-253 -291h196c12 0 17 -6.33301 15 -19l-18 -95
c-1.33301 -10.667 -7.33301 -16 -18 -16zM316 575l-78 0.000976562c-7.33301 0 -12 2.16699 -14 6.5s-0.666992 9.16602 4 14.499l107 132c6 6.66699 13.333 10 22 10h104c7.33301 0 12 -2.33301 14 -7s0.333008 -9.66699 -5 -15l-133 -132c-5.33301 -6 -12.333 -9 -21 -9z
" />
    <glyph glyph-name="Zdotaccent" unicode="&#x17b;" horiz-adv-x="593" 
d="M497 0h-490.999c-12.667 -0 -18 6.33301 -16 19l16 85c1.33301 6 4.66602 12.667 9.99902 20l377 448h-268c-12 0 -17 6.33301 -15 19l19 108c2 10.667 8 16 18 16h464c12.667 0 18 -6.33301 16 -19l-16 -82c-2 -8 -5 -15 -9 -21l-371 -450h289c12 0 17 -6.33301 15 -19
l-19 -108c-2 -10.667 -8.33301 -16 -19 -16zM481.001 847c-4 -22 -14.332 -40.001 -30.999 -54.001s-38.334 -21 -65.001 -21c-25.333 0 -44.666 8.5 -57.999 25.5s-18 37.167 -14 60.5c3.33301 22.667 13.666 41.334 30.999 56.001s38 22 62 22c26.667 0 47 -8.5 61 -25.5
s18.667 -38.167 14 -63.5z" />
    <glyph glyph-name="zdotaccent" unicode="&#x17c;" horiz-adv-x="480" 
d="M388 0h-385c-12.667 -0 -18 6.33301 -16 19l12 65c2 7.33301 5.33301 14 10 20l253 288h-177c-12 0 -17 6 -15 18l18 95c1.33301 10 7.33301 15 18 15h365c12 0 17 -6 15 -18l-10 -61c-2 -7.33301 -5.33301 -14 -10 -20l-253 -291h196c12 0 17 -6.33301 15 -19l-18 -95
c-1.33301 -10.667 -7.33301 -16 -18 -16zM389 654c-4 -22 -13.833 -39.999 -29.5 -53.999s-35.167 -21 -58.5 -21s-41.333 8 -54 24s-16.667 35.667 -12 59c4 21.333 14.167 38.666 30.5 51.999s35.5 20 57.5 20c23.333 0 41.333 -7.5 54 -22.5s16.667 -34.167 12 -57.5z
" />
    <glyph glyph-name="Zcaron" unicode="&#x17d;" horiz-adv-x="593" 
d="M497 0h-490.999c-12.667 -0 -18 6.33301 -16 19l16 85c1.33301 6 4.66602 12.667 9.99902 20l377 448h-268c-12 0 -17 6.33301 -15 19l19 108c2 10.667 8 16 18 16h464c12.667 0 18 -6.33301 16 -19l-16 -82c-2 -8 -5 -15 -9 -21l-371 -450h289c12 0 17 -6.33301 15 -19
l-19 -108c-2 -10.667 -8.33301 -16 -19 -16zM476.001 936h98c7.33301 0 12 -2.33301 14 -7s0.333008 -9.66699 -5 -15l-134 -132c-6 -6 -13 -9 -21 -9h-93c-9.33301 0 -16.333 3.66699 -21 11l-85 131c-3.33301 6 -4 11 -2 15s6.33301 6 13 6h100
c9.33301 0 16.333 -4 21 -12l35 -64l59 66c6.66699 6.66699 13.667 10 21 10z" />
    <glyph glyph-name="zcaron" unicode="&#x17e;" horiz-adv-x="480" 
d="M388 0h-385c-12.667 -0 -18 6.33301 -16 19l12 65c2 7.33301 5.33301 14 10 20l253 288h-177c-12 0 -17 6 -15 18l18 95c1.33301 10 7.33301 15 18 15h365c12 0 17 -6 15 -18l-10 -61c-2 -7.33301 -5.33301 -14 -10 -20l-253 -291h196c12 0 17 -6.33301 15 -19l-18 -95
c-1.33301 -10.667 -7.33301 -16 -18 -16zM244 586l-83.001 129.999c-3.33301 6 -3.83301 11 -1.5 15s6.83301 6 13.5 6h85c10.667 0 17.667 -4 21 -12l37 -65l63 68c6 6 13.333 9 22 9h90c8 0 12.833 -2.16699 14.5 -6.5s-0.166016 -9.16602 -5.49902 -14.499l-133 -133
c-6 -6 -13 -9 -21 -9h-81c-9.33301 0 -16.333 4 -21 12z" />
    <glyph glyph-name="florin" unicode="&#x192;" horiz-adv-x="453" 
d="M208 35c-36.667 -108.667 -102.334 -163 -197.001 -163c-23.333 0 -44 3.66699 -62 11c-10.667 4 -14 11.333 -10 22l38 90c4 10 10.333 14 19 12c5.33301 -0.666992 12 -1 20 -1c14.667 0 26.5 4 35.5 12s16.833 22.333 23.5 43l76 224h-65
c-13.333 0 -18.333 6.66699 -15 20l22 101c2 10.667 8 16 18 16h86l50 156c34 100 95.667 150 185 150c26 0 51 -3 75 -9c12 -3.33301 16 -10.666 12 -21.999l-30 -84c-3.33301 -10.667 -10.333 -14.334 -21 -11.001c-8 2 -16 3 -24 3
c-35.333 0 -59.666 -19.667 -72.999 -59l-38 -124h78c12 0 17 -6.66699 15 -20l-22 -101c-2 -10.667 -8 -16 -18 -16h-98z" />
    <glyph glyph-name="uni0218" unicode="&#x218;" horiz-adv-x="600" 
d="M557 186c-27.333 -132.667 -125.331 -199.002 -293.998 -199.002c-92 0 -174.667 32.333 -248 97c-8.66699 7.33301 -9.33398 15.666 -2.00098 24.999l72 89c6.66699 8.66699 15 9.33398 25 2.00098c56 -44 112.667 -66 170 -66c30.667 0 56.834 6 78.501 18
s34.5 29.333 38.5 52s-3.66699 40.5 -23 53.5s-50.666 25.5 -93.999 37.5c-140 40.667 -200 120.334 -180 239.001c11.333 66.667 41.166 115.667 89.499 147s108.5 47 180.5 47c87.333 0 165.333 -25.333 234 -76c9.33301 -6.66699 10.333 -14.667 3 -24l-70 -90
c-7.33301 -8 -15.333 -9 -24 -3c-50.667 32.667 -104.334 49 -161.001 49c-26.667 0 -48.334 -5.83301 -65.001 -17.5s-27 -27.834 -31 -48.501c-4 -22 2 -38.667 18 -50s42.667 -22.666 80 -33.999c30.667 -9.33301 56.167 -18.666 76.5 -27.999s43.5 -23.333 69.5 -42
s44 -43 54 -73s11 -65 3 -105zM214.002 -247.002h-77.999c-14.667 0 -19.667 5.66699 -15 17l73 154c2.66699 8 10 12 22 12h103c7.33301 0 12.333 -1.66699 15 -5s2 -7.33301 -2 -12l-95 -155c-4.66699 -7.33301 -12.334 -11 -23.001 -11z" />
    <glyph glyph-name="uni0219" unicode="&#x219;" horiz-adv-x="482" 
d="M437 142c-10 -51.333 -35.334 -90.001 -76.001 -116.001s-93.334 -39 -158.001 -39c-80.667 0 -148.334 22.333 -203.001 67c-8.66699 6.66699 -9.66699 14.667 -3 24l57 78c6.66699 8.66699 14.667 10 24 4c38.667 -28.667 82 -43 130 -43c46 0 71.667 12.667 77 38
c2 10 -0.333008 18.167 -7 24.5s-14.167 10.833 -22.5 13.5s-21.166 6 -38.499 10c-53.333 10.667 -95 31.834 -125 63.501s-39.667 72.834 -29 123.501c20 96 95.333 144 226 144c64 0 122.667 -15.333 176 -46c10 -6 11.333 -14 4 -24l-59 -79
c-5.33301 -8.66699 -13.333 -10.334 -24 -5.00098c-31.333 18 -68.333 27 -111 27c-39.333 0 -60.666 -11 -63.999 -33c-2.66699 -14 1.83301 -24.167 13.5 -30.5s31.834 -12.833 60.501 -19.5c48 -10.667 87.667 -30.5 119 -59.5s42.333 -69.833 33 -122.5z
M152.999 -241.001l-71 -0.000976562c-15.333 0 -20.333 5.66699 -15 17l71 149c5.33301 8.66699 12.666 13 21.999 13h92c7.33301 0 12.333 -1.66699 15 -5s2.33398 -7.66602 -0.999023 -12.999l-91 -150c-4.66699 -7.33301 -12 -11 -22 -11z" />
    <glyph glyph-name="uni021A" unicode="&#x21a;" horiz-adv-x="562" 
d="M108 715h502c12.667 0 18 -6.33301 16 -19l-20 -110c-1.33301 -10.667 -7.33301 -16 -18 -16h-173l-98 -554c-2 -10.667 -8 -16 -18 -16h-125c-12 -0 -17 6.33301 -15 19l98 551h-171c-12 0 -17.333 6.33301 -16 19l20 110c2 10.667 8 16 18 16zM178 -244
l-81 0.000976562c-6.66699 0 -11.5 1.66699 -14.5 5s-3.5 7.66602 -1.5 12.999l76 157c2.66699 8 10 12 22 12h108c7.33301 0 12.5 -1.5 15.5 -4.5s2.5 -7.16699 -1.5 -12.5l-99 -158c-6 -8 -14 -12 -24 -12z" />
    <glyph glyph-name="uni021B" unicode="&#x21b;" horiz-adv-x="328" 
d="M303 381l-82.002 0.000976562l-34 -193c-8 -46 8.33301 -69 49 -69h27c6 0.666992 10.5 -0.5 13.5 -3.5s3.83301 -7.5 2.5 -13.5l-16 -93c-2 -10.667 -7.66699 -16.334 -17 -17.001c-16.667 -3.33301 -33.667 -5 -51 -5c-58 0 -101.667 18 -131 54
s-37.666 89 -24.999 159l75 429c2 10.667 8.33301 16 19 16h98c12.667 0 18.334 -6 17.001 -18l-6 -119h80c12.667 0 18 -6.33301 16 -19l-16 -92c-2 -10.667 -8.33301 -16 -19 -16zM86.998 -239.999l-71.002 -0.000976562c-14.667 0 -20 5.66699 -16 17l72 149
c4.66699 8 12 12 22 12h93c7.33301 0 12.333 -1.66699 15 -5s2.33398 -7.66602 -0.999023 -12.999l-92 -149c-5.33301 -7.33301 -12.666 -11 -21.999 -11z" />
    <glyph glyph-name="uni0237" unicode="&#x237;" horiz-adv-x="266" 
d="M167 -1c-13.333 -74 -38.333 -126 -75 -156s-82.667 -45 -138 -45c-14 0 -29.667 1.33301 -47 4c-10.667 2 -15 9 -13 21l18 102c2 11.333 7.66699 16.333 17 15c5.33301 -0.666992 13.666 -1 24.999 -1c34.667 0 56.334 26 65.001 78l85 488c2 10 8.33301 15 19 15h116
c12 0 17 -6 15 -18z" />
    <glyph glyph-name="circumflex" unicode="&#x2c6;" horiz-adv-x="348" 
d="M323 746l83.001 -129.999c6.66699 -14 2.66699 -21 -12 -21h-85c-10.667 0 -17.667 4 -21 12l-37 65l-63 -68c-6 -6 -13.333 -9 -22 -9h-90c-8 0 -12.833 2.16699 -14.5 6.5s0.166016 9.16602 5.49902 14.499l133 133c6 6 13 9 21 9h81c9.33301 0 16.333 -4 21 -12z" />
    <glyph glyph-name="caron" unicode="&#x2c7;" horiz-adv-x="347" 
d="M171 606l-83.001 129.999c-6.66699 14 -2.66699 21 12 21h85c10.667 0 17.667 -4 21 -12l37 -65l63 68c6 6 13.333 9 22 9h90c8 0 12.833 -2.16699 14.5 -6.5s-0.166016 -9.16602 -5.49902 -14.499l-133 -133c-6 -6 -13 -9 -21 -9h-81c-9.33301 0 -16.333 4 -21 12z" />
    <glyph glyph-name="breve" unicode="&#x2d8;" horiz-adv-x="325" 
d="M408 727c-13.333 -46 -34.667 -80.001 -64 -102.001s-70.333 -33 -123 -33c-41.333 0 -74.833 13.333 -100.5 40s-37.834 58.334 -36.501 95.001c0 10 5.33301 16.333 16 19l72 12c10 2 16 -3.33301 18 -16c2.66699 -30.667 19.334 -46 50.001 -46c32 0 54 16.333 66 49
c3.33301 10 10.333 14.333 21 13l68 -12c12 -2 16.333 -8.33301 13 -19z" />
    <glyph glyph-name="dotaccent" unicode="&#x2d9;" horiz-adv-x="155" 
d="M228 674c-4 -22 -13.833 -39.999 -29.5 -53.999s-35.167 -21 -58.5 -21s-41.333 8 -54 24s-16.667 35.667 -12 59c4 21.333 14.167 38.666 30.5 51.999s35.5 20 57.5 20c23.333 0 41.333 -7.5 54 -22.5s16.667 -34.167 12 -57.5z" />
    <glyph glyph-name="ring" unicode="&#x2da;" horiz-adv-x="229" 
d="M323 706c-7.33301 -38 -23.833 -67.833 -49.5 -89.5s-57.5 -32.5 -95.5 -32.5c-32.667 0 -59.5 12.333 -80.5 37s-28.5 53 -22.5 85c6 38 22 67.833 48 89.5s59 32.5 99 32.5c32 0 58.167 -12.167 78.5 -36.5s27.833 -52.833 22.5 -85.5zM154 706
c-2.66699 -14 -0.499023 -25.333 6.50098 -34s17.167 -13 30.5 -13c14 0 25.5 4.33301 34.5 13s14.833 20 17.5 34c6 31.333 -6 47 -36 47c-13.333 0 -24.833 -4.16699 -34.5 -12.5s-15.834 -19.833 -18.501 -34.5z" />
    <glyph glyph-name="ogonek" unicode="&#x2db;" horiz-adv-x="290" 
d="M167 -178c-36 -17.333 -71.334 -26 -106.001 -26c-36 0 -62.167 9.33301 -78.5 28s-21.833 42.667 -16.5 72c4 18.667 13.5 37 28.5 55s34.167 32.667 57.5 44c6.66699 3.33301 14 5 22 5h50c8 0 12.333 -1.5 13 -4.5s-2.66602 -6.83301 -9.99902 -11.5
c-26.667 -16 -41.667 -33.333 -45 -52c-1.33301 -8.66699 1 -15.167 7 -19.5s15 -6.5 27 -6.5s24.667 2 38 6s20.333 -0.333008 21 -13l3 -56c0.666992 -10 -3 -17 -11 -21z" />
    <glyph glyph-name="tilde" unicode="&#x2dc;" horiz-adv-x="368" 
d="M438 678c-32 -56 -69.3311 -83.998 -111.998 -83.998c-20 0 -45.333 7.66699 -76 23c-25.333 10.667 -43 16 -53 16c-15.333 0 -29.333 -7.33301 -42 -22c-8.66699 -8.66699 -16.667 -10.334 -24 -5.00098l-47 31c-10 6.66699 -12.333 14.667 -7 24
c34 55.333 73.333 83 118 83c19.333 0 43.666 -7.33301 72.999 -22c24 -11.333 41.333 -17 52 -17c12.667 0 25.667 7.33301 39 22c7.33301 9.33301 15.666 10.666 24.999 3.99902l47 -32c10 -5.33301 12.333 -12.333 7 -21z" />
    <glyph glyph-name="hungarumlaut" unicode="&#x2dd;" horiz-adv-x="362" 
d="M131 595h-56c-7.33301 0 -12 2 -14 6s-1 9 3 15l88 131c5.33301 7.33301 12.333 11 21 11h78c7.33301 0 12 -2.16699 14 -6.5s0.666992 -9.5 -4 -15.5l-109 -131c-4.66699 -6.66699 -11.667 -10 -21 -10zM307 595l-55.001 0.000976562
c-6.66699 0 -11.167 2.16699 -13.5 6.5s-1.5 9.16602 2.5 14.499l92 131c6 7.33301 13 11 21 11h78c7.33301 0 12 -2.16699 14 -6.5s0.666992 -9.5 -4 -15.5l-113 -132c-5.33301 -6 -12.666 -9 -21.999 -9z" />
    <glyph glyph-name="gravecomb" unicode="&#x300;" horiz-adv-x="244" 
d="M225 745l62.998 -129.999c2.66699 -6 2.83398 -10.833 0.500977 -14.5s-6.5 -5.5 -12.5 -5.5h-69c-9.33301 0 -16.333 3.66699 -21 11l-85 131c-4 5.33301 -4.83301 10.166 -2.5 14.499s6.83301 6.5 13.5 6.5h93c8.66699 0 15.334 -4.33301 20.001 -13z" />
    <glyph glyph-name="acutecomb" unicode="&#x301;" horiz-adv-x="252" 
d="M166 595l-78 0.000976562c-7.33301 0 -12 2.16699 -14 6.5s-0.666992 9.16602 4 14.499l107 132c6 6.66699 13.333 10 22 10h104c7.33301 0 12 -2.33301 14 -7s0.333008 -9.66699 -5 -15l-133 -132c-5.33301 -6 -12.333 -9 -21 -9z" />
    <glyph glyph-name="uni0302" unicode="&#x302;" horiz-adv-x="374" 
d="M340 746l83.001 -129.999c3.33301 -6 3.83301 -11 1.5 -15s-6.83301 -6 -13.5 -6h-85c-10.667 0 -17.667 4 -21 12l-37 65l-63 -68c-6 -6 -13.333 -9 -22 -9h-90c-8 0 -12.833 2.16699 -14.5 6.5s0.166016 9.16602 5.49902 14.499l133 133c6 6 13 9 21 9h81
c9.33301 0 16.333 -4 21 -12z" />
    </font>
</defs>
</svg>
